/* XPM */
static char *caco_fire1[] = {
/* columns rows colors chars-per-pixel */
"18 18 27 1 ",
"  c magenta",
". c #9F009B",
"X c #B30000",
"o c #7F0000",
"O c #670000",
"+ c #CB0000",
"@ c #FF3F3F",
"# c #D70000",
"$ c #FF5F5F",
"% c #FF1F1F",
"& c #8B0000",
"* c #F37317",
"= c red",
"- c #FFB37B",
"; c #FFBBBB",
": c #BF0000",
"> c #430000",
", c #E30000",
"< c #FF8F3B",
"1 c #FFA35B",
"2 c #FFC79B",
"3 c #FFD7BB",
"4 c #FF7B7B",
"5 c yellow",
"6 c #EF0000",
"7 c #EB6F0F",
"8 c white",
/* pixels */
"                  ",
"         .        ",
"     .. .X.       ",
"    .oO.+@X..     ",
"   ..o#o@$%.&..   ",
"  .oo*#=-@$#;::.  ",
" .>o,=<<1-<;@#&>. ",
"  .X,=<2332;<XXo. ",
" .X#X-435531;-+.  ",
" .XX#<-3553-<++.  ",
" .o:X-<2332<+#.o. ",
"  .o,<<@-<;<=#oO. ",
"  .oo*$<@-<=*6o.  ",
"   .7oo$,++6oo.   ",
"    .o,X,+XXo.    ",
"     ..&..&..     ",
"       .  .       ",
"                  "
};
