/* XPM */
static char *caco_walk1[] = {
/* columns rows colors chars-per-pixel */
"68 71 95 2 ",
"   c magenta",
".  c #939393",
"X  c gray39",
"o  c #5B5B5B",
"O  c gray42",
"+  c #979797",
"@  c #8B8B8B",
"#  c gray31",
"$  c #9F9F9F",
"%  c gray50",
"&  c #6F6F6F",
"*  c #838383",
"=  c #777777",
"-  c gray28",
";  c #CB0000",
":  c #E30000",
">  c #FF1F1F",
",  c #EF0000",
"<  c #D70000",
"1  c #BF0000",
"2  c #434343",
"3  c red",
"4  c #B30000",
"5  c #A70000",
"6  c gray67",
"7  c gray34",
"8  c #FF3F3F",
"9  c #9B0000",
"0  c #B7B7B7",
"q  c gray23",
"w  c #CBCBCB",
"e  c gray78",
"r  c gray70",
"t  c #373737",
"y  c #730000",
"u  c #670000",
"i  c #8B0000",
"p  c #7F0000",
"a  c #A7A7A7",
"s  c #2F2F2F",
"d  c #272727",
"f  c #4F0000",
"g  c #5B0000",
"h  c #A33B3B",
"j  c #831F1F",
"k  c #771717",
"l  c #8B2323",
"z  c #7F1B1B",
"x  c #A73F3F",
"c  c #972F2F",
"v  c #731313",
"b  c #670B0B",
"n  c #9B3333",
"m  c #BB5757",
"M  c #C76363",
"N  c #8F2B2B",
"B  c #5F0707",
"V  c #DB7B7B",
"C  c #732B00",
"Z  c #5B0707",
"A  c #6B0F0F",
"S  c #AF4747",
"D  c #B34F4F",
"F  c #BF5B5B",
"G  c #D37373",
"H  c #CB6B6B",
"J  c #E78F8F",
"K  c #232323",
"L  c #EB9797",
"P  c #DF8787",
"I  c #1B1B1B",
"U  c #F7ABAB",
"Y  c black",
"T  c #00002F",
"R  c #000053",
"E  c #1F170B",
"W  c #470000",
"Q  c #4B371B",
"!  c #131313",
"~  c #430000",
"^  c #00006B",
"/  c #000083",
"(  c #00009B",
")  c #0000B3",
"_  c LightGray",
"`  c #0000E3",
"'  c blue",
"]  c #0000CB",
"[  c #3F2F17",
"{  c #332B13",
"}  c #874307",
"|  c #FF5F5F",
" . c #FF7B7B",
".. c gray86",
"X. c white",
/* pixels */
"                                                                                                                                        ",
"                                                                                                                                        ",
"                                                                                                                                        ",
"                                                                                                                                        ",
"                                                                                          . X                                           ",
"                                                        o                                 . X     O                                     ",
"                o                                     o O                               + @ X     O O                                   ",
"                # $                                   X @                               + % X     O O                                   ",
"                # $                                 & X .                             + . % o     O O &                                 ",
"                # + $                               & X .                             + * = o     = O O                                 ",
"                - . .                               & X .                           + . % O       @ = X                                 ",
"                - * . $                             & X ; ; : > , < 1             + + * = o     % + = o       O                         ",
"                2 = * .                           ; ; : 3 3 , : 1 4 1 1 < < 5 5 @ 6 + = X -     . 6 & 7     @ O                         ",
"                  # = * $                     5 ; < : 3 8 > > 1 4 : > 3 < 4 9 * 0 6 + & # q 5 . . 6 O #   @ & O                         ",
"                  2 X % . $             3 < 9 1 < ; 3 8 > 3 , 4 : > < < 1 9 = w e r @ 7 t y 5 5 u u i @ @ @ 7                           ",
"                  2 # O @ . $     4 < , : : 9 5 ; < > > > : < : < < 1 1 ; = e r r @ X - t i 5 i u u 7 @ + O #                           ",
"                    2 7 & % @ $ p 4 ; < 3 < 9 1 < : 3 > : ; 1 4 1 1 3 : X r r a @ X - # s 9 i y i i @ $ O 7                             ",
"                    2 # 7 & %   4 4 < , : : 9 4 < : 3 , ; 1 4 ; 1 < > 5 * * @ = o - # q y i i i u % 6 O o # p                           ",
"        & *           2 # 7 2 p p 4 ; < 1 4 5 5 ; : : ; 1 5 4 4 1 , 3 9 X 7 # # - # - d y i 9 i % 6 O # # u 4                           ",
"        X O * *       2 2 p p 9 4 5 4 1 4 5 5 4 1 ; ; 1 5 ; < 5 4 : : 1 9 2 2 2 # q s f y 1 p # 0 O 2 X # y i 4 ;                       ",
"          X O * . *     9 4 9 1 9 4 5 5 9 5 5 4 1 ; ; 1 5 ; < i 5 1 : , 1 9 i t t s f y 9 < p # O 2 O # g y y i 5 9                     ",
"            X O . . *   9 9 4 4 4 1 ; 1 5 4 ; 4 4 1 1 5 ; , < 4 i 5 1 : : : ; 1 5 9 9 i 9 < 1 y i = X q g i u y y y y                   ",
"              X O @ O 9 1 9 4 4 1 ; , , < 9 4 ; 4 5 5 ; , < 4 4 i i 1 4 4 1 1 5 9 9 i p 5 1 < 1 y i g g i i g u u u u g                 ",
"                X O p 1 5 : 9 4 : ; , , < 9 4 ; 4 5 5 ; , < 4 4 i i 4 9 9 9 p p p p p y i 5 1 < 4 4 9 9 p y u i 5 i u 5                 ",
"                  h : 5 : ; i 9 : < ; , < 4 9 1 4 9 1 < 1 1 9 < 4 i ; : , : 9 y g g g p 1 1 5 i p 9 5 ; : p p 5 < 5 p 1 4               ",
"                  5 4 9 ; 4 9 i 9 < ; , < 4 9 1 4 9 1 < 1 9 1 < 1 4 8 , : ; 5 p f f g u u p p p i p 9 9 4 9 p i 5 1 p j k k             ",
"                4 5 1 4 4 i l j i 4 < , < 4 9 1 4 9 1 < 1 9 1 < : 3 : ; 4 i p u u z y u u p p p i p 5 1 5 9 p p i 5 p k x x             ",
"                9 1 1 4 i l j c v 9 4 < ; i p 9 5 9 4 ; 9 1 < ; 3 , ; 9 v v u b b z k p y i 5 4 5 p 1 < 1 i p p y p p n m M             ",
"              p i 9 p ; i l c l N i 9 5 , 4 y i 5 i i 4 1 1 ; 3 : ; 4 v B f k k b z z j i p 9 5 4 y < < 4 i y i 5 i k n M V M           ",
"              p y 1 5 i l c h C l c i i 1 , 9 y i i i i 5 ; 3 : 1 9 v B Z A A b b z c l j j p i 9 y i 5 i y i 5 1 5 i l S M m           ",
"            p 5 i 1 , i l x D N C c z b 9 < 9 < i 4 9 , , , : 1 9 v Z A k k A b z c S n N j z z i u p i p u 9 ; : 1 9 l x m x n         ",
"            5 5 i 9 < i l F D m N D c b i 5 9 4 u ; 9 4 ; ; 1 4 A A B A j z b z c S F x N N c l z v u u u u 5 : > < 5 p l l c l         ",
"            ; 9 i i 9 i l S x D m l N z B i 9 p u 9 9 5 5 5 9 v B B B v N b z N S h S c h n N z z u u f f f i ; : ; 9 y g l l 9 p       ",
"            1 5 1 5 i i l S F G x N l N z B B y y i i i i i v B B v v l l z N S m x h c c N N c l z v u f f u 5 < 5 p u u p p u g       ",
"          u 5 i 1 , ; i N S F m H m n N n z B B B B B B B B B B j c j j N n S F F F x N c c l N n l v u f u y y 9 p u p 9 u 4 p u       ",
"          u i k u < 9 A z D S D G G D x N z j B B B B B B B B k j j N n x D G J V M F j k m S z l N j u u p 9 y y y 9 1 5 9 u p p       ",
"          u p y k 9 p g l D n D F G M F x N z z Z Z B j j j N n x S D F H M H V V M D j A H m c k j j g p 9 1 9 k i 1 ; 5 i f p y g     ",
"          u u y c c K X A c z n D D H x h S F F N S n l x m G F M F V L G m G h D D n z A F D N k k k u p 5 ; 1 z 5 4 1 9 p f f u g     ",
"          y u y D D K . C A j N h D S m G P F H N m h S m F D x h S D G P G F D h S N j b D x l b b - I p 9 1 4 u i 9 5 i y f g f f     ",
"          y u y x x K X X N v j h n S S M P M S U N c n l N n S H P G F S m m F h l j v b l l b A - . I u p 5 i u p p y g f g i p u     ",
"          y y 9 c c K 2 . l A k c l h x m G P N L N l l S F F S x G M m S c n c l k j v b b b k j O % I f p 9 p u i 9 i p y f p u g     ",
"          p i 4 j j K Y X $ 7 S A A l N x F G N P x h S M P M P P D x S h z l j j v b b b A c j t o # I I y i p p y i 5 i y f y g y     ",
"          i i 5 p p f T 2 = 7 R l j A j c x h h N m N m S m G M G m x n l A v b b b k l l c q q t 2 d E E g p p p p y i 5 i y f i g     ",
"          i i i p y f T T X # R * # l j j z N N c h c S x h h N h l z k A v b b v l S q q K . = K d Y W W g y 9 i p y i p u f f i u     ",
"            i 4 p y y T T T T R & 7 & Q Q l n l z v v k v b b b A v q - k b v c q q K # = K O # K ! W W 2 % 2 ; ; i p u f f f u g u     ",
"            i 4 9 9 y f T T T R 7 s 7 2 2 O o N c D j j N j j - Q X # # * j K q O 7 K q 2 K # t ~ ~ b b # e # , ; 5 1 9 i f g i f       ",
"            i ; 4 4 9 C f T T R t ^ t # # 7 - K O = O $ t X @ % 2 * 7 2 X X K q # 2 K s t K s K b b k u O . O 8 ; 9 1 4 i u p u f       ",
"              1 : > ; 4 X % f R R ^ / o & ( q ) # $ # & ) 7 % X # @ & 2 7 7 K s 2 t K d K K K b v v v g o O o > ; 9 4 9 p u i g f       ",
"              1 : < ; 4 % _ y f R R / O % 2 ) ` ' 7 2 ' ` 2 X 2 # 6 @ 7 t - R s t K d b K b b v v k 9 p g p 4 > 4 9 9 p u i y f         ",
"              1 1 1 ; 4 & $ i C f f R = @ o ] [ - ' ' o q ] ) 2 O e * X / ^ R { { { v l g % 7 v k 7 - 1 < , 8 : 5 9 9 i i y p f         ",
"              5 9 9 : 4 i & u u y i f % + = Q - X q 2 = o ) ( 2 % r % & / ^ g k k k l y } 0 @ o O $ O 1 < : > ; i p p u i u g f         ",
"              5 i i 1 < 9 i 5 X u u i X & = 9 & . i b @ * ( / # @ $ = X v b v j j j C i X $ = # X 6 = 5 , : : 9 5 i i u u p g           ",
"                N N i 5 < > > 4 @ X p u = X 5 X & i i . a & 9 2 = $ = o 5 5 i 9 5 9 9 - o O O 2 # 1 i 4 > < 1 5 5 4 4 i u u g           ",
"                N N N i 5 1 > : 4 ; u u u 5 9 5 ; < 1 & . X 5 9 X = o p 5 4 9 9 5 4 1 9 2 2 2 v i 4 , > < 1 5 ; 5 4 4 i g u             ",
"                  l x N i 5 ; > 1 1 4 1 ; : , : > > < 1 9 5 ; 5 p u u p 4 ; ; 4 1 ; > 5 9 i i 4 , > < ; 1 9 i 5 9 i i i g p             ",
"                  N N x N i 5 , 8 8 > > > 8 | 8 > , ; > 8 > > ; 1 4 1 < , | 8 < : : > : < , > > < < 1 5 9 5 ; 9 i i 9 u g u             ",
"                    l N x 5 1 , > > 8 8 8 | 8 > > : 1 , 8 8 | | |  .| 8 8 | 8 > > > ; ; ; ; ; ; 5 9 i i 5 : 4 9 4 p u u u               ",
"                      n 9 5 4 1 < , > > > > > , : < 4 : 3 > > 8 8 | |  .| 8 , < ; ; 5 h S D x h N l 9 4 ; 4 4 9 4 u u                   ",
"                        n i 4 1 1 < < : : : < < : < 4 < : , > > > > > > , : : < ; ; 5 h x x h n l 9 ; 4 5 9 i p p 9 g                   ",
"                          n i 1 1 1 ; ; 1 4 5 ; < < 9 < < < ; < < : : : ; 1 4 4 4 i 5 N N N N l 4 4 5 9 9 i y u u p 9                   ",
"                              p i 5 1 4 9 i 9 5 4 4 i 4 5 5 4 1 ; ; ; 1 4 5 i p ; 5 4 5 , < , , ; 4 4 5 i i p 9     u i                 ",
"                                i i y ; 3 4 p 5 : i i 9 5 9 i 9 4 1 4 5 9 i 4 ; : 1 5 1 < i o * o ; 9 9 p p u     ; 9 p                 ",
"                                i 4 4 3 ;   i 9 1 < 4 p i   ; 3 4 i 5 5 i p p 9 5 , 4 1 ; # O a * o i i u y 4 ; 4 4 p                   ",
"                                p i < 1   i y p 9 ; 5 p y i   1 < 1 4 1 i 9 9 9 5 , 4 1 ; 2 X ... # p p 4 u y y p p                     ",
"                                  y 9 p y g   9 i 5 4 p g y 9     < 1 p p i i   p < 1 5 ; q q = $ # p y y                               ",
"                                      g g     4 p u ; 4   g y p 9   9 y i p p y i ; 1 y i z q # = # p u                                 ",
"                                        u 5 9 9     u ;     g g p 9 y 4 i y y p 9 1 9 u u     q # #                                     ",
"                                          u u         u ; 5 u f g y 5   4 i i p 5 9                                                     ",
"                                                        u u u k             u l 9                                                       ",
"                                                                                                                                        ",
"                                                                                                                                        "
};
