/* XPM */
static char *caco_dies5[] = {
/* columns rows colors chars-per-pixel */
"80 80 129 2 ",
"   c magenta",
".  c #6F6F6F",
"X  c gray39",
"o  c #777777",
"O  c #5B5B5B",
"+  c #838383",
"@  c #8B8B8B",
"#  c gray42",
"$  c gray34",
"%  c #979797",
"&  c #9F9F9F",
"*  c gray28",
"=  c gray31",
"-  c gray50",
";  c #939393",
":  c #CB0000",
">  c #E30000",
",  c #D70000",
"<  c red",
"1  c #FF3F3F",
"2  c #9B0000",
"3  c #B30000",
"4  c #BF0000",
"5  c #EF0000",
"6  c #A70000",
"7  c #8B0000",
"8  c #434343",
"9  c #A7A7A7",
"0  c gray86",
"q  c gray75",
"w  c gray67",
"e  c #DFDFDF",
"r  c gray70",
"t  c #FF1F1F",
"y  c #730000",
"u  c #670000",
"i  c #5B0000",
"p  c #7F0000",
"a  c gray23",
"s  c #8B2323",
"d  c #6B0F0F",
"f  c #670B0B",
"g  c #731313",
"h  c #530707",
"j  c #9B633B",
"k  c #EFA373",
"l  c #E79B6B",
"z  c #5F0707",
"x  c #771717",
"c  c #470000",
"v  c #CF8353",
"b  c #B37347",
"n  c #7F1B1B",
"m  c #8F2B2B",
"M  c #831F1F",
"N  c #43331B",
"B  c #4F0000",
"V  c #AB6F43",
"C  c #8F5F37",
"Z  c #774F2B",
"A  c #B34F4F",
"S  c #A73F3F",
"D  c #4F3B23",
"F  c #875733",
"G  c #4B371B",
"H  c #972F2F",
"J  c #5F4323",
"K  c #5B472B",
"L  c #675333",
"P  c #7F532F",
"I  c #13230B",
"U  c #2B230F",
"Y  c #533F1F",
"T  c #6B4727",
"R  c #430000",
"E  c #0B1707",
"W  c #732B00",
"Q  c #5B0707",
"!  c #000053",
"~  c #00006B",
"^  c #9B3333",
"/  c #CB6B6B",
"(  c #00009B",
")  c #AF4747",
"_  c #1F170B",
"`  c #A36B3F",
"'  c #000083",
"]  c #00002F",
"[  c #0000B3",
"{  c #0000CB",
"}  c #3737FF",
"|  c #5353FF",
" . c #0000E3",
".. c #BF5B5B",
"X. c #D37373",
"o. c #A33B3B",
"O. c black",
"+. c #3F2F17",
"@. c #332B13",
"#. c #775F3F",
"$. c blue",
"%. c #F7AB7B",
"&. c #170F07",
"*. c #9F8363",
"=. c #836B4B",
"-. c #1B1BFF",
";. c #FF7B7B",
":. c #D78B5B",
">. c #FF5F5F",
",. c #DF9363",
"<. c #DB7B7B",
"1. c #17330F",
"2. c #BF7B4B",
"3. c #000023",
"4. c #2F6323",
"5. c #000047",
"6. c #27531B",
"7. c #3F832F",
"8. c #4B9F3F",
"9. c #439337",
"0. c #37732B",
"q. c #232323",
"w. c #1F4317",
"e. c #5FCF57",
"r. c #53AF47",
"t. c #6FEF67",
"y. c #00003B",
"u. c #CB7F4F",
"i. c white",
/* pixels */
"                                                                                                                                                                ",
"                                                                                                                                                                ",
"                                                                                                                                                                ",
"                                                                                                                                                                ",
"                                                                                                                                                                ",
"                                                                                                                                                                ",
"                                                                                                                                                                ",
"                                                                                                                                                                ",
"                                                                                                                                                                ",
"                                                                                                                                                                ",
"                                                                                                                                                                ",
"                                                                                                                                                                ",
"                                                                                                                                                                ",
"                                                                                                                                                                ",
"                                                                                                                                                                ",
"                                                                                                                                                                ",
"                                                                                                                                                                ",
"                                                                                                                                                                ",
"                                                                                                                                                                ",
"                                                                                                                                                                ",
"                                                                                                                                                                ",
"                                                                                                                                                                ",
"                                                                                                                                                                ",
"                                                                                                                                                                ",
"                                                                                                                                                                ",
"                                                                                                                                                                ",
"                                                                                                                                                                ",
"                                                                                                                                                                ",
"                                                                                                                                                                ",
"                                            . .                                                                                                                 ",
"                                            X o                                                                                                                 ",
"                                            X o                                                                                                                 ",
"                                            X o                                                                                                                 ",
"                                            O o +                                                                                                               ",
"                                            O . + @           O                                                                                                 ",
"                                            O X + @         O #                                                                                                 ",
"                                            $ X o + @       # o                                                         @ % & +                                 ",
"                                            * = # - @ ; - . o @                                                     - ; @ - % & +                               ",
"                                              * $ # - @ ; ; O - @           : > > , < 1 < : 2 2 :                 ; ; @ - # - o o                               ",
"                                              * = $ # - ; & & - 3 3 4 , 5 3 4 5 < , > < : 6 6 2 2 7 2 3 : > > - & & ; - # $ = * 8                               ",
"                                              * * = O # - & 9 0 q 2 2 > 4 1 4 6 , > 3 4 3 4 3 6 7 7 3 : > 2 q 0 9 & - # O = * *                                 ",
"                                  . &           * * $ X # - w q e q 6 5 4 : , 2 6 : : 3 : : 6 7 2 4 , 5 6 q e q w - # X $ * *                                   ",
"                                  X . &         2 * O # # . o % 9 r 3 < 4 6 2 7 2 : 5 3 5 : 6 7 6 > > < 3 r 9 % o . # # O *                                     ",
"                                    X . & .   4 3 2 * X . # # . + @ 4 > 4 3 : 4 4 2 : > : 2 4 4 7 3 , > 4 @ + . # # . X * 2 3     . & &                         ",
"                                    X X - & - X , 3 2 * $ X . X . o , 4 6 : > t , 3 7 3 7 3 4 : 3 7 4 , , o . X . X $ * 2 3 , X - & ; & .                       ",
"                                      X X - ; + X 5 6 3 : * = $ O 4 3 6 2 3 : , : 2 y u y 2 : , 6 7 7 3 4 i O $ = * i p 6 4 X + ; - X X                         ",
"                                      = $ X - o X 5 p 2 6 : 4 : : : 6 3 : > : 3 6 7 i i i 7 6 6 , 5 : 2 2 u i i i i u 7 p 5 X o - X $ =                         ",
"                                        a = $ X 5 > 2 p 2 2 7 7 7 2 6 : 5 < < , 3 6 y i y 6 3 , 4 5 > : 4 p u u u u y p 2 , i X $ = a                           ",
"                                      5 4 6 3 : > , : 6 p 7 2 3 3 6 6 4 4 4 : > : 6 7 y 2 3 , 5 5 3 5 , 4 7 p y y y p 6 : 3 u i i i 4 5                         ",
"                                    , 5 : 2 p 6 4 : , 4 s 7 d f d p 2 6 3 3 4 : > 4 2 7 , , 2 4 3 2 , 4 3 7 g h d j k k l j p y y p : 5 ,                       ",
"                                  3 6 3 2 4 4 2 6 6 6 s d z f g x u p 2 3 6 6 3 4 : 6 i i 2 > 6 7 p 7 6 2 g h c j v b v k k j p p 7 6 4 > 3                     ",
"                                  > 6 p p 6 3 , 4 2 p d f x n s m M u p 7 6 6 6 3 4 2 N N i B y p p y y d h c j V C Z Z V v v j 7 7 p p 4 > 4                   ",
"                                2 3 2 : 5 2 4 , 6 2 p f g s m m A S m p 3 > 1 t , 3 p N D N i y , 4 6 g B c j V F G H s J V v V C 2 5 : 2 3 6 4                 ",
"                              3 4 > 6 p 2 , 4 6 2 p d d u g n g d n 6 4 5 1 1 , 6 7 i K L K B u u i B B c j V P G I U U Y V j P T B B u 7 6 2 2                 ",
"                              p 2 3 2 : 5 3 3 p 7 u x M x g x z B B 7 3 > < , 4 7 y N K L K D R R R B c J j Z G E U U U Z j F J G B 2 2 p p 7 p 2               ",
"                            W u y p 7 3 6 7 7 p u x n M H n z U N B f 2 y Q y 7 y i K D N R N N N R c c G J G ! ! ~ ~ Z V F J G B i > : 3 y u u y               ",
"                            p i i y y 7 y y u u m ^ s n x n F F Z N B y c B B m h N N 7 / m B N B ! ( u u u ~ ! ~ ( Z j F J G B i 7 : 5 < 4 i B B 2             ",
"                          4 7 B u u u u u u m ) m H ^ S x z _ U U N N N N N ` M i ! ' 7 2 7 ) N ] s 1 > 2 2 [ { { } | |  .! B B y 3 : 5 5 t 3 i p 2             ",
"                        : > : u x x u u m ..^ ^ X.o.x z G O.O.+.O.+.O.@.O.K K K #.~ ' (  .{ } $.{  .$.1 5 > | 1 3  .} | } ( ! B y 2 3 : > , , y : > 4           ",
"                      : 4 , , 3 y i u M S m s A A x U U +.b %.` Y N @.&.K *.*.=.#.( ( i ( } } -.1 ;.;.$.< 5 | $.> 3  .} } { ( ' u p 2 3 : 3 2 7 6 4 4           ",
"                  : : , 3 : { [ ' ~ u x M M H S x U U F :.%.` Y I @.G K *.=.#.K D i 6 y $.$.-.-.-.$.>.1 $.1 | > $.2 $. . .$.[ ( u u 7 7 2 2 7 p y 6 6           ",
"                  : ,  .[ -.[ ! p 7 ' u d d M s z U Z ,.,.` Y @.@.U K =.#.K D B : 2 i $.( ( -.>.>.>.$.$.2 [ } 1 $.$.$.2 $.[ 2 ' ( { [ ( 7 7 y i p y 7           ",
"                , : ~ ( [ { -.[ ' ! ~ B z z z z z +.:.k ` Y @.I I F :.K Y v <.( 2 ( y } i ( ( -.$.2 >.>.$.2 -.5  .{ { [ ( ' { ' ' ~ 2 ~ ~ B B i 2 p u           ",
"              p B ! [ 6 $.-.-.-.[ ' ! B B B B _ I +.,.C Y E I J Z ,.,.D V v y { B ( ( { $.{ 4 1 2 $.$.2 ;.[  .5  .{ [ ( ' ' u u u i ! ~ [ { ~ ! ~ ( u p u       ",
"            2 2 u ~ 6 3 $.3 -.-.-.| | ~ ! B B _ I +.V C _ i 1.Y ,.b v n R ' { ~ > B ( 4 , ( { t 2 $. .$.$.>.{ >  .3 6 ' u p ' : { p ! ! ! ~ u (  .$.( 2 p i     ",
"            3 2 ' p 6 [ [ 4 $.3 6 -.' , -.3 $ &.O.U C P u i i Z b F 2.N O.[ !  .{ , ( ( 3 : ( 1 ( ! ( t : ( [ { [ 6 3 p p :  ., ~ ( p y ! 7 3 { ~ p [ ' u y     ",
"            2 ' ~ p ' x [ [ 6 6 [ { x :  .4 4 [ 3._ C P i u u Z j J b N R ~ u [ u , 7 3 3 6 6 ( 2 < 3 {  .{ ( [ , 4 2 p y ~ ~ y 2 y i ( ~ 7 3 3 { p 3 ~ y 7     ",
"            ~ ~ ! p 6 ' ' x x x [ x '  .-. .' [ ' @.C P i i u Z j U j ! [ 2 ! 4 p [ [ 7 2 2 u ! 7 2 3 3 4 ~ ( u 4 3 y y ~ ' p p 4 y R 3.] y 7 3 : ' 2 ! u y     ",
"            ! ~ ~ ~ ~ [ [ ~ x [ [ x ' [ ( { ' 5 3 G C P R i i Z j U j ~ ! : 3 3 3 p 6 [ ( 2 2 7 { y 7 6 ' ~ p 7 , 2 ! ! ~ ! y p u i 3.3.3.u p 2 3 ( p ! p B     ",
"            ! ' ~ ! ~ ~ ~ u u [ ' x 4.4.4.:  .{  .+.j P R R R Z j U j 5.! ! : 7 2 [ 2 2 7 7 4 < { y 7 ' ! p > p p ~ p y y B ! ! ! 3.] ~ ~ ' R u u ! u ! B R     ",
"          [ [ [ ' ~ ! ! ~ [ [ [ 6.7.8.8.8.9.0.{  .q.V Z R R R J j O.F , 4 < ! < p 7 p 2 7 ~ ( 3 { y 7 ! ! 3 2 2 ~ p 2 u B ! ! ! ~ ~ ' ' ' ' ' R R ! u ! R       ",
"        [ [ [ [ [ ' ' ~ ! ! ! w.9.e.e.r.8.9.7.6.[ C v J ~ R R G v Y Y ~ { 2 : y p p p 7 2 p 2 ' ~ ~ 5.5.5.7 7 ~ ! u u B ! ~ ' ' ' ( ( ( ( ( ( ( ( [ ( (         ",
"      [ [ [ [ [ [ ( ( ( ' ' ' 6.8.t.e.r.7.7.4.6.! ,.C ~ [ [ ~ I j b U 2 ' y y ~ ' ~ u ~ ' i i 7 p ! y.y.y.i i ! B B B ~ ' ' ( ( [ [ [ [ { { [ [ [ [ (           ",
"      ( ( ( [ w.6.6.w.[ ( ( ( 6.0.9.w.E 0.4.6.w.~ V :.u.u.u.u.V F Z O.p ! ! u ! ~ u p 7 y i i i ! ! ! ~ ~ ~ ~ ~ ~ ~ ' [ [ { {  . .{ { { [ [ [ [ ( (             ",
"            ( ( ( ( 6.7.7.4.[ 1.1.w.E E w.w.1.I ~ T T T T T T T T G O.~ ~ ~ ~ ~ ~ ~ R R R R ! ~ ~ ~ ~ ' ' [ [ [ [ [ [ { { { [ [ [ [ [ ( ( ( ( (                 ",
"                      6.6.7.4.w.I 1.w.1.0.6.I w.6.w.' ' ' ' ' ' ' ' ' ' ' ' ' ' ( ( ( ( ( ( ( [ [ [ [ [ [ { { { { { { [ ( ( ( ( ( ( (                           ",
"                          6.6.E E I I I I I I I I 6.w.( ( ( ( ( ( ( [ [ [ ( ( (               ( ( ( ( [ [ [ [ [ [ ( ( (                                         ",
"                                                  I 6.6.w.( ( ( ( [                                   ( ( ( ( ( (                                               ",
"                                                                                                                                                                ",
"                                                                                                                                                                "
};
