/* XPM */
static char *caco_dies3[] = {
/* columns rows colors chars-per-pixel */
"80 80 118 2 ",
"   c magenta",
".  c #6F6F6F",
"X  c gray42",
"o  c gray39",
"O  c #5B5B5B",
"+  c #777777",
"@  c gray34",
"#  c #434343",
"$  c gray31",
"%  c #8B8B8B",
"&  c #838383",
"*  c #979797",
"=  c gray28",
"-  c gray67",
";  c gray50",
":  c #A7A7A7",
">  c #939393",
",  c #9F9F9F",
"<  c #7F0000",
"1  c #B30000",
"2  c #9B0000",
"3  c #D70000",
"4  c red",
"5  c #EF0000",
"6  c #CB0000",
"7  c gray23",
"8  c #BF0000",
"9  c #A70000",
"0  c #E30000",
"q  c #FF3F3F",
"w  c #FF7B7B",
"e  c #FF5F5F",
"r  c #FF1F1F",
"t  c gray75",
"y  c #373737",
"u  c gray78",
"i  c gray86",
"p  c #DFDFDF",
"a  c gray70",
"s  c #5B0000",
"d  c #730000",
"f  c #8B0000",
"g  c #5B0707",
"h  c #670000",
"j  c #00006B",
"k  c #3737FF",
"l  c #731313",
"z  c #771717",
"x  c #5F0707",
"c  c #1B1BFF",
"v  c #0000CB",
"b  c #6B0F0F",
"n  c #7F1B1B",
"m  c #670B0B",
"M  c #00009B",
"N  c #000023",
"B  c #5353FF",
"V  c #000083",
"C  c #8F2B2B",
"Z  c #831F1F",
"A  c #530707",
"S  c #732B00",
"D  c #B34F4F",
"F  c #972F2F",
"G  c #43331B",
"H  c #470000",
"J  c #4F0000",
"K  c #9B3333",
"L  c #8B2323",
"P  c #A33B3B",
"I  c #AF4747",
"U  c #A73F3F",
"Y  c #BF5B5B",
"T  c #D37373",
"R  c #5B472B",
"E  c #775F3F",
"W  c #17330F",
"Q  c #675333",
"!  c #9F8363",
"~  c #836B4B",
"^  c #4F3B23",
"/  c #BB5757",
"(  c #13230B",
")  c #373F27",
"_  c #EB9797",
"`  c #37732B",
"'  c #27531B",
"]  c #DB7B7B",
"[  c #CB6B6B",
"{  c #439337",
"}  c #C76363",
"|  c #000053",
" . c #0000B3",
".. c #1F4317",
"X. c #4B371B",
"o. c #3F2F17",
"O. c #4B9F3F",
"+. c #1B1B1B",
"@. c #2F6323",
"#. c #0000E3",
"$. c #3F832F",
"%. c #5BBF4F",
"&. c #5FCF57",
"*. c #DF8787",
"=. c black",
"-. c #430000",
";. c #2F2F2F",
":. c #6FEF67",
">. c #53AF47",
",. c #3F472B",
"<. c #000047",
"1. c #232323",
"2. c #272727",
"3. c #0B1707",
"4. c #AF4300",
"5. c blue",
"6. c LightGray",
"7. c white",
/* pixels */
"                                                                                                                                                                ",
"                                                                                                                        .                                       ",
"                                                                                                                                  X                             ",
"                                                                                                                          o       o                             ",
"                                                                                                                                                                ",
"                                                O                                                   O                     +                                     ",
"                                              O X                                                   X O                     @ #                                 ",
"                                              X +                                                   + X                   $                                     ",
"                                            . + %                                                   % + .                 + @                                   ",
"                        @ o                 . & *                                                   * & .                 = .                                   ",
"                        @ o                 . * - +                                               + - * .                   % & o                               ",
"                        @ X X               o % - ;                                               ; - % o                   %                                   ",
"                        @ o . +             O & : > +                                           + > : & O             . . . +                                   ",
"                        @ O o + .           $ . * , ; +             < 1 1 1 1 1 <             + ; , * . $             % & +                                     ",
"                          @ O + & .         # X ; > * ; +   < 2 2 1 3 4 4 5 5 3 1 1 2 2 <   + ; * > ; X #           % o O $                                     ",
"                          # = o + % .       # o ; > 2 2 2 1 1 1 1 4 5 1 6 3 6 1 6 6 1 1 1 1 2 2 2 > ; o #       . % & . $ #                                     ",
"                          # = @ . & % .     7 O < < 2 1 8 8 9 6 0 0 8 3 q q 0 3 8 8 0 6 9 8 8 1 2 < < O 7     . , % + $ = #                                     ",
"                            = = O + % , %   7 < < < 2 6 6 6 1 6 0 3 6 q w e r 3 6 1 0 6 1 6 6 6 2 < < < 7   % , % + O 7 #                     .                 ",
"                            # = @ X + > , , ; 6 0 4 5 5 0 3 1 6 0 6 3 e e e q r 3 9 0 6 1 3 0 5 5 4 0 6 ; , , > & X = = 7                 % X   %               ",
"                              7 = $ X ; > : : t t > + 4 4 3 1 6 0 8 3 q q e q 4 3 9 0 6 1 3 4 4 + > t t : : > ; X $ y y                 o %   @                 ",
"                              y 7 = @ X ; > : u i t t + 4 0 9 8 5 1 3 5 r q 4 5 3 6 5 8 9 0 e + t t i u : > ; X @ 7 y 6                 @   ; O                 ",
"                              8 y 7 = @ X + > : t p t + 0 0 9 9 4 4 6 8 0 4 0 8 6 4 4 9 9 0 w + t p t : > + X @ = y 1 8         : %           @                 ",
"            @ X % % ;       8 8 6 y 7 = @ X . + * : a + 5 0 9 8 3 4 3 1 8 0 8 1 3 4 3 8 9 0 w + a : * + X @ @ = 7 3 8 8 8     * % ;   % @ %                     ",
"              O @ . % : :   3 1 8 1 y 7 = @ X X . & % + 4 3 9 6 9 3 4 1 8 0 8 1 4 9 8 6 9 3 4 + % & . X 7 = = 7 1 5 o 1 3   - % ; o %   %   o                   ",
"                O @ o ; * - > ; o 3 1 y 7 = = @ o . + 8 0 8 1 2 8 9 4 6 1 8 1 6 4 8 4 2 1 8 0 8 + . o $ 6 9 < < < 5 o ; > * @ o @ @     @   O                   ",
"                    @ @ o % * > & o 5 9 1 y 7 $ @ O 8 3 8 9 6 0 8 8 6 5 1 1 1 5 6 0 6 0 6 9 8 3 8 O @ s 2 y d f 1 o & > . @ $ @                                 ",
"                        $ @ . & + o 5 < 2 9 6 8 6 6 6 1 9 2 0 4 0 8 2 5 1 1 1 5 2 0 8 9 1 2 9 1 6 6 d 1 2 s d s < s + & 7 7 $                                   ",
"                      8 8 7 $ @ o @ 3 3 1 f 2 f 1 8 2 9 1 6 0 0 0 6 1 6 0 9 0 6 1 6 9 8 9 9 1 9 2 f 8 1 s s d s s 6 o 7 f 9 8 8                                 ",
"                    9 1 5 3 9 7 7 9 0 6 9 2 1 2 1 8 1 8 6 0 5 5 3 8 f 1 1 6 1 f 2 8 8 6 8 0 3 3 6 8 1 2 d 2 f g < 6 0 9 3 6 5 1 9                               ",
"                    9 1 5 8 3 0 6 0 3 1 9 d d h f 2 1 8 6 0 5 5 3 3 8 h 2 6 1 f 2 8 0 4 0 0 3 3 6 8 2 f g g g g h j 1 k 6 8 5 1 9                               ",
"                  1 9 9 3 2 1 2 < 2 1 1 d h l z < f f 8 6 4 4 5 3 4 3 d h d d < 9 2 9 4 5 5 0 8 1 z < g g x c 2 d v f d 5 5 3 9 9 1                             ",
"                  1 8 1 9 < 8 1 3 2 9 2 h h h b z b z 1 8 6 4 5 3 8 9 f d f d f 2 9 6 1 9 5 8 1 f n x v z m j g j k 1 2 1 1 2 1 f 8                             ",
"                2 1 8 0 9 < 2 3 5 f 4 3 d h h l n l b n 2 9 5 4 5 6 9 6 d h f f 9 8 0 4 f 6 2 f M x v b N c B c v f V d < < f 9 8 2 2                           ",
"                2 < 2 1 2 6 5 2 1 < 1 C f Z b l z x N N n f 1 4 4 8 0 m 1 d 6 9 9 8 0 < A f n x N N N c V V c k A 9 f s 9 3 d h 1 < 2                           ",
"                S h d < f 1 3 f 1 9 < D n Z F n n z G N m f 1 g Z 0 8 9 0 f 9 4 0 8 4 6 H J b N N b N v B k A h V 9 f s K h b f d h S <                         ",
"                < s s d d f 9 d f f Z n L n z n z N N G N 2 H G N C A f g f f 0 C 1 0 2 N N G G N N v k B k V A f f V f D h f d s h s 2                         ",
"              8 f J h h h D h h P I C F K U m l n l m G G G G G N Z 6 1 6 f 6 8 8 m m Z H G G G M N B V N V A A V n K V L h h s s d s 2                         ",
"              0 6 h z z Z L F Y K K T D F P C Z z G N N N G N R R R E E 6 6 1 8 0 N W N N G R G G N N N R Q V n n F P n h s g s J < 6 0                         ",
"            8 3 3 1 d s b Z U C L D D K U P C L N N G G N N R ! ! ~ E z 2 1 m J Z N W G W ^ R Q G G c Q Q V N N V D L z F s Z h 2 1 3 8                         ",
"            1 6 8 9 f h h z Z Z F U K I / P F U Z Z N G N R ! ~ E R ^ Z 2 f z N g c W G ( W R Q R Q Q R ) N c n U F c L F L b h h h 9 6                         ",
"            9 1 9 f < f < h b b Z L L / U T D L _ D N N R ~ E R ^ J ` ' J s J J M M N G W ( ^ Q Q Q R G ) c V n V l l L L b g h < f < f f                       ",
"            9 1 9 f < 2 f h b b F l L U U Y / T ] T [ N E ! R ^ K ` b Z { c < m C ) N G G ( G ^ Q ~ Q ) W W W V V c L L Z g < g f h 2 f 1                       ",
"            < 9 f d f 9 2 h b b S l n K L K K T _ } N I ~ ~ ^ { ` ' L { T N V N M |  .( G W ( G ^ Q ~ ~ ..W W V l m L c b z X > X.h 9 d f                       ",
"            h < h f 9 2 f h o.> X X b z L D P Y U _ T I ~ E { N ` O.{ N c | N N N ) N ) ( G G ( G ^ E ~ ~ R R K m N J b o S o o.< 2 9 2 f                       ",
"            S h h d f < h J +.o $ o X @ Z F K P / } N R ! R @.@.@.O.{ N M I |  .) V #.#.( G G ( ( | ~ E Q E E Z Z b N g X > +.h h < 2 < h                       ",
"            f f 2 < h h s J +.# 7 > , b : b b $ F N N E ` $.%.%.O.%.%.` | c c Y V  .#. .N G G Y G E ~ Q G G G b b b g o C o.$ # +.s h 2 f                       ",
"            2 2 2 h 6 < < g H 6 # o + + @ % b L / N R ' { &.&.%.%.%.{ ' L M I I *.v  .#.G ) U G ~ ~ Q N N | N @ @ , , X 7 =.-.J < h 2 2 2                       ",
"            2 8 8 1 6 1 H 1 H 1 @ 9 o + ;.. & O b N N ' $.&.:...( >.$.' I N M I U / v N ) ,.,.~ Q N R R M R G N N + # -.-.g g J 1 < 8 8 2                       ",
"            2 9 8 9 2 1 1 n h 1 1 V <.2 $ @ ;.$ $ N N W @.$.` ( ( @.@...M D *.P U T N #.N ,.Q Q R  . . . .j j M M G @ + + 1.h 1 2 0 8 9 2                       ",
"              9 1 6 r 1 1 0 m 0 9 V h 9 <.2.y 2 I / N 3...@.` ` @.@.@.../ M M D P } #.T n ,.Q <.j v #.#.#.#. . . .# # d o h =.m g 8 9 6                         ",
"              8 9 9 0 3 r r 1 0 3 0 9 d 6 2 8 R N N 1 3.W ' @.$.$.@.....N N F Z } P P T n <.@ j  .c k B k c  .j f < d d 2 h H 8 h 6 2 9                         ",
"              4.f 2 1 5 8 3 6 0 6 V d d d V N N R N N G 3.3.3.3.3.3.3.8 M [ C ;.C M C Z L M O  . . .c c c 2  .M M 2 9 f < 2 8 3 2 2 f 4.                        ",
"                6 9 2 f 2 0 r 8 6 r 6 8 V 2 R ^ ^ ^ G N G G 3.3.3.-.d < + f L 2 f N M Z L q 0  .M M c c 5.8 1 1 1 9 1 f 2 2 8 8 r f d                           ",
"                6 1 9 < z < 2 0 6 r V -.N N E ~ ^ N  . . . .-.-.-.d M e d s s M 1 v O , 0 q q  .0 4 #.#.#.3 6 M 5 M 8 8 8 9 f 6 2 8 9                           ",
"                  9 f z C < 8 0 d 8 6  .J R ~  .^ G G N N G N M M M < 8 8 8 s M M v <.q w w e M 5 0 v v v 3 8 3 6 2 < 8 1 9 6 1 1 9                             ",
"                  1 K  .2 2 < 9 f 3  .-.c E  . . .G  .M M V V -.-.< < s s 9 d 5.5.v 6 5 e e q 4 q q  . . .q 3 0 q M f < 0 6 1 1 2 1                             ",
"                  P P U 2 < < f 9 < 9 V 5.~  .^  . . . .M M V V -.s d 6 2 s 5.M r 0 e e e w e q q q M  .M r 6 r 9 r < d 6 9 2 f 2 2                             ",
"                  F U K P f < < 1 -.V V #.c v v c 5.#.#. . .M  . .5. .2 M d 5.s M r M q q e e w q 5 V  .V 6 9 < f 6 < f d 2 f d < 2                             ",
"                    < Z F K f 1  . .V  .#.V  .5.k k c 5.#.#.v v N d v J M M 5.5.5.8 q e q e e w q e V  .V 1 2 < f K K C K 9 f d < 2                             ",
"                    h   F < V  .9  .f c 6 V V  .5.k k k #.#.v J V v h 0 J M 8 3 M v r q 3 3 r r e q <.M V 9 < < f K C d C 9 <   h f                             ",
"                    1 < P < 3 3 5 d 2 6 d V #.M M  .#.5.5.#.v M M | #.v 3 M M 1 6 M q M r M r 6 5 e <.M j f L F C 5 3 6 2 d 1 1 <                               ",
"                      f 6 < 6 < 8 8 1 0 s s 1 #.M  .j #.#.M j M j h  .h 3 f 1 1 9 9 M 2 4 1 6 3 8 0 <.M j f L 8 5 6 6 6 6 2 d <                                 ",
"                        , 6 6 1 5 f 1 V d 9 6 M M M V v v j M  .M | 8 <  . .f 2 2 h 4 f 2 1 1 8 6 6 <.M j M 1 5 6 1 6., 1 2                                     ",
"                          ; 6.* 6 V 5 1 1 6 8 V  .d f  . .-.j  .6 1 1 1 < 9  .M 2 2 f 6 d f 9 2 f 6 <.M j M 1 5 6 O & * ;                                       ",
"                            . & 6 5 6 5 1 5 6 V M M < M M -.M M | 6 f 2  .2 2 f f 8 4 6 d f 1 2 1 0 <.M j M 1 5 6 $ o + .                                       ",
"                            + O $ $ 6 5 1 8 1 V V 2 h M M -.d -.M M 4 1 f 6 f 2 2 2 1 6 d f 1 2 1 2 <.M j M 1 5 6 $ o + .                                       ",
"                          . o o $ 7 6 1 f 2 < M M M -.M V 1 1 6 -.-.4 f 1 8 9 < 2 2 < 6 1 1 8 d f f <.M j M f 1 6 7 $ X o                                       ",
"                          + X O 7   J h h 8 2 V V < M M V 8 3 8 4 |   < f < 2 f d f f < 4 8 < < d < <.M j M h h J   7 O $                                       ",
"                        o $ $ O           2 d V V M M M V 2 h   2 6 d < < < f 2 < d 2     3 d     d <.M j M           O $                                       ",
"                                        8 1 8 M M M 6 M V d 2 < d d   f d h d f s s d <   h     6 h <.M j M                                                     ",
"                                              M   M < M V 8 < s J h s h h     d < < J s < 8 6 1 < h <.M j M                                                     ",
"                                              V   M   M V h s J     d s h       d h h J s h h h 2   <.M j M                                                     ",
"                                                  M   M V                                           <.M j M                                                     ",
"                                              V       M V                                           <.M j                                                       ",
"                                                  M   M V                                           <.M j                                                       ",
"                                                      M V                                           <.M j                                                       ",
"                                                      M V                                           <.M j                                                       ",
"                                                  M   M V                                           <.M j                                                       ",
"                                                                                                                                                                ",
"                                                                                                                                                                "
};
