/* XPM */
static char *caco_walk3[] = {
/* columns rows colors chars-per-pixel */
"68 71 100 2 ",
"   c magenta",
".  c #5B5B5B",
"X  c gray42",
"o  c #777777",
"O  c #6F6F6F",
"+  c #8B8B8B",
"@  c gray34",
"#  c gray39",
"$  c #838383",
"%  c #979797",
"&  c gray67",
"*  c gray50",
"=  c gray31",
"-  c #A7A7A7",
";  c #939393",
":  c gray28",
">  c #9F9F9F",
",  c #7F0000",
"<  c #B30000",
"1  c #434343",
"2  c #9B0000",
"3  c #D70000",
"4  c red",
"5  c #EF0000",
"6  c #CB0000",
"7  c gray23",
"8  c #BF0000",
"9  c #A70000",
"0  c #E30000",
"q  c #FF3F3F",
"w  c #FF7B7B",
"e  c #FF5F5F",
"r  c #FF1F1F",
"t  c gray75",
"y  c #373737",
"u  c gray78",
"i  c gray86",
"p  c #DFDFDF",
"a  c gray70",
"s  c #8B0000",
"d  c #730000",
"f  c #670000",
"g  c #8B2323",
"h  c #831F1F",
"j  c #6B0F0F",
"k  c #731313",
"l  c #771717",
"z  c #7F1B1B",
"x  c #972F2F",
"c  c #670B0B",
"v  c #732B00",
"b  c #8F2B2B",
"n  c #A33B3B",
"m  c #5B0707",
"M  c #530707",
"N  c #5B0000",
"B  c #A73F3F",
"V  c #9B3333",
"C  c #0B1707",
"Z  c #13230B",
"A  c #B34F4F",
"S  c #BB5757",
"D  c #1F4317",
"F  c #2F6323",
"G  c #AF4747",
"H  c #D37373",
"J  c #CB6B6B",
"K  c #17330F",
"L  c #37732B",
"P  c #4F0000",
"I  c #BF5B5B",
"U  c #C76363",
"Y  c #DB7B7B",
"T  c #E78F8F",
"R  c #4B371B",
"E  c #EB9797",
"W  c #3F2F17",
"Q  c #DF8787",
"!  c #1B1B1B",
"~  c #F7ABAB",
"^  c #430000",
"/  c black",
"(  c #470000",
")  c #CBCBCB",
"_  c #232323",
"`  c #000047",
"'  c #2F2F2F",
"]  c #000053",
"[  c #AF4300",
"{  c #272727",
"}  c #00006B",
"|  c #874307",
" . c LightGray",
".. c #000083",
"X. c #00009B",
"o. c #0000B3",
"O. c #0000CB",
"+. c blue",
"@. c #1B1BFF",
"#. c white",
/* pixels */
"                                                                                                                                        ",
"                                                                                                                                        ",
"                                          .                                                   .                                         ",
"                                        . X                                                   X .                                       ",
"                                        X o                                                   o X                                       ",
"                                      O o +                                                   + o O                                     ",
"                  @ #                 O $ %                                                   % $ O                 # @                 ",
"                  @ #                 O % & o                                               o & % O                 # @                 ",
"                  @ X X               # + & *                                               * & + #               X # =                 ",
"                  @ # O o             . $ - ; o                                           o ; - $ .             o O @ :                 ",
"                  @ . # o O           = O % > * o             , < < < < < ,             o * > % O =           O o # = 1                 ",
"                    @ . o $ O         1 X * ; % * o   , 2 2 < 3 4 4 5 5 3 < < 2 2 ,   o * % ; * X 1         O $ o . =                   ",
"                    1 : # o + O       1 # * ; 2 2 2 < < < < 4 5 < 6 3 6 < 6 6 < < < < 2 2 2 ; * # 1       O + o # = 1                   ",
"                    1 : @ O $ + O     7 . , , 2 < 8 8 9 6 0 0 8 3 q q 0 3 8 8 0 6 9 8 8 < 2 , , . 7     O + $ O @ : 1                   ",
"                      : : . o + > +   7 , , , 2 6 6 6 < 6 0 3 6 q w e r 3 6 < 0 6 < 6 6 6 2 , , , 7   + > + o . = :                     ",
"                      1 : @ X o ; > > * 6 0 4 5 5 0 3 < 6 0 6 3 e e e q r 3 9 0 6 < 3 0 5 5 4 0 6 * > > ; $ X @ : 1                     ",
"                        7 : = X * ; - - t t ; o 4 4 3 < 6 0 8 3 q q e q 4 3 9 0 6 < 3 4 4 o ; t t - - ; * X = : 7                       ",
"                        y 7 : @ X * ; - u i t t o 4 0 9 8 5 < 3 5 r q 4 5 3 6 5 8 9 0 e o t t i u - ; * X @ : 7 y                       ",
"                        8 y 7 : @ X o ; - t p t o 0 0 9 9 4 3 6 8 0 4 0 8 6 3 4 9 9 0 w o t p t - ; o X @ : 7 y 8                       ",
"      @ X + + *       8 8 6 y 7 : @ X O o % - a o 5 0 9 8 3 4 3 < 8 0 8 < 3 4 3 8 9 0 w o a - % o O X @ : 7 y 6 8 8       * + + X       ",
"        . @ O + - -   3 < 8 < y 7 : @ X X O $ + o 4 3 9 6 9 3 4 6 < 8 < 6 4 3 9 6 9 3 4 o + $ O X X @ : 7 y < 8 < 3   - - + O @ . @     ",
"          . @ # * % & ; * # 3 < y 7 : : @ # O o 8 0 8 < 2 8 9 6 5 < < < 5 6 9 8 2 < 8 0 8 o O # @ : : 7 y < 3 # * ; & % * # @ .         ",
"              @ @ # + % ; $ # 5 9 < y 7 = @ . 8 3 8 9 6 0 8 8 2 6 0 9 0 6 2 8 0 6 6 9 8 3 8 . @ = 7 y < 9 5 # $ ; % + # @ @             ",
"                  = @ O $ o # 5 , 2 9 6 8 6 6 6 < 9 2 0 4 0 8 < s < 6 < s < 0 4 0 < 2 9 < 6 6 6 8 6 9 2 , 5 # o $ O @ =                 ",
"                8 8 7 = @ # @ 3 3 < 2 2 s s s 2 9 < 8 6 0 3 6 2 , d 2 d , 2 6 0 6 6 8 < 9 2 s s s 2 2 , 2 3 @ # @ = 7 8 8               ",
"              9 < 5 3 9 7 7 9 0 6 9 , s 2 < 8 < 8 6 0 5 5 3 8 9 s d f d s 9 8 3 5 0 0 6 8 < 8 < 2 s , 9 < 6 9 7 7 9 6 5 < 9             ",
"              9 < 5 8 3 0 6 0 3 < 9 , s 2 < 8 < 8 6 4 4 5 3 8 9 s d f d s 9 8 5 4 4 5 6 8 < 8 < 2 s , 9 6 6 0 5 5 6 8 5 < 9             ",
"            < 9 9 3 5 6 2 , 2 < < 2 2 g s , s 2 < 8 6 5 4 4 0 6 9 s d s 9 6 0 4 4 5 6 8 < 2 s , s g 2 3 8 < < 3 3 5 5 3 9 9 <           ",
"            < 8 < 9 < 2 2 < 2 9 2 , g h j k l s s 2 9 < 6 5 4 0 8 6 s 6 8 0 4 0 6 < 9 2 s s l k j h g , 2 2 9 9 8 < < 9 < 8 <           ",
"          2 < 8 0 9 , , 2 < 3 4 3 9 g j k k l j z z s s 2 < 8 6 < 6 s 6 < 6 8 < 2 s s z z z l k k j g s 3 4 3 < 2 , , 9 0 8 < 2         ",
"          2 , 2 < 2 6 5 2 8 3 5 < s g x g g h z j c c , h s 2 9 < 2 s 2 < 9 2 s h , k j c z h g g x g s < 5 3 8 2 5 6 2 < 2 , 2         ",
"          v f d , s < 3 s < < 9 s , b n v g h g h z j m M m s , , d N d , , s m M m j z h g h g v n b , s 9 < < s 3 < s , d f v         ",
"          , N N d d s 9 d s s h , b B B b v g V b h h c M c C Z Z Z Z Z Z Z C d M c h b b V g v b B A b , s s s d 9 s d d N N ,         ",
"        8 s , N N f f f f l , b x V A S S b z g b b x z d g D Z D F D F D Z D g d z x b b g z b S S A V x b g l f f f f N N , 2 8       ",
"        0 6 2 , d N N f h x n G H x S H J S B V b z V b h l g D K L F L K D g l h b V z b V B S J H S x H G n x h f N N f , 2 6 0       ",
"      8 3 3 < 2 d P N N l h x A I V A U H H U A B V b z h z h g V B G B V g h z h z b V B A U H H U A V I A x v j N N P d 2 < 3 8       ",
"      < 6 8 9 s f f f l l h g A B V A S I H J Y U A B x g z z k j j j j j k z z g x B A J Y J H I S A V B A g j N N f f f s 9 8 6 8     ",
"      9 < 9 s , s , f j j l h x g b B G S A S H T H I U I A B V b h j h b V B A I U I H T H S A S G B b g x j v # R f , s , s 9 < <     ",
"      9 < 9 s , 2 s f j j j l x g b B G S A S H E Y I U I A A B n V j V n B A A I U I Y E H S A S G B b g x j v # R f , s , s 9 < 9     ",
"      , 9 s d s 9 2 f W ; X v j k z V A A n H Q H A G U I J H Q U n j n U Q H J I U G A H Q H n A A V z k j v X ; W f 2 9 s d s 9 9     ",
"      f , f s 9 2 s f ! # = # X j h b G n A H J B x n G A I J H Q I z I Q H J I A G n x I J H G n G b h j b # = # ! f , 2 9 s f , ,     ",
"      v f f d s , f P ! 1 7 ; > X k h g n A B G I H Q J S S H T ~ ~ g ~ ~ T H S G J Q H I G B I G g h k j X ; 7 1 ! P f , s d f f f     ",
"      s s 2 , f f N P ^ / W # o o j l g x V x G S U H Q J I T Q Q Q x Q Q Q T I J Q H U S G x V A g l j X > # W / ^ P N f f , 2 s v     ",
"      2 2 < 2 f , , m ( ^ / 1 # o @ j j j g z n G S U Q Q U Q E ~ J U J ~ E Q U Q Q U S G n z g j j j @ o o 1 / ^ ^ m , , , 2 < 2 s     ",
"      2 8 8 8 , < . ) ( ( ( _ ` @ @ j - . j j g V B S H I Q U Q E S ~ S E Q U Q I H S B V g j j . - x @ o # _ ( c c ) . < , 8 8 8 2     ",
"      2 9 8 0 2 2 6 % v z c ( y ` = ' + $ = = j l z g n U H A S Q b J b Q S A H U n g z l j = = $ + ' = @ 1 ( c z v % X 2 2 0 8 9 2     ",
"        9 < 6 9 6 < X R k z c c ( ` ` @ O = - = h j z z b n n A I x B x I A n n b z z j h = - = O @ ` ` 1 y c z k R X X 6 9 6 < 9 2     ",
"        8 9 9 6 0 < 6 2 v = = * m ` ] y @ @ $ O h l h z g h h b x n x n x b h h g z h l h O $ @ @ y ] ` ( c = = v 2 , < 0 6 9 9 8       ",
"        [ s 2 < 5 r 3 r < = # * m ( ] { y ' # @ / / R . . V g z z x x x z z g V . . R / / @ # ' y { ] ( m * # = = 8 3 r 5 5 2 s [       ",
"          < 2 2 8 3 5 r r 6 < O s g l m } _ : y @ 1 1 X > . b g x A J A x g b . > X 1 1 @ y : _ } m l g |  .* # & o 5 3 8 2 2 <         ",
"          6 9 2 s 2 8 0 r r 6 6 2 s v d P ] ..X.o * @ . X 7 = # @ . - . # # = 7 X . @ * o X.c l g d v s s O . s 2 0 8 2 s 9 8 6         ",
"            < 9 , l , 2 3 0 0 r 8 2 2 s d P ..X.o + * 1 o.O.+.= X.: o : X.= +.O.o.1 * + o j l g d s 2 2 2 s 2 r 3 8 9 s 6 8 <           ",
"            9 s l b s , 2 8 8 6 0 9 # 9 2 s d P o + + . R O.@ O @ X.: X.@ O @ O.R . + + o l g s 2 9 # 9 8 r 3 8 2 s 9 6 < < 9           ",
"            < l V n B 2 , , s 9 6 3 < # + 9 2 s X $ % o 1 R # ; # 7 @.7 # ; # R 1 o % $ X s 2 9 + # < 3 0 6 2 , 8 < 6 < < 2 <           ",
"            2 2 x V n B 2 s , s 9 r 0 6 < # + 9 . o * o 1 2 O - ; s s s ; - O 2 1 o * o . 9 + # < 6 0 r 6 9 , s , 0 9 2 s 2 2           ",
"            2 , h x V n s , , 9 s 6 r 0 3 6 < 9 , . o # 2 9 # ; O 8 3 8 O ; # 9 2 # o . , 9 < 6 3 0 r 6 9 , s V d 6 2 s d , 2           ",
"            s f   h x s , , , 9 s 9 6 5 r r 5 < , f f , 9 6 9 2 8 0 4 0 8 2 9 6 9 , f f , < 5 r r 5 6 9 , s V b d 9 s ,   f s           ",
"              , < < , , 6 3 5 8 2 s 2 6 3 0 3 5 3 8 < 8 6 0 5 0 0 0 0 0 0 0 5 0 6 8 < 8 3 5 3 0 3 6 9 , s V b , , s ,   6 2 ,           ",
"                , d 2 6 6 6 6 5 8 s s 2 < < 8 6 5 5 5 5 0 6 < 3 0 0 0 0 0 3 < 6 0 5 5 5 5 6 8 < < 9 s g x b 5 3 6 2 d < < ,             ",
"                    2 < >  .< 6 5 s s , , s 9 < 8 3 5 3 8 < 9 6 3 3 3 3 3 6 9 < 8 0 5 5 8 < 9 s , , s g 8 5 6 6 6 6 2 d ,               ",
"                      * % $ . 6 5 < 9 6 6 < s 2 9 < 8 < 2 s 2 9 6 6 6 6 6 9 2 s 2 < 8 < 9 2 s < 6 6 9 < 5 6 <  .> < 2                   ",
"                      O o # = 6 5 < 6 5 8 2 , s 2 9 < 2 s < s 8 9 8 2 8 9 8 s < s 2 < 9 2 s , 2 8 5 6 < 5 6 . $ % *                     ",
"                      O o # = 6 5 < 5 8 2 2 2 < 2 < s d 6 4 < , 2 2 3 2 2 , < 4 6 d s < 2 < 2 2 2 8 5 < 5 6 = # o O                     ",
"                      # X = 7 6 < s 8 2 d   s s d 8 < < 4 6   s , 2 < 2 , s   6 4 < < 8 d s s   d 2 8 s < 6 7 = X #                     ",
"                      = . 7   P f f 8 < d d , d , , 8 3 8   s d , s s s , d s   8 3 8 , , d , d d < 2 f f P   7 . =                     ",
"                      = .             8 2 , d     d 2 f   2 d N , , , , , N d 2   f 2 d     d , 2 2             . =                     ",
"                                        < , , 6     d 2 , d N f f d f d d f N d , 2 d     6 , , 2                                       ",
"                                            f , < 6 8 , N P f d d f     d d f P N , 8 6 < , f 2                                         ",
"                                                f f f N P                       P N f f f 2                                             ",
"                                                                                                                                        ",
"                                                                                                                                        "
};
