/* XPM */
static char *caco_dies2[] = {
/* columns rows colors chars-per-pixel */
"70 70 106 2 ",
"   c magenta",
".  c #5B5B5B",
"X  c gray42",
"o  c #777777",
"O  c #6F6F6F",
"+  c #8B8B8B",
"@  c gray34",
"#  c gray39",
"$  c #838383",
"%  c #979797",
"&  c gray67",
"*  c gray50",
"=  c gray31",
"-  c #A7A7A7",
";  c #939393",
":  c gray28",
">  c #9F9F9F",
",  c #7F0000",
"<  c #B30000",
"1  c #434343",
"2  c #9B0000",
"3  c #D70000",
"4  c red",
"5  c #EF0000",
"6  c #CB0000",
"7  c gray23",
"8  c #BF0000",
"9  c #A70000",
"0  c #E30000",
"q  c #FF3F3F",
"w  c #FF7B7B",
"e  c #FF5F5F",
"r  c #FF1F1F",
"t  c gray75",
"y  c #373737",
"u  c gray78",
"i  c gray86",
"p  c #DFDFDF",
"a  c gray70",
"s  c #5B0000",
"d  c #730000",
"f  c #8B0000",
"g  c #670000",
"h  c #771717",
"j  c #5B0707",
"k  c #00006B",
"l  c #7F1B1B",
"z  c #5F0707",
"x  c #3737FF",
"c  c #6B0F0F",
"v  c #731313",
"b  c #00009B",
"n  c #670B0B",
"m  c #1B1BFF",
"M  c #0000CB",
"N  c #000083",
"B  c #831F1F",
"V  c #530707",
"C  c #000023",
"Z  c #732B00",
"A  c #972F2F",
"S  c #470000",
"D  c #4F0000",
"F  c #5353FF",
"G  c #8F2B2B",
"H  c #43331B",
"J  c #9B3333",
"K  c #B34F4F",
"L  c #8B2323",
"P  c #A33B3B",
"I  c #AF4747",
"U  c #D37373",
"Y  c #A73F3F",
"T  c #17330F",
"R  c #5B472B",
"E  c #675333",
"W  c #BF5B5B",
"Q  c #4F3B23",
"!  c #BB5757",
"~  c #13230B",
"^  c #373F27",
"/  c #EB9797",
"(  c #CB6B6B",
")  c #836B4B",
"_  c #DB7B7B",
"`  c #DF8787",
"'  c #000053",
"]  c #0000B3",
"[  c #1F4317",
"{  c #4B371B",
"}  c #3F2F17",
"|  c #C76363",
" . c #775F3F",
".. c #1B1B1B",
"X. c #430000",
"o. c black",
"O. c #000047",
"+. c #3F472B",
"@. c #2F2F2F",
"#. c #232323",
"$. c #272727",
"%. c #0000E3",
"&. c #AF4300",
"*. c blue",
"=. c LightGray",
"-. c white",
/* pixels */
"                                                                                                                                            ",
"                                                                                                                                            ",
"                                          .                                                   .                                             ",
"                                        . X                                                   X .                                           ",
"                                        X o                                                   o X                                           ",
"                                      O o +                                                   + o O                                         ",
"                  @ #                 O $ %                                                   % $ O                 # @                     ",
"                  @ #                 O % & o                                               o & % O                 # @                     ",
"                  @ X X               # + & *                                               * & + #               X # =                     ",
"                  @ # O o             . $ - ; o                                           o ; - $ .             o O @ :                     ",
"                  @ . # o O           = O % > * o             , < < < < < ,             o * > % O =           O o # = 1                     ",
"                    @ . o $ O         1 X * ; % * o   , 2 2 < 3 4 4 5 5 3 < < 2 2 ,   o * % ; * X 1         O $ o . =                       ",
"                    1 : # o + O       1 # * ; 2 2 2 < < < < 4 5 < 6 3 6 < 6 6 < < < < 2 2 2 ; * # 1       O + o # = 1                       ",
"                    1 : @ O $ + O     7 . , , 2 < 8 8 9 6 0 0 8 3 q q 0 3 8 8 0 6 9 8 8 < 2 , , . 7     O + $ O @ : 1                       ",
"                      : : . o + > +   7 , , , 2 6 6 6 < 6 0 3 6 q w e r 3 6 < 0 6 < 6 6 6 2 , , , 7   + > + o . = :                         ",
"                      1 : @ X o ; > > * 6 0 4 5 5 0 3 < 6 0 6 3 e e e q r 3 9 0 6 < 3 0 5 5 4 0 6 * > > ; $ X @ : 1                         ",
"                        7 : = X * ; - - t t ; o 4 4 3 < 6 0 8 3 q q e q 4 3 9 0 6 < 3 4 4 o ; t t - - ; * X = : 7                           ",
"                        y 7 : @ X * ; - u i t t o 4 0 9 8 5 < 3 5 r q 4 5 3 6 5 8 9 0 e o t t i u - ; * X @ : 7 y                           ",
"                        8 y 7 : @ X o ; - t p t o 0 0 9 9 4 4 6 8 0 4 0 8 6 4 4 9 9 0 w o t p t - ; o X @ : 7 y 8                           ",
"      @ X + + *       8 8 6 y 7 : @ X O o % - a o 5 0 9 8 3 4 3 < 8 0 8 < 3 4 3 8 9 0 w o a - % o X @ @ : 7 y 6 8 8       * + +             ",
"        . @ O + - -   3 < 8 < y 7 : @ X X O $ + o 4 3 9 6 9 3 4 < 8 0 8 < 4 9 8 6 9 3 4 o + $ O X 7 : : 7 y < 8 < 3   - - + O @             ",
"          . @ # * % & ; * # 3 < y 7 : : @ # O o 8 0 8 < 2 8 9 4 6 < 8 < 6 4 8 4 2 < 8 0 8 o O # = 6 9 7 y < 3 # * ; & % * # @ .             ",
"              @ @ # + % ; $ # 5 9 < y 7 = @ . 8 3 8 9 6 0 8 8 6 5 < < < 5 6 0 6 0 6 9 8 3 8 . @ s 2 y , , 5 # $ ; % + # @ @                 ",
"                  = @ O $ o # 5 , 2 9 6 8 6 6 6 < 9 2 0 4 0 8 2 5 < < < 5 2 0 8 9 < 2 9 < 6 6 d < 2 f , , 5 # o $ O @ =         X @         ",
"                8 8 7 = @ # @ 3 3 < 2 2 f f f 2 9 < 6 0 0 0 6 < 6 0 9 0 6 < 6 9 8 9 9 < 9 2 f 8 < s s d f < 6 # @ = 7 8 8       .           ",
"              9 < 5 3 9 7 7 9 0 6 9 , f 2 < 8 < 8 6 0 5 5 3 8 f < < 6 < f 2 8 8 6 8 0 3 3 6 8 < 2 d s , s s 6 7 7 9 6 5 < 9                 ",
"              9 < 5 8 3 0 6 0 3 < 9 d f 2 < 8 < 8 6 0 5 5 3 8 , g 2 6 < f 2 8 0 4 0 0 3 3 6 8 2 f d s d s g 0 f 3 6 8 5 < 9                 ",
"            < 9 9 3 5 6 2 , 2 < < d g d 2 < 8 < 8 6 4 4 5 3 8 9 d g d d , 9 2 9 4 5 5 0 8 < h , 2 f j j , d k 9 d 5 5 3 9 9 <               ",
"            < 8 < 9 < 2 2 < 2 9 2 g g g g , f 2 < 8 6 4 5 3 8 9 f d f d f 2 9 6 < 9 5 8 < f l z j j j j 2 < x f 2 < < 2 < 8 <               ",
"          2 < 8 0 9 , , 2 < 3 4 3 d g g c v h f f 2 9 5 4 3 8 9 f d g f f 9 8 0 4 f 6 2 f b z j z h n m k M < N d , , 9 0 8 < 2             ",
"          2 , 2 < 2 6 5 2 8 3 5 < f B c v v h c l l f < 4 3 8 9 f d d 6 9 9 8 0 , V f l z C C M M k j m x f 9 f s 9 f f < 2 , 2             ",
"          Z g d , f < 3 f < < 9 f , l A l l l h c n f 5 6 4 8 9 f d g 9 4 0 8 4 6 S D c C C c C m N m F M N 9 f s 3 g 8 f d g Z             ",
"          , s s d d f 9 d f f B , l G B l h h h z S 2 < 4 0 8 6 9 f d f 0 G < 0 2 C C H H C C M x F x V g f f f g d c f d s s ,             ",
"        8 f , s s g g g g h , G A J K L l v v v n n j B 8 0 < 8 f 6 f 6 8 8 n n B S H H H b C F N C N V V N N J L g g g s s , 2 8           ",
"        0 6 2 , d s s g B A P I U A P Y G h l n c h j S n G 0 6 f 6 6 < 8 0 C T C C H R H H C C C R E N l l N K l g s s g , 2 6 0           ",
"      8 3 3 < 2 d D s s h B A K W J K Y P G n h h B v j V n B < 6 2 < n D B C T H T Q R E H H m E E N C A J P L h s s D d 2 < 3 8 8         ",
"      < 6 8 9 f g g g h h B L K Y J K ! P A L B B K P P n j n h B 2 f h C j m T H ~ T R E R E E R ^ C l Y K A L L j c g g g g 9 6 <         ",
"      9 < 9 f , f , g c c h B A L G Y I J L Y K U / ( ( I n j D b D s D D b b C H T ~ Q E E E R H ^ m N l v L A L B c j g , f f < 9         ",
"      9 < 9 f , 2 f g c c h B A L Y J L Y K U / ( ( ! I P Y , c , n s , n G ^ C H H ~ H Q E ) E ^ T T T N m L A L B j , f , f 9 < 9         ",
"      , 9 f d f 9 2 g c c c h A L Y J ! K U / _ U K ( ` ( J L n L c B U N b ' ] ~ H T ~ H Q E ) ) [ T T N v n L m h j { g 2 9 f d f         ",
"      g , g f 9 2 f g } ; X Z c v l J K J W U / | I I A J ( ( c ` m m ' m C C C ^ ~ H H ~ H Q  .) ) R R J n D c Z X ; } g , 2 9 f g         ",
"      Z g g d f , g D ..# = # X c v B L P W ! ! U ` ` A ` A b b L b I ' C ] C ^ ` ~ H H ~ ~ ' )  .E  . .B C c # # ..g g , 2 2 g g Z         ",
"      f f 2 , g g s D ..1 7 ; > X c h L A J A Y | Y I ! ! A | b L ' m m W b C N Y C H H W H  .) E H H H c j X G ; = 1 ..s g , 2 f f         ",
"      2 2 < 2 g , , j X.o.1 # o o @ c c c L P ! h l I I I ` ! P L L b b I ` I | ` H ^ Y H ) ) E C C ' C @ > # X } 7 o.X.D , g 2 2 2         ",
"      2 8 8 8 , < < < S S j @ # o @ c - . c = - = O.! I W P I b ( P I ! C I ! U C ^ +.+.) E C R R R R H C C o 1 X.X.j j D < , 8 8 2         ",
"      2 9 8 9 < 2 6 < S S g 6 < O.= @.+ $ = L J & c L P B b Y A A G Y K P Y P | ` C +.E E R R Q H H H = H @ o o #.o.g j < 2 0 8 9 2         ",
"        9 < 6 r < 6 < < l n < 9 9 g O.@ O = ! B g > l U b b G G A A b b K G B P U l +.E R Q H C ' C C O.1 1 d # g S n g 8 9 6 < 9           ",
"        8 9 9 0 3 r r < 0 0 < 3 N 9 2 $.y @.I < 8 @ L b 0 . G L , C C ( A L G P L @ = H Q H C C %.b %.S 2 f , d d 2 g 8 6 2 9 9 8           ",
"        &.f 2 < 5 8 3 6 0 6 0 N N d 9 6 2 2 2 N D b 3 s C O.X.O.8 b o : @.G B > O.. + g g 2 2 b b %.%.8 9 9 f , 2 8 3 r 2 d 2 f &.          ",
"          6 9 2 f 2 0 r 8 6 r 6 0 8 d d d 8 N k k k b s X.s X., d s f f b b . q b 0 q 0 5 0 0 3 ] %.b < < < f 2 2 8 8 2 f 9 8 6             ",
"          6 < 9 , h , 2 0 6 0 r 8 6 X.N D N b k k N s X.X.d e f b s 2 b C < O.5 q q 4 q 4 5 q 3 %.%.b 3 0 5 3 8 8 8 9 f 6 8 < 6             ",
"            9 f h G ] , 2 8 9 d ] N X.*.k ] *.] N b M X.b , 6 8 8 s b b M e 6 w w e q q q 4 4 0 %.b b q r 6 2 , 8 < 9 6 < < 9               ",
"            < h J P Y 2 , , f ] X.N m N *.x x ] %.N b M X.s 2 9 d d *.*.M M e b q e e q 4 q 5 0 b %.b r 6 9 , f , 0 6 < < 2 <               ",
"          2 A J P Y 2 , f 9 , ] 9 ] N ] x x x *.] ] b N b X.d 2 b s s *.b r 0 q e e w e q q e q b %.r 6 9 , f J d 6 9 2 f 2 2               ",
"          , B A J P f , , N < ] X.] m m %.x x x x b b D ] d *.] b *.*.*.b b r r q q e e w e q 5 3 b 6 9 , f J G d 9 2 f d , 2               ",
"            2 , B A J P f , < 3 d N M N N %.%.x x b x ] ' %.g M D b *.b 8 g b r q q e e w e q 5 3 b < 2 , f J G d 9 2 f d , 2               ",
"            f g   B A f , , , 9 f 6 d s %.%.%.M M k b b g ] g M 0 D b 8 3 M b 4 3 r 3 r r 5 0 0 3 b 9 , , f J G d 9 f ,   g f               ",
"              , < < , , 6 3 5 2 6 0 N s M X.%.M N b k k k 8 , ] 3 3 b b < 6 9 4 b 6 3 6 0 6 8 < < b f L A G 5 3 6 2 d < < ,                 ",
"                , d 2 6 6 8 8 < N < d < , f ] k ] k ' ' < ' < , ] ] f < < 9 2 f 2 < 8 8 0 6 < f , b f L 8 5 6 6 6 6 2 d ,                   ",
"                  2 > 6 < 5 6 f 5 < 9 6 6 s X.N s X.X.' ] 2 2 ] < 2 f b 2 2 f < f 2 < < 6 9 2 < 6 b 9 < 5 6 < =.> < 2                       ",
"                    * =.% $ . 6 5 < 6 8 f s d f , d X.X.' 6 < f f 9 f 2 f 2 8 4 6 d f 9 2 f , 2 8 b 6 < 5 6 . $ % *                         ",
"                      O o # = 6 5 < 5 < 2 , 2 , d s X.X.X.' 6 < 8 6 2 2 2 2 9 < 6 d f < 2 < 2 2 2 b 5 < 5 6 = # o O                         ",
"                      O o # = 6 5 < 8 2 2 2 2 g X.X.X.d 6 ' 4 4 < 2 9 f 2 , , < 6 d f < 2 < 2 2 2 b 5 < 5 6 = # o O                         ",
"                      # X = 7 6 < f 8 2 d   f X.X.8 < < 4 6   4 f , 2 f , f   6 4 < < 8 d f f   d b 8 f < 6 7 = X #                         ",
"                      = . 7   D g g 8 < d d , d s , 8 3 8   f d , f f f , d f   8 3 8 , , d , d d < 2 g g D   7 . =                         ",
"                      = .             8 2 , d     s 2 g   2 d s , , , , , s d 2   g 2 d     d , 2 2             . =                         ",
"                                        < , , 6     d 2 , d s g g d g d d g s d , 2 d     6 , , 2                                           ",
"                                            g , < 6 8 , s D g d d g     d d g D s , 8 6 < , g 2                                             ",
"                                                g g g s D                       D s g g g 2                                                 ",
"                                                                                                                                            "
};
