/* XPM */
static char *caco_walk6[] = {
/* columns rows colors chars-per-pixel */
"68 71 95 2 ",
"   c magenta",
".  c gray39",
"X  c #939393",
"o  c gray42",
"O  c #5B5B5B",
"+  c #8B8B8B",
"@  c #979797",
"#  c gray50",
"$  c #9F9F9F",
"%  c gray31",
"&  c #6F6F6F",
"*  c #777777",
"=  c #838383",
"-  c gray28",
";  c #BF0000",
":  c #D70000",
">  c #EF0000",
",  c #FF1F1F",
"<  c #E30000",
"1  c #CB0000",
"2  c gray34",
"3  c gray67",
"4  c #A70000",
"5  c #B30000",
"6  c red",
"7  c #434343",
"8  c gray23",
"9  c #B7B7B7",
"0  c #9B0000",
"q  c #FF3F3F",
"w  c #8B0000",
"e  c #670000",
"r  c #730000",
"t  c #373737",
"y  c gray70",
"u  c gray78",
"i  c #CBCBCB",
"p  c #2F2F2F",
"a  c #A7A7A7",
"s  c #7F0000",
"d  c #272727",
"f  c #4F0000",
"g  c #5B0000",
"h  c #A33B3B",
"j  c #771717",
"k  c #831F1F",
"l  c #A73F3F",
"z  c #7F1B1B",
"x  c #8B2323",
"c  c #C76363",
"v  c #BB5757",
"b  c #9B3333",
"n  c #670B0B",
"m  c #731313",
"M  c #972F2F",
"N  c #DB7B7B",
"B  c #5F0707",
"V  c #8F2B2B",
"C  c #AF4747",
"Z  c #6B0F0F",
"A  c #5B0707",
"S  c #732B00",
"D  c #B34F4F",
"F  c #BF5B5B",
"G  c #D37373",
"H  c #CB6B6B",
"J  c #E78F8F",
"K  c #EB9797",
"L  c #232323",
"P  c #1B1B1B",
"I  c #DF8787",
"U  c #F7ABAB",
"Y  c black",
"T  c #1F170B",
"R  c #000053",
"E  c #00002F",
"W  c #470000",
"Q  c #131313",
"!  c #4B371B",
"~  c #430000",
"^  c #00006B",
"/  c #0000B3",
"(  c #00009B",
")  c #000083",
"_  c #0000E3",
"`  c blue",
"'  c LightGray",
"]  c #332B13",
"[  c #0000CB",
"{  c #3F2F17",
"}  c #874307",
"|  c #FF5F5F",
" . c #FF7B7B",
".. c gray86",
"X. c white",
/* pixels */
"                                                                                                                                        ",
"                                                                                                                                        ",
"                                                                                                                                        ",
"                                                                                                                                        ",
"                                          . X                                                                                           ",
"                                    o     . X                                 O                                                         ",
"                                  o o     . + @                               o O                                     O                 ",
"                                  o o     . # @                               + .                                   $ %                 ",
"                                & o o     O # X @                             X . &                                 $ %                 ",
"                                o o *     O * = @                             X . &                               $ @ %                 ",
"                                . * +       o # X @                           X . &                               X X -                 ",
"                        o       O * @ #     O * = @ @             ; : > , < 1 1 . &                             $ X = -                 ",
"                        o +     2 & 3 X     - . * @ 3 + 4 4 : : ; ; 5 ; < > 6 6 < 1 1                           X = * 7                 ",
"                        o & +   % o 3 X X 4 8 % & @ 3 9 = 0 5 : 6 , < 5 ; , , q 6 < : 1 4                     $ = * %                   ",
"                          2 + + + w e e 4 4 r t 2 + y u i * 0 ; : : , < 5 > 6 , q 6 1 : ; 0 : 6             $ X # . 7                   ",
"                          % o @ + 2 e e w 4 w t - . + y y u * 1 ; ; : : < : < , , , : 1 4 0 < < > : 5     $ X + o % 7                   ",
"                            2 o $ + w w r w 0 p % - . + a y y . < 6 ; ; 5 ; 1 < , 6 < : ; 0 : 6 : 1 5 s $ + # & 2 7                     ",
"                          s % O o 3 # e w w w r 8 % - O * + = = 4 , : ; 1 5 ; 1 > 6 < : 5 0 < < > : 5 5   # & 2 % 7                     ",
"                          5 e % % o 3 # w 0 w r d - % - % % 2 . 0 6 > ; 5 5 4 ; 1 < < 1 4 4 5 ; : 1 5 s s 7 2 % 7           = &         ",
"                      1 5 w r % . 7 o 9 % s ; r f p 8 % 7 7 7 0 ; < < 5 4 : 1 4 ; 1 1 ; 5 4 4 5 ; 5 4 5 0 s s 7 7       = = o .         ",
"                    0 4 w r r g % o 7 o % s : 0 r f p t t w 0 ; > < ; 4 w : 1 4 ; 1 1 ; 5 4 4 0 4 4 5 0 ; 0 5 0     = X = o .           ",
"                  r r r r e w g 8 . * w r ; : 0 w 0 0 4 ; 1 < < < ; 4 w 5 : > 1 4 ; ; 5 5 1 5 4 ; 1 ; 5 5 5 0 0   = X X o .             ",
"                g e e e e g w w g g w r ; : ; 4 s w 0 0 4 ; ; 5 5 ; w w 5 5 : > 1 4 4 5 1 5 0 : > > 1 ; 5 5 0 ; 0 o + o .               ",
"                4 e w 4 w e r s 0 0 5 5 : ; 4 w r s s s s s 0 0 0 5 w w 5 5 : > 1 4 4 5 1 5 0 : > > 1 < 5 0 < 4 ; s o .                 ",
"              5 ; s 4 : 4 s s < 1 4 0 s w 4 ; ; s g g g r 0 < > < 1 w 5 : 0 ; ; : ; 0 5 ; 0 5 : > 1 : < 0 w 1 < 4 < h                   ",
"            j j k s ; 4 w s 0 5 0 0 s w s s s e e g f f s 4 1 < > q 5 ; : ; 0 ; : ; 0 5 ; 0 5 : > 1 : 0 w 0 5 1 0 5 4                   ",
"            l l j s 4 w s s 0 4 ; 4 s w s s s e e r z e e s w 5 1 < 6 < : ; 0 ; : ; 0 5 ; 0 5 : > : 5 w k x w 5 5 ; 4 5                 ",
"            c v b s s r s s w ; : ; s 4 5 4 w r s j z n n e m m 0 1 > 6 1 : ; 0 1 5 0 4 0 s w 1 : 5 0 m M k x w 5 ; ; 0                 ",
"          c N c b j w 4 w r w 5 : : r 5 4 0 s w k z z n j j f B m 5 1 < 6 1 ; ; 5 w w 4 w r 5 > 4 0 w V x M x w 1 s 0 w s               ",
"          v c C x w 4 ; 4 w r w 4 w r 0 w s k k x M z n n Z Z A B m 0 ; < 6 1 4 w w w w r 0 > ; w w M x S h M x w 4 ; r s               ",
"        b l v l x 0 ; < 1 0 e s w s e w z z k V b C M z n Z j j Z A m 0 ; < > > > 0 5 w : 0 : 0 n z M S V D l x w > ; w 4 s             ",
"        x M x x s 4 : , < 4 e e e e m z x M V V l F C M z n z k Z B Z Z 5 ; 1 1 5 0 1 e 5 0 4 w n M D V v D F x w : 0 w 4 4             ",
"      s 0 x x g r 0 1 < 1 w f f f e e z z V b h M C h C V z n V m B B B m 0 4 4 4 0 0 e s 0 w B z V x v D l C x w 0 w w 0 1             ",
"      g e s s e e s 4 : 4 e f f e m z x M V V M M h l v C V z x x m m B B m w w w w w r r B B z V x V l G F C x w w 4 ; 4 ;             ",
"      e s 5 e 0 s e s 0 r r e f e m x b V x M M V l F F F C b V k k M k B B B B B B B B B B z b V b v H v F C V w 1 > ; w 4 e           ",
"      s s e 0 4 ; 0 r r r 0 s e e k V x z C v j k F c N J G D l b V k k j B B B B B B B B k z V l D G G D C D z Z 0 : e j w e           ",
"    g r s f w 4 1 ; w j 0 ; 0 s g k k j M v H Z k D c N N H c H F D C l b V k k k B A A z z V l F c G F D b D x g s 0 j r s e           ",
"    g e f f s 0 ; 5 4 z ; 1 4 s e j j j V D F Z z b D D h G v G K N F c F G v l x b C V F F C h l H D D b z M Z . L M M r e e           ",
"    f f g f r w 4 0 w e 5 ; 0 s P - n n x l D n k V C h D F G I G D C h l D F v C h v V H F I G v C D h V k Z S X L D D r e r           ",
"    e s w g f g r s s e w 4 s e P X - Z n x x n m k x h F v v C F G I H C b V x b M V U C c I c C C b h k m V . . L l l r e r           ",
"    g e s f r s w 0 w e s 0 s f P # o k j n n n m k j x M b M C v c G l C F F C x x V K V I G v l h x M j Z x X 7 L M M 0 r r           ",
"    r g r f r w 4 w r s s w r P P % O t k M Z n n n m k k x z h C l D I I c I c C h l I V G F l V x Z Z C 2 $ . Y L k k 5 w s           ",
"    g w f r w 4 w r s s s s g T T d 7 t 8 8 M x x j n n n m Z x b l v G c G v C v V v V h h l M k Z k x R 2 * 7 E f s s 4 w w           ",
"    e w f f e s w r s w 0 r g W W Y d L * X L 8 8 C x m n n m Z j z x h V h h l C M h M V V z k k x % = R % . E E f r s w w w           ",
"    e g e f f f e s w 1 1 7 # 7 W W Q L % o L * % L 8 8 M m n j - 8 m Z n n n m j m m z x b x ! ! & 2 & R E E E E r r s 5 w             ",
"      f w g f w 0 ; 4 1 > % u % n n ~ ~ t % L 7 8 L 2 o 8 L k = % % . ! - k k V k k D M V O o 7 7 2 p 2 R E E E f r 0 0 5 w             ",
"      f e s e w 5 ; 0 1 q o X o e j n n L p L t p L 7 % 8 L . . 7 2 = 7 # + . t $ o * o L - 2 % % t ^ t R E E f S 0 5 5 1 w             ",
"      f g w e s 0 5 0 1 , O o O g m m m n L L L d L t 7 p L 2 2 7 & + % . # 2 / & % $ % / 8 ( & O ) ^ R R f # . 5 1 , < ;               ",
"        f r w e s 0 0 5 , 5 s g s 0 j m m n n L n d L t p R - t 2 + 3 % 7 . 7 _ ` 7 2 ` _ / 7 # o ) R R f r ' # 5 1 : < ;               ",
"        f s r w w 0 0 4 < q > : ; - 2 j m 2 # g x m ] ] ] R ^ ) . = u o 7 / [ 8 O ` ` - { [ O + * R f f S w $ & 5 1 ; ; ;               ",
"        f g e w e s s w 1 , < : ; o $ o O + 9 } r x j j j g ^ ) & # y # 7 ( / O * 7 8 . - ! * @ # f w r e e & w 5 < 0 0 4               ",
"          g s e e w w 4 0 < < > 4 * 3 . % * $ . w S k k k m n m . * $ + % ) ( = + n w X & 0 * & . w e e . 4 w 0 : ; w w 4               ",
"          g e e w 5 5 4 4 ; : , 5 w ; % 7 o o O - 0 0 4 0 w 4 4 O * $ * 7 0 & a X w w & . 4 . * e s . + 5 , , : 4 w V V                 ",
"            e g w 5 5 4 1 4 ; : , > 5 w m 7 7 7 0 ; 5 4 0 0 5 4 s O * . 0 4 . X & ; : 1 4 0 4 e e e 1 5 < , ; 4 w V V V                 ",
"            s g w w w 0 4 w 0 ; 1 : , > 5 w w 0 4 , 1 ; 5 1 1 5 s e e s 4 1 4 0 ; : , , < > < 1 ; 5 ; ; , 1 4 w V l x                   ",
"            e g e 0 w w 0 1 4 0 4 ; : : , , > : < , < < : q | > : ; 5 ; 1 , , q , 1 > , q | q , , , q q > 4 w V l V V                   ",
"              e e e s 5 0 5 < 4 w w 0 4 1 1 1 1 1 1 , , , q | q q |  .| | | q q > ; < , , q | q q q , , > ; 4 l V x                     ",
"                  e e 5 0 5 5 1 5 0 x V h l D C h 4 1 1 : > q |  .| | q q , , 6 < 5 : < > , , , , , > : ; 5 4 0 b                       ",
"                  g 0 s s w 0 4 5 1 0 x b h l l h 4 1 1 : < < > , , , , , , > < : 5 : < : : < < < : : ; ; 5 w b                         ",
"                  0 s e e r w 0 0 4 5 5 x V V V V 4 w 5 5 5 ; 1 < < < : : 1 : : : 0 : : 1 4 5 ; 1 1 ; ; ; w b                           ",
"                w e     0 s w w 4 5 5 1 > > : > 4 5 4 1 s w 4 5 ; 1 1 1 ; 5 4 4 5 w 5 5 4 0 w 0 5 ; 4 w s                               ",
"                s 0 1     e s s 0 0 1 O = O w : ; 4 ; < 1 5 w 0 4 5 ; 5 0 w 0 4 0 w w < 4 s 5 6 1 r w w                                 ",
"                  s 5 5 1 5 r e w w O = a o % 1 ; 5 > 4 0 s s w 4 4 w 5 6 1   w s 5 : ; 0 w   1 6 5 5 w                                 ",
"                    s s r r e 5 s s % X ... 7 1 ; 5 > 4 0 0 0 w ; 5 ; : ;   w r s 4 1 0 s r w   ; : w s                                 ",
"                              r r s % $ * 8 8 1 4 ; : s   w w s s ; :     0 r g s 5 4 w 0   g r s 0 r                                   ",
"                                e s % * % 8 z w r ; 1 w r s s w r 0   0 s r g   5 1 e s 5     g g                                       ",
"                                    % % 8     e e 0 ; 0 s r r w 5 r 0 s g g     1 e     0 0 4 e                                         ",
"                                                    0 4 s w w 5   4 r g f e 4 1 e         e e                                           ",
"                                                      0 x e             j e e e                                                         ",
"                                                                                                                                        ",
"                                                                                                                                        "
};
