/* XPM */
static char *cacodemon1[] = {
/* columns rows colors chars-per-pixel */
"70 70 104 2 ",
"   c magenta",
".  c gray39",
"X  c #5B5B5B",
"o  c gray42",
"O  c #777777",
"+  c #6F6F6F",
"@  c #8B8B8B",
"#  c #838383",
"$  c #979797",
"%  c gray67",
"&  c gray50",
"*  c #A7A7A7",
"=  c #939393",
"-  c gray34",
";  c gray31",
":  c #9F9F9F",
">  c #B30000",
",  c #D70000",
"<  c #EF0000",
"1  c #434343",
"2  c #CB0000",
"3  c gray28",
"4  c gray23",
"5  c #4B371B",
"6  c #533F1F",
"7  c #7F0000",
"8  c #9B0000",
"9  c #A70000",
"0  c #E30000",
"q  c #BF0000",
"w  c red",
"e  c #FF3F3F",
"r  c #FF5F5F",
"t  c gray75",
"y  c gray78",
"u  c gray86",
"i  c gray70",
"p  c #DFDFDF",
"a  c #8B0000",
"s  c #730000",
"d  c #670000",
"f  c #8B2323",
"g  c #831F1F",
"h  c #6B0F0F",
"j  c #731313",
"k  c #771717",
"l  c #8F2B2B",
"z  c #7F1B1B",
"x  c #972F2F",
"c  c #B34F4F",
"v  c #A73F3F",
"b  c #732B00",
"n  c #A33B3B",
"m  c #5B0000",
"M  c #C76363",
"N  c #670B0B",
"B  c #0B1707",
"V  c #17330F",
"C  c #1F4317",
"Z  c #27531B",
"A  c #2F6323",
"S  c #AF4747",
"D  c #BB5757",
"F  c #3F832F",
"G  c #53AF47",
"H  c #77FF6F",
"J  c #BF5B5B",
"K  c #D37373",
"L  c #9B3333",
"P  c #13230B",
"I  c #4F0000",
"U  c #CB6B6B",
"Y  c #F7ABAB",
"T  c #E78F8F",
"R  c #3F2F17",
"E  c #DF8787",
"W  c #1B1B1B",
"Q  c #232323",
"!  c black",
"~  c #430000",
"^  c #2F2F2F",
"/  c #EB9797",
"(  c #5B0707",
")  c #CBCBCB",
"_  c #272727",
"`  c #470000",
"'  c #373737",
"]  c #00003B",
"[  c #000047",
"{  c #000053",
"}  c #AF4300",
"|  c #FF1F1F",
" . c LightGray",
".. c #874307",
"X. c #00006B",
"o. c #000083",
"O. c #0000B3",
"+. c #00009B",
"@. c #0000E3",
"#. c #B7B7B7",
"$. c #0000CB",
"%. c blue",
"&. c #1B1BFF",
"*. c white",
/* pixels */
"                                                                                                                                            ",
"                                                                                                                                            ",
"                                                                                                                                            ",
"                .                         X                                                   X                         .                   ",
"                . o                     X o                                                   o X                     o .                   ",
"                o o                     o O                                                   O o                     o o                   ",
"                . + O                 + O @                                                   @ O +                 O + .                   ",
"                  . O                 + # $                                                   $ # +                 O .                     ",
"                  X O #               + $ %                                                   % $ +               # O X                     ",
"                  X . O @             . @ % &                                               & % @ .             @ O . X                     ",
"                    X + # @           X # * =                                               = * # X           @ # + X                       ",
"                    - . O # @         ; + $ : &               > , < < < , >               & : $ + ;         @ # O . -                       ",
"                      ; o & @ = &     1 ; & = $ &         > 2 2 2 , < , 2 2 2 >         & $ = & ; 1     & = @ & o ;                         ",
"                      3 - o & @ = =   4 5 6 7 8 9 9 9 9 2 0 q > , w e w , > q 0 2 9 9 9 9 8 7 6 5 4   = = @ & o - 3                         ",
"                        ; - o & = : : & 7 7 8 q , , , 8 2 0 0 , w e r e w , 0 0 2 8 , , , q 8 7 7 & : : = & o - ;                           ",
"                        3 ; X o & : * * t & > > q , 0 > q < w , 0 w r w 0 , w < q > 0 , q > > & t * * : & o X ; 3                           ",
"      @ #                 3 - . o & % t y u t 8 9 q , 2 9 q , w q 0 w 0 q w , q 9 2 , q 9 8 t u y t % & o . - 3                 # @         ",
"        # # O               3 X . o O = i t p t 8 0 q 0 q 9 > q > q 0 q > q > 9 q 0 q 0 8 t p t i = O o . X 3               O # #           ",
"          & = @ O       q 2 8 3 X o o + O $ * i 9 < q 9 2 a 9 2 2 > q > 2 2 9 a 2 9 q < 9 i * $ O + o o X 3 8 2 q       O @ = &             ",
"            + @ * = & + > q > 8 3 . + o o + # @ > w q 9 8 a 9 2 < > > > < 2 9 a 8 9 q w > @ # + o o + . 3 8 > q > + & = * @ +               ",
"              . & $ % = & . , > 8 3 - . + . + O q 0 q > 2 q q 8 2 0 9 0 2 8 q q 2 > q 0 q O + . + . - 3 8 > , . & = % $ & .                 ",
"                - . @ $ = # . q 9 > 2 3 ; - X q , q 9 2 0 2 q > a > 2 > a > q 2 0 2 9 q , q X - ; 3 2 > 9 q . # = $ @ . -                   ",
"                  ; - + # O . < 7 8 9 2 q 2 2 2 > 9 8 > 2 , 2 8 7 s 8 s 7 8 2 , 2 > 8 9 > 2 2 2 q 2 9 8 7 < . O # + - ;                     ",
"                q q 4 ; - . < , 8 7 8 8 a a a 8 9 > q 2 q q 9 a s d s d s a 9 q q 2 q > 9 8 a a a 8 8 7 8 , < . - ; 4 q q                   ",
"              9 > < q 9 > 2 0 > 2 9 7 a 8 > > > q 2 0 < < , q 9 a s d s a 9 q , < < 0 2 q > > > 8 a 7 9 2 > 0 2 > 9 q < > 9                 ",
"              9 9 , < 2 8 7 8 > q , 8 f a 7 a 8 > q 2 0 0 < 0 2 9 a s a 9 2 0 < 0 0 2 q > 8 a 7 a f 8 , q > 8 7 8 2 < , 9 9                 ",
"            > q > 9 > 8 q q 8 9 8 7 f g h j k a a 8 9 > 2 2 , 0 q 2 a 2 q 0 , 2 2 > 9 8 a a k j h g f 7 8 9 8 q q 8 > 9 > q >               ",
"            > q 0 9 7 7 9 > , w , 9 f h j j k l z z a a 8 > q 2 > 2 a 2 > 2 q > 8 a a z z l k j j h f 9 , w , > 9 7 7 9 0 q >               ",
"          8 7 8 > 8 2 < 8 q , < > g f x f l l c v l j 7 g a 8 9 > 8 a 8 > 9 8 a g 7 j l v c l l f x f g > < , q 8 < 2 8 > 8 7 8             ",
"          b d s 7 a > , a > > 9 g x n n b f g x x x z s 7 l a 7 7 s m s 7 7 a l 7 s z x x x g f b n n x g 9 > > a , > a 7 s d b             ",
"          7 d d s s a 9 s a a g n n c v l b f c M v g N l s B V C Z A Z C V B s l N g v M c f b l v c n n g a a s 9 a s s m m 7             ",
"          a 7 d d d 7 a d k f S x v c D D l z f l l x z s V C F G H C A G F C V s z x l l f z l D D c v x S f k d a 7 d m m 7 a             ",
"        q 0 q 8 s d d d k x S x S J K c v L l z f v c x g S C A F C P C F A C S g x c v f z l L v c K J S x S x k d d d s 8 q 0 q           ",
"        0 w 2 > a s I d g x l S K J D K U D v L l z L x x g v C A A C A A C v g x x L z l L v D U K D J K S n x g d m m a > 2 w 0           ",
"      q 0 2 q 9 a d m m h z z c J S c M K K K c v L l z c v g x L v S v L x g v c z l L v c K K K M c S J c x b h m m I s 9 q 2 0 q         ",
"      > 2 q 9 a f f j m m h f c v L c D J K U M J c v l g z z j h h h h h j z z g l v c J M U K J D c L v c f h m m d d d a 9 q 2 >         ",
"      9 > 9 a f v L f 5 . b h x f l v S D c D K Y T J M J c v L g j h j g L v c J M J T Y K D c D S v l f x h b . 5 d 7 a 7 a 9 > 9         ",
"      7 9 a f n c v z R = o b h j z L c c n K E K c S M J U K E M n h n M E K U J M S c K E K n c c L z j h b o = R d 8 9 a s a 9 7         ",
"      d 7 7 x c v l d W . ; . l h g l S n c K U v x n S c J U K E J z J E K U J c S n x v U K c n S l g h l . ; . W d 7 8 9 a d 7 d         ",
"      b d j L x z d Q W 1 4 = o h j g f n c v S J K E U D D K T Y Y f Y Y T K D D U E K J S v c n f g j h o = 4 1 W I d 7 a s d d b         ",
"      a s s j j d a Q W ! R . : o h k f x L x S D M K E U J T E E U x U E E T J U E K M D S x L x f k h o : . R ! ~ I m d d m d s a         ",
"      s s s a 7 a 9 Q Q W ^ 1 O O - S g h f z n S D M E E M E / Y S M S Y / E M E E M D S n z f h g S - O O 1 ! ~ ~ ( 7 7 d d d d s         ",
"      8 a a 2 9 > X ) _ Q W ^ . O - x * X h h f L v D K J E M E / l Y l / E M E J K D v L f h h X * x - O . Q ` N N ) X > 7 9 a a 8         ",
"      8 9 q 0 > 8 o $ b Q Q Q 1 - ; ^ @ # g + h k z f n M K c D E l U l E D c K M n f z k h + g # @ ^ ; - 1 ` N z b $ o 8 8 0 q 9 8         ",
"        9 > 2 9 2 o o 5 I _ _ ' 1 ^ ] - + ; * + g x z z l n n c J x v x J c n n l z z x g + * ; + - [ [ 1 ' N z j 5 o o 2 9 2 > 9           ",
"        q 9 9 2 0 > 7 8 b I I _ _ ] [ ' - - # + g k g z f g g l x n x n x l g g f z g k g + # - - ' { [ ` N z j b 8 7 > 0 2 9 9 q           ",
"        } a 8 < < | , q . b . & _ ] [ { ' ^ . - 5 X 5 X X L f z z x x x z z f L X X 5 X 5 - . ^ ' _ { ` ( & . b . q , | < < 8 a }           ",
"          > 8 2 q , < O % . &  ...I [ { { X.3 ' - # 1 o : X l f x c U c x f l X : o 1 # - ' 3 Q X.( k f .. .& . % O < , q 2 8 >             ",
"          > 9 8 8 q 0 8 @ 3 + : . s I I { X.o.o.+ % ; - O 3 O.o : ; O ; : o O.3 O - ; % + +.o.( k f f s . : + 3 @ 8 0 q 8 8 9 >             ",
"          2 q 9 a 8 q 0 8 a X + a a b s I { o.+.# y + ^ 3 4 @.3 - X * X - 3 @.4 3 ^ + y # +.N k f s b a a + X a 8 0 q 8 a 9 q 2             ",
"            > q 7 k 9 q , | 8 a 8 8 8 a s I o.+.& #.& 1 O.$.@.%.&.3 O 3 ^ &.%.$.O.1 & #.& h k f s a 8 8 8 a 8 | , q 9 a 2 q >               ",
"            9 a k l L L 8 q , | 0 9 . 9 8 a s I O : @ X 5 $.- + - ^ 3 ^ - + - $.5 X @ : O k f a 8 9 . 9 0 | , q 8 a 9 2 > > 9               ",
"            > k L D U D L a 8 2 0 | > . @ 9 8 a o = $ O 1 5 . = . 4 &.4 . = . 5 1 O $ = o a 8 9 @ . > | 0 2 8 7 q > 2 > > 8 >               ",
"            8 7 x v J K v l a 9 2 | 0 2 > . @ 9 X O : O 1 8 + * = a a a = * + 8 1 O : O X 9 @ . > 2 0 | 2 9 L l 7 0 9 8 a 7 8               ",
"          8 7 d g x v J v l g a 9 2 | 0 , 2 > 9 7 X O . 8 9 . = + q , q + = . 9 8 . O X 7 9 > 2 , 0 | 2 9 L D L s 2 8 a s d 7 8             ",
"          a d     g x v L l g 9 a 9 2 < | | < 9 7 d d 7 9 2 9 8 q 0 w 0 q 8 9 2 9 7 d d 7 9 < | | < 2 9 L D S l s 9 a 7     d a             ",
"          7 8 2     g f l f a 8 9 a 9 2 , 0 , < 9 7 d 9 2 , 0 0 0 0 0 0 0 0 < 0 2 9 d 7 9 < , 0 , 2 9 l S v l 7 7 a 7     2 8 7             ",
"            7 > 2 > s 7 2 , < q 8 a a 9 > > q 2 < 9 9 2 0 2 > , 0 , , , 0 , > 2 0 2 9 9 < 2 q > > 9 a f x l < , 2 7 s > 2 > 7               ",
"              7 s s d 2 . X > < q a a 7 7 a 9 > q 2 , 2 q > 9 2 2 2 > 2 2 2 9 > q 0 < < q > 9 a 7 7 a f q < > X . 2 d s s 7                 ",
"                      + :  .X > < > 9 2 w > a 8 9 > q > 8 a 8 9 2 < a w 2 9 8 a 8 > q > 9 8 a > w 2 9 > < > X  .: +                         ",
"                      & $ # X a < > 2 < q 8 7 a 8 9 > 8 a > a q 9 0 s 0 9 q a > a 8 > 9 8 a 7 8 q < 2 > < a X # $ &                         ",
"                      + O . ; 7 < > < q 8 8 8 > 8 > a s 2 w > 7 8 q , q 8 7 > w 2 s a > 8 > 8 8 8 q < > < 7 ; . O +                         ",
"                      . o ; 4 2 > a , 8 s   a a s q > > w 2   a 7 8 , 8 7 a   2 w > > q s a a   s 8 , a > 2 4 ; o .                         ",
"                      ; X 4   I d d q > s s 7 s 7 7 q , q   a s 8 a 2 a 7 s a   q , q 7 7 s 7 s s > q d d I   4 X ;                         ",
"                      ; X             q 8 7 s     s 8     8 s m > 7 9 > 7 m s 8     8 s     s 7 8 q             X ;                         ",
"                                        > 7 7 2     s 8 7 s m   > 7 d 2 >   m s 7 8 s     2 7 7 >                                           ",
"                                            d 7 > 2 q 7 m m     8     d 2     m m 7 q 2 > 7 d                                               ",
"                                                d d d m I d 9 8 d       d 2 9 d I m d d d                                                   ",
"                                                          d d d           d d d                                                             ",
"                                                                                                                                            "
};
