/* XPM */
static char *caco_walk4[] = {
/* columns rows colors chars-per-pixel */
"68 71 93 2 ",
"   c magenta",
".  c #5B5B5B",
"X  c gray42",
"o  c #777777",
"O  c #6F6F6F",
"+  c #8B8B8B",
"@  c gray34",
"#  c gray39",
"$  c #838383",
"%  c #979797",
"&  c gray67",
"*  c gray50",
"=  c gray31",
"-  c #A7A7A7",
";  c #939393",
":  c gray28",
">  c #9F9F9F",
",  c #7F0000",
"<  c #B30000",
"1  c #434343",
"2  c #9B0000",
"3  c #D70000",
"4  c red",
"5  c #EF0000",
"6  c #CB0000",
"7  c gray23",
"8  c #BF0000",
"9  c #A70000",
"0  c #E30000",
"q  c #FF3F3F",
"w  c #FF7B7B",
"e  c #FF5F5F",
"r  c #FF1F1F",
"t  c gray75",
"y  c #373737",
"u  c gray78",
"i  c gray86",
"p  c #DFDFDF",
"a  c gray70",
"s  c #8B0000",
"d  c #730000",
"f  c #5B0000",
"g  c #670000",
"h  c #5B0707",
"j  c #6B0F0F",
"k  c #731313",
"l  c #771717",
"z  c #7F1B1B",
"x  c #5F0707",
"c  c #831F1F",
"v  c #972F2F",
"b  c #670B0B",
"n  c #732B00",
"m  c #470000",
"M  c #530707",
"N  c #8F2B2B",
"B  c #8B2323",
"V  c #4F0000",
"C  c #9B3333",
"Z  c #B34F4F",
"A  c #A73F3F",
"S  c #A33B3B",
"D  c #AF4747",
"F  c #D37373",
"G  c #BF5B5B",
"H  c #C76363",
"J  c #BB5757",
"K  c #CB6B6B",
"L  c #DB7B7B",
"P  c #EB9797",
"I  c #DF8787",
"U  c #E78F8F",
"Y  c #4B371B",
"T  c #3F2F17",
"R  c #1B1B1B",
"E  c #430000",
"W  c black",
"Q  c #CBCBCB",
"!  c #232323",
"~  c #000047",
"^  c #2F2F2F",
"/  c #000053",
"(  c #272727",
")  c #000083",
"_  c #00009B",
"`  c #AF4300",
"'  c #0000B3",
"]  c #0000CB",
"[  c #0000E3",
"{  c blue",
"}  c #1B1BFF",
"|  c LightGray",
" . c white",
/* pixels */
"                                                                                                                                        ",
"                                                                                                                                        ",
"                                          .                                                   .                                         ",
"                                        . X                                                   X .                                       ",
"                                        X o                                                   o X                                       ",
"                                      O o +                                                   + o O                                     ",
"                  @ #                 O $ %                                                   % $ O                 # @                 ",
"                  @ #                 O % & o                                               o & % O                 # @                 ",
"                  @ X X               # + & *                                               * & + #               X # =                 ",
"                  @ # O o             . $ - ; o                                           o ; - $ .             o O @ :                 ",
"                  @ . # o O           = O % > * o             , < < < < < ,             o * > % O =           O o # = 1                 ",
"                    @ . o $ O         1 X * ; % * o   , 2 2 < 3 4 4 5 5 3 < < 2 2 ,   o * % ; * X 1         O $ o . =                   ",
"                    1 : # o + O       1 # * ; 2 2 2 < < < < 4 5 < 6 3 6 < 6 6 < < < < 2 2 2 ; * # 1       O + o # = 1                   ",
"                    1 : @ O $ + O     7 . , , 2 < 8 8 9 6 0 0 8 3 q q 0 3 8 8 0 6 9 8 8 < 2 , , . 7     O + $ O @ : 1                   ",
"                      : : . o + > +   7 , , , 2 6 6 6 < 6 0 3 6 q w e r 3 6 < 0 6 < 6 6 6 2 , , , 7   + > + o . = :                     ",
"                      1 : @ X o ; > > * 6 0 4 5 5 0 3 < 6 0 6 3 e e e q r 3 9 0 6 < 3 0 5 5 4 0 6 * > > ; $ X @ : 1                     ",
"                        7 : = X * ; - - t t ; o 4 4 3 < 6 0 8 3 q q e q 4 3 9 0 6 < 3 4 4 o ; t t - - ; * X = : 7                       ",
"                        y 7 : @ X * ; - u i t t o 4 0 9 8 5 < 3 5 r q 4 5 3 6 5 8 9 0 e o t t i u - ; * X @ : 7 y                       ",
"                        8 y 7 : @ X o ; - t p t o 0 0 9 9 4 4 6 8 0 4 0 8 6 4 4 9 9 0 w o t p t - ; o X @ : 7 y 8                       ",
"      @ X + + *       8 8 6 y 7 : @ X O o % - a o 5 0 9 8 3 4 3 < 8 0 8 < 3 4 3 8 9 0 w o a - % o O X @ : 7 y 6 8 8       * + + X       ",
"        . @ O + - -   3 < 8 < y 7 : @ X X O $ + o 4 3 9 6 9 3 4 < 8 0 8 < 4 3 9 6 9 3 4 o + $ O X X @ : 7 y < 8 < 3   - - + O @ . @     ",
"          . @ # * % & ; * # 3 < y 7 : : @ # O o 8 0 8 < 2 8 9 4 6 < 8 < 6 4 9 8 2 < 8 0 8 o O # @ : : 7 y < 3 # * ; & % * # @ .         ",
"              @ @ # + % ; $ # 5 9 < y 7 = @ . 8 3 8 9 6 0 8 8 6 5 < < < 5 6 8 0 6 6 9 8 3 8 . @ = 7 y , , 5 # $ ; % + # @ @             ",
"                  = @ O $ o # 5 , 2 9 6 8 6 6 6 < 9 2 0 4 0 8 2 5 < < < 5 2 0 4 0 < 2 9 < 6 6 6 9 2 s , , 5 # o $ O @ =                 ",
"                8 8 7 = @ # @ 3 3 < 2 2 s s s 2 9 < 8 6 0 3 6 < 6 0 9 0 6 < 6 0 6 9 9 < 9 2 s d f f f d s 3 @ # @ = 7 8 8               ",
"              9 < 5 3 9 7 7 9 0 6 9 , s 2 < 8 < 8 6 0 5 5 3 8 2 s < 6 < s 2 8 8 9 8 0 6 8 < 8 < 2 d f , < 6 9 7 7 9 6 5 < 9             ",
"              9 < 5 8 3 0 6 0 3 < 9 d d 2 < 8 < 8 6 4 4 5 3 8 9 , d 2 d , 9 2 9 6 0 5 0 8 < 8 < 2 s d f g 6 0 5 5 6 8 5 < 9             ",
"            < 9 9 3 5 6 2 , 2 < < d g g g , s 2 < 8 6 4 5 3 8 9 s d g d s 2 9 6 0 4 5 8 < 2 s , h h f f g d s 3 3 5 5 3 9 9 <           ",
"            < 8 < 9 < 2 2 < 2 9 2 g g g j k l s s 2 9 5 4 3 8 9 s d g d s 9 8 0 4 5 6 2 s s l h h h h , 2 , , d 2 < < 2 < 8 <           ",
"          2 < 8 0 9 , , 2 < 3 4 3 d g j k k l j z z s < 6 4 8 9 s d g d s 9 8 4 6 < 9 z z x x x x h h s < 9 s s d , , 9 0 8 < 2         ",
"          2 , 2 < 2 6 5 2 8 3 5 < s c v z z z l j h b s 2 5 0 6 9 s d s 9 6 0 0 2 s s j x x j l j x h s 2 < 9 s f 5 s s < 2 , 2         ",
"          n g d , s < 3 s < < 9 s , z c z l l l x h m M c < 4 0 8 6 s 6 8 0 4 < c , M h h j j l j x M , s 2 9 s f 3 < s , d g n         ",
"          , f f d d s 9 d s s c , z N B z k k k b b h m M s 8 6 < 6 s 6 < 6 8 s M m V h b b j j z z x z , s s s d 9 s d d f f ,         ",
"        8 s , f f g g g g l , N v C Z A N l z b j l k h M h 2 9 < 2 s 2 < 9 b h m V x b l j b N z z z z z z B l g g g g f f , 2 8       ",
"        0 6 2 , d f f g c v S D F v S A S N b l l c z k b h j , , d f d , j b h j x j j b z z z B v v z B C B z j g f f g , 2 6 0       ",
"      8 3 3 < 2 d V f f l c v Z G C Z H S S B z l j l k k b h h h h h h h h h b j z N C A A D D S N B z C Z S B l f f V d 2 < 3 8       ",
"      < 6 8 9 s g g g l l c B Z A C Z J S v B c S Z K K S c z k j z j z j k z z B v A Z K L K F D B z z A Z v B B h g g g s 9 8 6 8     ",
"      9 < 9 s , s , g j j l c v B N A D C B A Z F P I H K K A B z c j c z B A H F H G F U F J Z J A z k B v B c j h g , s , s 9 < <     ",
"      9 < 9 s , 2 s g j j j l v B N A D C J Z F P L G D K I K A B C j C B A F F G H G L P F J Z J D B k b B c l h Y g , s , s 9 < 9     ",
"      , 9 s d s 9 2 g T ; X n j k z C Z C G F P F Z D v C K I K D S j S D I G Z A S D Z F I F S Z Z C b V j n X ; T g 2 9 s d s 9 9     ",
"      g , g s 9 2 s g R # = # X j k c B S G J J A F I D v C J J J v B v C B N C D K I F G D A G D B c h j N # = # R g , 2 9 s g , ,     ",
"      n g g d s , g V R 1 7 ; > X j l B v C v A J H F I D D G D v B v B B D G G D A F H J D v C Z B l j X X ; 7 1 R V g , s d g g g     ",
"      s s 2 , g g f V E W T # o o @ j j j B z S D J H D D G I H D S H S D H I H I I Z A D S z B j j j @ o > # T W E V f g g , 2 s n     ",
"      2 2 < 2 g , , h m E W 1 # o @ j - . j j B C A J D H F J D J N K N J D J F H F J A C B j j . - v @ o o 1 W E E h , , , 2 < 2 s     ",
"      2 8 8 8 , < . Q m m m ! ~ @ = ^ + $ = = j l z B S N S S A D v A v D A S S N S B z l j = = $ + ^ = @ # ! m b b Q . < , 8 8 8 2     ",
"      2 9 8 0 2 2 6 % n z b m y ~ ~ ~ @ O = - = c j z z B c c N v S v S v N c c B z z j c = - = O @ ~ ~ 1 1 m b z n % X < 2 0 8 9 2     ",
"        9 < 6 9 6 < X Y k z b b m ~ / y @ @ $ y @ $ 1 X . C B z z v v v z z B C . X 1 $ @ y : @ @ y / ~ m y b z k Y X 8 6 9 6 < 9 2     ",
"        8 9 9 6 0 < 6 2 n = = * h m / ( y ^ # ) O & = @ > . N B v Z K Z v B N . > @ = & O _ ) ^ y ( / m h b = = n 2 8 6 0 6 9 9 8       ",
"        ` s 2 < 5 r 3 r < = # * h m / ( y ^ # V o > + . ' ] [ { } : o : ^ } { ] ' . + > o ~ ~ ( y ( / m h * # = 2 8 3 r 5 5 2 s `       ",
"          < 2 2 8 3 5 r r 6 < O s s n s V / ) s X ; % o 1 Y # ; # 7 } 7 # ; # Y 1 o % ; X ( ( ( ( ( n s s O . 2 6 0 5 3 8 2 2 <         ",
"          6 9 2 s 2 8 0 r r 6 6 2 2 8 6 s s d 9 . o > o 1 2 O - ; s s s ; - O 2 1 o > o . 9 9 s 2 9 2 2 9 < 6 r 3 8 8 2 s 9 8 6         ",
"            < 9 , l , 2 3 0 0 r 8 8 6 8 8 2 2 9 , . o # 2 9 # ; O 8 3 8 O ; # 9 2 # o . , 9 < 2 2 9 < 8 6 r 3 8 8 8 9 s 6 8 <           ",
"            9 s l N s , 2 8 8 6 0 3 6 < < 6 r 3 , g g , 9 6 9 2 8 0 0 0 8 2 9 6 9 , g g , < 6 6 < 8 6 r r 6 2 , 8 < 9 6 < < 9           ",
"            < l C S A 2 , , s 9 6 r 0 0 3 r 5 r 3 8 < 8 6 0 5 0 r r 3 3 r q r r 6 8 < 8 3 5 e q 3 0 0 r 6 9 , s , 0 6 < < 2 <           ",
"            2 2 v C S A 2 s , s 9 6 r 5 r 0 3 5 r q r r r q e q r 5 6 6 5 q q e e e w e q q e q r r r 6 9 , s C d 6 9 2 s 2 2           ",
"            2 , c v C S s , , 9 s 9 6 6 3 < 8 5 5 r q q q e q r r 0 8 8 0 4 r r q q e e w e q 5 3 6 6 9 , s C N d 9 2 s d , 2           ",
"            s g   c v s , , , 9 s 9 6 6 3 < 8 0 0 5 r r r r r 5 0 3 < < 3 0 5 r r r r r r 5 0 0 3 6 6 9 , s C N d 9 s ,   g s           ",
"              , < < , , 6 3 5 8 2 s s 2 < < 8 6 3 3 3 0 0 0 3 3 0 3 < < 3 3 3 6 3 3 0 0 0 6 8 < < 9 s B v N 5 3 6 2 d < < ,             ",
"                , d 2 6 6 6 6 5 8 s s , , s 9 < 8 6 6 6 8 < 9 6 3 3 2 2 < 6 9 < 8 6 6 6 8 < 9 s , , s B 8 5 6 6 6 6 2 d ,               ",
"                    2 < > | < 6 5 < 9 6 6 < s 2 9 < 8 < 2 s 2 9 < < s s 2 9 2 s 2 < 8 < 9 2 s < 6 6 9 < 5 6 < | > < 2                   ",
"                      * % $ . 6 5 < 6 5 8 2 , s 2 9 < 2 s < s 8 9 2 s s 9 8 s < s 2 < 9 2 s , 2 8 5 6 < 5 6 . $ % *                     ",
"                      O o # = 6 5 < 5 8 2 2 2 < 2 < s d 6 4 < , 2 2 s 2 2 , < 4 6 d s < 2 < 2 2 2 8 5 < 5 6 = # o O                     ",
"                      O o # = 6 5 < 5 8 2 2 2 < 2 < s d 6 4 < , 2 2 s 2 2 , < 4 6 d s < 2 < 2 2 2 8 5 < 5 6 = # o O                     ",
"                      # X = 7 6 < s 8 2 d   s s d 8 < < 4 6   s , 2 s 2 , s   6 4 < < 8 d s s   d 2 8 s < 6 7 = X #                     ",
"                      = . 7   V g g 8 < d d , d , , 8 3 8   s d , s s s , d s   8 3 8 , , d , d d < 2 g g V   7 . =                     ",
"                      = .             8 2 , d     d 2 g   2 d f , , , , , f d 2   g 2 d     d , 2 2             . =                     ",
"                                        < , , 6     d 2 , d f g g d g d d g f d , 2 d     6 , , 2                                       ",
"                                            g , < 6 8 , f V g d d g     d d g V f , 8 6 < , g 2                                         ",
"                                                g g g f V                       V f g g g 2                                             ",
"                                                                                                                                        ",
"                                                                                                                                        "
};
