/* XPM */
static char *cacodemon3[] = {
/* columns rows colors chars-per-pixel */
"70 70 105 2 ",
"   c magenta",
".  c #6F6F6F",
"X  c gray39",
"o  c #777777",
"O  c #5B5B5B",
"+  c #838383",
"@  c #8B8B8B",
"#  c gray42",
"$  c gray34",
"%  c gray28",
"&  c gray31",
"*  c gray50",
"=  c #939393",
"-  c #CB0000",
";  c #E30000",
":  c #D70000",
">  c red",
",  c #FF3F3F",
"<  c #9B0000",
"1  c #9F9F9F",
"2  c #B30000",
"3  c #BF0000",
"4  c #EF0000",
"5  c #A70000",
"6  c #8B0000",
"7  c #A7A7A7",
"8  c gray86",
"9  c gray75",
"0  c gray67",
"q  c #DFDFDF",
"w  c #979797",
"e  c gray70",
"r  c #7F0000",
"t  c #730000",
"y  c #670000",
"u  c gray23",
"i  c #FF1F1F",
"p  c #731313",
"a  c #8B2323",
"s  c #6B0F0F",
"d  c #831F1F",
"f  c #771717",
"g  c #8F2B2B",
"h  c #7F1B1B",
"j  c #972F2F",
"k  c #B34F4F",
"l  c #A73F3F",
"z  c #0B1707",
"x  c #A33B3B",
"c  c #732B00",
"v  c #874307",
"b  c #13230B",
"n  c #4F0000",
"m  c #5B0000",
"M  c #C76363",
"N  c #670B0B",
"B  c #17330F",
"V  c #AF7B1F",
"C  c #D7BB43",
"Z  c #AF4747",
"A  c #BB5757",
"S  c #9B5B13",
"D  c #1F4317",
"F  c #3F832F",
"G  c #53AF47",
"H  c #EBDB57",
"J  c #FFFF73",
"K  c #BF5B5B",
"L  c #D37373",
"P  c #9B3333",
"I  c #C39B2F",
"U  c #2F6323",
"Y  c #CB6B6B",
"T  c #F7ABAB",
"R  c #E78F8F",
"E  c #373737",
"W  c #DF8787",
"Q  c #EB9797",
"!  c #430000",
"~  c #434343",
"^  c #5F0707",
"/  c #2F2F2F",
"(  c #000047",
")  c black",
"_  c #272727",
"`  c #4B371B",
"'  c #000053",
"]  c #00006B",
"[  c #232323",
"{  c #CBCBCB",
"}  c #470000",
"|  c #AF4300",
" . c #00003B",
".. c #000083",
"X. c #00002F",
"o. c #0000B3",
"O. c LightGray",
"+. c #00009B",
"@. c #0000E3",
"#. c #1B1BFF",
"$. c #0000CB",
"%. c blue",
"&. c gray78",
"*. c #B7B7B7",
"=. c white",
/* pixels */
"                                                                                                                                            ",
"                          . .                                                                               . .                             ",
"                          X o                                                                               o X                             ",
"                          X o                                                                               o X                             ",
"                          X o                                                                               o X                             ",
"                          O o +                                                                           + o O                             ",
"                          O . + @           O                                               O           @ + . O                             ",
"                          O X + @         O #                                               # O         @ + X O                             ",
"                          $ X o + @       # o                                               o #       @ + o X $                             ",
"                          % & # * @ = * . o @                                               @ o . * = @ * # & %                             ",
"                            % $ # * @ = = O O O           - ; ; : > , > - < < -           O O O = = @ * # $ %                               ",
"                            % & $ # * = 1 1 * 2 2 3 : ; 2 3 4 > : ; > - 5 5 < < 6 < 6 3 2 2 * 1 1 = * # $ & %                               ",
"                            % % & O # * 1 7 8 9 < < ; 3 ; 3 5 2 3 2 3 2 3 2 5 6 6 6 ; < < 9 8 7 1 * # O & % %                               ",
"                . 1           % % $ X # * 0 9 q 9 5 4 3 5 - 6 5 - - 2 - - 5 6 < 5 3 4 5 9 q 9 0 * # X $ % %           1 .                   ",
"                X . 1         < % O # # . o w 7 e 2 > 3 5 < 6 5 - 4 2 4 - 5 6 < 5 3 > 2 e 7 w o . # # O %           1 . X                   ",
"                  X . 1 .   3 2 < % X . # # . + @ 3 ; 3 2 - 3 3 < - ; - < 3 3 - 2 3 ; 3 @ + . # # . X % < 2     . 1 . X                     ",
"                  X X * 1 * X : 2 < % $ X . X . o : 3 5 - ; - 3 2 6 2 6 2 3 - ; 5 5 3 : o . X . X $ % < 2 : X * 1 * X X                     ",
"                    X X * = + X 3 5 2 - % & $ O 3 2 5 < 2 - : - < r t r < - : 5 2 - 5 2 3 O $ & % - 2 5 3 X + = * X X                       ",
"                    & $ X * o X 4 r < 5 - 3 - - - 5 2 3 - 3 2 5 6 t y t 6 5 5 : 4 4 2 5 - - - 3 - 5 < r 4 X o * X $ &                       ",
"                      u & $ X 4 : < r < < 6 6 6 < 5 - ; 4 4 : 2 5 6 t 6 5 2 : 4 4 ; - 3 < 6 6 6 < < r < : 4 X $ & u                         ",
"                    4 3 5 2 - ; 2 - 5 r 6 < 2 2 5 5 3 ; ; 4 ; - 5 6 t < 2 : 4 4 i 4 : 3 2 6 t p 6 r 5 - 2 ; - 2 5 3 4                       ",
"                  : 4 - < r < 2 3 : < a 6 r 6 < 5 < 5 2 - - : ; 3 : 6 : : 4 4 4 4 : 3 2 < p s s 6 a < : 3 2 < r < - 4 :                     ",
"                2 5 2 < 3 3 < 5 < r a d s p f 6 6 < 5 2 3 - : ; - 3 6 3 : ; : - - 3 5 < p s f p s d a r < 5 < 3 3 < 2 5 2                   ",
"                ; 5 r r 5 2 : > : 5 a s p p f g h h 5 3 2 2 2 2 : 2 6 2 2 2 2 2 2 2 5 s h g f p p s a 5 : > : 2 5 r r 5 ; 3                 ",
"              < 2 < - 4 < 3 : 4 2 d a j a g g k l g p 5 - i i : 2 r z r 2 i i : 3 5 p g l k g g a j a d 2 4 : 3 < 4 - < 2 <                 ",
"              t r 6 2 : 6 2 2 5 d j x x c a d j j j h t g v b z n c c c n z b v g t h j j j d a c x x j d 5 2 2 6 : 2 6 r t                 ",
"              m t t 6 5 t 6 6 d x x k l g c a k M l d N g v z B v V C V v B z v g N d l M k d c g l k x x d 6 6 t 5 6 t t m <               ",
"            < m m y r 6 y f a Z j l k A A g h f f g j h v S D F G H J H G F D S v h j g d f h g A A k l j Z a f y 6 r m m m <               ",
"            3 < t y y y f j Z j Z K L k l P g h a l k d S I B U F I H I F U B I S d k l a h g P l k L K Z j Z j f y y y t < 3               ",
"            - 2 6 m m y d a x Z L K A L Y A l P g h P j g S I B U U D U U B I S g j P h g P l A Y L A K L Z x j d y m m 6 2 -               ",
"            2 3 ; 5 r r 5 2 s a a l A A A k A L T R K Z l x g V S B B B S V g P l Z K R T L A k A Z l l a a a 2 5 r r 5 ; 3 2               ",
"          < r < 2 < - 4 < 3 E s p h l k k x L W L k Z M K Y Z j M S s S M j x Y K M Z k L W L x k k P h p s E 3 < 4 - < 2 < r <             ",
"          c y t r 6 2 : 6 2 X E s s p a x k L Y l j x Z k K A A W K h K W Z A K k Z x j l Y L a h p s d s E X 2 6 : 2 6 r t y c             ",
"          r m m t t 6 5 t 6 < X o $ s 7 O s s a P l A L K W M W Q g T g Q W M W K L A l P a s s O 7 s E o X < 6 t 5 6 t t m m r             ",
"          6 r m m y r 6 y f ! ~ $ & s @ + d $ s ^ h a x M L k A W g Y g W A k L M x a h ^ s $ d + @ / & $ ~ t f y 6 r y m m r 6             ",
"        3 ; 3 < t y y y f j 6 E ~ ( ( $ . & 7 $ s ^ h h g x x k K j l j K k x x g h h ^ s $ 7 & . $ ( ( ~ E 6 j f y y y t < 3 ; 3           ",
"        ; > - 2 6 m m y d j 6 y ! ( ) E $ $ + . d ^ d h a d d g j x j x j g d d a h d ^ d . + $ $ E ) ( y r 6 j d y m m 6 2 - > ;           ",
"      3 ; - 3 5 t n m m s c y ! ) ) ) _ E / X $ ` ) ` O O P a h h j j j h h a P O O ` ) ` $ X / E _ ) ' ) y r c s m m n t 5 3 - ; 3         ",
"      2 - 3 5 6 y y y m m s ! ) ) ) ) ) ] [ % E ) ) ) # 1 O g a j k Y k j a g O 1 # ) ) ) E % [ ] ) ) ' ) ) m s m m y y y 6 5 3 - 2         ",
"      5 2 5 6 r 6 r y ` X t ! ) ) ) ) ' ) ) ) ) ) ) ) $ o % ) # 1 & o & 1 # ) % o $ ) ) ) ) ) ) ] ) ' ) ) ) m c X ` y r 6 r 6 5 2 5         ",
"      < 6 6 5 r 2 < 2 O { N ! ) ) ) ) ) ' ) ) ) ) ) ) u $ u ) % $ O 7 O $ % ) u $ u ' ' ) ) ) ] ' ) ) ) ) ) } N { O 2 < 2 r 5 6 6 <         ",
"      < 5 3 ; < < < < # w t ! ) ) ) ) ) ' ) ) ) ) ) ' ) ) ) ) ) ) % o % / ) ) ) ) ) ) ) ' ) ) ] ) ) ) ) ) } n y w # < < < < ; 3 5 <         ",
"        5 2 - 5 - < - # # t ! ) ) ) ) ' ) ) ) ) ) ' ) ) ) ) ) ) ) ) ) ) ) ' ) ) ) ) ) ) ' ' ) ] ) ) ) ) ) } y t # # - < - 5 - 2 5           ",
"        3 5 5 - ; 2 ; 2 r < ! ) ) ) ' ) ) ) ) ) ) ' ) ) ) ) ) ) ) ) ) ) ) ' ) ) ) ) ) ) ) ) ] ' ) ) ) ) ) n y < r 2 ; 2 ; - 5 5 3           ",
"        | 6 < 4 4 i 4 i : < t ! ) ) ' ) ) ) ) ) ) ' ) ) ) ) ) ) ) )  .) ) ) ' ' ) ) ) ) ) ) ] ) ) ) ) ) ) n t 5 : i 4 i 4 4 < 6 |           ",
"          2 < - 3 : 3 : 4 r < ! ..' ' ) ) ) ) ) ' ' ) ) X.X.X.X.X.' ] ' X.X.X.' ) ) ) ) ) ) ] ) ) ) ) ) n n < 5 4 : 3 : 3 - < 2             ",
"          2 5 < < 3 ; : 3 X c X ' ' ) ) ) ) ' ' ) ) )  . . . . .] ..o...]  . . .X.) ) ) ) ] ' ) ) ) ) n * X c X 3 : ; 3 < < 5 2             ",
"          - 3 5 6 < 3 4 o 0 X * O.) ) ) ) ' ) ) ) ) ) X.( ( ( ] +.o.@.o.+.] ( ( X.) ) ) ) ] ' ) ) ) n v O.* X 0 o 4 3 < 6 5 3 -             ",
"            2 3 - 6 5 ; < @ % . 1 X ..] ' ' ) ) ) ) ) X.' ' ] +.o.@.#.@.o.+.] ' ' X.) ) ) ) ] ' ) ) m X 1 . % @ < ; 5 6 - 3 2               ",
"            5 2 2 - 5 3 ; < 6 O . 6 ] ..' ) ) ) ) ) ) ' ] ] ..$.@.%.#.%.@.$...] ] ' ) ) ) ) ] ] ) m r 6 . O 6 < ; 3 5 - 2 2 5               ",
"            - 3 < r 6 5 3 : i < 6 < < ! ) ) ) ) ) ) ) ( ' ] ..o.$.@.%.@.$.o...] ' ( ) ) ) ) ) ] m 6 r 2 6 < i : 3 5 6 r < 3 -               ",
"              < r y t P P < 3 : 5 ; 5 < ! ) ) ) ) )  . .( ' ] ..o.$.%.$.o...] ' (  .) ) ) ) ) m t < 2 ; i 3 5 < P P t y r <                 ",
"              5 2 2 - 5 6 < 3 : 5 ; 6 6 y ! ) ) ) ) )  . .( ( ] ..+.o.+...] ' (  .) ) ) ) ) m t 6 y 5 ; - 2 < < 6 5 - 2 2 5                 ",
"              2 < 2 2 - 2 3 5 5 6 5 6 6 6 y ! ) ) ) ) ) )  . .( ' ] ] ' ' ' (  .X.) ) ) ) y y y y 6 5 5 5 6 r 3 2 - 2 2 < 2                 ",
"              < r 6 < 5 ; 5 3 5 . 5 6 c t a f N ) ~ &.~ / ) X. . . . . . . .X.) / ~ &.~ y N f a t c 6 6 . g g r ; 5 < 6 r <                 ",
"            < r y t 6 < - 5 3 3 5 5 < < 6 t a f y * *.* ~ ) ) X.X.X.X.X.X.) ) ) ~ * *.* s f a t 6 < < < 6 P t t - < 6 t y r <               ",
"            6 y     r 6 5 t 5 : i ; 5 X 5 < 6 a f o 1 @ O ` ) $ . ) ) ) . $ ) ` O @ 1 o f a 6 < 5 X 5 ; i : 3 t 5 6 r     y 6               ",
"            r < -     r 6 r r < - ; i 2 X @ 5 < 6 # = w o ~ ` X = X u X = X ` ~ o w = # 6 < 5 @ X 2 i ; - < r r 6 r     - < r               ",
"              r 2 - 2 t r - : 4 5 - i ; - 2 X @ 5 O o 1 o ~ < . 7 = 6 = 7 . < ~ o 1 o O 5 @ X 2 - ; i - 5 4 : - r t 2 - 2 r                 ",
"                r t t y - X O 2 4 3 - i ; : - 2 5 r O o X < 5 X = . 3 . = X 5 < X o O r 5 2 - : ; i - 3 4 2 O X - y t t r                   ",
"                        . 1 O.O 2 4 2 5 4 i i 4 5 r y y r 5 - 5 < 3 ; 3 < 5 - 5 r y y r 5 4 i i 4 5 2 4 2 O O.1 .                           ",
"                        * w + O 6 4 2 - 4 : ; : 4 5 r y 5 - ; 4 ; ; ; ; ; 4 ; - 5 y r 5 4 : ; : 4 - 2 4 6 O + w *                           ",
"                        . o X & r 4 2 4 3 < < 3 - 4 5 5 - ; 4 ; - 3 5 3 - ; 4 ; - 5 5 4 - 3 < < 3 4 2 4 r & X o .                           ",
"                        & O u u - 2 6 : < t   6 6 t 4 4 ; 3 2 5 < r < r < 5 2 3 ; 4 4 t 6 6   t < : 6 2 - u u O &                           ",
"                        & O     n y y 3 2 t t r t r r 3 : 3   6 t r 6 r t 6   3 : 3 r r t r t t 2 3 y y n     O &                           ",
"                                        3 < r t     t <     < t m r 2 r m t <     < t     t r < 3                                           ",
"                                          2 r r -     t < r t m   2 - 2   m t r < t     - r r 2                                             ",
"                                              y r 2 - 3 r m m     - y -     m m r 3 - 2 r y                                                 ",
"                                                  y y y m n y 5 - y   y - 5 y n m y y y                                                     ",
"                                                            y y y       y y y                                                               "
};
