/* XPM */
static char *cacodemon4[] = {
/* columns rows colors chars-per-pixel */
"70 70 98 2 ",
"   c magenta",
".  c #6F6F6F",
"X  c gray39",
"o  c #777777",
"O  c #5B5B5B",
"+  c #838383",
"@  c #8B8B8B",
"#  c gray34",
"$  c gray28",
"%  c gray31",
"&  c gray42",
"*  c gray50",
"=  c #939393",
"-  c #9F9F9F",
";  c #9B0000",
":  c #A70000",
">  c #D70000",
",  c #CB0000",
"<  c red",
"1  c #A7A7A7",
"2  c gray86",
"3  c gray75",
"4  c #BF0000",
"5  c #E30000",
"6  c #8B0000",
"7  c #B30000",
"8  c gray67",
"9  c #DFDFDF",
"0  c #EF0000",
"q  c #979797",
"w  c gray70",
"e  c #7F0000",
"r  c #730000",
"t  c #670000",
"y  c gray23",
"u  c #FF1F1F",
"i  c #731313",
"p  c #8B2323",
"a  c #6B0F0F",
"s  c #831F1F",
"d  c #771717",
"f  c #8F2B2B",
"g  c #7F1B1B",
"h  c #972F2F",
"j  c #A73F3F",
"k  c #B34F4F",
"l  c #874307",
"z  c #9B5B13",
"x  c #9B3333",
"c  c #A33B3B",
"v  c #732B00",
"b  c #C76363",
"n  c #670B0B",
"m  c #AF7B1F",
"M  c #C39B2F",
"N  c #D7BB43",
"B  c #5B0000",
"V  c #AF4747",
"C  c #BB5757",
"Z  c #EBDB57",
"A  c #FFFF73",
"S  c #BF5B5B",
"D  c #D37373",
"F  c #CB6B6B",
"G  c #DB7B7B",
"H  c #E78F8F",
"J  c #DF8787",
"K  c #434343",
"L  c #373737",
"P  c #2F2F2F",
"I  c #000047",
"U  c black",
"Y  c #4F0000",
"T  c #000053",
"R  c #272727",
"E  c #4B371B",
"W  c #00006B",
"Q  c #232323",
"!  c #000083",
"~  c #CBCBCB",
"^  c #00009B",
"/  c #470000",
"(  c #430000",
")  c #0000CB",
"_  c #00002F",
"`  c #00003B",
"'  c #000023",
"]  c #0000B3",
"[  c #AF4300",
"{  c #0000E3",
"}  c #5353FF",
"|  c blue",
" . c LightGray",
".. c #3737FF",
"X. c #7373FF",
"o. c #1B1BFF",
"O. c #B7B7B7",
"+. c white",
/* pixels */
"                          . .                                                                               . .                             ",
"                          X o                                                                               o X                             ",
"                          X o                                                                               o X                             ",
"                          X o                                                                               o X                             ",
"                          O o +                                                                           + o O                             ",
"                          O . + @                                                                       @ + . O                             ",
"                          O X + @                                                                       @ + X O                             ",
"                          # X o + @         o                                               o         @ + o X #                             ",
"                          $ % & * @ = *   o @                                               @ o   * = @ * & % $                             ",
"                            $ # & * @ = = O O                                             O O O = = @ * & # $                               ",
"                            $ % # & * = - - * O         ; ; : > , > < > , > : ; ;       O O * - - = * & # % $                               ",
"                            $ $ % O & * - 1 2 3 ; 4 5 4 6 6 ; > 7 4 > 4 7 > ; 6 6 6 5 4 ; 3 2 1 - * & O % $ $                               ",
"                . -           $ $ # X & * 8 3 9 3 : 0 4 : 6 6 : , 7 7 7 , : 6 ; : 4 0 : 3 9 3 8 * & X # $ $           - .                   ",
"                X . -           $ O & & . o q 1 w 7 < 4 : ; 6 : , 0 7 0 , : 6 ; : 4 < 7 w 1 q o . & & O $           - . X                   ",
"                  X . - .       ; $ X . & & . + @ 4 5 4 7 , 4 4 ; : 0 : ; 4 4 , 7 4 5 4 @ + . & & . X $ ;       . - . X                     ",
"                  X X * - * X > 7 ; $ # X . X . 7 > 4 : , 5 , 4 7 6 ; 6 7 4 , 5 : : 4 > 7 . X . X # $ ; 7 > X * - * X X                     ",
"                    X X * = + X 4 : 7 , $ % # 7 4 7 : ; : , > , ; e r e ; , > : , , : 7 4 7 # % $ , 7 : 4 X + = * X X                       ",
"                    % # X * o X 0 e ; : , 4 , 7 : : 7 4 , : : : e r t r e : : , 0 0 7 : : 7 , 4 , : ; e 0 X o * X # %                       ",
"                      y % # X 0 > ; e ; ; 6 6 6 ; 4 , 5 0 0 , 4 : e r e : 7 , 0 0 5 , 4 ; 6 6 6 ; ; e ; > 0 X # % y                         ",
"                      4 : 7 , 5 7 , : e 6 ; 7 7 7 4 , 5 5 0 5 , : 6 r ; 7 , 0 0 u 0 0 4 7 6 r i 6 e : , 7 5 , 7 : 4                         ",
"                    0 , ; e ; 7 4 > ; p 6 e 6 ; 7 7 5 u < 5 5 > 7 : 6 : 7 0 0 < u 0 > 7 ; i a a 6 p ; > 4 7 ; e ; , 0                       ",
"                  : 7 ; 4 4 ; : ; e p s a i d 6 6 ; 7 0 u u > 7 7 4 6 4 7 , u u 0 > 7 ; i a d i a s p e ; : ; 4 4 ; 7 :                     ",
"                5 : e e : 7 > < > : p a i p p f g g ; 7 , 4 4 7 > > 6 > , 7 7 , > 7 ; a g f f p i a p : > < > 7 : e e : 5                   ",
"                7 ; , 0 ; 4 > 0 7 s p h p j f k j g i ; 7 u u > > l z l > 5 5 > 7 ; i g x k f j p h p s 7 0 > 4 ; 0 , ; 7                   ",
"                e 6 7 > 6 7 7 : s h c c g p g g g g g r f v l l z z z z z l l v f r g g g g s p g c c h s : 7 7 6 > 7 6 e                   ",
"                r r 6 : r 6 6 s c c k j f g p k b k s n f z m M N N N N N M m z f n s k b k p g f j k c c s 6 6 r : 6 r r                   ",
"                B t e 6 t d p V h j k C C f g p f c h g l m M Z A Z N Z A Z M m l g h c f p g f C C k j h V p d t 6 e B B B                 ",
"              ; r t t t d h V h V S D k j x f g c j k h l m M N A N M N A N M m l h k j c g f x j k D S V h V h d t t B r ; 4               ",
"            , 7 6 B B t s h c V D S C D F C j x k C F C c z m M N Z N Z N M m z c C F C k x j C F D C S D V c h s t B B 6 7 ,               ",
"            7 4 5 : e e : B a h p j C D C j V C G H H J F b k k z m M m z k k b F J H H G C V j C D C j x h g t : e e : 5 4 7               ",
"          ; e ; 7 ; , 0 ; B v a i x x k j c b J J G F b S F J H b z f z b H J F S b F G J J b c j k x g i g v t ; 0 , ; 7 ; e ;             ",
"          v t r e 6 7 > 6 t X f a s f j c k D F F V c V k S F D J j x j J D F S k V c V F F D k c j f s g f X r 6 > 7 6 e r t v             ",
"          e B B r r 6 : r e K X o # h 1 O g g V C C C D S J b J S f S f S J b J S D C j C C V g O 1 h # o X K t r : 6 r r B B e             ",
"          6 e B B t e t t e L K # % P @ + s . a d g p c b D k C k f C f k C k D b c p g h x . s + @ P % # K L e t 6 e t B B e 6             ",
"        4 5 4 ; r t t t d h v L K I I # . % 1 . s h g g f c c k j h j h j k c c f g g h s . 1 % . # I I K L v h d t t t r ; 4 5 4           ",
"        5 < , 7 6 B B t s h v t U I U L # # + . s d s g p s s f h c h c h f s s p g s d s . + # # L U I U t v h s t B B 6 7 , < 5           ",
"      4 5 , 4 : r Y B B a v t U U T U R L P X # E T E O O x p g g h h h g g p x O O E W E # X P L R U W U W t v a B B Y r : 4 , 5 4         ",
"      7 , 4 : 6 t t t B B a U U U T U U W Q $ L T W ! & - O f p h k F k h p f O - & W U ! L $ Q W U T W T T U a B B t t t 6 : 4 , 7         ",
"      : 7 : 6 e 6 e t E X r U U U T ! ! ! U U T T W ! # o $ U & - % o % - & U $ o # W U W ! ! ! ! U W T U U U v X E t e 6 e 6 : 7 :         ",
"      ; 6 6 : e 7 ; 7 O ~ n U T ! ! U ! W T T U U W ^ y # y U $ # O 1 O # $ U y # y T T ^ W U W T U U W U U / Y ~ O 6 ; : e : 6 6 ;         ",
"      ; : 4 5 ; 4 ; ; & q r ( T U U U ! T U U U U ! ) ! W _ ` I ) $ o $ P I ` ) ' ' U U ] ^ W ! U T U U T / Y Y q & 6 ; 4 e 5 4 : ;         ",
"        : 7 , : 4 ; ; & & r ( U U U U W U T U U U ^ ] W _ ` I T ) ! ! ! W T I ` ) ' ' U W ] ^ ! T U T U T / Y Y & & 6 7 4 ; , 7 :           ",
"        4 : : , 5 7 7 7 ; e ( U U U ! T U T U U U ] W _ ` I T ) ! ^ ] ^ ! W T I ) _ ' ' T W ] T U T U T U Y t Y e 6 ; 7 5 ; : : 4           ",
"        4 : : , 5 : 5 4 : e ( U U U ! T U T U U U ] W _ ` I T ) ! ^ ] ^ ! W T I ) _ ' ' T W ] T U T U T U Y t Y e ; 4 4 5 : : : 4           ",
"        [ 6 ; , u 4 0 u 4 ; r ( U U W U U T U U T ! _ ` I T W ) ^ ] ) ] ^ ! W ) I ` _ ' T ' ^ U U T U T U Y e e ; > 0 > 0 : ; 6 [           ",
"        [ 6 ; , , 4 , 0 4 ; r ( U U W U U T U U T ! _ ` I T W ) ^ ] ) ] ^ ! W ) I ` _ ' T ' ^ U U T U T U Y e ; 4 > 0 > , 7 ; 6 [           ",
"          7 ; , 4 > 4 > 4 ; r ( Y ^ W U U T U T ! T ` I T W ! ^ ) ) { ) ] ^ ) W T I ` _ T U W U U W U U Y Y ; e 4 > 4 > 4 ; ; 7             ",
"          7 : ; ; 4 5 > 4 X v X # ^ U U T U ! ! _ ` I T W ! ^ ] ) } | { ) ] ) ) W T I ` _ ! T U U ! U Y * X v X 4 > 5 4 ; ; : 7             ",
"          , 4 : 6 ; 4 0 o 8 X *  .# U U T ^ U _ ` I T W ! ^ ] ) { | } | { ) ] | ) W T I ` ! T U ! U Y #  .* X 8 o 0 4 ; 6 : 4 ,             ",
"            7 4 , 6 : 5 ; @ $ . - X ! ^ ) T _ ` I T W ! ^ ] ) { | ..} ..| { ) ] | ! W T I ` ) T ^ U B X - . $ @ ; 5 : 6 , 4 7               ",
"            : 7 7 , : 4 5 ; 6 O . t B ) ^ _ ` I T T ! ^ ] ) { | ..} X.} ..| { ) | ^ ! W I ` ! ) U B 6 6 . O 6 7 5 4 : , 7 7 :               ",
"            , 4 : ; 6 : 4 > 4 ; 6 ; t Y ! ' _ ` I T W ! ^ ] ) { o.} } ..| { ) | ) ! W T I ` _ ^ B 6 7 4 7 7 u > 4 : 6 ; : 4 ,               ",
"            , 4 ; e 6 : 4 > u 4 6 ; t B Y ' _ ` I T W ! ^ ] ) { o.} } ..| { ) | ) ! W T I ` _ ^ B 6 7 4 7 7 u > 4 : 6 e ; 4 ,               ",
"              ; e t r x x ; 4 > u 4 : t ( U ' _ ` I T W ! ^ ] | } | ..| { ) ] | ] W T { ] W W B r 7 4 5 u > 4 : x x r e e ;                 ",
"              : 7 7 , : 6 ; : 4 > 4 6 6 t ( U ' _ ` I T W ! ^ } ) { | { ) ] ^ ! ) ] ..` _ W B r ; ; 7 4 u > 4 ; 6 : , 7 7 :                 ",
"              7 ; 7 7 , 7 4 e ; : ; 6 6 6 t ( U ' _ ` I T W ! | ] ) { ) ] ^ ! W ) ] ..^ ' t r r 6 6 ; 7 , 4 ; ; ; , 7 7 ; 7                 ",
"              ; e 6 ; : 5 e f f . # 6 v r p d n U K . K P T | ! ^ ] ) ] ^ ! W ] P K . K t n d p r v 6 ; ; f f e 5 : ; 6 e ;                 ",
"              e t r 6 ; , r r x 6 ; ; ; 6 r p d t . O.* K I | W ! ^ ] ^ ! W ^ ] K * O.* a d p r 6 ; ; ; 6 x r r , ; 6 r t e                 ",
"              t 4   e 6 : r 4 > u 5 : X # ; 6 p d o - @ O E I W W ! ^ ! W W ^ E O @ - o d p 6 ; # X : 5 u > 4 r : 6 e   e t                 ",
"              6 e 4   e 6 e e ; , 5 u 7 X @ # ; 6 & = q o K E X = T T T = X E K o q = & 6 ; # @ X 7 u 5 , ; e e 6 e   7 e t                 ",
"                e e 7 r e 7 > > , , u 5 , 7 X @ : O o - o K ; . 1 = 6 = 1 . ; K o - o O : @ X 7 , 5 u , , , > 7 e r 7 e t                   ",
"                  6 r e 7 > 0 0 5 , , u 5 > , 7 : e O o X ; : X = . 4 . = X : ; X o O e : 7 , > 5 u , , 5 0 0 > 7 t r t                     ",
"                    t 7 X O 7 0 0 5 7 : 0 u u 0 : e t t e : , : ; 4 5 4 ; : , : e t t e : 0 u u 0 : 7 5 0 0 7 O X                           ",
"                      . -  .O 7 0 0 7 , 0 > 5 > 0 : e t : , 5 0 5 5 5 5 5 0 5 , : t e : 0 > 5 > 0 , 7 0 0 7 O  .-                           ",
"                      * q + O 6 0 0 7 0 4 ; ; 4 , 0 : : , 5 , 7 > 5 > 5 > 7 , 5 , : : 0 , 4 ; ; 4 0 7 0 0 6 O + q                           ",
"                      X o X % e 0 7 6 > ; r   6 6 r 0 0 5 4 7 : : e ; e : : 7 4 5 0 0 r 6 6   r ; > 6 7 0 e % X o                           ",
"                      X X     7 7 t t 4 7 r r e r e e 4 > 4   6 r e ; e r 6   4 > , e e r e r r 7 4 t t 7 ,   X X                           ",
"                                          7 e e ,     r , e r B   7 ; 7   B r e , r     , e e 7                                             ",
"                                              t e 7 , 4 e B B     , t ,     B B e 4 , 7 e t                                                 ",
"                                                  t t t B Y t : , t   t , : t Y B t t t                                                     "
};
