/* XPM */
static char *caco_dies1[] = {
/* columns rows colors chars-per-pixel */
"70 70 93 2 ",
"   c magenta",
".  c #5B5B5B",
"X  c gray42",
"o  c #777777",
"O  c #6F6F6F",
"+  c #8B8B8B",
"@  c gray34",
"#  c gray39",
"$  c #838383",
"%  c #979797",
"&  c gray67",
"*  c gray50",
"=  c gray31",
"-  c #A7A7A7",
";  c #939393",
":  c gray28",
">  c #9F9F9F",
",  c #7F0000",
"<  c #B30000",
"1  c #434343",
"2  c #9B0000",
"3  c #D70000",
"4  c red",
"5  c #EF0000",
"6  c #CB0000",
"7  c gray23",
"8  c #BF0000",
"9  c #A70000",
"0  c #E30000",
"q  c #FF3F3F",
"w  c #FF7B7B",
"e  c #FF5F5F",
"r  c #FF1F1F",
"t  c #43331B",
"y  c gray75",
"u  c #373737",
"i  c gray78",
"p  c gray86",
"a  c #DFDFDF",
"s  c gray70",
"d  c #8B0000",
"f  c #730000",
"g  c #5B0000",
"h  c #670000",
"j  c #5B0707",
"k  c #00006B",
"l  c #6B0F0F",
"z  c #731313",
"x  c #771717",
"c  c #1B1BFF",
"v  c #000083",
"b  c #831F1F",
"n  c #7F1B1B",
"m  c #5F0707",
"M  c #0000CB",
"N  c #3737FF",
"B  c #732B00",
"V  c #972F2F",
"C  c #670B0B",
"Z  c #00009B",
"A  c #8F2B2B",
"S  c #470000",
"D  c #530707",
"F  c #9B3333",
"G  c #B34F4F",
"H  c #8B2323",
"J  c #4F0000",
"K  c #5353FF",
"L  c #A33B3B",
"P  c #AF4747",
"I  c #D37373",
"U  c #A73F3F",
"Y  c #BF5B5B",
"T  c #BB5757",
"R  c #EB9797",
"E  c #CB6B6B",
"W  c #0000B3",
"Q  c #000053",
"!  c #DB7B7B",
"~  c #DF8787",
"^  c #4B371B",
"/  c #3F2F17",
"(  c #1B1B1B",
")  c #C76363",
"_  c #430000",
"`  c #2F2F2F",
"'  c #000047",
"]  c #000023",
"[  c #AF4300",
"{  c blue",
"}  c #0000E3",
"|  c LightGray",
" . c white",
/* pixels */
"                                                                                                                                            ",
"                                                                                                                                            ",
"                                          .                                                   .                                             ",
"                                        . X                                                   X .                                           ",
"                                        X o                                                   o X                                           ",
"                                      O o +                                                   + o O                                         ",
"                  @ #                 O $ %                                                   % $ O                 # @                     ",
"                  @ #                 O % & o                                               o & % O                 # @                     ",
"                  @ X X               # + & *                                               * & + #               X # =                     ",
"                  @ # O o             . $ - ; o                                           o ; - $ .             o O @ :                     ",
"                  @ . # o O           = O % > * o             , < < < < < ,             o * > % O =           O o # = 1                     ",
"                    @ . o $ O         1 X * ; % * o   , 2 2 < 3 4 4 5 5 3 < < 2 2 ,   o * % ; * X 1         O $ o . =                       ",
"                    1 : # o + O       1 # * ; 2 2 2 < < < < 4 5 < 6 3 6 < 6 6 < < < < 2 2 2 ; * # 1       O + o # = 1                       ",
"                    1 : @ O $ + O     7 . , , 2 < 8 8 9 6 0 0 8 3 q q 0 3 8 8 0 6 9 8 8 < 2 , , . 7     O + $ O @ : 1                       ",
"                      : : . o + > +   7 , , , 2 6 6 6 < 6 0 3 6 q w e r 3 6 < 0 6 < 6 6 6 2 , , , 7 t + > + o . = :                         ",
"                      1 : @ X o ; > > * 6 0 4 5 5 0 3 < 6 0 6 3 e e e q r 3 9 0 6 < 3 0 5 5 4 0 6 * > > ; $ X @ : 1                         ",
"                        7 : = X * ; - - y y ; o 4 4 3 < 6 0 8 3 q q e q 4 3 9 0 6 < 3 4 4 o ; y y - - ; * X = : 7                           ",
"                        u 7 : @ X * ; - i p y y o 4 0 9 8 5 < 3 5 r q 4 5 3 6 5 8 9 0 e o y y p i - ; * X @ : 7 u                           ",
"                        8 u 7 : @ X o ; - y a y o 0 0 9 9 4 4 6 8 0 4 0 8 6 4 4 9 9 0 w o y a y - ; o X @ : 7 u 8                 @         ",
"      @ X + + *       8 8 6 u 7 : @ X O o % - s o 5 0 9 8 3 4 3 < 8 0 8 < 3 4 3 8 9 0 w o s - % o O X @ : 7 u 6 8 8       * + + X           ",
"        . @ O + - -   3 < 8 < u 7 : @ X X O $ + o 4 3 9 6 9 3 4 < 8 0 8 < 4 3 9 6 9 3 4 o + $ O X X @ : 7 u < 8 < 3   - - + O @ .           ",
"          . @ # * % & ; * # 3 < u 7 : : @ # O o 8 0 8 < 2 8 9 4 6 < 8 < 6 4 9 8 2 < 8 0 8 o O # @ : : 7 u < 3 # * ; & % * # @ .             ",
"              @ @ # + % ; $ # 5 9 < u 7 = @ . 8 3 8 9 6 0 8 8 6 5 < < < 5 6 8 0 6 6 9 8 3 8 . @ = 7 u , , 5 # $ ; % + # @ @                 ",
"                  = @ O $ o # 5 , 2 9 6 8 6 6 6 < 9 2 0 4 0 8 2 5 < < < 5 2 0 4 0 < 2 9 < 6 6 6 9 2 d , , 5 # o $ O @ =   t                 ",
"                8 8 7 = @ # @ 3 3 < 2 2 d d d 2 9 < 6 0 0 0 6 < 6 0 9 0 6 < 6 0 6 9 9 < 9 2 d f g g g f d 3 @ # @ = 7 8 8 t                 ",
"              9 < 5 3 9 7 7 9 0 6 9 , d 2 < 8 < 8 6 0 5 5 3 8 2 d < 6 < d 2 8 8 9 8 0 3 3 6 8 < 2 f g , < 6 9 7 7 9 6 5 < 9                 ",
"              9 < 5 8 3 0 6 0 3 < 9 f d 2 < 8 < 8 6 0 5 5 3 8 2 d < 6 < d 2 8 8 9 8 0 3 3 6 8 < 2 f g g h 6 0 5 5 6 8 5 < 9                 ",
"            < 9 9 3 5 6 2 , 2 < < f h f 2 < 8 < 8 6 4 4 5 3 8 9 , f 2 f , 9 2 9 6 0 5 0 8 < 8 < 2 d f g h f d 3 3 5 5 3 9 9 <               ",
"            < 8 < 9 < 2 2 < 2 9 2 h h h h , d 2 < 8 6 4 5 3 8 9 d f h f d 2 9 6 0 4 5 8 < 2 d , j j g , 2 k , f 2 < < 2 < 8 <               ",
"          2 < 8 0 9 , , 2 < 3 4 3 f h h l z x d d 2 9 5 4 3 8 9 d f h f d 9 8 0 4 5 6 2 d d x j j j j c < 9 d v f , , 9 0 8 < 2             ",
"          2 , 2 < 2 6 5 2 8 3 5 < d b l z z x l n n d < 4 3 8 9 d f h f d 9 8 0 4 < 9 n n m m M m j j k N < 9 d g 9 d d < 2 , 2             ",
"          B h f , d < 3 d < < 9 d , n V n n n x l j C d 6 4 8 9 d f h f d 9 8 4 6 d d l m Z l x C k N M d v 9 d g 3 8 d , f h B             ",
"          , g g f f d 9 f d d b , n A b n x x x m j S D 2 5 0 6 9 d f d 9 6 0 0 2 , D j j l z M c c D M h d d d f d d f f g g ,             ",
"        8 d , g g h h h h x , A V F G H n z z z C C j S b < 4 0 8 6 d 6 8 0 4 < b S J j Z x c v N K v D D v h h h h h h g g , 2 8           ",
"        0 6 2 , f g g h b V L P I V L U A x n C l x j S C A 8 0 8 6 d 6 8 0 8 A C S Z Z l M N K k M l n v F H n l h g g h , 2 6 0 8         ",
"      8 3 3 < 2 f J g g x b V G Y F G U L A C x x b z j D C b < < 6 d 6 < < b C D J m l Z K v k M v V v F G L H x g g J f 2 < 3 8 <         ",
"      < 6 8 9 d h h h x x b H G U F G T L V H b b G L L C j C x b 2 d 2 x C J j C Z L Z v K c M v H n n U G V H H j h h h d 9 8 6 9         ",
"      9 < 9 d , d , h l l x b V H A U P F H U G I R E E P C j J Z J g J J Z C c v L Z W W Q Q c v v v z H V H b l j h , d , d 9 < 9         ",
"      9 < 9 d , 2 d h l l x b V H A U P F H U G I R E E T P L , , C g C , l b A v c K Q Q Q v v c U n c H V H b l j h , d , d 9 < ,         ",
"      , 9 d f d 9 2 h l l l x V H A U P F T G I R ! Y P E ~ E U H F l Z H c I Z Q K Q W v W Q c v v v z C H c x j ^ h 2 9 d f d 9 h         ",
"      h , h d 9 2 d h / ; X B l z n F G F Y I R I G P V F E ~ E Z L l L P ~ c Q c L Q v W v W W G G F C J l B X ; / h , 2 9 d h , B         ",
"      B h h f d , h J ( # = # X l z b H L Y T T U I ~ P V F T T T V H V Z c Q W P v ~ W Y P W Y P H b j l A # = # g h h , 2 2 h h d         ",
"      d d 2 , h h g J g 1 7 ; > X l x H V F V U T ) I ~ P P Y P V H V H H Z Y Z P U I ) T P V F G H x l X X ; 7 J g J g h h , 2 d 2         ",
"      2 2 < 2 h , , , f g g # o o @ l l l H n L P T ) P P Y ~ ) P L Z L P Z ~ ) ~ ~ W U P L n W l l l @ o > # J g _ J , , , 2 < 2 2         ",
"      2 8 8 8 , < < < , f g 1 # o @ l - . l l H F U T P ) I T P Z A E A T P T I ) I T U F H l l . - V @ o o J g _ _ j g < , 8 8 8 2         ",
"      2 9 8 0 2 2 6 < 2 , f g g @ = ` + $ = = l x n H L A L L U P V U V P U L L A L H n x l = = $ + ` = @ J g S C h g g < 2 0 8 9           ",
"        9 < 6 9 6 < < < 2 2 f h g g ' @ O = - = b l n n H b b A V Z V L V A b b H n n l b , - = O @ J J g g f h h h g 8 6 9 6 < 9           ",
"        8 9 9 6 0 < 6 < 0 0 < < 2 g h g u ` # ' O & = @ > . A H V G E G V H A . > @ = & O , ] ` u g g g 2 d , f f 2 8 6 0 2 9 9 8           ",
"        [ d 2 < 5 r 3 r 6 6 0 v 3 6 < 2 2 2 2 0 0 0 0 6 6 8 8 2 2 Z o : ` Z ] ' ' . + h h 2 2 2 2 2 < 8 9 9 d , 2 8 3 r 2 f 2 d [           ",
"          6 9 2 d 2 8 0 r r 6 6 0 v 9 9 6 8 v < 8 0 0 0 8 9 d f Z g d d Z 5 q q Z 0 0 0 0 0 0 3 3 8 8 < < < d 2 2 8 8 2 d 9 8 6             ",
"          6 < 9 , x , 2 3 0 0 r 8 8 v 9 9 f v v r 3 3 5 r 3 8 d Z g 2 Z 6 e Z q q q 5 5 5 4 q 3 3 3 6 3 0 5 3 8 8 8 9 d 6 8 < 6             ",
"            9 d x A W , 2 8 8 6 0 3 6 f f v f J f f , 6 3 e 6 8 g Z M < Z w e q 4 q 4 4 q 4 4 0 0 3 0 q r 6 2 , 8 < 9 6 < < 9               ",
"            < x F L U 2 , , d 9 W r v _ _ k J Z v g Z f 2 9 8 f Z { M 8 r e w e q r q r 4 q 5 0 q q q r 6 9 , d , 0 6 < < 2 <               ",
"            2 2 V F L U 2 d , W 9 f _ v W { M M Z Z _ g f 2 f g { h M 6 Z q q e e e w e q q e q r r r 6 9 , d F f 6 9 2 d 2 2               ",
"            2 , b V F L d , , 9 < W _ W W c { M Z v J _ f W Z { { M Z Z 0 4 r r q q e e w e q 5 3 6 6 9 , d F A f 9 2 d f , 2               ",
"            2 , b V F L d , , v < 3 f v M K K { Z Z W } { M Z J Z Z 8 8 Z 4 r r q q e e w e q 5 3 6 < 2 , d F A f 9 2 d f , 2               ",
"            d h   b V d , , , 9 d 6 6 f v g _ Q k k _ h h W , W 0 Z < < 3 Z 3 6 3 3 0 r r 5 0 0 3 < 9 , , d F A f 9 d ,   h d               ",
"              , < < , , 6 3 5 8 2 < v 0 0 6 2 , g g , 2 8 < W 6 3 3 2 2 < 6 9 Z 8 6 6 0 0 6 8 < < 9 d H V A 5 3 6 2 f < < ,                 ",
"                , f 2 6 6 6 6 5 8 d < < , d 9 < 8 6 6 < 2 d 2 9 < W d Z 2 9 2 d 2 < 8 6 8 < 9 d , , d H 8 5 6 6 6 6 2 f ,                   ",
"                    2 < > | < 6 5 < 9 6 6 < d 2 9 < 8 2 W < d 8 9 2 d d 9 8 d < d 2 < < 9 2 d < 6 6 9 < 5 6 < | > < 2                       ",
"                      * % $ . 6 5 < 6 5 8 2 , d 2 9 < f 6 4 < , 2 2 d 2 2 , < 4 6 f d 9 2 d , 2 8 5 6 < 5 6 . $ % *                         ",
"                      O o # = 6 5 < 5 8 2 2 2 < 2 < d f 6 4 < , 2 2 d 2 2 , < 4 6 f d < 2 < 2 2 2 8 5 < 5 6 = # o O                         ",
"                      O o # = 6 5 < 5 8 2 2 2 < 2 < d f 6 4 < , 2 2 d 2 2 , < 4 6 f d < 2 < 2 2 2 8 5 < 5 6 = # o O                         ",
"                      # X = 7 6 < d 8 2 f   d d f 8 < < 4 6   d , 2 d 2 , d   6 4 < < 8 f d d   f 2 8 d < 6 7 = X #                         ",
"                      = . 7   J h h 8 < f f , f , , 8 3 8   d f , d d d , f d   8 3 8 , , f , f f < 2 h h J   7 . =                         ",
"                      = .             8 2 , f     f 2 h   2 f g , , , , , g f 2   h 2 f   t f , 2 2             . =                         ",
"                                        < , , 6     f 2 , f g h h f h f f h g f , 2 f     6 , , 2                                           ",
"                                            h , < 6 8 , g J h f f h     f f h J g , 8 6 < , h 2                                             ",
"                                                h h h g J                       J g h h h 2                                                 ",
"                                                                                                                                            "
};
