/* XPM */
static char *cacodemon2[] = {
/* columns rows colors chars-per-pixel */
"70 70 97 2 ",
"   c magenta",
".  c gray39",
"X  c #5B5B5B",
"o  c gray42",
"O  c #777777",
"+  c #6F6F6F",
"@  c #8B8B8B",
"#  c #838383",
"$  c #979797",
"%  c gray67",
"&  c gray50",
"*  c #A7A7A7",
"=  c #939393",
"-  c gray34",
";  c gray31",
":  c #9F9F9F",
">  c #B30000",
",  c #D70000",
"<  c #EF0000",
"1  c #434343",
"2  c #CB0000",
"3  c gray28",
"4  c gray23",
"5  c #4B371B",
"6  c #533F1F",
"7  c #7F0000",
"8  c #9B0000",
"9  c #A70000",
"0  c #E30000",
"q  c #BF0000",
"w  c red",
"e  c #FF3F3F",
"r  c #FF5F5F",
"t  c gray75",
"y  c gray78",
"u  c gray86",
"i  c gray70",
"p  c #DFDFDF",
"a  c #8B0000",
"s  c #730000",
"d  c #670000",
"f  c #8B2323",
"g  c #831F1F",
"h  c #6B0F0F",
"j  c #731313",
"k  c #771717",
"l  c #8F2B2B",
"z  c #7F1B1B",
"x  c #972F2F",
"c  c #A73F3F",
"v  c #732B00",
"b  c #A33B3B",
"n  c #B34F4F",
"m  c #670B0B",
"M  c #5B0000",
"N  c #AF4747",
"B  c #BF5B5B",
"V  c #D37373",
"C  c #BB5757",
"Z  c #9B3333",
"A  c #1F4317",
"S  c #2F6323",
"D  c #D7BB43",
"F  c #AF7B1F",
"G  c #4F0000",
"H  c #CB6B6B",
"J  c #C39B2F",
"K  c #C76363",
"L  c #E78F8F",
"P  c #DF8787",
"I  c #3F2F17",
"U  c #EB9797",
"Y  c #5B0707",
"T  c #1B1B1B",
"R  c #F7ABAB",
"E  c #232323",
"W  c black",
"Q  c #000053",
"!  c #2F2F2F",
"~  c #430000",
"^  c #000047",
"/  c #373737",
"(  c #CBCBCB",
")  c #272727",
"_  c #00009B",
"`  c #000083",
"'  c #470000",
"]  c #00006B",
"[  c #0000CB",
"{  c #0000B3",
"}  c #0000E3",
"|  c #FF1F1F",
" . c #00003B",
".. c LightGray",
"X. c #874307",
"o. c #B7B7B7",
"O. c white",
/* pixels */
"                                                                                                                                            ",
"                                                                                                                                            ",
"                                                                                                                                            ",
"                    .                         X                                                   X                         .               ",
"                    . o                     X o                                                   o X                     o .               ",
"                    o o                     o O                                                   O o                     o o               ",
"                    . + O                 + O @                                                   @ O +                 O + .               ",
"                      . O                 + # $                                                   $ # +                 O .                 ",
"                      X O #               + $ %                                                   % $ +               # O X                 ",
"                      X . O @             . @ % &                                               & % @ .             @ O . X                 ",
"                        X + # @           X # * =                                               = * # X           @ # + X                   ",
"                        - . O # @         ; + $ : &               > , < < < , >               & : $ + ;         @ # O . -                   ",
"                          ; o & @ = &     1 ; & = $ &         > 2 2 2 , < , 2 2 2 >         & $ = & ; 1     & = @ & o ;                     ",
"                          3 - o & @ = =   4 5 6 7 8 9 9 9 9 2 0 q > , w e w , > q 0 2 9 9 9 9 8 7 6 5 4   = = @ & o - 3                     ",
"                            ; - o & = : : & 7 7 8 q , , , 8 2 0 0 , w e r e w , 0 0 2 8 , , , q 8 7 7 & : : = & o - ;                       ",
"                            3 ; X o & : * * t & > > q , 0 > q < w , 0 w r w 0 , w < q > 0 , q > > & t * * : & o X ; 3                       ",
"          @ #                 3 - . o & % t y u t 8 9 q , 2 9 q , w q 0 w 0 q w , q 9 2 , q 9 8 t u y t % & o . - 3                 # @     ",
"            # # O               3 X . o O = i t p t 8 0 q 0 q 9 > q > q 0 q > q > 9 q 0 q 0 8 t p t i = O o . X 3               O # #       ",
"              & = @ O       q 2 8 3 X o o + O $ * i 9 < q 9 2 a 9 2 2 > q > 2 2 9 a 2 9 q < 9 i * $ O + o o X 3 8 2 q       O @ = &         ",
"                + @ * = & + > q > 8 3 . + o o + # @ > w q 9 8 a 9 2 < > > > < 2 9 a 8 9 q w > @ # + o o + . 3 8 > q > + & = * @ +           ",
"                  . & $ % = & . , > 8 3 - . + . + O q 0 q > 2 q q 9 2 0 9 0 2 9 q q 2 > q 0 q O + . + . - 3 8 > , . & = % $ & .             ",
"                    - . @ $ = # . q 9 > 2 3 ; - X q , q 9 2 0 2 q > 9 > 2 > 9 > q 2 0 2 9 q , q X - ; 3 2 > 9 q . # = $ @ . -               ",
"                      ; - + # O . < 7 8 9 2 q 2 2 2 > 9 8 > 2 , 2 8 7 9 8 9 7 8 2 , 2 > 8 9 > 2 2 2 q 2 9 8 7 < . O # + - ;                 ",
"                    q q 4 ; - . < , 8 7 8 8 a a a 8 9 > q 2 q q 9 a s d 9 d s a 9 q q 2 q > 9 8 a a a 8 8 7 8 , < . - ; 4 q q               ",
"                  9 > < q 9 > 2 0 > 2 9 7 a 8 > > > q 2 0 < < , q 9 a s d s a 9 q , < < 0 2 q > > > 8 a 7 9 2 > 0 2 > 9 q < > 9             ",
"                  9 9 , < 2 8 7 8 > q , 8 f a 7 a 8 > q 2 0 0 < 0 9 9 a s a 9 9 0 < 0 0 2 q > 8 a 7 a f 8 , q > 8 7 8 2 < , 9 9             ",
"                > q > 9 > 8 q q 8 9 8 7 f g h j k a a 8 9 > 2 2 , 0 8 a a a 8 0 , 2 2 > 9 8 a a k j h g f 7 8 9 8 q q 8 > 9 > q >           ",
"                > q 0 9 7 7 9 > , w , 9 f h j j k l z z a a > > q 2 > a a a > , 2 2 9 a a z z l k j j h f 9 , w , > 9 7 7 9 0 q >           ",
"              8 7 8 > 8 2 < 8 q , < > g f x f l l c c l j 7 g q , 0 q 2 a 2 q 0 , q 8 7 j l c c l l f x f g > < , q 8 < 2 8 > 8 7 8         ",
"              v d s 7 a > , a > > 9 g x b b z f g x x x z s 7 > q 2 > 2 a 2 > 2 q > 7 s z x x x g f z b b x g 9 > > a , > a 7 s d v         ",
"              7 d d s s a 9 s a a g b b n c l z f c c c g m l s 8 9 > 8 a 8 > 9 8 s l m g c c c f z l c n b b g a a s 9 a s s M M 7         ",
"              a 7 d d d 7 a d f x N B V n C C l z f l l z z s h h 7 7 s M s 7 s s h s z z l l f z l C C V B N x f k d a 7 d M M 7 a         ",
"            q 0 q 8 s d d d k b N V B C V n c Z l z k k k k g h A S A D F D A S A h g k k k f z l Z c n C B V N b x k d d d s 8 q 0 q       ",
"            0 w 2 > a s G d g x n B N n C V H C c Z l z f x x g h A A F J F A A h g x x Z z l Z c C H V n N B n x x g d M M a > 2 w 0       ",
"          q 0 2 q 9 a d M M h f n c Z n n K V V V H c f x N n B C N x x z x x N C b x x b x N H V V V K n Z c n f v h M M G s 9 q 2 0 q     ",
"          > 2 q 9 a f f j M M h x f l c n C B V C N f x b n C C V C N x f x N C V C C n b b b N H V B C c l f x h h M M d d d a 9 q 2 >     ",
"          9 > 9 a f c Z f 5 . v h j z Z c N C n C x b n B H H B L P K C x C K P L B H B n b f N C n C N Z z j h v v . 5 d 7 a 7 a 9 > 9     ",
"          7 9 a f b n c z I = . l h g k Z n n b x b N C K P P K P U V N K N V U P K P P K C N f Z b x g k m m Y . o = I d 8 9 a s a 9 7     ",
"          d 7 7 x n c l d T . = o h j h f x Z x z f Z c C V B P K P U l R l U P K P B V C c Z k x j m Y G G G o = ; . T d 7 8 9 a d 7 d     ",
"          v d j Z x z d E T 1 . : o h m m Y G Y h h k z f b K V n C P l H l P C n V K b f z k k j m m G G G o : . 4 1 T G d 7 a s d d v     ",
"          a s s j j d a E T W Q O O - ! * X G G G Y g x z z l b b n B x c x B n b b l z z x g k h h X * ! - O O Q I W ~ G M d d M d s a     ",
"          s s s a 7 a 9 E E T Q Q Q Q ^ @ # g + G G Y k x x x g g l x b x b x l g g x x x k g / + g # @ ^ Q Q Q Q W ~ ~ Y 7 7 d d d d s     ",
"          8 a a 2 9 > X ( ) E T Q Q Q ^ - + ; * _ Y m m k X X Z x z z x x x z z f Z X X k k k ` * ; + - ^ Q Q Q Q ' m m ( X > 7 9 a a 8     ",
"            9 q 0 > 8 o $ v E E E Q Q Q / ] - # _ / _ _ _ o : X l f x n H n x f l X : o [ { _ ` # ] - / Q Q Q Q ' m z v $ o 8 8 0 q 9       ",
"            9 > 2 9 2 o o 5 G ) ) / Q Q ] ] ] ] _ { { _ _ - O 3 { o : ; O ; : o { 3 O - [ { [ _ _ ` ] ] Q ^ Q / m z j 5 o o 2 9 2 > 9       ",
"            q 9 9 2 0 > 7 8 v G G ) ) ] ] ] Q _ { _ { [ _ ! 3 4 } 3 - X * X - 3 { 4 3 ! [ [ { { _ _ ] ] ] ^ ' m z j v 8 7 > 0 2 9 9 q       ",
"              a 8 < < | , q . v . & )  .] ] ] ] _ { _ [ _ _ { [ } { _ 3 O 3 [ { { [ { [ [ { { [ _ { ] ] Q ' Y & . v . q , | < < 8 a         ",
"              > 8 2 q , < O % . & ..X.G ^ Q Q ` ` [ { [ _ [ [ [ { _ { [ [ [ [ { [ [ [ { [ [ [ _ _ _ ] Y k f X...& . % O < , q 2 8 >         ",
"                9 8 8 q 0 8 @ 3 + : . s G G Q _ { [ { [ _ [ [ [ _ { [ [ [ [ [ [ { [ [ [ { { { { ` Y k f f s . : + 3 @ 8 0 q 8 8 9           ",
"                q 9 a 8 q 0 8 a X + a a v s G ` _ { [ _ _ [ [ { _ [ [ [ [ [ [ [ { [ [ [ [ { { _ m k f s v a a + X a 8 0 q 8 a 9             ",
"                  9 > > 2 9 a 8 q , 9 0 a a d ~ W { { { { { _ _ { { { { { { { { { { { { { { { _ M s a d 9 0 2 > 8 8 a 9 2 > > 9             ",
"                  > 8 > > 2 > q 9 9 a 9 a a a d ~ W _ _ _ _ _ _ _ _ _ _ _ _ _ _ _ _ _ _ _ _ _ d d d d a 9 9 9 a 7 q > 2 > > 8 >             ",
"                  8 7 a 8 9 0 9 q 9 + 9 a v s f k m W 1 y 1 ` ` ` ` ` ` ` ` ` ` ` ` ` 1 y 1 d m k f s v a a + l l 7 0 9 8 a 7 8             ",
"                8 7 d s a 8 2 9 q q 9 9 8 8 a s f k d & o.& 1 ] ] ] ] ] ] ] ] ] ] ] 1 & o.& h k f s a 8 8 8 a Z s s 2 8 a s d 7 8           ",
"                a d     7 a 9 s 9 , | 0 9 . 9 8 a f k O : @ X 5 Q - + Q Q Q + - Q 5 X @ : O k f a 8 9 . 9 0 | , q s 9 a 7     d a           ",
"                7 8 2     7 a 7 7 8 2 0 | > . @ 9 8 a o = $ O 1 5 . = . 4 . = . 5 1 O $ = o a 8 9 @ . > | 0 2 8 7 7 a 7     2 8 7           ",
"                  7 > 2 > s 7 2 , < 9 2 | 0 2 > . @ 9 X O : O 1 8 + * = a = * + 8 1 O : O X 9 @ . > 2 0 | 2 9 < , 2 7 s > 2 > 7             ",
"                    7 s s d 2 . X > < q 2 | 0 , 2 > 9 7 X O . 8 9 . = + q + = . 9 8 . O X 7 9 > 2 , 0 | 2 q < > X . 2 d s s 7               ",
"                            + : ..X > < > 9 < | | < 9 7 d d 7 9 2 9 8 q 0 q 8 9 2 9 7 d d 7 9 < | | < 9 > < > X ..: +                       ",
"                            & $ # X a < > 2 < , 0 , < 9 7 d 9 2 0 < 0 0 0 0 0 < 0 2 9 d 7 9 < , 0 , < 2 > < a X # $ &                       ",
"                            + O . ; 7 < > < q 8 8 q 2 < 9 9 2 0 < 0 2 q 9 q 2 0 < 0 2 9 9 < 2 q 8 8 q < > < 7 ; . O +                       ",
"                            ; X 4 4 2 > a , 8 s   a a s < < 0 q > 9 8 7 8 7 8 9 > q 0 < < s a a   s 8 , a > 2 4 4 X ;                       ",
"                            ; X     G d d q > s s 7 s 7 7 q , q   a s 7 a 7 s a   q , q 7 7 s 7 s s > q d d G     X ;                       ",
"                                            q 8 7 s     s 8     8 s M 7 > 7 M s 8     8 s     s 7 8 q                                       ",
"                                              > 7 7 2     s 8 7 s M   > 2 >   M s 7 8 s     2 7 7 >                                         ",
"                                                  d 7 > 2 q 7 M M     2 d 2     M M 7 q 2 > 7 d                                             ",
"                                                      d d d M G d 9 2 d   d 2 9 d G M d d d                                                 ",
"                                                                d d d       d d d                                                           ",
"                                                                                                                                            ",
"                                                                                                                                            "
};
