/* XPM */
static char *caco_dies4[] = {
/* columns rows colors chars-per-pixel */
"75 75 134 2 ",
"   c magenta",
".  c #5B5B5B",
"X  c gray42",
"o  c #777777",
"O  c #6F6F6F",
"+  c #8B8B8B",
"@  c gray34",
"#  c gray39",
"$  c #838383",
"%  c #979797",
"&  c gray67",
"*  c gray50",
"=  c #A7A7A7",
"-  c #939393",
";  c gray31",
":  c #9F9F9F",
">  c #7F0000",
",  c #B30000",
"<  c #434343",
"1  c #9B0000",
"2  c #D70000",
"3  c red",
"4  c #EF0000",
"5  c gray28",
"6  c #CB0000",
"7  c gray23",
"8  c #BF0000",
"9  c #A70000",
"0  c #E30000",
"q  c #FF3F3F",
"w  c #FF7B7B",
"e  c #FF5F5F",
"r  c #FF1F1F",
"t  c gray75",
"y  c #373737",
"u  c gray78",
"i  c gray86",
"p  c #DFDFDF",
"a  c gray70",
"s  c #5B0000",
"d  c #730000",
"f  c #8B0000",
"g  c #5B0707",
"h  c #670000",
"j  c #00006B",
"k  c #3737FF",
"l  c #731313",
"z  c #771717",
"x  c #5F0707",
"c  c #1B1BFF",
"v  c #9B633B",
"b  c #AB6F43",
"n  c #7F532F",
"m  c #533F1F",
"M  c #6B0F0F",
"N  c #7F1B1B",
"B  c #0000CB",
"V  c #670B0B",
"C  c #B37347",
"Z  c #BF7B4B",
"A  c #D78B5B",
"S  c #8F5F37",
"D  c #00009B",
"F  c #2B230F",
"G  c #1F170B",
"H  c #13230B",
"J  c #774F2B",
"K  c #875733",
"L  c #8F2B2B",
"P  c #831F1F",
"I  c black",
"U  c #530707",
"Y  c #0B1707",
"T  c #17330F",
"R  c #DF9363",
"E  c #CF8353",
"W  c #732B00",
"Q  c #B34F4F",
"!  c #972F2F",
"~  c #43331B",
"^  c #5F4323",
"/  c #470000",
"(  c #4F0000",
")  c #6B4727",
"_  c #9B3333",
"`  c #8B2323",
"'  c #000023",
"]  c #D37373",
"[  c #EFA373",
"{  c #F7AB7B",
"}  c #000083",
"|  c #A33B3B",
" . c #AF4747",
".. c #A73F3F",
"X. c #A36B3F",
"o. c #FFBB93",
"O. c #3F2F17",
"+. c #BF5B5B",
"@. c #4B371B",
"#. c #5B472B",
"$. c #775F3F",
"%. c #170F07",
"&. c #675333",
"*. c #9F8363",
"=. c #836B4B",
"-. c #4F3B23",
";. c #373F27",
":. c #1B1B1B",
">. c #DB7B7B",
",. c #0000B3",
"<. c #000053",
"1. c #CB7F4F",
"2. c #CB6B6B",
"3. c #430000",
"4. c #3F472B",
"5. c #232323",
"6. c #0000E3",
"7. c #000047",
"8. c #BB5757",
"9. c #272727",
"0. c #AF4300",
"q. c blue",
"w. c #1F4317",
"e. c #2F6323",
"r. c #332B13",
"t. c #37732B",
"y. c #27531B",
"u. c #3F832F",
"i. c #4B9F3F",
"p. c #439337",
"a. c #5FCF57",
"s. c #6FEF67",
"d. c #53AF47",
"f. c white",
/* pixels */
"                                                                                                                                                      ",
"                                                                                                                                                      ",
"                                                                                                                                                      ",
"                                                                                                                                                      ",
"                                                                                                                                                      ",
"                                                                                                                                                      ",
"                                                    .                                                   .                                             ",
"                                                  . X                                                   X .                                           ",
"                                                  X o                                                   o X                                           ",
"                                                O o +                                                   + o O                                         ",
"                            @ #                 O $ %                                                   % $ O                                         ",
"                            @ #                 O % & o                                               o & % O                                         ",
"                            @ X X               # + & *                                               * & + #                                         ",
"                            @ # O o             . $ = - o                                           o - = $ .                                         ",
"                            @ . # o O           ; O % : * o             > , , , , , >             o * : % O ;             + $ o                       ",
"                              @ . o $ O         < X * - % * o   > 1 1 , 2 3 3 4 4 2 , , 1 1 >   o * % - * X <           + # . ;                       ",
"                              < 5 # o + O       < # * - 1 1 1 , , , , 3 4 , 6 2 6 , 6 6 , , , , 1 1 1 - * # <       O + $ O ; <                       ",
"                              < 5 @ O $ + O     7 . > > 1 , 8 8 9 6 0 0 8 2 q q 0 2 8 8 0 6 9 8 8 , 1 > > . 7     O : + o ; 5 <                       ",
"                                5 5 . o + : +   7 > > > 1 6 6 6 , 6 0 2 6 q w e r 2 6 , 0 6 , 6 6 6 1 > > > 7   + : + o . 7 <                         ",
"                                < 5 @ X o - : : * 6 0 3 4 4 0 2 , 6 0 6 2 e e e q r 2 9 0 6 , 2 0 4 4 3 0 6 * : : - $ X 5 5 7                         ",
"                                  7 5 ; X * - = = t t - o 3 3 2 , 6 0 8 2 q q e q 3 2 9 0 6 , 2 3 3 o - t t = = - * X ; y y                           ",
"                                  y 7 5 @ X * - = u i t t o 3 0 9 8 4 , 2 4 r q 3 4 2 6 4 8 9 0 e o t t i u = - * X @ 7 y 6                           ",
"                                  8 y 7 5 @ X o - = t p t o 0 0 9 9 3 3 6 8 0 3 0 8 6 3 3 9 9 0 w o t p t = - o X @ 5 y , 8         = +               ",
"                @ X + + *       8 8 6 y 7 5 @ X O o % = a o 4 0 9 8 2 3 2 , 8 0 8 , 2 3 2 8 9 0 w o a = % o X @ @ 5 7 2 8 8 8     % + *               ",
"                  . @ O + = =   2 , 8 , y 7 5 @ X X O $ + o 3 2 9 6 9 2 3 , 8 0 8 , 3 9 8 6 9 2 3 o + $ O X 7 5 5 7 , 4 # , 2   & + * # O             ",
"                    . @ # * % & - * # 2 , y 7 5 5 @ # O o 8 0 8 , 1 8 9 3 6 , 8 , 6 3 8 3 1 , 8 0 8 o O # ; 6 9 > > > 4 # * - % @ # @ @               ",
"                        @ @ # + % - $ # 4 9 , y 7 ; @ . 8 2 8 9 6 0 8 8 6 4 , , , 4 6 0 6 0 6 9 8 2 8 . @ s 1 y d f , # $ - O @ ; @                   ",
"                            ; @ O $ o # 4 > 1 9 6 8 6 6 6 , 9 1 0 3 0 8 1 4 , , , 4 1 0 8 9 , 1 9 , 6 6 d , 1 s d s > s o $ 7 7 ;                     ",
"                          8 8 7 ; @ # @ 2 2 , f 1 f , 8 1 9 , 6 0 0 0 6 , 6 0 9 0 6 , 6 9 8 9 9 , 9 1 f 8 , s s d s s 6 # 7 f 9 8 8                   ",
"                        9 , 4 2 9 7 7 9 0 6 9 1 , 1 , 8 , 8 6 0 4 4 2 8 f , , 6 , f 1 8 8 6 8 0 2 2 6 8 , 1 d 1 f g > 6 0 9 2 6 4 , 9                 ",
"                        9 , 4 8 2 0 6 0 2 , 9 d d h f 1 , 8 6 0 4 4 2 2 8 h 1 6 , f 1 8 0 3 0 0 2 2 6 8 1 f g g g g h j , k 6 8 4 , 9                 ",
"                      , 9 9 2 1 , 1 > 1 , , d h l z > f f 8 6 3 3 4 2 3 2 d h d d > 9 1 9 3 4 4 0 8 , z > g g x c v b n n m 4 4 2 9 9 ,               ",
"                      , 8 , 9 > 8 , 2 1 9 1 h h h M z M z , 8 6 3 4 2 8 9 f d f d f 1 9 6 , 9 4 8 , f N x B z V j C Z n A S , , 1 , f 8               ",
"                    1 , 8 0 9 > 1 2 4 f 3 2 d h h l N l M N 1 9 4 3 4 6 9 6 d h f f 9 8 0 3 f 6 1 f D F G H J C K Z Z n S A > > f 9 8 1 1             ",
"                    1 > 1 , 1 6 4 1 , > , L f P M l z x I F N f , 3 3 8 0 V , d 6 9 9 8 0 > U f N x S G Y T m R C E E n F s 9 2 d h , > 1             ",
"                    W h d > f , 2 f , 9 > Q N P ! N F F ~ ^ V f , g P 0 8 9 0 f 9 3 0 8 3 6 / ( M R E ) Y H m J R R R v f s _ h M f d h W >           ",
"                    > s s d d f 9 d f f P N ` N z N K K J ~ F 1 / ~ J L U f g f f 0 L , 0 1 ' ] ~ ~ [ E S J m m K A { A } f Q h f d s h s 1           ",
"                  8 f ( h h h Q h h |  .L ! _ ..V l G F F ~ ~ ~ ~ ~ X.P 6 , 6 f 6 8 8 V V P / ~ ~ ~ D [ o.X.) } U O.A N _ } ` h h s s d s 1           ",
"                  0 6 h z z P ` ! +._ _ ] @.) ) @.I I I I I I ~ I #.#.#.$.$.6 6 , 8 0 ' T ' ' ~ #.~ ~ I %.F #.&.} @.I I | N h s g s ( > 6 0           ",
"                8 2 2 , d s M P ..L ` Q Q ) F F O.A { o.b ~ Y %.#.*.*.=.$.z 1 , V ( P ] T ~ T -.#.&.~ ~ c &.&.Y F Y G G F z ! s P h 1 , 2 8           ",
"                , 6 8 9 f h h z P P ! ..J m m K A { A v m ~ Y #.*.=.$.#.-.P 1 f z ` g c T ~ H T #.&.#.&.&.#.;.) F F K K K ` ! ` M h h h 9 6 9         ",
"                9 , 9 f > f > h M M P ` H m J R R R v J m F #.=.$.#.-.( Q D ( s ( ( D D R ~ T H -.&.&.&.#.~ ;.c } K ^ F F F ^ J g h > f > f f         ",
"                W h h d f > h ( :.# ; # T m R C E E n F S #.*.#.m E >.D V I D I I ,.S [ E S H ~ ~ H H <.=.$.&.$.$.P F I I I F J :.h h > 1 > h         ",
"                f f 1 > h h s ( :.< 7 G H J C K Z Z n S A $.*.-.b E +.P D / <.) G I [ E ) G F ~ ~ +.~ $.=.&.~ ~ ~ Z ^ I I I ^ Z m < :.s h 1 f         ",
"                1 1 1 h 6 > > g / 6 < G H o v ^ C Z n A #.*.$.N b C +.l F ` @.X.m %.o.S Y Y ~ ;...~ =.=.&.O.1.<.F ^ R Z Z Z Z ^ R ( > h 1 1 1         ",
"                1 8 8 , 6 , / , / , @ %.I J v F v b n n m $.#.~ ~ Q 2._ 3.I 3.m ) F X.J H T ;.4.4.=.&.I #.#.#.#.~ Y Y o R ^ _ g g ( , > 8 8 1         ",
"                1 9 8 9 1 , , N j , , I I J v F v b n F H H -.~ -.~ Q _ 3.I Y Y F @.) m m m J 4.&.&.#.#.-.~ ~ ~ ; _ N 3.R K o 5.h , 1 0 8 9           ",
"                  9 , 6 r , , 0 j 6.G I I J v F v b n I I I I I ~ -.-.L L _ _ |  .Q .._ _ l J 4.&.#.~ <.7.D K ) 7.7._ / 8.d # h I V g 8 9 6           ",
"                  8 9 9 0 2 r r , 0 %.%.I ^ v I K v J I I I I I V V ..! | |  . .+.+.Q Q Q ] N 7.@ ; h -.1 1 } 7.9./ f > d d 1 h / 8 h 6 1 9           ",
"                  0.f 1 , 4 8 2 6 6.%.%.%.@.E m m ) m I I I I I I / V N L  .8.+.2.2.L D L P ` D . + h j D D D 1 D ' 8 D 9 f > 1 8 2 1 1 f 0.          ",
"                    6 9 1 f 1 6.q.8 O.O.H H v C F O.F I ~ I I H H 3./ V N L  .2.>.1 f  .D P ` q 0 + h j 6.<.D 6.,.,.,.,., f 1 1 8 8 r f               ",
"                    6 , 9 > z } 1 0 1.1.1.b K J I I I I I ~ H w.T I I I N e.2.s s D , B . : 6.q.q 4 0 q.q D 6.6.6.6.6.6.8 8 8 9 f 6 1 8               ",
"                      9 f z L } 8 0 ) ) ) ) ) @.I I I I %.H w.Y I I F r.r.! 8 8 s D D B 7.q w w q.3 4 6.q.0 6.6.6.6.B D } 8 , 9 6 , , 9               ",
"                ,.    , _ ,.1 D } 9 F F F F F F I %.G I H w.Y H w.3.T ) K s s 9 d q.q.B 6 4 q.e q q.q q.0 q.q q.6.6.q.,.} > 0 6 , , 1 ,               ",
"                      | | ..1 > > } ' ' ' ' ' ' ' ' ' T w.w.Y w.3.T F r.) 6 1 s q.D r 6.e e e q.q.q q q.q q.q.q.6 q.,.r } d 6 9 1 f 1 1     ,.        ",
"                      ,..._ | f > > , ' ' ' ' ' ' ' ' T e.Y T w.T I / / ,.1 D d q.s D r D q.q e e w q 6.4 6.B B ,.} } B } f d 1 f d > 1 ,.            ",
"              ,.        > P ! D f , ,.' ' ,.' ' ' ' T e.T Y e.T T 3./ d B ( D D q.q.q.8 q e q.q.e w q q.4 6.6 ,.D } } D D D _ 9 f d > f >             ",
"                  D     ,.,.! > } ,.9 ,.' ' ' ' ' ' T t.H e.T T 3.3.} B j 0 ( D 8 2 D B r q 2 6.r q.e q.0 6., 9 } } } D D j L 9 >   h                 ",
"          ,.        ,.    > | } 2 6.6.j ' ' ' ' ' ' e.y.T u.H T I I ,.<.6.B 2 D D , 6 D q D r D r 6 4 q.q ,.9 f } D D 6.2 B 1 d , , > ,.  ,.,.        ",
"            ,.  D           6 } 6 > 8 8 ,.' ' ' T w.e.H u.y.I T I 3.j h ,.h 2 f , , 9 9 D 1 3 ,.6 2 8 0 , } } 1 } j D j B 6 d > ,.,.,.  ,.  ,.        ",
"              ,.,.  D   D D D   B , 6.} , } d 9 y.e.u.u.t.y.I j <.,.1 <.8 > ,.,.f 1 1 h 3 f 1 , , 8 6 6 8 ,.B d } D j ,.,.6 > ,.1 D   ,.              ",
"                D     D D     D ,.D 6 } 4 , ,.t.u.i.i.i.p.t.T 3.j <.6 , , , > 9 ,.D 1 1 f B d f 9 1 f 6 f ,.1 ( s } B B , > ,.1 D D ,.                ",
"            D   D   D D D ,.,.D   } 6 6.B 6.y.p.a.s.w.e.d.p.y.3.7.<.<.6 f 1 ,.1 1 f f 8 3 B d f , 1 , 0 > D D 8 ( <.j j j ,.,.D D   ,.                ",
"              D   D D D D D } ,.} } j <.B 6.y.t.a.w.H w.d.t.y.B 2 8 3 <.3 > f > 1 f d 1 , B d f , 1 , 1 1 D 8 4 , j <.<.D D D D D ,.D       ,.        ",
"    D D         D D     D   ,.} } j j j <.<.y.w.y.e.w.e.y.w.y.1 h 6 1 6 d > > > f 1 > 1 > 6 , , 8 d f f   j j j <.<.} D ,.D D D   D D     ,.          ",
"                D D   D D   ,.,.} } } j <.<.w.T T T T T T y.Y d 1 > d d   f d h d f s f f > 3 8 > > d > <.<.<.<.<.D D ,.D ,.    D   ,.D               ",
"              D       D       D D D D j j j y.w.H H H H T Y w.8 > s ( h s h h > f d > d 1 <.<.<.<.<.<.<.j j } } } ,.,.D ,.,.D     ,.    ,.,.          ",
"                        D       D   ,.,.,.,.  T Y T T T Y Y <.<.<.<.<.<.<.<.<.<.<.<.<.j <.<.<.j j D D ,.,.,.,.,.,.,.,.,.,.,.    ,.,.,.,.,.,.          ",
"                            D             ,.  ,.  Y Y Y       <.<.  <.<.  <.        <.<.<.j B B B B D ,.,.B B ,.,.,.,.  ,.D ,.  ,.,.  ,.              ",
"                          D     D           ,.  ,.    <.      <.      <.                <.<.  B       B B   D B         D   ,.                        ",
"                        D               ,.                  <.                <.<.                B     B     B           ,.                          ",
"                                        ,.                          <.                j                                                               ",
"                                                                                                                                                      ",
"                                                                                                                                                      ",
"                                                                                                                                                      "
};
