/* XPM */
static char *caco_walk5[] = {
/* columns rows colors chars-per-pixel */
"68 71 103 2 ",
"   c magenta",
".  c gray39",
"X  c #939393",
"o  c gray42",
"O  c #5B5B5B",
"+  c #8B8B8B",
"@  c #979797",
"#  c gray50",
"$  c #9F9F9F",
"%  c gray31",
"&  c #6F6F6F",
"*  c #777777",
"=  c #838383",
"-  c gray28",
";  c #BF0000",
":  c #D70000",
">  c #EF0000",
",  c #FF1F1F",
"<  c #E30000",
"1  c #CB0000",
"2  c gray34",
"3  c gray67",
"4  c #A70000",
"5  c #B30000",
"6  c red",
"7  c #434343",
"8  c gray23",
"9  c #B7B7B7",
"0  c #9B0000",
"q  c #FF3F3F",
"w  c #8B0000",
"e  c #670000",
"r  c #730000",
"t  c #373737",
"y  c gray70",
"u  c gray78",
"i  c #CBCBCB",
"p  c #2F2F2F",
"a  c #A7A7A7",
"s  c #7F0000",
"d  c #272727",
"f  c #4F0000",
"g  c #5B0000",
"h  c #A33B3B",
"j  c #771717",
"k  c #831F1F",
"l  c #A73F3F",
"z  c #7F1B1B",
"x  c #731313",
"c  c #8B2323",
"v  c #C76363",
"b  c #BB5757",
"n  c #9B3333",
"m  c #670B0B",
"M  c #972F2F",
"N  c #DB7B7B",
"B  c #5F0707",
"V  c #8F2B2B",
"C  c #AF4747",
"Z  c #6B0F0F",
"A  c #5B0707",
"S  c #732B00",
"D  c #B34F4F",
"F  c #BF5B5B",
"G  c #D37373",
"H  c #171F07",
"J  c #13230B",
"K  c #1F4317",
"L  c #27531B",
"P  c #E78F8F",
"I  c #53AF47",
"U  c #3F832F",
"Y  c #CB6B6B",
"T  c #2F6323",
"R  c #439337",
"E  c #F7ABAB",
"W  c #232323",
"Q  c #1B1B1B",
"!  c #DF8787",
"~  c #EB9797",
"^  c black",
"/  c #1F170B",
"(  c #F3A3A3",
")  c #00002F",
"_  c #470000",
"`  c #000053",
"'  c #131313",
"]  c #430000",
"[  c #4B371B",
"{  c #00006B",
"}  c LightGray",
"|  c #000083",
" . c #874307",
".. c #332B13",
"X. c #0000B3",
"o. c #00009B",
"O. c #0000E3",
"+. c blue",
"@. c #0000CB",
"#. c #3F2F17",
"$. c #775F4B",
"%. c gray86",
"&. c white",
/* pixels */
"                                                                                                                                        ",
"                                                                                                                                        ",
"                                                                                                                                        ",
"                                                                                                                                        ",
"                                            . X                                                                                         ",
"                                      o     . X                                 O                                                       ",
"                                    o o     . + @                               o O                                     O               ",
"                                    o o     . # @                               + .                                   $ %               ",
"                                  & o o     O # X @                             X . &                                 $ %               ",
"                                  o o *     O * = @                             X . &                               $ @ %               ",
"                                  . * +       o # X @                           X . &                               X X -               ",
"                          o       O * @ #     O * = @ @             ; : > , < 1 1 . &                             $ X = -               ",
"                          o +     2 & 3 X     - . * @ 3 + 4 4 : : ; ; 5 ; < > 6 6 < 1 1                           X = * 7               ",
"                          o & +   % o 3 X X 4 8 % & @ 3 9 = 0 5 : 6 , < 5 ; , , q 6 < : 1 4                     $ = * %                 ",
"                            2 + + + w e e 4 4 r t 2 + y u i * 0 ; : : , < 5 > 6 , q 6 1 : ; 0 : 6             $ X # . 7                 ",
"                            % o @ + 2 e e w 4 w t - . + y y u * 1 ; ; : : < : < , , , : 1 4 0 < < > : 5     $ X + o % 7                 ",
"                              2 o $ + w w r w 0 p % - . + a y y . < 6 ; ; 5 ; 1 < , 6 < : ; 0 : 6 : 1 5 s $ + # & 2 7                   ",
"                            s % O o 3 # e w w w r 8 % - O * + = = 4 , : ; 1 5 ; 1 > 6 < : 5 0 < < > : 5 5   # & 2 % 7                   ",
"                            5 e % % o 3 # w 0 w r d - % - % % 2 . 0 6 > ; 5 5 4 ; 1 < < 1 4 4 5 ; : 1 5 s s 7 2 % 7           = &       ",
"                        1 5 w r % . 7 o 9 % s ; r f p 8 % 7 7 7 0 ; < < 5 4 : 1 4 ; 1 1 ; 5 4 4 5 ; 5 4 5 0 s s 7 7       = = o .       ",
"                      0 4 w r r g % o 7 o % s : 0 r f p t t w 0 ; > < ; 4 w : 1 4 ; 1 1 ; 5 4 4 0 4 4 5 0 ; 0 5 0     = X = o .         ",
"                    r r r r e w g 8 . * w r ; : 0 w 0 0 4 ; 1 < < < ; 4 w 5 : > 1 4 ; ; 5 5 1 5 4 ; 1 ; 5 5 5 0 0   = X X o .           ",
"                  g e e e e g w w g g w r ; : ; 4 s w 0 0 4 ; ; 1 : ; w w 5 5 : > 1 4 4 5 1 5 0 : > > 1 ; 5 5 0 ; 0 o + o .             ",
"                  4 e w 4 w e r s 0 0 5 5 : ; 4 w r s w w 0 ; ; 1 : 5 w 5 : 0 ; ; : ; 0 5 ; 0 5 : > 1 : < 5 0 < 4 ; s o .               ",
"                5 ; s 4 : 4 s s < 1 4 0 0 w 4 ; ; w r g r s 1 < > < 1 5 ; : ; 0 ; : ; 0 5 ; 0 5 : > 1 : < 0 w 1 < 4 < h                 ",
"              j j k s ; 4 w s 0 5 0 0 0 5 0 w w s e g f f e 4 1 < > q 6 < 1 : ; 0 1 5 0 4 0 s w 1 > : 5 0 w 0 5 1 0 5 4                 ",
"              l l j s 4 w s s 0 4 ; 4 0 5 0 w w s e r z e e x w 5 1 < > 6 6 1 ; ; 5 w w 4 w r 5 > : 5 0 w k c w 5 5 ; 4 5               ",
"              v b n s s r s s w ; : ; 0 : > 1 4 0 w j z m m e x x 0 5 1 < < 6 1 4 w w w w r 0 > ; 4 0 w x M k c w 5 ; ; 0               ",
"            v N v n j w 4 w r w 5 : : s > 1 ; 0 w k z z m k c f B x x 0 ; ; < > > > 0 5 w : 0 : 0 w w M V c M c w 1 s 0 w s             ",
"            b v C c w 4 ; 4 w r w 4 w s ; 4 0 k k c M z m m Z Z A B B x 0 5 ; 1 1 5 0 1 e 5 0 4 w z M M c S h M c w 4 ; r s             ",
"          n l b l c 0 ; < 1 0 e s w s r w z z k V n C M z m Z c D c A Z Z x 0 4 4 4 0 0 e s 0 w m k M D S V D l c w > ; w 4 s           ",
"          c M c c s 4 : , < 4 e e e e x z c M V V l F C M z m z k k Z k V h x w w w w w r r r m z M V c V b D F c w : 0 w 4 4           ",
"        s 0 c c g r 0 1 < 1 w f f f e e z z V n h C G G C V z m V V M k h r H J K J H L K H J z M V c V b D l C c w 0 w w 0 1           ",
"        g e s s e e s 4 : 4 e f f e x z c M V V l F G P N C V z c l D k C l H K I K J K U K K M D c z n l G F C c w w 4 ; 4 ;           ",
"        e s 5 e 0 s e s 0 r r e f e x c n V c l Y F b G P N C n V k k M k C v K T R K T T K l M n V n b Y b F C V w 1 > ; w 4 e         ",
"        s s e 0 4 ; 0 r r r 0 s e e k V c z n v G C D v N P G D l n V k k k l v v v C l n l M z V l D G G D C D z Z 0 : e j w e         ",
"      g r s f w 4 1 ; w j 0 ; 0 s g k k j M b Y v n D b Y N Y v F D l l V k z z x A A A A z z V l F v G F D n D c g s 0 j r s e         ",
"      g e f f s 0 ; 5 4 z ; 1 4 s e j j j V D F D V l C b D b Y N N Y F v F D l n k z c M l D v F E G D b l V M Z . W M M r e e         ",
"      f f g f r w 4 0 w e 5 ; 0 s Q - m m c l D l z n D D h G ! G D h C v F Y G ! v h V h G Y v C G ! h D n z Z S X W D D r e r         ",
"      e s w g f g r s s e w 4 s e Q X - Z m c h M k V C h D G Y b M M h C D F Y G ! F C V F F C h l Y D h V k V . . W l l r e r         ",
"      g e s f r s w 0 w e s 0 s f Q # o k j m m z x k c h F b l l C b v b C b G P E ~ b V E b Y ! F C D h k x c X 7 W M M 0 r r         ",
"      r g r f r w 4 w r s s w r Q Q % O t k M Z m x k j c M n M C b v N G Y D P E ! Y b V Y F ! G b C n M j Z $ . ^ W k k 5 w s         ",
"      g w f r w 4 w r s s s s g / / d 7 t 8 8 M c m m x k k c z h C b G ! G v ! ( ~ v V E C v ! v C h c Z C 2 * 7 ) f s s 4 w w         ",
"      e w f f e s w r s w 0 r g _ _ ^ d W * X W 8 c j m m m x z h C C v G ! G ! G ~ P V ~ V ! G b l c Z c ` 2 . ) ) f r s w w w         ",
"      e g e f f f e s w 1 1 7 # 7 _ _ ' W % o W * 8 C c x m m j c M l D v G F F v Y G l ! V G F l V Z k = ` % ) ) ) r r s 5 w           ",
"        f w g f w 0 ; 4 1 > % u % m m ] ] t % W 7 % W 8 8 M x m z c M l D F v v b b v b V h h l M k c % & ` ) ) ) f r 0 0 5 w           ",
"        f e s e w 5 ; 0 1 q o X o e j m m W p W t 8 W 2 o 8 W k j x j z k c V M h C C h M V V z k k & 2 2 ` ) ) f S 0 5 5 1 w           ",
"        f g w e s 0 5 0 1 , O o O g x x x m W W W p W 7 % 8 W . = - 8 x Z m m m x j x x z c n c [ [ 2 p t ` ) # . 5 1 , < ;             ",
"          f r w e s 0 0 5 , 5 s g s 0 j x x m m W d W t 7 p W 2 . % % . [ - k k V k k D M V O o 7 7 t { ` ` f } # 5 1 : < ;             ",
"          f s r w w 0 0 4 < q > : ; - 2 j x 2 # g m d W t p ` - 2 7 2 = 7 # + . t $ o * o W - 2 % % | { ` f r $ & 5 1 ; ; ;             ",
"          f g e w e s s w 1 , < : ; o $ o O + 9  .c x ......` { t 7 & + % . # 2 X.& % $ % X.8 o.& O | ` f S w & w 5 < 0 0 4             ",
"            g s e e w w 4 0 < < > 4 * 3 . % * $ . r c j j j g { | 2 + 3 % 7 . 7 O.+.7 2 +.O.X.7 # o ` f r e e w 0 : ; w w 4             ",
"            g e e w 5 5 4 4 ; : , 5 . o % 7 o o O w S k k k x m | . = u o 7 X.@.8 O +.+.- #.@.O + * f w e . 4 , : 4 w V V               ",
"              e g w 5 5 4 1 4 ; : , > 5 w x 7 O w - 8 s s s c x x & # y # 7 o.X.O * 7 8 . - [ * @ # w e + 5 , ; 4 w V V V               ",
"              s g w w w 0 4 w 0 ; 1 : , > 5 w w 0 2 . - 8 s z c c . * $ + % | o.= + m w X & 0 * & . s . 5 < , 4 w V l c                 ",
"              e g e 0 w w 0 1 4 0 4 ; : : , , > : 4 4 2 . - 8 t c 2 o X X o [ [ * = ; 4 & . 4 . * e e 1 : , 1 w V l V V                 ",
"                e e e s 5 0 5 < 4 w w 0 4 1 1 1 1 < : ; ; 2 & t s % . * = $.4 1 4 0 ; < 1 4 0 4 e e 1 , , 1 4 4 l V c                   ",
"                    e e 5 0 5 5 1 5 0 c V h l D C 1 < : : : & t s 8 . * = 8 4 1 1 1 1 < 1 0 0 0 ; 1 1 , , 1 ; 4 0 n                     ",
"                    g 0 s s w 0 4 5 1 0 c n h l l h ; > > > 1 5 > e s s s 0 1 < > < < < < < < < < 1 > > ; 0 5 w n                       ",
"                    0 s e e r w 0 0 4 5 5 c V n n n 5 ; ; < , > > > > > > > > > > > > > > > 6 q q > < ; 6 ; 5 n                         ",
"                  w e     0 s w w 4 5 5 1 > > : 4 V s w 4 4 4 4 1 , , q q , 6 6 < < < < < < < < < 5 ; 1 5 s                             ",
"                  s 0 1     e s s 0 0 1 O = O w > 4 s 4 > 5 w w 0 5 : > > > 6 : : : : : < 5 5 5 6 1 r w 5                               ",
"                    s 5 5 1 5 r e w w O = a o % : ; 4 ; < 0 s s w 4 4 ; 1 6 1 5 5 5 5 : ; 5 5 5 1 6 5 5 w                               ",
"                      s s r r e 5 s s % X %.. 7 1 ; 5 > 4 0 0 0 w ; 5 ; : ;   w r s 4 1 0 s r w   ; : w s                               ",
"                                r r s % $ * 8 8 1 4 ; : s   w w s s ; :     0 r g s 5 4 w 0   g r s 0 r                                 ",
"                                  e s % * % 8 z w r ; 1 w r s s w r 0   0 s r g   5 1 e s 5     g g                                     ",
"                                      % % 8     e e 0 ; 0 s r r w 5 r 0 s g g     1 e     0 0 4 e                                       ",
"                                                      0 4 s w w 5   4 r g f e 4 1 e         e e                                         ",
"                                                        0 c e             j e e e                                                       ",
"                                                                                                                                        ",
"                                                                                                                                        "
};
