/* XPM */
static char *cydem_rocket[] = {
/* columns rows colors chars-per-pixel */
"15 15 19 1 ",
"  c magenta",
". c #775F3F",
"X c #332B13",
"o c #1F170B",
"O c #43331B",
"+ c #5F4B37",
"@ c #5B472B",
"# c #4F3B23",
"$ c #675333",
"% c #836B4B",
"& c #7B634F",
"* c #A73F3F",
"= c #4F0000",
"- c #574333",
"; c #972F2F",
": c #8F7753",
"> c #7F0000",
", c #430000",
"< c white",
/* pixels */
"               ",
"      .X.      ",
"      ooo      ",
"    XO+@#OX    ",
"   oO#$$@#Oo   ",
"  oO#$%&$O#Oo  ",
"  oO$%**=##Oo  ",
"-oo$@;::.=@@oo-",
"#oo##>%%.=##oo#",
"  oXX,@@@=XXo  ",
"  ooX#,,=OXoo  ",
"   oooXXXooo   ",
"    ooooooo    ",
"      ooo      ",
"      OXO      "
};
