/* XPM */
static char *cydem_dies9[] = {
/* columns rows colors chars-per-pixel */
"127 137 58 1 ",
"  c magenta",
". c #4F0000",
"X c #430000",
"o c #7F0000",
"O c #8B0000",
"+ c #D70000",
"@ c #BF0000",
"# c #9F3700",
"$ c #9B0000",
"% c #670000",
"& c red",
"* c #E30000",
"= c #A70000",
"- c #CB0000",
"; c #FF1F1F",
": c #B30000",
"> c #730000",
", c #EF0000",
"< c #A33B3B",
"1 c #8F2B2B",
"2 c #872300",
"3 c #AF4747",
"4 c #BB5757",
"5 c #731313",
"6 c #332B13",
"7 c #A73F00",
"8 c #932F00",
"9 c #5F4323",
"0 c #4B371B",
"q c #530707",
"w c #6B0F0F",
"e c #771717",
"r c #8B2323",
"t c #BF5B5B",
"y c #FF5F5F",
"u c #FF3F3F",
"i c #9B3333",
"p c #831F1F",
"a c #7F1B1B",
"s c #972F2F",
"d c #1F170B",
"f c #533F1F",
"g c #2B230F",
"h c #5B0000",
"j c #D37373",
"k c #A73F3F",
"l c #670B0B",
"z c #DF8787",
"x c #732B00",
"c c #5F0707",
"v c #DB7B7B",
"b c #EB9797",
"n c #470000",
"m c #5B0707",
"M c #CB6B6B",
"N c #170F07",
"B c #FF7B7B",
"V c white",
/* pixels */
"                                                                                                                               ",
"                                                                                                                               ",
"                                                                                                                               ",
"                                                                                                                               ",
"                                                                                                                               ",
"                                                                                                                               ",
"                                                                                                                               ",
"                                                                                                                               ",
"                                                                                                                               ",
"                                                                                                                               ",
"                                                                                                                               ",
"                                                                                                                               ",
"                                                                                                                               ",
"                                                                                                                               ",
"                                                                                                                               ",
"                                                                                                                               ",
"                                                                                                                               ",
"                                                                                                                               ",
"                                                                                                                               ",
"                                                                                                                               ",
"                                                                                                                               ",
"                                                                                                                               ",
"                                                                                                                               ",
"                                                                                                                               ",
"                                                                                                                               ",
"                                                                                                                               ",
"                                                                                                                               ",
"                                                                                                                               ",
"                                                                                                                               ",
"                                                                                                                               ",
"                                                                                                                               ",
"                                                                                                                               ",
"                                                                                                                               ",
"                                                                                                                               ",
"                                                                                                                               ",
"                                                                                                                               ",
"                                                                                                                               ",
"                                                                                                                               ",
"                                                                                                                               ",
"                                                                                                                               ",
"                                                                                                                               ",
"                                                                                                                               ",
"                                                                                                                               ",
"                                                                                                                               ",
"                                                                                                                               ",
"                                                                                                                               ",
"                                                                                                                               ",
"                                                                                                                               ",
"                                                                                                                               ",
"                                                                                                                               ",
"                                                                                                                               ",
"                                                                                                                               ",
"                                                                                                                               ",
"                                                                                                                               ",
"                                                                                                                               ",
"                                                                                                                               ",
"                                                                                                                               ",
"                                                                                                                               ",
"                                                                                                                               ",
"                                                                                                                               ",
"                                                                                                                               ",
"                                                                                                                               ",
"                                                                                                                               ",
"                                                                                                                               ",
"                                                                                                                               ",
"                                                                                                                               ",
"                                                                                                                               ",
"                                                                                                                               ",
"                                                                                                                               ",
"                                                                                                                               ",
"                                                                                                                               ",
"                                                                                                                               ",
"                                                                                                                               ",
"                                                                                                                               ",
"                                                                                                                               ",
"                                                                                                                               ",
"                                                                                                                               ",
"                                                                                                                               ",
"                                                                                                                               ",
"                                                                                                                               ",
"                                                                                                                               ",
"                                                                                                                               ",
"                                                                                                                               ",
"                                                                                                                               ",
"                                                                                                                               ",
"                                                                                                                               ",
"                                                                                                                               ",
"                                                                                                                               ",
"                                                                                                                               ",
"                                                                                                                               ",
"                                                                                                                               ",
"                                                                                                                               ",
"                                                                                                                               ",
"                                                                                                                               ",
"                                                                                                                               ",
"                                                                                                                               ",
"                                                                                                                               ",
"                                                                                                                               ",
"                                                                                                                               ",
"                                                                                                                               ",
"                                                                                                                               ",
"                                                                                                                               ",
"                                                                                                                               ",
"                                                                                                                               ",
"                                                                                                                               ",
"                                                                                                                               ",
"                                  .Xo                                                                                          ",
"                            O++@ ##$%o                                                                                         ",
"                           $+&&*@=&-oX                                                                                         ",
"                         o$+&&*&;&:-%X                                                                                         ",
"                        o$@&;&-+&&O%%                                                                                          ",
"                        >=+&,@$@+*=O                                                                                           ",
"                       >=@+,&$%%:@&*O                                                                                          ",
"                      >>+<@,@1.%+$*&@$                                                                                         ",
"                   22 >$34,+$5$:+@$:*:                                                                                         ",
"                 6278@@-&3,-$.$@*@:$:O                                                                                         ",
"                6978&&+<,<,$$.$:-$:OO>                                                                                         ",
"               60978+,+3-<@$q>$:$o:=>%                                             werr>>>$$                                   ",
"               6007$@-+3t<=1q$$o%%:=>6                               =&;yui  wp1ii1pp<ira<<s:$                                 ",
"               d60f7OOit-<+5O@$o%%=$$                              2=+*;;u*-@1s<1aap344<i343s:*<                               ",
"                dgdXhhstjk%O@=o@o%O:o                             22*u*+;*,+srrpa5l-;yy;-$33i&::+                              ",
"                dddXh>rtzk1$=%o*o.O$>                             62x=:+@,,:reewcqap=*&-$l:i1+:ch+                             ",
"                XdXXhwivb4+,+:o**.:o6                             g66x=$$+-:ccccqw5ewO:Occlwwwcchh                             ",
"                ea13tuu;;&&&&&&;n $>                             Xqddg$%a@$%XXX.....XX....nnnnXXXh                             ",
"               mw5@&&vjM&&;&**+:o 6%                            XlwqdNhhO$oXXXXXXXXXmXXwpssp5wlcNN                             ",
"              X.qc5@&3tMk*+@a:+$od 6                           Xwaa5p%$r:O%dXXXXXqqqq..c5eaewccXNN                             ",
"              X..Xnm:134k++e1:+$%d                     .       Xmwppp5hwr=O%%NXXXXXXXX.qlee5l.XXNX  X                          ",
"               XXXXXXs<kk=@pr:+:%h                    O.    wp1@Xd%m55OXwe%O%NXXXXXXXn.qleewlqXXXN>$X      5r.                 ",
"              XXca1i3MBBu@@=@+*:$h                   @>XXXXwwdmwX%%mm>>O...%NNXXXXXXX.mcwwlwwcqXXN$Xhh%%%%5rl.>>>>>>h-o        ",
"              XqmlXe1<33so=@@,*:$X                X%oooooooo%>o>NoX>hhXXXXXNNNXXqmmcclww5aaa5wlcXNXhh%waw>c..ccoooooooh   %    ",
"         >o>>>X..mc5e1<3<p=pO-*:>>>>>>ooooOOOOOOOoOOoO$$$$OOO:-:o>>$>hhhhhhhXXXXXXXXXXqqmmmqXXXXX.h>>ooooooooOO$$$$OO%hX       ",
"   hh %ooOOOOOX...qc51<3<1>1a:*:>Xhhhh%oO$=::::::=$$$$$$$$$$$$$$$$OOOOOooooo%hXXh%%%%%%%%%%%%%hh%%>oOO$$$$$OO>%>>>>hX-o        ",
"     %$$$$$OOOX...qc51<33<111e@$>XXX..h%o$$=======::=====:=::::::::=:==$=$$$$=======$$$$$$$$$$Oooo%%h%%%%%%hX       oh         ",
"      .%%oo$$$XX.mcXe1<<3<<<15$>XX.%%%%>O==$$$$$$Oo%hh%%>ooOoOOOOOOOoooo>>>>oooOOOOOOOooooo>>%%%hhhX            qaiaq oX       ",
"           .%%.XX..qclp1pepem.nXX...>>>oO$$..%%%..   %% ooh%%              h.   .oo%. h           q$$$$$$q  q  q llq  qq       ",
"                 XddXX.m..q.XXX.....>$$$$$$. >    h hh    %o%%        %%%     h        >  >>   qq>>oo>%q                       ",
"                                                                                                                               "
};
