/* XPM */
static char *cydem_dies5[] = {
/* columns rows colors chars-per-pixel */
"130 127 35 1 ",
"  c magenta",
". c #430000",
"X c #470000",
"o c #5B0000",
"O c #670000",
"+ c #7F0000",
"@ c #8B0000",
"# c #9B0000",
"$ c #A70000",
"% c #BF0000",
"& c #730000",
"* c #B30000",
"= c #4F0000",
"- c #CB0000",
"; c #D70000",
": c #E30000",
"> c #EF0000",
", c red",
"< c #5F0707",
"1 c #670B0B",
"2 c #771717",
"3 c #7F1B1B",
"4 c #530707",
"5 c #731313",
"6 c #5B0707",
"7 c #8B2323",
"8 c #8F2B2B",
"9 c #6B0F0F",
"0 c #972F2F",
"q c #1B1B1B",
"w c #170F07",
"e c black",
"r c #1F170B",
"t c #831F1F",
"y c white",
/* pixels */
"                                                                                                                                  ",
"                                                                                                                                  ",
"                                                         .XXoOO++++++OOO...                                                       ",
"                                                       .oO@#$$$$$%%$@+&&@&o..                                                     ",
"                                                     .oO@##$%%%%%%*$#@@@#$*$@O.                                                   ",
"                                      ...          .=O&#$*$*******$#$$$$$*%%*@O.                                                  ",
"                                  ...          ...oo&@*%*$#@#$$$$#@@#$*%%*%%*$&..ooooo                                            ",
"                              .........    .=oO&+@##$*%*$#@$*-%*$$*#%---%%%%*$@&XX===ooo                                          ",
"                           . .........   =oO+@$*%---*;-$*%%%%;;-%%%%;;;;-%%%*$#++&O=&++#oo                                        ",
"                               ..      ==o&@*-:::>>;;-**%%-;:;;-%%%-;;:;----%*$++@&oO++@@oo                                       ",
"                            .=oOOOO=..=.O+@*;>,,,>>-;*$$*%;::-%%-%**-;;---------%#OO=&+#$@o ...                                   ",
"                          .=OO&+&&O.oO&@**--:>,,>>:%*%$$$-;;;--*$#+@*:;--%-;::::-$@OOO&##@oo.....  .                              ",
"                        .o&+$$@&OOoo&@#*-;:>>>>>>;%*--*$$*--%$##@+##******-;::::;%$@&O+##+=o...... ....                           ",
"                       .&@@$*#@&o O&@#**-;:>>:--;*$*%-%$####@@@@#**$@#@++@$*%;:::%*#OO&+@@+@..  .......                           ",
"                      .+@##*$@&O o&@#**$-;;::>--*##$$**##$$$$**%%*$+@&&&&&@@$***%-*+&O&@$@+####+&..  ... .                        ",
"                     o+#####@&OooO&@$#+#*-;;:>%$##*$*%%%%*$*$*%%%%$$#%*$###@@****-*#&&+@$#@+++##@&o. . .  .                       ",
"                    .&@$#@@@&OoooO&+@+&@$;:--;*#**%-;:>>>:;--;::::;%$*--%$$###$$***$#+@@$$@&&++#*+&&<o ..                         ",
"                    O+$$@@&&Oo ooO&+Oo&@*:;-%-#*%-:,,>>>:;>:>>>,>>:;%$*--%$+@##$$$***#+#$$@####@$##@@++&<...                      ",
"                   .&+$#@&OOoooooOOo.=o+*;>:-%$%;:,>>>:%%;:>>,,,,>>:;%%*%%**$*%%$$$#$**$$-**$%*****-##*#@@&..                     ",
"                   .&+@@&OOoooooO&OX.Xo+$-:;%$%->>>>:-%%**:>>,,,,,,>>:;-%-;;;;;;-%*$$#$****%%*@$**@@##@#$-$@1.                    ",
"                   .O&&O oooooo.O+O==Xo&#%-%$*%,,>:-$+++*-:>>,,,,,,,,,>::;>>>>>::;-*#$$$$***%**$$*@@+&O#----#1. ...               ",
"                   .=oooo.ooooo=O+@OO==&@$$$$%;,>:-$@+@$%:,>,,,,,>,,,,,>>>,,,>>>>;;%$+#$$$$*%---%%*$@@@&$-:-$@.  ...              ",
"                    .= X.ooOO.==O@#@+OoO+@#%*%-:;;%$$*--;:>,,,>,,,>,,,,>>>,,>>>>-%;-%$+###$$%-;;;;-*$*$@@#*;-@..  ..              ",
"                   ..X .=oO&&OooO+@#@&oO+#*%*%%;;-**-;:>>>>>>>>>>>,,>>>::>>>>;;-$$$%;*$#%%$***-;:;;-*%%*@@@%%#&.                  ",
"               ..  .ooXX=&++++o=o@@+&OoO+$%*$*%%%%--;>>,,,>>>,,>>>>>;:::::>>>,-%$$#$*%%@#%%%$**-;;:;---%$@@@##&..                 ",
"              ... .<OOo=O+@@@&=.+##+OooO+$;$#$$$$*-;:>,,>,>,,,,>>::::::;::::::;-*$@@##@O@#$$**$*-;;;-;;-*&<&@#+o...               ",
"              . ..2&+OOo&@##@&o&$*#&==O++%$@+#@@&#-;;:,,,,,,,:;;;;;;;;--------;;-%$@@@+&=&@##%$#**--;;;;*+X<+@@<....              ",
"             . . .++@&&O+#$$@@+$%*#&=O@#@$$+++++@$--;>,,,,,,>;-;-%----%%------*%--%*$@+&X=o+#$****---;;;*@&o@#@<....              ",
"             ..  3@@#+&+@$*$@#$%%*#&o+#*#$@#+&O&@*-%;,,,,,>>;-%##$****$$*--;---%*%--%**@&o=O@$*%**%*-;:;-*+&@*#&. ...             ",
"             .. .@+#@@++#*$##$%--$+&+#*$@##@+&=+O$--;,>>>>:;-*#+@@@$$#+@$%---;--$#*%---*#+&+@%%%%**%-;::;%@$*$#&o. ..             ",
"             .. .+++&@+##$###$*-;$@+#**#$#++&@+#@$*-;>>>>:;-*#&O&@##$#@+$*%---:-$+@$%-%-**@++@*-%%$*--:>;-*$$#@@@O  .             ",
"              ..@@@&&+@##$$#$*%%%$#*--%##$O++@#@@$*-;:>::;%%$@&o+##$$******$%---$@+@*%---**+&&#*%-@$*%;:::-$#@*%$&o ..            ",
"            . ..@@@&&+#$$***%-;;%**-:>;*####@@@+#*-%-;:;;--*#&oO+#$%-;;;;%*##%-%$@O+@*-;:-*@++@$%%%$$$-;:>:*#@$%%$& ...           ",
"            . ..+++&&+#*%%%-%;>:--;:>:-%#$$*#+O@*%-%%;:>;-%*@+&+&#%;::>,>;%****$%@+&@#*--;-*@+&$%-%*$$*-;:-%*#$*;:@&. ..          ",
"              .O@@+++@$%%%-;->::;:>>>:-*$*%%$@+#$%;;:>,,:-;%#####$-:,>>,,;--%**$#$+&@##*----$++#*%%%##$#*-;;-*$$*%$&= ..          ",
"              .+@@+++#$%-%;%;>:-:,,>>:-#$%--$@#$*-;>,,,>;%%*$$$$*%;>>:;>:;-%*$###$###@+@$%%%*@++*-;$@$#@#*;::-*@@@@&= ..          ",
"             .@@##++@#$%%;;-;>::>,,:>:%#$%;;$#$*%;>,,,,:%*$$$$*%%-;---;;-%%**$$#@#$$#+O+@$%%*@@#%-%#&@$+o@%::;*@.&&oX  .          ",
"             .@###@@##$-%;;;::>,,,>>>:%#$%;;%*%-:>,,,,:-*#$$%%-----**%-%***$$#@@@@#$#+&o&@$**$$$%*$@O@$&.O$-:;*@oOO=.             ",
"             .+#####$#$---%-::>,,,>>>:*$*%-;;%;:>>>,,>:%*$**%-:;;%*##*$$#@@@++&&&&@##@+OO&$$#$**$$#+=&#.==@%::%@.OOo.  .          ",
"             .&@#$##$$*-%%%-::>>,,,>:;%$$%-;:::>,>>>,>;--%**%;>>-$#++@##@@&++&@$#O+#$$+O+o$*#*%*#$@&=O&.==+*;:-$@&Ooo             ",
"           . oO+#*$*$$*%%*%-:::>,,,>:-%$#%%;>>>>,>>>>>:;;-*%-;,;*#+&@*##$$#@##@@$@O@%%$+o@%$$%%*##@&=XOo=&+*-;-$@@++&.            ",
"           . XO+#**$#$***$$%:>>,,,>>:-*$$%%;>>>,,,>,>:;;;-%-:;,;*#+@$#@$$###*%$@@@O@$%$#+&$$$%%%**#@&oooo.O$--*@+#@$+. .          ",
"           ..Xo+#$*$#$%*$$#*:>,,,,>::-*$%-%;:>>,,,>,>:;---%-:;:-$#+#@+@$#@@#%;-$&++@%#$##+@$$%%%%%*$#O&o&Oo@**@oO&$$@o. ..        ",
"           .. .+##$###*%*$@#;>,,,>:;--%%---;:>>>,,,,>:;---*%----$$######@@#$*-%%##@$$#++$#@$$%%--%%%**+.&&&&@#@=o+%*+o. ..        ",
"           .. .&@#$###$%%*@#->,,,>:%-%%-;-;;:>>>,,,,>:;;-%*%%%%*$$*$$**$#@$***$$$$@###++$$#%$*%;;%%;%%#Xo&Oo@@+=.+%%+o.  ..       ",
"            .  O+@##@##$%*@@%:>,,>:*-;-%-;-;;>>>,,,>:;;--**%--;-$***%-%*$$*$**#@#$$#@@+&@#$%$#%;;-%%-%@XoO&o+#+O.&@%+o..  .       ",
"            .. oOO+&O+@#*$@#*:>,,>:--%*$$*%%;:>>,,,::;--%**--;-$**%--;%*#$*%*#@$***@+#&@@@#%%$*;;;-;-%+oo&o=+##&.o+%+o...O        ",
"            .. Xoo=OO&&#$##$*;>,,>:;-%$#@#*%%;;:>,>:;;--**%%--%***%-;-%*$*%**$$*%%*+$#@#$@@#$*$;;;:;;*+O=ooO&@#@.o+-@o...OO       ",
"             .  XoO++&&@###$*->,,>:;;:*+=+#**%-;:>>:;-%%**%*%%**$**%--*$#**$*$*%%%$$#@@%-@#*%%-;;;:::*+Oo==O@#@+.o&$+o ..OO       ",
"                 o&##@O&@#@$*-:>>>:---$&=O+$$*%;:>>:;-%-%**##$$@$$$*-;%$$#$$#$%%%$#+&@$-%@#**%;;;;:>;*@+OoO&@@&O.=O+&o ..OO       ",
"              .  .+##@OO&#$#$%->>::-%-@OooO#$#*;:>>:;--;;%#+@$@@+#$$%--%$*$##$%%$#*#O@*;%#*%--;;;-;;-#@@+OO++OO..=oOo=....O       ",
"                 O$#@+OOO&+@@*-::::--%#&.oO@#$*-::>:;-%;;%$$#@+&+@#$$*%%%*$$*%%*%%%#+$--%*-;;;;;;;--*##$@&&*@OO..=O+o= . ...      ",
"                 O#$@+OO&OO++@*--;;-%$#+.oO&@$*-;::;;-%-;%%*#+O+&+@##$$$**##*$***%$@$-;-%-;::;;;;-%$#@$*@&+*+Oo..o&+O.== ...      ",
"              o  o+$$#OOOoO++#$*%%--%*#+OoO&+#****%--%$-;-%%$++@+@@@###$$#@@#$##%%%-;::;-;>>>;;;;%*$#@$*$+&++Oo..O@@o.== ...      ",
"              oo  +$$@&O+&O&+##$***%%%*@&.OO+#$#&@#$*#%-;;;%%$##+&+++++@$@#@@##*-;;>,,;;;>,,>;;;%*#$#@$*$$&&&O=..O@+O.===...      ",
"              &o  O+#++O++&O+@@$*$***%*#+Oo+&###&@O@@#$%-;;;;-%%#@+OO&&+@#@##$-;>>:;::;-:,,,>:;;%*#$##$*$$+@@&O..O@&oo===..       ",
"              @&o =O@$#@+@+O++@$%##$*#$#+OXoO&&++#+OO&@$%;;;;;;*#@@++@@#$#@$*-;:>,,>;---:,,,>:;%%*$$##$*$$$*$#&.O&&&Ooo=&=        ",
"             o@&oo .&#*#+@+O&+@$*%###+##+O=X.oO&*#+OX.&@$%%-->;%$@++O+#*#@+#%----;;;-*-;,,,,>;---**$##*%*$%%**&&@@+&&oO&+=        ",
"            o&@@&&o.O+#$@&OOO+@##$**#+##+O=X=..O&@&O=oo+@$$$%%-*$+&OO@@@@@&@#*****%*;;;>,,,>;---%*%$#*--%$%%%*&+@@@&&&&++=        ",
"           oo@@oooo..oO+#+&OO&###@@@##+##+Oo=X.=O&@OO=o+@##$$$$$*@&&o&#$$$@O@$$$$%*;:>,,,,>:%-%-%-%#$*%%%$*-%%&&&++&&++@@=        ",
"          ooo@& o oo.==O+$@&&&@##+&+@@@$#+&OOO=.oO&&&Oo&&+##$$***#@&&+@$%%%*##@*%;>>;::>,,>;****-%*#*%%%*%%;-*&.O&&++@@#@=        ",
"          o o@ooo  oX.XX+$*#+&+@@+&&+++@+@@+++&OO&+++&Oo=&+@@$$*-%$##$%---;-%**-;::>>>:::>;%$%-%**$$*%%%%%;>;*&.o&&+@@##@==       ",
"         oo o&o   ..O@OXO+@$@+++++OOOO&+++++@##@++##+&OOO&O&+@$*-;%*$**%-%%-%**%--;>>>,>:;%*$#*$$#$*%%---;:>;*&.o&++@@#$@=        ",
"         o&oo&o....oo+&XX=O+#++@&&OOooOOOO+@#$$$####@+OO+++++@#$**%*$$***%-;%%***;:,,>>:;;-%$#$$$%%%%%--;:::-$&.=&@+&@#$@=        ",
"         o& o..oo&&oO&&OXX=O&+@@++&O=XXOO=O+#$$$$$$$#@+++###$##@#$$$$$$*---%-%%*$;>>>:;%---%*$$*%-;-%---;:>;%#O.=+@+&@##+         ",
"         oo .oo&@##@&O&&OO==ooO+@O+&O=.O&&=O@#$$$$**$#####$$*$$##@@@##$*%%%%**%-;;;;;-*#$*%%;;-;-;--%;;-;;-%%&o=O@@+&@@@& o       ",
"       @ oo.oo+#**#&oOO++++&=X....O++OXo&&.o&@#$**%-%****$$$*%%*$$$$#@+#%%-%$*-;>>>;%$$$$*%;;>>-%%%%-:>;;%*$@O==&##@@@@+oOo       ",
"          ..o&#%%*@&o=O+$$$#+OOOOO+#@Oo.O&&=&@@#$*%---;;-%%%*%-%%%%%%%**%%%%%%;:::;-****$*%%;;%$$$$%;:;;;%*#@oX&@$#@@@&=Ooo       ",
"          .o&@$$$@&o=.o&#*%;$#&&++#*@@O=o@&o+@++##*%;-;::;;-%%%%-;;:;;-*%%-%%*%---%%%%%*$$#+%%#@@#%;::;;%*#&O.O&##@+&&= Oo#       ",
"         .&+@#$$@+oooo&#$*%--*#++@#$#+o=o@@&@#+&+@##*%%%----%*$$*%%%%%%%:;%$##$%%$$*%**#@&##$#&+@*-;:;-%*#&o.o&@#@&&&O= =++       ",
"       . .&##$$#&&ooooo#$$$*%%*#@+#$*&O=.&@##$@O.O++####*$$$$$####@+++#*%%$#@@@##+#$$$#+&&@@&OO+#%;;;-%*#&O.=&@##&&O==  o#o       ",
"      .. .+$$$$#@&++o.&+$$$$*%;%*$##$@&O=&#$%#+o..O&++@@##$$$#@++&&&O&&+@+#####+oO&@##&OoX&&OO&@*%--%*#@&o=X=&@#@&O=== O++o       ",
"      .. o@$%###@&&&O@@#$$##$%;::-$+##+&.o+$%%#+o..oOOOO+@###+OOo=&++ooO&&+###@o&++#+Oooo&&+OOO@*%%%*@+O...==&@@&O=.. Oooo        ",
"      .o o@-$#@#@+&+#*$$$$$$$*%-;;%#+@#@&o+#$**#@&==X..=oO&++@@+&&@##+.XXo+@#@+#**%#O&+oO@@&OO+@*%%*$+&&o==X=o&&O=...==ooo        ",
"      oooo@*@+@#$###**----$$--*%%%$$$#+#&&+##$$*$#+&&o==XX=oo+@@####+==oo&++$#%;:-#@@@&+@@++++@$*%*$@&&&&&&OoX===.. ..  o         ",
"     ooooo@#++#$%-$$*-;:;;;--*#@++@#$#@++++++@##*$##@&ooooo==o&@@@++OoO+@#$$$%---*#@$#@$**$@@#$***$@+O@+@##+&O=.X.... .ooooo      ",
"    Ooo .oo+++#-$$#$*->>>>>;*#@@@@@@+@@@++&oo&++@@@@@+&&&o==o&@##***$##*%-----;>;-*$@#*%%%******$#@+OOO&&#$$+@OX..444..oo ooo     ",
"    o.. .=oO++##@@+#*->>>;*#&@@$$#++####@@@===o&+++&+&oooO+&o+#**-;;;;;;:>>::>>>:;-**$%%%%%***$#@+&O=X.o&@#$#@&o..4o&...  oooo    ",
"   .o. ..o=oOO&&O&&@$-;;*%$#@@#*$####@###@@@Ooo&&+++&o===O+++o+#*-:>>,,,,,,,,,>>>;-%%%%%%%**$#@+&OO=X..Xo&@$##@&oX.ooo..   ooo    ",
"   .. ... .==oOOO&+#$--$$$#@+@$%$@#$$$$$#@+@@Ooo&++#+Oo==O+&OOO+#*;:,,,,,,,,>>>,>%;;%%*$$$#$@+&OO+&O....Xo+##@#+&o.o&&o..  oo     ",
"   .O...=.o...oOO&#*$$$#$%#+@$$@@O#$*$$##@+#@&o==O&@$$++&oO@@&O+@#%;>,,,,,>::;:,>;;-*#+++@*#+OoOO@@O..o..=&@@###@&=o&+&..   o     ",
"   .OO.O&OO==.&&&&#*$##$%-%@##@&OO@$#@+@@@+@#&O==O+@++@$++@$$#+++@%-;>>>>:;-;:>>:;-*#+OoO&@*+O=oO@#+o.ooOOo&@#***+oo&@&..     O   ",
"   ..OO@+&&o.O&+&&&@#$%*--%%*@+OO+#@&OO&+@##$#O&O@#$#+&++@@+@#@$*%;-;;::;;%%%;:,;%$+&==O&@&@+O.o+#$@o.Oo.O++&#***@O.O++O.  o  O   ",
"    .O&+@@+OO&+&OOO#$%%%-:;%$@+OO@@&oooo&@+@@@++#$%;%@.oOOOOOOO+#$**-;;;-%*$#%%$#@+=o=.&@@+++&&O@**#O.O&O.O+#&#**@O.o&+&.. o      ",
"   ..o@@@@+oO+++&+#*%*#%;:-%*#&o&++&&&&o@@@&+###*%::-$+O.=oO==oO++#$$*%%$$#$*$##++&OOO&&@&@#+&&@#$*#&.&@+O@+@#@#$+o..O&&..        ",
"  o..o+@@@&==&#@###**#$;>;**#@&oo&++@$@&&@#***$$%-:::%$+o.=oOo&&OOO&+#*#&+@#$*$#@#@++&O&@##@+&@#$*%*@=&@+@+OO@#@#&=.XoO&..        ",
"  o.oo@@++O.O&@##$*###%::-*#+#+&&&+&@$*&o+$---*$$-::::-$&O.==&@+@++@###+O=&&&++++##$+oo@###+&+@@$%-%#O@&O+OX&+@+@&===ooo..o       ",
"  o.oO@@@&OO++##@#*#@#-;:-*@&+#+++&+@*$+o&$---*#@%;:::;%@++&OO+##$####*&..oOooO+###+O=.&&+#$@+$+$--*#O&&O&OOO+&&+&=oo==o .o       ",
"  =.OO+@@&++O@#++O+##$*%-**+&&#++@+++##&o@*-%*$#+*%-;::-$###+O+@###@++Oo=..=O&@#$#+OO+o&@$-%#*%$*-%*@Oo.O+@+&+&O&&oO&O== .o       ",
"  =oOO&@@&++oO+&=o=&#*-$*##++++@@#####@&@*--*$$$*$**$%;-%$#+++oO&++&OOOOOOO++##$#+@++O+@**-%$*%-*%$*&+O.&@$#@&=oooo&@&o=..o       ",
"  OOOOO@@&+O=o&o=o+@$--**%*$@&&@##$##++#$-;-*$#$%%$=+#*%%*#O==...=o..OOO+++@#$$####@#$#--*%-*%-*%*$%#@&O+@**#+o&&oo&@@&= .        ",
"  =.oOO+@@+o=o&==&@#*-%*%%*$$+&@@#$##+#*-;;%*#@*%;$&&+$%*$+&=..........oO+#$$$$@O++O@##*%****$$@$$%-*$+$$@*%$+@&&oo+$@&X..        ",
"   ..OO&+@&oOoOoO@##%%*#%%*@$#+@#@##@@#*-;-$#+@%-;*&=@@##@++O......oooo&+@#$**$+O===o&@#$$##@$+#**%-%$$%#@*%$@##&oO@$#@=.         ",
"    ..OO&@OO+ooo&###*##$%%$&@$##@#@@@@##**$+&+#%;-*@@###++++++oo====+o&+@####*#@&O&&=&+####@+@#$-%**$$%#&@$*$#$@&o&@*#@=.         ",
"    ...O&@&+@&.&&##@#$$#@$@O#@###+++@#**#@++O@#%;%$##@++Oo&++++++&@@++O&++&++##@&&++##@###@###$%---$@%%@+@$$$$+o+o&@$@+=.         ",
"  ooo..=@@&+#+O&+@##$**+&#+O+#+#$+&##***#@+OOO#%%*@+++oo==o+@#**$#@++OOOOOO+&@@+&&++#%*$$$$$$$%;;-*#@$@&+@#$$#+o@&&+@@&...        ",
"  oo....+@++#@+++$##$*%#&++&O+##$##++@@##$#+O&@$$@&o=o&&&Oo+#$%%*#@+5@##@@&@@@@++&&+@*;%%*$**%---%$+@@O&&@#$$@&&#@@@#@O...o       ",
"  oo ...o&O&&####@$#*%**#+++O#$*%*$$$$$$$-#+&&#$@&=Oooo&+++O#$$*$#++@****$$####@$####%-;%*$$$%--%$+O==O+O+#*$@&&##@*@+O. o        ",
"  ooo.. o===&&#$%$$##$%%*#@@@&##$$$$$%%%*$#@&@@##&=OO.XoO&&++@##@+4+***-***$$$###$##+#$**$@@#$*$$+O==o&Oo&@$*@&@$#@@@O.  .        ",
"  == ..  =&O&&&+#$-$$$*%$$###+&+@#$###$$$#+Oo&+#&oO&&oOOo..=oO&Ooo44@$***-****$$#$@#+++@@+&+@##+&O==OOOoo&@##@@#$#@&O.. oX        ",
"   ===. .oO@&&oOO+#$%-%***$$#+O&O&+$***#+Oo.=O&Ooo&@&O+#O...........1@@##$-$#**#@@##+OOOO&&@#@&&Oo=&@#OoO+@@#@$**@+&=. oo         ",
"   O= ==.=O@@o===O+#$#$$$$##@@+Oo+@#$#+OOo=...O.o+@#oO@%O............6++@#$#*$#@&O+&OXXXX&@&&OO&&@@#*@Xo&+@#@@$*$+&o.XooO         ",
"    &=====O+*@o..=&+@+@@@##@@+O==OO++#@++O.....O@#$+oO+@O...XXo++O....O++&#+#$$33&==oooo=&&oo&+@@#**$@O&&++@@@*$@&o=. OO          ",
"     &==..o+$$+=..=O&++++&&&++Oo.=ooO&OOo=....o##*@OOO&Oo....XoOOOo..Xoooo+@$378739=O@&&&o&&+@@###**#@&++&&+@#$@&o..Xoo           ",
"      &&..oO+$+&O..==OOOOOooOOO&ooO&@&&==....o&@$$#@&++OX.....XoooX..XooOoO#$5578079+@*@@@@@#$**$##$#@&&&&&&+@+O=..XoO            ",
"      &&=...O@@$@&o=....OOoo=o++&&&@@&O=o...o&@$;%$##@&oX......oO....XX..oo++1@#3#5*###$*********$##@O=oo=oO&Oo...XoOO            ",
"       &=...oO++@+oo=...o&Ooo=&@####+&Oo&@+++@$%;;%$#@Oo.......=OOO==.X..XXOOOO#533#-*#*--*******$$#&.....====... ooO             ",
"        = ...oOOOoOOoo=..O+&o.=&+##$#+oO&+@@@$%;:;*#@&oX......==O@&OO.oo.XXooo&+533@$#*$$*$@##****$@O....X=..... Xoo              ",
"         = ...oooO+&OOOoooO&&o.XXOO++&O&@@@+@*;;%$@+OoX.ooo...X=O&&++.@OXoXo&o&o+@@@##@#$$#$#@$*%*#@...........44.X               ",
"            ...=ooO+@+@Oo=.ooOo.XoOOOOO+@@@@##$$$@Oo.X.oOOOo....=OOO&OO+OOoOOooX<<<#37333735#-#**%@O.....    .. .                 ",
"             ...=ooOO++@Oo...oooXOO++@$*%%*$#@@@+OX.X.oOOOOooo....==oO&oOOOOOOXooO1#*7*$#33$;%*-$@O.....       .                  ",
"              ....=oooOOOo=.....XoO+#$$$***$@OOOOoXX..ooooOOOoo......Xo=oOOO&ooOo&&@#*$#@$$#-$++*o.. .oo                          ",
"               ........o.=.......XoO&+@@@@@&OoXXX.......oooooo....X.XOOXX&O&@oOOO&++@#@++++1&Ooo&..=...                           ",
"               ooo.......oo.o.......oooooooX........ ............XXXOOoXXoo&&oooOOOOOOOoXXXXXXXXo..OO&&                           ",
"              oooo........o&oooo................... .. . ...   .Xo1O&&@@&oo+oXooooOOOoO9339OOoo.....44                            ",
"             q=6.......OOOOo&&&&oooo.O............ ........     Xo121O+@#&o+oXXXXXXoXXo1231OooX.... .                             ",
"             q==6<+++++++++OOO&&&ooo...........  ....&oo... .  X X<21OOO#@&o.XXXXXXXXXoo11<oXXX.w.  .                             ",
"             eew66<OO+++++oOOO+#O.       ...  ....oo&o... ...91% wr<11OXOOO@.wXXXXXXXXoo11O<oXXX.w&#.                             ",
"              .99+@#$%%%%$#++###..            ..oo&&o. ..... ro1 wwo<<oXXooOwwwwwwXXXoo11211ooXX..#..               -+            ",
"             q4<25+#*-::>>>>>>*#q              ......   ...   ww  wwwrrrrr..wwwwXXoooOO23332OooX.X..                +o  -         ",
"             q=61925#%;;::>>>:*Xr                                    rrrrrrr  ww======669996===X.w                                ",
"             q==<<92@%;;;:::::*.r                =                 @           wwwwwwwrrrrrrwwwww                                 ",
"             q==6<135%;;;---%*=@r        +.o                                                                                      ",
"             q.6<<13t%;;-%%*@+.or        ++                   =     =                                       +         +           ",
"              qq6669233$#3#&O6qq                                                                                                  ",
"                qrq..=6==4=.qq                                                                                                    ",
"                                                                                                                                  "
};
