/* XPM */
static char *cydem_dies4[] = {
/* columns rows colors chars-per-pixel */
"115 120 57 1 ",
"  c magenta",
". c black",
"X c #131313",
"o c #1B1B1B",
"O c #2F2F2F",
"+ c #373737",
"@ c #0B0B0B",
"# c #670000",
"$ c #8B0000",
"% c #A70000",
"& c #7F0000",
"* c #670B0B",
"= c #B30000",
"- c #4F0000",
"; c #5B0000",
": c #9B0000",
"> c #D70000",
", c #BF0000",
"< c #730000",
"1 c #872300",
"2 c #430000",
"3 c #CB0000",
"4 c #932F00",
"5 c #E30000",
"6 c #EF0000",
"7 c red",
"8 c #470000",
"9 c #9F3700",
"0 c #A73F00",
"q c #771717",
"w c #731313",
"e c #332B13",
"r c #1F170B",
"t c #3F2F17",
"y c #530707",
"u c #2B230F",
"i c #B74700",
"p c #5F4323",
"a c #774F2B",
"s c #533F1F",
"d c #875733",
"f c #AF4300",
"g c #4B371B",
"h c #6B4727",
"j c #8B2323",
"k c #972F2F",
"l c #6B0F0F",
"z c #5B0707",
"x c #B34F4F",
"c c #9B3333",
"v c #8F2B2B",
"b c #FF1F1F",
"n c #7F1B1B",
"m c #5F0707",
"M c #170F07",
"N c #831F1F",
"B c white",
/* pixels */
"                                                                                                                   ",
"                                                                                                                   ",
"                                                         .XoO+ooX@.                                                ",
"                                                        .XoooX@......                                              ",
"                                                      ##$$$$$$$$##@...                                             ",
"                                                  #$$%$$$$$&**$==%$##@.                                            ",
"                                         -      ;&:=>,%$&&&&<<:=,,=$$#@.                                           ",
"                                               ;&%,>,::&&&11&&$%=,,==:<@.                                          ",
"                                  ------      ;#$%,,%:$1::::%%==1==,==$<;;22                                       ",
"                                --$==$$--  22;#1$:=%$$11==,,333333====%:$<#;;2                                     ",
"                                $-        2#<&$$:%:&&14=,355677776555>,,%:$$<;2                                    ",
"                              -   2;###-;;$::11$::$;#41=3355555555555755>,==:&;2                                   ",
"                             -  &%:$&&<#&:=1%%:$==%%=3>>>>3,,,,,,,,,3555753,=$#;                                   ",
"                               %=::::4$:=33=,===33333>>>>>3,:::::%===,3>5>>3=:<;                                   ",
"                              &=:%44:%=,333433>55555>>>>65>3=%:$:::%%=333,===:<;   222222                          ",
"                             2$&$44:==,33,=>>>666665>>>>56>>3,%%:$::%,33,1&$:$#;--;#<<<<;22                        ",
"                         22228;;#4$%===1913>56777765>3>>>5>>>3,,%%%=,3333=1#22;1##&:==%$&<;2                       ",
"                       22###;;--;&:==%194,>56777765665>3,3>>>>>3,33333331=:#;<191<:=,3,,,:<;-211                   ",
"                      2&&&&<#;22#$:%:$141,>67776555666>33,,3>>>>>>>>33333=:<:::191:%%%%%%%$&#;;210                 ",
"                     2&=:::#;82;<$::$$:1%3>67776>333>>>33333>5666666>>>>3=$#<:=%11&$$$&$::::%$$<210                ",
"                     q==%:<;222#<&$&$:%,3>>67765,==,333333>56677777656653=%&;;&=$##$$##;<&:%3,=:<;10               ",
"                    2w3>%&#8222####;$:4,4>>6665=%$::%=33>56777777776>66655,%&;#:$&&$&&<#;1&:,>3=%<210              ",
"                    2:,=:#;222#&#;--$:43>55>5>,%&:%,33>35>67777777666666555>=$&$$$1::::<<##1%3>3=:<21              ",
"                    2&%%&;;;##1##;#&::3>655>3=$&:%3>>3>,35>33>>6665>3>>>>>>55,%$$$$:=,,:&<#11%3>>1$<21             ",
"                    2#$#;#<11<#2;<:%==3565>3,:&&%35>55>3=3,,33>5>55>>333,,3>55,::$<:=3>,=$<<$:=33,1$21             ",
"                     8;#&$14491;&$===%3566>3%&$:,>55>,,%:%,3>>555666>>>>3,,3>5533=$$%,5>3=$#<1:=331$#2             ",
"                     82<1:144%:%===,=:,>55>3,$:,56665>3%%,3>5566567766653,==,5>653=:%=>533%&##$%,3=$#2     1       ",
"                  042;#$41449,3,,,33=:=>>5>>3==5677653=:=656777777777766>3,%=356763==,355>,$#;<$%==&#2  04         ",
"                 04e2#$14$%=,33,%,33=$=3>>3553356765>,:%355677777777665>3,%:%>777753,3355>3:<##$:%:<;2  11   4     ",
"                04er;$:4::4=,33,,,3=:=333335333>5653==$%:3567777777765>3=:$$:3777775333>>531:1#<$$$<;2             ",
"                4er2$:%%:44=33>>3,,%,3>3>33>5,,3>>3===%=,3>6677777765>3,%$$:$%3577763333>333,91<#&$<;2             ",
"               04r2#:==:$4:=3>565333>33333353:%=33,=%=,33>356666666666>3=%::%=,=3676533,=:,33,91;$$&#22            ",
"               0e2;$%=%$<$:=35663,3>55335556,%$%==%==35665>3>>5677777663,%%%%===,,>6533,%$=353%$<::$<222           ",
"               4r;#4:=:;#&4=3575,=3565556665=$$:::%=3>67765>55677777776>3==%%===%=,35>3,%::,5534:%=:&2222          ",
"               18#$:=:&##<:=3563==3566666665=$$:$:=,35677765567777777666333,,=%,33,3>6>3=:$%3663==,=$#222          ",
"               e;$t=%$####:=355,==3355666665=$%:&:=336677776667777776666665>3,%,333,65>>==:=3565,=3=:#222 2        ",
"               r;$t=:<-;##:=3>5,====335555653==:$:,5>>5677655677777666777766>3:,533=3333,===,>56,==3=$;2 22        ",
"               2;$:::#2;;<:=33>,=::$:==3356653,%$:,533>5665>667777766777777653%,553=333>,==%,3>531=,=1#22222       ",
"               2;$=t:#2-#&4=333,,:#<&$%=>5665>3=$=35,%,3333>566777777777777663=>653=33>5>=%:%,>>,:=,=1#22222       ",
"             & 2;:=::<2;<$4%,33,,:#;;#$,>566533=%=>6,%$:$:=3>566677677677766533>653=,3>5>=:$:%,=%$==:$#2#-22       ",
"             & 2;$==:&-#&:=%=,3,,%$;;;$=35665=,,:,>63=$$$:%,3>5666777776655>33>676533356>=:<<$%:$<:=:1;2<<y2       ",
"              u2;$%=%&#&$:=4:==,,=$#;#&%,5665===$,>553=:%%%=,3>55666777776>3>577776>3356>=$;2<:&##::$#2-&<-22      ",
"           & 2u2;&:=:<&::$==:$$%=,$#<&&$=356>%==$,3>653,,,,%=,3>>556677765>>5777776>3656>=&22#<#&&&:&#2#$&;2r      ",
"             2u2;<$:$#$=:$%=:$$$%,:&::<<%,>>,:==:=,3565>55>,%==,33>566655>556777776>>7663%<2-##<&&#2<22$=$#2u      ",
"             <tr-;&$$#$::&:=%$$$:=%$=:&#:,,=%:%=%%=,>667776>,=,3>3,,355566656777776>57653%<--#;&&$#22;#$3:#21      ",
"             <1u2-#&<#&$$&:,=:&$$:%,==$#$==%$$:=3,%=36777776>3566533=36777766777776>57653=&;;8-&:&;2;&&:=:#21      ",
"            t<$tr2;<#;#<&&:3=%$&&$$%,=:&$::$<#$%333357777776>>67653,=%36767767777653676>3=$&<#;<%&#-2&$%=%<#19     ",
"            t2=1u2;##;-;#&:3,=$###<:==%$&&&#;;<:,3>567777765>567653,=%356576>677765366533:<#$&<&$&##-<$,3%<-40     ",
"            tt2$1r2##;-2;&:33=:<;2;&%==:&&;;2;&:=33>5667776>3566653,=,>567763>6765>355>3,:&$=:&&&:$&;2&=3:#y9i     ",
"            tpe11u-<#;22;<:,3,%&;22<:=,=$$#-;<$%=,33333677765356653=:357776>33365>333333,:&=3=$$%=%$;2#==$#r49     ",
"            t0as01-<<#22;<:=,3=$;22#$=3=:&&<#$:===::%=3567777777766555677753==,33,,=,3353==3>=::=,=$22<==<-u19     ",
"            tpdi042&:<82-#$%==%$#22-$%=,=%:$$:===%$#<:=3567777777776665677>=%%%:$$$:%=3>,33>3=$=,,%122&=:#210      ",
"             pdf092<:&<--;<$:::$<22-<$%==%::%%=,=%:&&:==356677665555>3>575,$$::&#;<&$:3335>3=::=3,:<;2&::;r19      ",
"             ta009u<$$&<--;#&$$$&#2;#<$$$$$:%=33,=%::::%=,33>55665>3,,355,:#&=:&2;##&:=3>5>=:<:,3,:1;#&$$2u1       ",
"            tgh094t<$::&<#-;#<$::$<-###<<<&$$,333,==%:$:%%%=,33>>>>3,,,,,=&#:==<;#<&::=3>3==:$=33=14<<$%<r19       ",
"            th9f91u;&:%:&<-2;#$:3=:&###;28#&:=,333,,==:====:::%=33>33333,:&$%:$<#$:$$:=,=%:::%,33=91<&$:&r9        ",
"            p9i441*2#&&$&#;82-<:,>,:<&&#22;&:=,,,3333,=,33,===,,33555553=$:%:::::%%$&$$$$&$::=33=11u$:=$$2         ",
"           p9f91**222;#;#;;2222&=3>,:$:$#2;<$%=,,,,>>>33>55>333>6666663=:==:$%====%$#<##<<$:==,9$1u&%==$22         ",
"           9i1**22;#<<<#;--8888;:,3=,=:=$#;#<&:=,>>33>>>55655555666663=,,>>,%:::::##;;;#&$:%==11#2&:=5%$2          ",
"  $       pi1*##2<$:%%:$<#;-;##<$=3>3>,,=$&&&$:$,>5>>>>>3>555657777765555>,%$&&#$$;;;##$:%%%%:$#;<&%3=:22          ",
"          94*<$$:%=,3,=:$###<$$$:=,>67>,3=%::%=,3>>56665>===,,3567777665>=:<-;<:%:###<$:%=%:$&#;<&$%%$<2<          ",
"          1*#$:,,3333,=%%%:::%%:%,33566>3====,3,3>>66666>,&&$::3366666653=:#$$%==%$$$%=,:$$#22-<<&$$&22$           ",
"          *2#:%,334==%,,,,,=%%%::=3333>>3=:$:===,,>56666>>=::=33>556>>>>>3,3=====:=:$:353$;22-<:&<<<22$;           ",
"          2;$%,333=:4%,>,,,=%%=,==,,33333=%:::$:=%,>>>55>3,===35>576666555565>>3=%=:$%365,$#--$>$<<22$;            ",
"         2;#:=3>94:&$%>,%$$&$=3>>=,==333,,%::%::%%%,33>>>3,=%%%35777777777777663:%%:$$=>55,$<;:=$<<2=<             ",
"         ;#$=,3904$<&%3,::$$:%,3>>3======,%%:%%::::=,3>>5>3=$$$=3566777777776553,=:$$$%3555,:#$:<<<22;             ",
"   $     #<:=>3001&#$%,%%==%%:%3>>>3=::::,,===%$$&$:=3>>65>,=%%%%3555566776653,>>,%$&$$%3565=&#<$$&;28             ",
"  $,     &$%=0>91$#:%===%%,,:&$=3>>>3=%$:=3,==:$&<&:%=,3>6>,,,,=%=333>55555>3,=%==%:$&&&=3563%&<$:<$<;8            ",
" &=;;    &&$=0,4$&%,3,,>>33=%:&:=3>>3,==:=,33,,%$$$$::%,3>>,=,,,,===,33>3,5565>33=$::::%%,3533%$$$&$=$;8 ;;        ",
" #5:;1111j;<%>,$&%3653>555=%%%%::,3,333,%=,,,3,==========,3,,,333,=%%=,%333>55553333,:%,===3=%%$<;<$==$;2 ;:;      ",
" #494091kl;#:>=$&=65,,>77>,::%=%==3333>3333===,3>>>>>>>33,,,,3>>>>,:$$=,3>>>>>333555>=%,,,,%:$$&#;;<$:=&; ;::;     ",
" 149091j & ;$=:$:,6>:=>76>=,3333=,3=355555>====,>>5666>>3,,>>5>>>3=%$=,3>>>>3,,,3>553%::=,,%$$&$&#;;<$:$<- ;,;     ",
"  199;; ;& -$=:<%,6,:%>76>3>633==,333>5655>3:$%===>>>>>>3,,3>>>>3,=:=3>>>3%%=====3>>,:&$$:=:$$$::$<;;&:=$; ;:,     ",
"  149:;-;&;;&%:$=35,$,>75>>>33%::33333>55573=:$$:::=,3333,,,,==:====3>>>3=3333>>>,,,,=:&&&$$$$%==%$#-<:,$; ;:,;    ",
"   115;#-;;#&%::=,>%<,>6>35>33,:=3333==,355>3::%:$<<:=3333=:$&:===%=3>>>==3>66633,=,,==:##;#&$=33=:#2;$=$; 2;:;    ",
"   ;&,3-##&$:%%::%%=&,>>>>3,3>3,3>5>3,:=3565>=:==:&$$%,3333=::=3=:&%3>>=%:3>>655>,=,,==%$<#;#:,33,%&22;:&; 2;:2 2  ",
"   ;;&:#2<:%,,,:<:=%$,3>>>333333>666>3=,>66653%%,,%%%:=33333==3,%&&$=3=%%%3>355555>>3,%==:&<&:3333=&;22$<-222;2 2  ",
"    ;&22#$:,,3,:$:%:$%,353333533566663,>56766>==,333333,,3333>3=$#<$==%%%=33>566655553,,,=:&$:,533=$#-2;;2;2 ;2 2  ",
"    ;2#<#$%,>5,:$%=%$:=3>333333>56665>3567776>==,333>3>>>>>>>>3%$<;$==%$&%=,555555555>333,:<#$:333=:12-;;<<2  2 2  ",
"    ;&:#&:%,55=::%,,%$%3>5>3333>6665>35677776>===%%%=,>>>>>>5>3=:&#&%=%::==3565555>>33>5>,:##;&%333%12;&&$:<2 2    ",
"    l:=#$:=355,$:,3>=:%333,=%=33>>>333>66665>3==:$$$$::%=3335>3=:<<$%==:==,>555>>333>>355=:<#<#$,33=$;;$$$:$2   2  ",
"    z%=<:=,>55>=$,>63=$333=%:=,333333,>>33,,3===$<<#<&$$:===3,,=%&<:%,,:=,,3655,55653=,>5=$::::#%33=:#2$$$$$2 2    ",
"  x z:=<:=33566>,=>6>>,333%$%=,33333=%=%:%%$:%4=$<####;#$%===%%%%$<:,5>,,,,,>65557763==3>=%:=%:;:,331<;<&$$22      ",
"    -:=#:,3,c666>%3>>>>>33=%:%==333=:$<#$:%$%=1%$$$$$$&#&:==:&&$%%<:,36>3=,,,3>357653=%3>====3%;$=334<;;<$<2       ",
"    -&:#$,3,4v667>,,3>>5>3=%%:$:,==:&<#<&:::%==:$$:::%$#&$%%&22&$:$:,376>=,,,%,33553,=%,,%=,,>1:$=331#22<&;2       ",
"    8#&;<%>394j555,%,,>56>>3,,=:::$<#&&$:%:$::%%:%=3%$<#&$:$#22#&&<:=,>7>,,,,=%,333,==%==:=,>,1#$=33$;2;$&;        ",
"     88-#$33=1=,,3,=$%,,>>>,,==&$$$$::::%$&$:%%==,3=$#;;&$$&;2-#&$$&:=,363,,===,33,==%==:&%>>%$#:=331;2&&&2 ;      ",
"      <-#$=,,%$<=,3=$<$:%====,,%%%$:%%::$&&$%=335,:$<;-;<&$&;2;#$:$<&$:=33,==%:%=,==%=,=$%%::<;&:==%<;2<$2         ",
"    <  -#&:=,=%$:43=$##<$&#<$,,3>,,==%$&&1$:%=%==:$<#2-;#<&&&;#&$::$##&$%,,,=:$:%%===,==%%:$;;#$%%:#;;2;;   ;      ",
"    << -##$%,,===3>=1#-;#<$#&:,3>>>3,=%:1%%$&&$%:$&##;##;##&&<#$:%%:$&&&:33,==%%===,3=%%:#$<##&:%:$$&<&-    ;      ",
"    << ;#&::=533=3,41##-&$=:$$%,355>,,%%===%$&:=%&####<<#;#<<<<$%===:$$&$%33,,===,3>3=$$&$:$&#<$$:==:&&2   ;;      ",
"    << #::%==3555,,=:&&#$==>=:$=,,,=41%=3>53===3=&###<$$$#;#;;;$1=,3,%:$$:=>>,,,3>5>,:%%:%=:$#;:==,,:$< ;  ;       ",
"     < 2&=,==,>6753=:=1$:=,>5>>>>,%%%=,>56663>3,:&<#;#$::$###<#<14,33,=%::%,3=33555>>33,,=,=$#$,,,=:$&< ; ;        ",
"        #:,==1,36653=:=1:=457775>3,=,>>5766665=1&<#;;#&$::$;#<#&$1=3333,=:::,,,33>>>3333333=$$:,5=$&<< ;           ",
"        2&:=%91=3334==:$$%=3>5665>>>666665575=1<;#;-2;#&:%=$;##<$$:1,333==%====%%%%%%=,,333=$:===$<;-              ",
"      < 22<&&191:=3==%:11:%==,33>>6565553353=$&;-2-222;#$%%:#;###<$$%==,,%,333=:$$$$$:%,33,%1$$:$<88-22            ",
"       < 22#&&11#$:%:::$$&::::%=,,,,,,=%$:%:$&&;-222222;<::$$##-22;#$:%=,33333=:&#<&$%=33,=$1<$<28;;;2             ",
"        - 22###2-##$:&$$$$&&&&$:%%:::::&&&&&&&<<-88;2222;$::1:$#;22;#&1%=,333=%$<&$:=,333=:1;822-;;&2              ",
"       -< 2228888-222;####&<<<&$$$<##;$$<;-;$<<<#8<<-2222<:===41<#2;##&::=3333=:$$:=,33,1:&#22-;-822               ",
"       <$<-2222228;-22-;;22$&&&$$%%===,%&88;#;22#<$<-2 222$,===4$<#;;#;#<$==,,=::::%===%$#22-;;<22                 ",
"       -%,$--222222-;#&22222$&<#<&$=$::$<222;;#<&$:<-2  222$%%::$<##;;<-22<$::$$&&&$$$1&2---;<22     ;             ",
"        -%,$X-2222228;;-#&&&<;;8222&$&#2228-<&$$::$<22   222#<1&<#;;;<:<;22;#;;;;;2<<2;-22;;2      ;;              ",
"         --<<X--22222222-#&<;828   --228   8;<$=%$<;2     2222-;;2228;&:$<;;;222;<<&<-822222                       ",
"          XX@@@X--2222222222222          88<$::$<<22        222222222-<$$$$::$$$$$$$<-22222   ;                    ",
"           X@XXXX-#&<2222222222            8822222              222228;<$$:=,,=::$$<;822222                        ",
"          ----&&#%,=$$&&&&2                                  2 2<<22228;<$$$:=:$$$<;22222uu                        ",
"          <&:=357bbb6,:&#;;                                 2z2<<#222228-;<<<<<<<<222222222                        ",
"         zlwn>>>6666>3,%#;;                                2zll$$:=$r22222222222-mm*ll*m882M                       ",
"        o-zlj%3,>6535>,%$##r                               2zlql#$:=$rrrMM222222---m*my-222M               3&      ",
"        o--zmw$%,553333,%$&r             -        -       2 2zll#;#$:$##MMMMM2222-ym*myy-22M2  2           &;      ",
"        ..Mzzm##&$$&$&$%:2.r                     $-     ll, ruzll#2;##$#MMMMM2228-ym**yy-222M<:2                   ",
"         2ll&$:%,,,,,,=::$2                     ,       rzl rrzzzz----#rrMMMM222-zmzl*myy222M:22                   ",
"        oymqw&:=35566>,:##-o                             rr  rrruuuuururrMMM222-zm**wl*my-22M22                    ",
"        o-z*lqw:,>>556,:&#8r                                    rrrrrrr  MM222222yyzzzy22222M                      ",
"        o--mmlq$,>>>555,:$2r          ;     -                 $           MMMMMMMrrrrrrMMMMM                       ",
"        o--zm*nw,>>>333,=-$r        &2                                                                             ",
"        o2zmm*nN,>>3,,=$&2;r        &&                   -     -                                       &         & ",
"         oozzzlqnn%:n:<#zoo                                                                                        ",
"           oro22-z--y-2oo                                                                                          ",
"                                                                                                                   "
};
