/* XPM */
static char *door0[] = {
/* columns rows colors chars-per-pixel */
"64 64 14 1 ",
"  c #414141",
". c gray29",
"X c #393939",
"o c gray32",
"O c #626262",
"+ c #6A6A6A",
"@ c #7B7B7B",
"# c #838383",
"$ c #8B8B8B",
"% c gray61",
"& c #413118",
"* c #5A4120",
"= c gray16",
"- c white",
/* pixels */
" .  X .  . . X  .  . .   . . . .  . . X  .  . .   . . . .  .  XX",
" .    .  . .    .  . .   . . . .  . .    .  . .   . . . .  .    ",
" ..  .. .....  .. ..... ...o.... .....  .. ..... ...o..... ..   ",
".... ........ .............o.......... .............o.........  ",
".o.. .o.X    XX  X     X        X     XX  X     X       X..o..  ",
".o....o. o.o....o..o.o...o.O.o.o..o.o....o..o.o...o.O.o....o....",
".oo..oo..oooo..oo.ooooo.oooOoooo.ooooo..oo.ooooo.oooOooo.o.oo...",
"oOoo.oOo.OoOo.oo+ooOoOoo+OoOoOoo+oOoOo.o+OooOoOo+oOoOoOo.ooOoo..",
"oOOo.OOo.OOOO.o.XoOOOOO.XOOOOOO.XOOOOO..XOoOOOO.XOOOOOOO.OoOOo..",
"oOOooOOo.OOOOooo oOOOOOo OOOOOOo OOOOOoo OoOOOOo OOOOOOO.OoOOooo",
"OOOOoOOO.OOOOoOo OOOOOOo OO+OOOo OOOOOoo OOOOOOo OOO+OOO.OOOOOoo",
"OOOOOOOO.OOOOOOO.OOOOOOO.OO+OOOO.OOOOOOO.OOOOOOO.OOO+OOO.OOOOOOO",
"O+OOOO+O.+O+OOOO.OO+O+OO.+O+O+OO.O+O+OOO.+OO+O+O.O+O+O+OoOO+OOOO",
"O+OOOO+O.+O+OOOO.OO+O+OO.+O+O+OO.O+O+OOO.+OO+O+O.O+O+O+OoOO+OOOO",
"O++OO++Oo++++OOOoO+++++Oo++++++Oo+++++OOo+O++++Oo+++++++O+O++OOO",
"++++O+++o++++O+OO++++++OO++@+++Oo+++++OOO++++++OO+++@+++O+++++OO",
"++++O+++O++++O+OO++++++OO++@+++Oo+++++OOO++++++OO+++@+++O+++++OO",
"+@++++@+O@+@++++O++@+@++O@+@+@+@o+@+@+++O@++@+@+O+@+@+@+O++@++++",
"+@++++@+O@+@++++@++@+@+++@+@+@+@O+@+@++++@++@+@+++@+@+@+O++@++++",
"+@@++@@+O@@@@+++@+@@@@@++@@@@@@@O@@@@@++@@+@@@@@+@@@@@@@O@+@@+++",
"@@@@+@@@O@@@@+@@@@@@@@@@+@@#@@@@O@@@@@+@@@@@@@@@@@@@#@@@O@@@@@++",
"@@@@+@@@O@@@@+@@@@@@@@@@@@@#@@@@+@@@@@+@@@@@@@@@@@@@#@@@O@@@@@++",
"@#@@@@#@O#@#@@@@#@@#@#@@@#@#@#@#+@#@#@@@@#@@#@#@@@#@#@#@O@@#@@@@",
"@#@@@@#@O#@#@@@@#@@#@#@@@#@$@#@#@@#@#@@@@#@@#@#@@@#@$@#@O@@#@@@@",
"@#@@@@#@O#@#@@@@#@@#@#@@@#@$@#@#@@#@#@@@@#@@#@#@@@#@$@#@O@@#@@@@",
"#$##@#$#O$#$#@##$##$#$###$#$#$#$##$#$#@##$##$#$###$#$#$#+##$##@@",
"#$##@#$#O$#$#@##$##$#$###$#$#$#$##$#$#@##$##$#$###$#$#$#+##$##@@",
"#$$#@$$#+$$$$@#$$#$$$$$#$$$$$$$$#$$$$$@#$$#$$$$$#$$$$$$$+$#$$#@@",
"$$$$#$$$+$$$$#$$$$$$$$$$$$$$$$$$$$$$$$#$$$$$$$+@$$$$$$$$$$$$$@@@",
"$$$$#$$$+$$$$#$$$$$$$$$$$$$$$$$$$$$$$$#$$$$$$$O+@@++@@@@@#@@+@@@",
"$$$$$$$$+$$$$$$$$$$$$$$$$$$$$$$$$$$$$$$$$$$$$$OO@@++@@@@#$@@+@@@",
"$$$$$$$$+$$$$$$$$$$$$$$$$$$%$$$$$$$$$$$$$$$$$$OO@O@+@@@@@$@@O@+@",
"$$$$$$$$+$$$$$$$$$$$$$$$$$$%$$$$$$$$$$$$$$$$$$OO@OXO@@@+#$@@O.O@",
"$$$$$$$$+$$$$$$$$$$$$$$$$$$$$$$$$$$$$$$$$$$$$$OO@o +@@@+@$@@o +@",
"$$$$#$$$+$$$$#$$$$$$$$$$$$$$$$$$$$$$$$#$$$$$$$OO+o +@@@+@$@+o @@",
"$$$$#$$$+$$$$#$$$$$$$$$$$$$$$$$$$$$$$$#$$$$$$$OO+O.+@@@+@$++O.@@",
"#$$#@$$#+$$$$@#$$#$$$$$#$$$$$$$$#$$$$$@#$$#$$$oO+O.+@@oOO++++.++",
"#$##@#$#O$#$#@##$##$#$###$#$#$#$##$#$#@##$##$#oO++o+@@o#+##$#O@@",
"#$##@#$#O$#$#@##$##$#$###$#$#$#$##$#$#@##$##$#oO++O+@@o#+##$#+@@",
"@#@@@@#@O#@#@@@@#@@#@#@@@#@$@#@#@@#@#@@@@#@@#@oOO+++O@o@O@@#@+@@",
"@#@@@@#@O#@#@@@@#@@#@#@@@#@$@#@#@@#@#@@@@#@@#@oO++++@@o@O@@#@+@@",
"@#@@@@#@O#@#@@@@#@@#@#@@@#@#@#@#@@#@#@@@@#@@#@....O....@O@@#@@@@",
"@@@@+@@@O@@@@+@@@@@@@@@@@@@#@@@@@@@@@@+@@@@@@@O .OOO. O@O@@@@@++",
"@@@@+@@@O@@@@+@@@@@@@@@@@@@#@@@@@@@@@@+@@@@@@@OO&O++&O+@O@@@@@++",
"+@@++@@+O@@@@++@@+@@@@@+@@@@@@@@+@@@@@++@@+@@@O+*O++*O+@O@+@@+++",
"+@++++@+O@+@++++@++@+@+++@+@+@+@++@+@++++@++@+O+*O++*O++O++@++++",
"+@++++@+O@+@++++@++@+@+++@+@+@+@++@+@++++@++@+O+*O++*O++O++@++++",
"++++O+++O++++O+++++++++++++@++++++++++O+++++++O+*O++*O++O+++++OO",
"++++O+++o++++O+++++++++++++@++++++++++O+++++++OO@@+@@O++O+++++OO",
"O++OO++Oo++++OO++O+++++O++++++++O+++++OO++O+++OoOOOOOo++O+O++OOO",
"O+OOOO+O.+O+OOOO+OO+O+OOO+O+O+O+OO+O+OOOO+OO+OOoOOOOOo+OoOO+OOOO",
"O+OOOO+O.+O+OOOO+OO+O+OOO+O+O+O+OO+O+OOOO+OO+OO.oOoOoo+OoOO+OOOO",
"OOOOOOOOo@@@@@@@@@@@@@@@@@@#@@@@@@@@@@@@@@@@@@@OoooooO@@oOOOOOOO",
"OOOOoOOO.OOOOOOOOOOOOOOOOOO+OOOOOOOOOOOOOOOOOOOOOOOO+OOOoOOOOOoo",
"oOOooOOo.....  .. ..... ........ .....  .. ..... ....... OoOOooo",
"oOOo.OOo.OOOO.oOOoOOOOOoOOOOOOOOoOOOOO.oOOoOOOOOoOOOOOOO.OoOOo..",
"oOoo.oOo.OoOo.oo+ooOoOoo+OoOoOoo+oOoOo.o+OooOoOo+oOoOoOo.ooOoo..",
".oo..oo..oooo.. X.ooooo XooOooo Xooooo. =o.oooo =oooOooo.o.oo...",
".o....o. o.o... X..o.o. Xo.O.o. X.o.o.. Xo..o.o X.o.O.o....o....",
".o.. .o. o.o. .  ..o.o.  o.O.o.  .o.o.   o..o.o  .o.O.o....o..  ",
".... ...O++++O+OO++++++OO++++++OO+++++OOO++++++OO+++++++O.....  ",
" ..  .. .....  X= .....X=..o...X=..... X=. ....X=...o..... ..   ",
" .    .  . .   X=  . . X=. . . X= . .  X=.  . .X= . . . .  .    ",
" .  X .  . . X X=  . . X=. . . X= . . XX=.  . .X= . . . .  .  XX"
};
