/* XPM */
static char *door2[] = {
/* columns rows colors chars-per-pixel */
"64 32 183 2 ",
"   c #33270D",
".  c #362A16",
"X  c #3D2E13",
"o  c #362F25",
"O  c #342F2F",
"+  c #3A3325",
"@  c #3E3529",
"#  c #333333",
"$  c #393734",
"%  c #3D3832",
"&  c #3B3B3B",
"*  c #451212",
"=  c #431E1E",
"-  c #4D1B1B",
";  c #521B1B",
":  c #791D1D",
">  c #413014",
",  c #43321B",
"<  c #553B1C",
"1  c #593C1D",
"2  c #4E2121",
"3  c #433624",
"4  c #473825",
"5  c #4E3920",
"6  c #423728",
"7  c #43392B",
"8  c #4D3E2C",
"9  c #523C25",
"0  c #533F29",
"q  c #433C34",
"w  c #413E3A",
"e  c #5D3434",
"r  c #6F2F2F",
"t  c #762121",
"y  c #663131",
"u  c #643E3E",
"i  c #6D3C3C",
"p  c #733535",
"a  c #713939",
"s  c #54412A",
"d  c #5C442B",
"f  c #454036",
"g  c #484136",
"h  c #45423E",
"j  c #4A443B",
"k  c #544331",
"l  c #594936",
"z  c #50473B",
"x  c #53493D",
"c  c #594D3D",
"v  c #654322",
"b  c #6C4724",
"n  c #62462D",
"m  c #754C27",
"M  c #634732",
"N  c #654A33",
"B  c #614F3E",
"V  c #6A4F39",
"C  c #64513F",
"Z  c #6C513B",
"A  c #725237",
"S  c #444444",
"D  c #494642",
"F  c #4D4944",
"G  c #474848",
"H  c #4C4C4C",
"J  c #564D41",
"K  c #594E42",
"L  c #524E4B",
"P  c #594F4F",
"I  c #5D5346",
"U  c #55524D",
"Y  c #5C554D",
"T  c #4F5050",
"R  c #535353",
"E  c #5A5652",
"W  c #5D5955",
"Q  c #575758",
"!  c #575858",
"~  c #5B5B5B",
"^  c #664242",
"/  c #684040",
"(  c #6D4F4F",
")  c #764343",
"_  c #784444",
"`  c #704C4C",
"'  c #645446",
"]  c #695747",
"[  c #65574A",
"{  c #645A4C",
"}  c #6C5A4B",
"|  c #7B5C43",
" . c #755F4D",
".. c #645555",
"X. c #6B5454",
"o. c #625C56",
"O. c #6D5C51",
"+. c #625D5A",
"@. c #6B5B5B",
"#. c #705E50",
"$. c #75614E",
"%. c #7A624E",
"&. c #66625E",
"*. c #6A645F",
"=. c #796555",
"-. c #7B6857",
";. c #646464",
":. c #6A6663",
">. c #6E6964",
",. c #676868",
"<. c #676868",
"1. c #686868",
"2. c DimGray",
"3. c #686969",
"4. c #6B6968",
"5. c #69696A",
"6. c #6A6A6A",
"7. c gray42",
"8. c #6B6A6A",
"9. c #696A6A",
"0. c #6C6969",
"q. c #6D6B6A",
"w. c #6C6B69",
"e. c #6E6D6B",
"r. c #6B6B6C",
"t. c #6C6C6C",
"y. c #6D6D6D",
"u. c #6C6D6D",
"i. c #6E6D6D",
"p. c #6F6E6C",
"a. c #6D6E6E",
"s. c gray43",
"d. c #6F6F6F",
"f. c #6E6F6F",
"g. c #6D6D6E",
"h. c #6B6B6B",
"j. c #736666",
"k. c #746B65",
"l. c #786D65",
"z. c #796A62",
"x. c #766969",
"c. c #736F6F",
"v. c #706F6E",
"b. c #776C6C",
"n. c #736D6B",
"m. c #7C6E6E",
"M. c #7E7166",
"N. c #76716D",
"B. c #7D716B",
"V. c #6F6F70",
"C. c #6F7171",
"Z. c #6F7070",
"A. c gray44",
"S. c #717171",
"D. c gray45",
"F. c #727272",
"G. c #747373",
"H. c #727474",
"J. c #757575",
"K. c #777676",
"L. c #757777",
"P. c #737373",
"I. c #7B7575",
"U. c #777778",
"Y. c #777878",
"T. c gray47",
"R. c #7B7B7B",
"E. c #7B7D7D",
"W. c #7C7C7C",
"Q. c #7B7B7B",
"!. c #846A55",
"~. c #846C5B",
"^. c #846C5C",
"/. c #8B715E",
"(. c #9E7557",
"). c #A07252",
"_. c #84776F",
"`. c #887F77",
"'. c #A4826B",
"]. c #868686",
"[. c #8C8C8C",
"{. c #909090",
"}. c #9C9C9C",
/* pixels */
"~ T.J.S.t.S.G.c.J.c.J.c.S.c.J.c.T.T.S.t.J.t.J.T.W.J.t.S.T.T.T.t.6.S.J.6.t.<.6.S.t.6.J.J.J.J.V.6.:.S.J.t.I.m.x.b.S.t.W.t.S.J.T.~ ",
"H J.J.t.6.S.;.P ;.P ;.P R P ;.P S.S.6.6.S.6.J.J.J.6.6.~ J.T.T.t.6.t.t.<.t.<.6.S.V.6.S.J.J.<.~ ;.c.t.T...r : : t ^ q.W.t.t.J.J.H ",
"S S.S.6.<.6.~ ~ ~ ~ ~ ~ ~ ~ ~ R <.<.<.6.6.<.6.t.6.6.;.~ J.T.T.t.+.+.o.W o.E W +.o.<.t.S.S.~ R ~ S.t.Y.1.` p p a @.t.W.t.6.S.S.S ",
"H t.6.~ t.T.<.~ ;.~ ;.~ ~ ~ ;.~ t.J.J.J.S.S.S.J.J.J.6.~ Y.E.W.H.W Y Y Y Y U Y Y Y 1.&.6.t.t.6.S.J.t.T...r : : t ^ q.W.6.~ 6.t.H ",
"H S.t.6.<.t.;.~ ~ ~ ~ ~ ~ ~ ~ R 6.t.t.t.6.<.6.6.6.6.+.e ) _ _ i ..t.t.h.q.;.6.q.t.S.h.t.t.t.c.I.J.t.Y.1.` p p a @.t.W.t.6.t.S.H ",
"H <.;.6.6.J.<.~ ;.~ ;.R R ~ ;.R S.T.S.6.t.~ ~ R ~ ~ R e ) _ _ i X.6.6.<.6.<.;.<.6.<.;.;.<.t.t.S.D.t.T...r : : t ^ q.W.t.6.;.<.H ",
"H <.;.~ 6.J.6.<.6.<.6.;.~ ~ 6.;.S.J.J.;.;.;.;.;.;.;.;.<.J.Y.Y.C.<.;.;.<.&.;.~ ;.;.<.~ ;.;.t.t.6.6.t.J.;.( i i i @.6.T.6.~ ;.;.H ",
"& S & S H H H H H H H H S S H H H H H S S S H H H H H H H H H H H S S S S S S S S S S S S H H H H H H H H H H H H H H H S S S & ",
"o $ $ & R R R R R R R R & H ~ R R ~ R H H R ~ R h g H U K ~ R ~ R R R R R ~ Q j ~ R R R R ~ ~ R q U R R ~ R R j U R W ' S S w o ",
"@ H H R <.;.1.<.6.t.6.~ H ~ t.;.<.R H H S H R H h w S F F H H R H H ~ 1.;.6.S.~ t.R H H H H ~ 6.K >.6.1.l.<.;.J W t.:.~.T R U @ ",
"6 h G R <.~ <.6.S.J.;.R R ;.t.R H $ # # # # $ # # # # # # # # # # $ ~ <.<.6.S.~ t.S # # # $ R t.' w.S.N.} o.~ ' E t.+.M.R H h 6 ",
"@ % S R 6.;.<.6.S.;.<.~ ~ R ~ S S H H H & S H G S g S S j H H R H H ~ <.6.t.S.;.t.~ S S H R ~ t.I E U 8 Y 1.R x E t.:.B.R H S 6 ",
"o & S R <.<.6.<.t.~ ;.~ } R S $ H ~ ~ ~ H ~ ~ ~ W I ;.+.#.6.<.t.~ R ~ <.6.t.S.~ t.~ H ~ ;.~ ~ t.I L z s 5 K ! J E t.1.B.R H S + ",
"@ U H R <.~ <.~ ~ ~ <.+.d h S S ~ <.<.;.H ;.<.<.+.[ 6.*.-.S.t.J.;.R ~ <.6.6.S.;.t.~ R ~ <.~ ~ t.I U f k b 9 R { +.t.+.B.R R R @ ",
"6 h H R 6.;.6.~ ~ ;.;.E 8 S R R ;.<.+.{ R ;.<.6.+.[ 6.k.~.<.;.t.;.R ~ <.6.6.S.;.t.~ R ~ <.~ ~ t.I E g + < l ;.' &.S.:.B.R H h 6 ",
"6 h S R 6.;.6.~ ;.<.;.D 3 U ~ ~ <.<.;.~ ~ ;.<.6.&.} 6.n.z.<.<.<.;.R ~ <.6.6.S.;.t.~ R ~ <.~ ;.S.I E H o X 7 +.{ &.S.1.B.R H D 6 ",
"6 F H R <.~ <.~ <.H H 7 7 ~ ;.~ <.<.;.;.~ ;.<.6.:.} 6.h.k.6.6.6.;.R ;.<.6.6.S.;.t.~ R ~ <.~ ~ C.I E R 7   + Q { &.S.;.c.R R U 7 ",
"6 U H R <.<.6.E E S S @ D ~ <.<.t.t.6.<.~ t.t.6.>.} 6.h.q.6.6.6.;.R <.<.6.6.S.;.t.~ R ;.<.~ Y >.I E ! c > . q x ;.S.6.S.R T U 6 ",
"6 & S R <.<.6.I F & % q H ;.<.;.;.6.~ R H ~ 6.6.n.} 6.t.6.6.6.6.;.R <.6.6.6.S.<.t.~ R <.6.~ 8 +.I E ~ } 1 , , 7 ~ S.6.S.R S w 6 ",
"6 D H R <.~ <.U & & F S R ;.<.;.t.t.<.<.;.6.t.6.N.#.6.t.6.<.;.6.;.R <.6.6.6.S.6.t.~ R <.S.L 8 >.I E ~ $.v k 6 6 U t.~ t.R H L 6 ",
"6 U H R <.~ 6.~ S H ~ H R ;.<.;.<.6.~ Q R ~ 6.6.n.O.<.t.S.6.6.t.~ R <.6.6.6.S.6.t.~ R 6.t.Q R >.I E ~  .b B R 7 R t.;.S.R R E 7 ",
"6 h G R <.;.6.~ H R ~ R R ;.<.~ ;.;.~ ~ ;.<.<.R R L R R R R U H h H <.6.6.6.S.6.t.~ ~ 6.t.~ Q :.[ E ~ $.m C <.H ~ t.<.S.R H h 6 ",
"6 D S R ;.~ <.~ ~ R ~ R R 6.<.~ <.<.<.t.q.T.T.t.W x Q ~ ~ ~ H S 4 H <.6.6.6.S.S.S.~ ~ 6.t.~ U ;.I E ;.!.m B <.R ~ t.~ t.R H D 6 ",
"7 U H R ;.~ 6.~ ~ ~ ;.~ R 6.<.~ <.<.;.6.+.6.T.J.+.[ 6.S.S.J.~ F 0 L <.6.6.6.S.t.t.~ ~ 6.t.~ ~ t.I E ~ } v C <.R ~ t.;.t.R R U 7 ",
"% U H R ;.;.6.~ ~ t.].].<.6.6.T.J.T.T.J.J.<.t.t.*.^.W.T.t.J.;.H s L <.1.6.6.S.t.t.~ ~ 6.t.~ ~ t.' E ~  .n } 6.~ ~ t.<.t.R T U % ",
"$ & S R ;.~ <.~ ~ ~ J.[.T.6.J.].J.W.[.].W.6.t.6.>.=.r.;.<.J.<.L s L <.6.6.6.S.t.t.~ ~ 6.t.~ ~ t.[ W ~  .M ] +.! ~ t.~ t.R S & $ ",
"$ H H R ;.;.6.~ ~ ~ ~ 6.6.<.t.6.;.6.S.t.t.+.X.@.E J R ~ <.J.<.L s L <.6.6.6.S.t.t.~ ~ 6.t.~ ~ t.[ W ~  .M $.} U ~ t.;.t.R H H $ ",
"$ R H R +.<.6.~ ~ R ~ 6.6.<.t.<.~ <.t.t.t...y u W ' ~ ~ <.J.6.R 0 L <.6.6.6.N.t.t.~ ~ 6.t.~ ~ t.[ W ~ %.N ' I Q ~ t.<.S.R R R $ ",
"$ S H R ;.;.6.~ ~ ~ ~ 6.t.6.c.~ O O S 6.S.x./ ( 1.Y ~ ~ <.J.6.E 0 L <.<.<.6.S.t.t.~ ~ 6.t.~ ~ t.[ W ~ %.V I <.~ ~ t.;.t.R G S $ ",
"$ S S R <.S.6.;.J.].].W.S.t.j.+.* = H 6.<.R G H R R ;.~ <.J.6.U 0 L <.t.<.6.S.t.t.~ ~ 6.t.~ ~ t.[ W ~ %.Z ' ;.~ ~ S.S.S.R H S $ ",
"$ H H R <.t.6.<.<.t.J.J.6.t.j.+.; 2 H 6.;.S $ $ S R ;.~ t.W.H.:.A W <.t.S.J.J.t.t.~ ;.6.J.6.~ t.[ W r.!.| } ;.~ ~ t.t.S.R H H $ ",
"$ R H R 6.;.<.6.;.6.S.S.<.t.j.+.- 2 H 6.<.H R ~ H R ;.<.[.}.[._.).N.6.6.<.W &.<.t.t.T.T.}.{.6.t.[ :.[.'.(./.`.U.<.t.;.t.R T R $ "
};
