/* XPM */
static char *door3[] = {
/* columns rows colors chars-per-pixel */
"64 16 148 2 ",
"   c #3D2E13",
".  c #362F25",
"X  c #3B3224",
"o  c #3E3528",
"O  c #323232",
"+  c #393734",
"@  c #3C3935",
"#  c #3C3C3B",
"$  c #791D1D",
"%  c #553B1C",
"&  c #433724",
"*  c #4E3920",
"=  c #423728",
"-  c #463C2D",
";  c #4E3D29",
":  c #523C25",
">  c #453F36",
",  c #423F3A",
"<  c #5D3434",
"1  c #6F2F2F",
"2  c #762121",
"3  c #6D3C3C",
"4  c #733535",
"5  c #713939",
"6  c #57422E",
"7  c #5C442B",
"8  c #454036",
"9  c #484136",
"0  c #45423F",
"q  c #4A443B",
"w  c #534330",
"e  c #594936",
"r  c #50473B",
"t  c #544A3E",
"y  c #6B4724",
"u  c #444444",
"i  c #494642",
"p  c #4D4843",
"a  c #474848",
"s  c #4C4C4C",
"d  c #564D42",
"f  c #594E42",
"g  c #544D4C",
"h  c #594F4F",
"j  c #5D5346",
"k  c #54514D",
"l  c #5B554D",
"z  c #4F5051",
"x  c #545353",
"c  c #5A5652",
"v  c #5D5956",
"b  c #5B5B5B",
"n  c #664242",
"m  c #6D4E4E",
"M  c #764343",
"N  c #784444",
"B  c #704C4C",
"V  c #655347",
"C  c #63574A",
"Z  c #645A4E",
"A  c #6B5949",
"S  c #655554",
"D  c #685454",
"F  c #625C56",
"G  c #625D5A",
"H  c #6A5C5C",
"J  c #705F50",
"K  c #67635F",
"L  c #6A645F",
"P  c #7B6857",
"I  c #646363",
"U  c #6A6664",
"Y  c #6E6B66",
"T  c #676868",
"R  c #686868",
"E  c #686969",
"W  c DimGray",
"Q  c #6A6968",
"!  c #6B6968",
"~  c #69696A",
"^  c #696A6A",
"/  c #6A6A6A",
"(  c #6B6A6A",
")  c gray42",
"_  c #6C6969",
"`  c #6C6B69",
"'  c #6C6A6A",
"]  c #6D6B6A",
"[  c #6D6C6B",
"{  c #6E6D6B",
"}  c #6B6B6C",
"|  c #6C6C6C",
" . c #6C6C6D",
".. c #6C6D6D",
"X. c #6D6D6D",
"o. c #6E6D6D",
"O. c #6E6E6C",
"+. c #6F6E6C",
"@. c #6D6D6E",
"#. c #6D6E6E",
"$. c gray43",
"%. c #6E6E6F",
"&. c #6E6F6F",
"*. c #6F6F6F",
"=. c #6B6B6B",
"-. c #726A64",
";. c #786D65",
":. c #796A62",
">. c #766969",
",. c #706F6E",
"<. c #726E6E",
"1. c #736F6F",
"2. c #776C6C",
"3. c #716C69",
"4. c #7C6E6E",
"5. c #7E7166",
"6. c #76726E",
"7. c #7E716A",
"8. c #7E726B",
"9. c #6F6F70",
"0. c #6F7171",
"q. c gray44",
"w. c #707171",
"e. c #717171",
"r. c #727272",
"t. c #737272",
"y. c gray45",
"u. c #747373",
"i. c #727474",
"p. c #747474",
"a. c gray46",
"s. c #757777",
"d. c #767676",
"f. c #777676",
"g. c #777777",
"h. c #727272",
"j. c #7B7575",
"k. c #777878",
"l. c #777979",
"z. c #767878",
"x. c gray47",
"c. c gray48",
"v. c #7B7B7B",
"b. c #7B7D7D",
"n. c #7C7C7C",
"m. c #7C7D7D",
"M. c #846C5B",
"N. c #836A59",
/* pixels */
"b x.a.e.| e.u.1.a.1.a.1.e.1.a.1.x.x.e.| a.| a.x.n.a.| e.x.x.x.| / e.a./ | T / e.| / a.a.a.a.9./ L e.a.| j.4.>.2.e.| n.| e.a.x.b ",
"s a.a.| / e.I h I h I g x h I g e.e./ / e./ a.a.a./ / b a.x.x.| / | | T | T / e.9./ e.a.a.T I I 1.| x.S 1 $ $ 2 n ` n.| | a.a.s ",
"u e.e./ T / b b b b b b b b b x T T T / / T / | / / I b a.x.x.| G G G v F c v G F T | e.e.b x b e.| z.R B 4 4 5 H | n.| / e.e.u ",
"s | / b | x.T b I b I b b b I b | a.a.a.e.e.e.a.a.a./ b z.b.n.i.v l l l l k l l l R K / | | / e.a.| x.S 1 $ $ 2 n ` n./ b / | s ",
"s e.| / T | I b b b b b b b b x / | | | / T / / / / G < M N N 3 D { { { ` I / ` | e.{ | | | | x.g.| z.R B 4 4 5 H | n.| / | 9.s ",
"s T I / / a.T b I b I x x b I x e.x.e./ | b b x b b x < M N N 3 D / / T / T I T / T I I T | | e.i.| x.S 1 $ $ 2 n ` n.| / I T s ",
"s T I b / a./ T / T / I b b / I e.a.a.I I I I I I I I T a.z.z.0.T I I T I I b I I T b I I | | / / | a.I m 3 3 3 H / x./ b I I s ",
"# u # u s s s s s s s s u u s s s s s u u u s s s s s s s s s s s u u u u u u u u u u u u s s s s s s s s s s s s s s s u u i # ",
". + + # x x x x x x x x # s b x x b x s s x b x 0 9 s k f b x b x x x x x b c q b x x x x b b x > k x x b x x q k x c V u u , . ",
"o s s x T I R T / | / b s b | I T x s s u s x s 0 , u p p s s x s s b R I / e.b | x s s s s b / f Y / R ;.T I d v | U M.z x x o ",
"= 0 a x T b T / e.a.I x x I | x s + O O O O + O O O O O O O O O O + b T T / e.b | u O O O + x | C Y e.6.A F b C c | G 5.x s 0 = ",
"o @ u x / I T / e.I T b b x b u u s s s # u s a i 9 u i q s s x s s b T / | e.I | b u u s x b | j c k ; l R x t c | U 7.x s i = ",
". # u x T T / T | b I b A c u + s b b b s b b b v j I G J / T | b x b T / | e.b | b s b I b b | j g r 6 * f v d c | R 8.x s i X ",
"o k s x T b T b b b T G 7 0 u u b T T I s I T / G C / L P e.| a.I x b T / / e.I | b x b T b b | j k 8 w y : c Z G | G 7.x x c o ",
"= 0 s x / I / b b I I c ; i x x I T G Z x I T / G C / -.N.T I | I x b T / / e.I | b x b T b b | j c 9 X % e I C K e.U 7.x s 0 = ",
"= 0 u x / I / b I T I i & k b b T T I b b I T / K A / 3.:.T T T I x b T / / e.I | b x b T b I e.j c s .   - G Z K e.R 8.x s i = "
};
