/* XPM */
static char *dc1fca1c94b442d8d3c9a647611b8af3IjrCd3H1IDszAKiJ[] = {
/* columns rows colors chars-per-pixel */
"64 64 216 2 ",
"   c #1F1F1F",
".  c #3A1617",
"X  c #2D281A",
"o  c #3A2C15",
"O  c #33270D",
"+  c #262626",
"@  c #292620",
"#  c #2C2C2C",
"$  c #2E2B22",
"%  c #362F25",
"&  c #332E2E",
"*  c #3A3325",
"=  c #3C352A",
"-  c #3D382E",
";  c #33312E",
":  c #2F2F30",
">  c #333333",
",  c #3C3833",
"<  c #3B3B3B",
"1  c #393734",
"2  c #440B04",
"3  c #45120A",
"4  c #4D180C",
"5  c #481918",
"6  c #531717",
"7  c #5D1818",
"8  c #521B1B",
"9  c #510A05",
"0  c #621B1B",
"q  c #6A1E1E",
"w  c #791D1D",
"e  c #452212",
"r  c #423119",
"t  c #573C1D",
"y  c #67201F",
"u  c #4D2222",
"i  c #542B2B",
"p  c #5C2F2C",
"a  c #433624",
"s  c #473822",
"d  c #4C3B22",
"f  c #423728",
"g  c #43392B",
"h  c #4D3E2B",
"j  c #523D24",
"k  c #533F29",
"l  c #423333",
"z  c #443D34",
"x  c #423E3B",
"c  c #4D3A3A",
"v  c #533433",
"b  c #5B3333",
"n  c #5A3C3C",
"m  c #583839",
"M  c #6F2F2F",
"N  c #662828",
"B  c #762121",
"V  c #6C3C3C",
"C  c #663838",
"Z  c #733535",
"A  c #713C3C",
"S  c #69491E",
"D  c #7A581A",
"F  c #72521D",
"G  c #4F4021",
"H  c #4C402F",
"J  c #534121",
"K  c #54422A",
"L  c #5B4828",
"P  c #45423E",
"I  c #4B443B",
"U  c #4A4337",
"Y  c #524230",
"T  c #53473A",
"R  c #53493C",
"E  c #594B3B",
"W  c #5F5038",
"Q  c #674725",
"!  c #754C27",
"~  c #745522",
"^  c #654B33",
"/  c #614F3E",
"(  c #674B36",
")  c #625234",
"_  c #64513F",
"`  c #6C513B",
"'  c #725237",
"]  c #444444",
"[  c #494643",
"{  c #4E4944",
"}  c #474848",
"|  c #4C4C4C",
" . c #474748",
".. c #574444",
"X. c #5E4646",
"o. c #554C42",
"O. c #5B4E43",
"+. c #524E4B",
"@. c #594F4F",
"#. c #5D5346",
"$. c #55524D",
"%. c #5C544C",
"&. c #4F4F50",
"*. c #4F5050",
"=. c #535353",
"-. c #5A5653",
";. c #5C5955",
":. c #575858",
">. c #5C5C5C",
",. c #575758",
"<. c #644342",
"1. c #624E4E",
"2. c #6D4F4F",
"3. c #684040",
"4. c #764343",
"5. c #734949",
"6. c #635446",
"7. c #65564A",
"8. c #645A4C",
"9. c #6C5B4B",
"0. c #6C554A",
"q. c #7C5C44",
"w. c #735E4D",
"e. c #645555",
"r. c #625C56",
"t. c #6A5E53",
"y. c #635D5A",
"u. c #6A5C5C",
"i. c #6B5454",
"p. c #705E50",
"a. c #76614E",
"s. c #7A624D",
"d. c #65625D",
"f. c #6A645E",
"g. c #726253",
"h. c #7B6554",
"j. c #76695F",
"k. c #7A685D",
"l. c #776958",
"z. c #5F6061",
"x. c #646464",
"c. c #6A6663",
"v. c #6C6965",
"b. c #676768",
"n. c #676868",
"m. c #696969",
"M. c #6B6B6B",
"N. c #6A6969",
"B. c #6C6A69",
"V. c #6D6D6D",
"C. c #6E6F6F",
"Z. c #6E6E6D",
"A. c #6B6B6B",
"S. c #736664",
"D. c #736B64",
"F. c #796D65",
"G. c #726F6F",
"H. c #736D6B",
"J. c #7B6F6C",
"K. c #75716C",
"L. c #7D726B",
"P. c #7E7166",
"I. c #6F6F70",
"U. c #6F7070",
"Y. c #707171",
"T. c #737373",
"R. c #757575",
"E. c #777676",
"W. c #757777",
"Q. c #737373",
"!. c #7B7A77",
"~. c #777778",
"^. c #777878",
"/. c #777878",
"(. c gray47",
"). c #7B7B7B",
"_. c #7C7C7C",
"`. c #7B7B7B",
"'. c #7B7575",
"]. c #86621E",
"[. c #996F1C",
"{. c #9F7219",
"}. c #845F2B",
"|. c #8A6225",
" X c #9F7522",
".X c #8D603A",
"XX c #96783E",
"oX c #946139",
"OX c #83634A",
"+X c #9F714D",
"@X c #836C5B",
"#X c #846A55",
"$X c #8A725D",
"%X c #8A7552",
"&X c #9B7457",
"*X c #A07252",
"=X c #846F62",
"-X c #86766C",
";X c #897A6E",
":X c #857D77",
">X c #9C885E",
",X c #99845A",
"<X c #958668",
"1X c #998465",
"2X c #88837D",
"3X c #97877C",
"4X c #A68269",
"5X c #838383",
"6X c #8B8B8B",
"7X c #8B8784",
"8X c #9E948C",
"9X c #8F9090",
"0X c #939393",
"qX c #9A9A9A",
"wX c #9D9997",
"eX c #A99385",
/* pixels */
">.(.R.Y.V.Y.Q.G.R.G.R.G.Y.G.R.G.(.(.Y.V.R.V.R.(._.R.V.Y.(.(.(.V.M.Y.R.M.V.b.M.Y.V.M.R.R.R.R.I.B.f.Y.R.V.'.J.H.G.Y.V._.V.Y.R.(.>.",
"| R.R.V.M.Y.x.@.x.@.x.+.=.@.x.+.Y.Y.M.M.Y.M.R.R.R.M.M.>.R.(.(.V.M.V.V.b.V.b.M.Y.I.M.Y.R.R.b.x.x.G.V.(.e.M w w B <.B._.V.V.R.R.| ",
"] Y.Y.M.b.M.>.>.>.>.>.>.>.>.>.=.b.b.b.M.M.b.M.V.M.M.x.>.R.(.(.V.y.y.y.;.r.-.;.y.r.b.V.Y.Y.>.=.>.Y.V.^.c.5.Z Z A u.V._.V.M.Y.Y.] ",
"| V.M.>.V.(.b.>.x.>.x.>.>.>.x.>.V.R.R.R.Y.Y.Y.R.R.R.M.>.^._._.Q.;.%.%.%.%.$.%.%.%.c.d.M.V.V.M.Y.R.V.(.e.M w w B <.B._.M.>.M.V.| ",
"| Y.V.M.b.V.x.>.>.>.>.>.>.>.>.=.M.V.V.V.M.b.M.M.A.A.y.b 4.4.4.V 7.A.A.A.B.x.M.B.V.Y.A.V.V.V.V.R.^.V.^.c.5.Z Z A u.V._.V.M.V.Y.| ",
"| b.x.M.M.R.b.>.x.>.x.=.=.>.x.=.Y.(.Y.M.V.>.>.=.>.>.=.b 4.4.4.V i.M.M.b.M.b.x.b.M.b.x.x.b.V.V.Y.Q.V.(.e.M w w B <.B._.V.M.x.b.| ",
"| b.x.>.M.R.M.b.M.b.M.x.>.>.M.x.Y.R.R.x.x.x.x.x.x.x.x.b.R.^.^.U.b.x.x.b.x.x.>.x.x.b.>.x.x.V.V.M.M.G.R.x.2.V V V i.M.(.M.>.x.x.| ",
"< ] < ] | | | | | | | | ] ] | | | | | ] ] ] | | | | | | | | | | | ] ] ] ] ] ] ] ] ] ] ] ] | | | | | | | | | | | | | | | ] ] ] < ",
"% 1 1 < =.=.=.=.=.=.:.=.< | >.=.=.>.=.| | =.>.=.P U | $.O.>.=.>.=.=.=.=.=.>.-.I >.=.=.=.=.>.>.=.z $.=.=.>.=.=.I $.=.-.6.] ] x % ",
"= | | =.b.x.b.b.M.V.M.>.| >.V.x.b.=.| | ] | =.| P x ] [ { | | =.| | >.b.x.M.Y.>.V.=.| | | | >.M.O.v.M.c.F.b.x.o.;.V.c.@X*.=.$.= ",
"f P } =.b.>.b.M.Y.R.x.=.=.x.V.=.| 1 > > > > 1 > > > > > > > > > > 1 >.b.b.M.Y.>.V.] > > > 1 =.V.6.v.Y.K.9.r.>.6.-.V.y.P.=.| P f ",
"= , ] =.b.x.b.M.Y.x.b.>.>.=.>.] ] | | | < ] |  .] U ] ] I | | =.| | >.b.M.V.Y.x.V.>.] ] | =.>.V.#.-.#.h %.c.=.R -.V.c.L.=.| ] f ",
"% < ] =.b.b.M.b.V.>.x.>.9.=.] 1 | >.>.>.| >.>.>.;.#.x.y.p.M.b.V.>.=.>.b.M.V.Y.>.V.>.| >.x.>.>.V.#.+.T K d O.:.o.-.V.c.L.=.| ] * ",
"= $.| =.b.>.b.>.>.>.b.y.L P ] ] >.b.b.x.| x.b.b.y.7.M.f.h.Y.V.R.x.=.>.b.M.M.Y.x.V.>.=.>.b.>.>.V.#.$.U Y Q j =.8.y.V.y.L.=.=.=.= ",
"f P | =.M.x.M.>.>.x.x.-.d ] =.=.x.b.y.8.$.x.b.M.y.7.M.D.@Xb.x.V.x.=.>.b.M.M.Y.x.V.>.=.>.b.>.>.V.#.-.U * t E x.6.d.Y.c.L.=.| P f ",
"f P ] =.M.x.M.>.x.b.x.[ a $.>.>.b.b.x.>.>.x.b.M.d.9.M.H.F.b.b.b.x.=.>.b.M.M.Y.x.V.>.=.>.b.>.x.Y.#.-.| % o g y.8.d.Y.c.L.=.| [ f ",
"f { | =.b.>.b.>.b.| | g g >.x.>.b.b.x.x.>.x.b.M.c.9.M.A.D.M.M.M.x.=.x.b.M.M.Y.x.V.>.=.>.b.>.>.U.#.-.=.g O * -.8.d.Y.x.G.=.=.$.g ",
"f $.| =.b.b.M.-.-.] ] = [ z.b.b.V.V.A.b.>.V.V.M.v.9.M.A.B.M.M.M.x.=.b.b.M.M.Y.x.V.>.=.x.b.>.%.v.#.-.:.E r o z T x.Y.M.Y.=.*.$.f ",
"f x ] =.b.b.M.#.[ < , z | x.b.x.x.M.>.=.| >.M.M.H.9.M.V.M.M.M.M.x.=.b.M.M.M.Y.b.V.>.=.b.M.>.h y.#.-.>.9.t r r g >.Y.M.Y.=.] x f ",
"f [ | =.x.>.b.$.< < [ ] =.x.b.x.V.V.b.b.x.M.V.M.K.p.M.V.M.b.x.M.x.=.b.M.M.M.Y.M.V.>.=.b.Y.+.h v.#.-.>.a.Q Y f f $.V.>.V.=.| +.f ",
"f $.| =.b.>.M.>.] | >.| =.x.b.x.b.M.>.:.=.>.M.M.H.t.n.V.Y.M.M.V.>.=.b.M.M.M.Y.M.V.>.=.M.V.-.=.v.#.-.>.w.Q / =.g =.V.x.Y.=.=.-.g ",
"f P } =.b.x.M.>.| =.>.=.=.x.b.>.x.x.>.>.x.b.b.=.=.+.=.=.=.=.| | P | b.M.M.M.Y.M.V.>.>.M.V.>.-.c.7.-.>.a.! _ b.| >.V.b.Y.=.| P f ",
"f [ ] =.x.>.b.>.>.=.>.=.=.M.b.>.b.b.b.V.M.(.(.V.;.R ,.>.>.>.| P s | b.M.M.M.U.U.Y.>.>.M.V.>.$.x.#.-.x.#X! / b.=.>.V.>.V.=.| [ f ",
"g $.| =.x.>.M.>.>.>.x.>.=.M.b.>.b.b.x.M.>.M.(.R.y.7.M.Y.Y.R.>.{ k +.b.M.M.M.Y.A.V.>.>.M.V.>.>.V.#.-.>.9.Q _ b.=.>.V.x.V.=.=.$.g ",
", $.| =.x.x.M.>.>.V.5X5Xb.M.M.(.R.(.(.R.R.b.V.A.f.@X_.(.V.R.x.| K +.b.b.M.M.Y.V.V.>.>.M.V.>.>.V.6.-.>.w.^ 9.M.>.>.V.b.V.=.*.$., ",
"1 < ] =.x.>.b.>.>.>.R.6X(.M.R.5XR._.6X5X_.M.V.A.v.h.A.x.b.R.b.+.K +.b.b.M.M.Y.V.V.>.>.M.V.>.>.V.7.-.>.w.^ 0.y.:.>.V.>.V.=.] < 1 ",
"1 | | =.x.x.M.>.>.>.>.M.M.b.V.M.x.M.Y.V.V.y.i.i.-.o.=.>.b.R.b.+.K +.b.M.M.M.K.V.V.>.>.M.V.>.>.V.7.-.>.w.^ a.8.$.>.V.x.V.=.| | 1 ",
"1 =.| =.z.b.M.>.>.=.>.M.M.b.V.b.>.b.V.V.V.e.C V ;.6.>.>.b.R.M.=.k +.b.M.M.M.K.V.V.>.>.M.V.>.>.V.7.-.>.s.^ 6.#.-.>.V.b.Y.=.=.=.1 ",
"1 ]  .=.x.x.M.>.>.>.>.M.V.M.G.>.& > | M.Y.H.3.2.c.%.>.>.b.R.M.-.k +.b.b.b.M.Y.V.V.>.>.M.V.>.>.V.7.-.>.s.` #.b.>.>.V.x.V.=.| ] 1 ",
"1 ] ] =.b.Y.M.x.R.5X5X_.Y.V.S.y.3 5 | M.b.=. .| =.=.x.>.b.R.M.$.k +.b.V.b.M.Y.V.V.>.>.M.V.>.>.V.7.-.>.s.` 6.x.>.>.U.Y.Y.=.| ] 1 ",
"1 | | *.c.V.M.b.b.V.R.R.M.V.S.y.8 u | M.x.] 1 1 ] =.x.>.V._.Q.c.' ;.b.V.Y.R.R.V.V.>.x.b.R.M.>.V.7.;.A.#Xq.9.x.>.>.V.V.Y.=.| | 1 ",
"1 =.| =.M.x.b.M.x.M.Y.Y.b.V.S.y.8 u | M.b.| =.>.| =.x.b.6XqX6X-X*XL.M.M.b.;.d.b.V.V.(.(.qX0XM.V.7.c.6X4X&X$X:X~.b.V.x.V.=.*.=.1 ",
"1 < ] =.M.R.M.>.| | >.>.b.V.S.y.6 u | M.b.=.x.b.| >.x.b.R.Y.V.r.^ f.M.b.=.-.=.>.V.M.V.V.(.(.M.V.7.c.Y.s.OX$XG.b.>.Y.Y.M.=.] < 1 ",
"1 ] ] =.M.V.M.>.| | =.>.b.V.M.>.l u | M.b.| b.b.| >.x.>.=.| | P f +.b.V.%.x.r.x.Y.>.| | =.=.>.V.7.-.&.H K E | | =.V.M.M.=.| | 1 ",
"1 =.| *.b.>.b.>.>.>.>.>.>.*.| } l u | M.b.=.b.b.| >.x.=.< 1 1 1 * | b.V.8.d.8.c.Y.>.] 1 1 ] >.V.9.-.] X X $ > 1 =.V.>.b.=.=.=.1 ",
"1 ] | *.M.Y.M.>.>.>.>.x.-.. . . 8 u | M.b.=.b.b.| >.x.:.>.>.x.;.O.=.b.V.f.G.v.b.Y.>.>.>.x.>.>.V.9.;.>.U h T | | >.M.V.x.=.| ] 1 ",
"1 ]  .=.M.V.M.>.V.V.>.b.;.5 3 3 4 e R M.b.=.b.b.| >.x.x.R.R.(.L.@Xx.b.M.b.Y.K.M.V.M._.5X5X_.b.Y.g.c.(.a.q.$X~.(.(.M.M.d.=.| ] 1 ",
"1 =.| =.M.d.A.A._.0XR.b.;.3 2 2 9 4 R M.b.=.b.b.| >.V.5X6X5XR.-X$X_.V.x.-.>.>.b.V.6X6X6X0X0X5XR.k.7X8X+X&X4X;X(.6XV.:.>.=.=.=.1 ",
"1 =.| =.V.R.Y.b.x.R.R.M.c.7.O.#.<.0.f.A.b.=.M.b.| >.Y._.Y.M.>.f.6.V.Y.x.>.x.b.b.V.(.Y.Y.R.(.(.R.B.V.D.oXOXk.>.=.b.Y.x.>.=.=.=.1 ",
"1 < ] =.Y.R.V.z.>.V.V.M.V.A.>.M.b.I.K.V.x.=.M.b.| >.Y.(.V.M.=.y.#.M.Y.b.x.M.M.x.b.M.b.M.M.M.M.Y.M.M.c..Xq.S.>.| >.Y.b.>.=.] < 1 ",
"1 ] ] =.M.V.M.>.=.b.M.x.b.x.=.>.>.x.b.V.b.=.M.b.=.x.Y.(.V.M.=.d.#.M.Y.M.x.M.b.x.x.b.b.b.b.b.b.Y.G.M.b.OXOXS.>.| >.R.M.>.*.| | 1 ",
"1 =.| =.R.(.M.x.>.b.b.x.x.b.>.x.b.M.x.M.b.:.M.n.=.x.Y.R.V.A.,.x.>.M.Y.M.x.M.b.x.M.Y.V.V.V.V.V.R.K.V.b.j.h.M.>.| >.R.M.>.=.=.=.1 ",
"1 ] | =.Y.b.>.=.| >.>.>.>.x.b.x.x.b.>.M.b.X.V V +.x.Y.R.I.Y.>.x.>.M.Y.M.x.M.b.b.V.b.>.x.>.x.>.j.g.U.M.c.h.b.>.=.z.R.Y.x.=.| ] 1 ",
"1 ] ] =.V.b.b.>.=.x.M.V.V.b.x.>.>.>.>.b.x...b b -.M.V.V.b.M.>.>.>.b.V.M.>.y.y.b.V.>.| >.| #.{ v.x.V.x.r.w.>.>.=.>.M.V.x.=.| ] 1 ",
"1 =.| =.Y.b.>.=.=.d.x.b.b.x.b.x.>.x.>.M.x.X.A V -.M.x.] 1 1 1 1 1 ] >.M.>.>.b.b.M.] 1 1 1 z $.f.b.=.=. .[ | | ] | =.>.b.=.=.=.1 ",
"1 =.| =.Y.b.=.| =.>.x.b.>.x.M.M.b.M.x.b.x...b b -.M.x.| < 1 1 1 < ] | | ] | | | | ] ] 1 , o.>.x.b.>.< @ s h # @ g >.>.b.=.=.=.1 ",
"1 < ] =.Y.x.=.| | >.x.b.b.b.b.M.b.M.x.M.b.X.V V -.M.x.| >.x.>.=.} < 1 # # : ; > > < ] =.:.:.>.x.b.>.] F [.) ; F |.d.>.b.=.] < 1 ",
"1 | | =.Y.Y.>.=.=.>.x.b.b.V.V.M.b.b.x.M.b...p b -.M.b.| b.K.b.c.=.| ] ] ] ] x z ] ] | x.b.>.>.x.b.>.7.|.) | ) }.W >.>.M.=.| | 1 ",
"1 =.=.*.V.R.M.=.>.x.M.M.b.M.d.x.x.x.z.M.x.>.U.b.>.M.x.| x.R.b.d.>.b.M.x.>.>.>.;.>.>.b.b.M.>.>.x.b.>.c.c.M.E.H.c.c.M.>.n.=.=.=.1 ",
"1 =.=.+.y.H.c.>.>.x.M.M.x.>.x.x.b.x.x.M.x.;.S.u.-.M.b.| b.R.M.x.r.M.D.G.>.>.M.c.>.>.V.b.M.>.>.x.b.>.>.>.M.R.b.>.x.;.-.y.>.=.=.1 ",
"1 ,.=.v N N ;.z.x.x.x.b.M.b.>.M.b.M.V.M.x.n 0 N -.M.b.=.b.U.M.x.#.j.d.M.>.>.-.>.>.x.V.M.V.b.>.x.b.>.>.x.V.R.b.>.x.v y N +.=.=.1 ",
"1 ] | m M V >.b.V.V.b.Y.b.b.b.V.b.b.V.A.b.-.y.;.>.M.b.=.b.Y.M.b.z.w.f.M.>.>.d.b.>.x.Y.^.6X6XY.x.b.>.>.b.V.R.M.>.$.v N C =.| ] 1 ",
"1 ] | c b <.x.x.-.M.>.V.#.d.b.V.b.b.V.V.b.(.5XM.>.M.b.=.b.Y.M.b.>.w.c.M.>.>.b.M.>.M.5XeXwX0X_.x.b.>.>.b.V.R.M.>.-.X.p m +.| ] 1 ",
"1 =.| < b.R.Y.b.=.M.=.V.O.d.b.V.b.b.V.V.(.0XqX5Xx.M.b.=.M.Y.V.M.>.g.D.A.x.x.b.M.R.5X3X3X5XR.H.M.b.>.d.b.V.R.M.>.x.B.;.x.] =.=.1 ",
"1 | 1 a c.R.Y.b.=.V.>.V.7.f.b.V.x.b.V.V.V.(.6XqX_.V.b.x._.5X5X(.R.1X2X_.R._.5X(.7X5X5XR.f.b.x.b.b.>.b.M.V.R.Y.x.x.M.>.A.- ] =.1 ",
"1 =.| I b.Y.V.b.=.M.>.A.7.d.b.V.b.b.M.M.M.b.M._.5XV.M.5X0X6X6X6X5XeX8X6X_.5X0X(.Y.G.F.O.Y =.&.>.b.$.=.$.$.>.>.=.=.=.>.B.| | =.1 ",
"] b.x.=.x.b.x.=.] | ] +.T O.>.x.x.x.b.b.b.x.x.b.x.>.>.M.M.x.x.x.x.h.f.b.>.x.b.>.>.y.v.d.#.%.=.>.x.7.+.T T %.>.>.>.>.x.x.=.>.>.] ",
"| 5X9X6X9X6X5XV.>.b.>.t.q.h.Y.6X6X0X0X0X6X0X0X0X6XY.(.0X0XR.Y.Y.V.=X:X5Xx.Y.5Xb.f.Q.6XqX6XV.x.Y.0X;XD.q.q.=X7X(._.0X0X6X_._.(.=.",
"| x.n X.n 1.Y.>.< ] < ] z ] ] | ] ] [ | ]  .| $.V.V.V.R.Y.M.b.M.z.J.G.V.x.A.Q.8.o.] | | | ] < x | z P g g ] ] P  .M.1.n ..n x.< ",
"| c.1.-.1.y.Y.M.] d S j # G D J # r F J # G ~ r.Y.V.>.x.x.>.x.x.>.x.b.x.>.x.F.F.M.] J D J # s F J + G S f # d Q f.Y.y.1.e.1.x.< ",
"| y.q i 0 V A.V.!.XXQ = h {.].- K |.~ - L  X1X_.Y.x.>.>.>.=.>.>.=.>.x.>.>.>.x.B.R._.XX].- K ].~ - h {.~ & L [.h.R.M.V 0 i q y.< ",
"| u.7 i 6 C >.| Y.!.-.b.%X,XK.A.,X%Xd.A.>X<X_.Y.>.< 1 < < 1 < < 1 < < < 1 1 1 | M.R.2XK.A.1X,X;.c.$X>Xd.-.>X<Xx.| >.V 6 i 7 y.< ",
"] M.c.c.c.B.M.b.V.b.>.Y.B.Y.(._.R.M.V.(.(.Y.V.>.< > ] >.=.=.=.=.| y.-.>.=.] 1 1 | b.Y.(.(.`.V.x.R.M.V.x.x.(.V.>.x.x.x.y.y.y.x.1 ",
"# > # > # > > > > > # > > > > > > > > > > > > # +   # # # # # # # # # # # # +   # > > > > > > # > # > # # > > # > # # # # # # + "
};
