/* XPM */
static char *door1[] = {
/* columns rows colors chars-per-pixel */
"64 64 14 1 ",
"  c magenta",
". c #414141",
"X c gray29",
"o c #393939",
"O c gray32",
"+ c #626262",
"@ c #6A6A6A",
"# c #7B7B7B",
"$ c #838383",
"% c #8B8B8B",
"& c gray61",
"* c #413118",
"= c #5A4120",
"- c black",
/* pixels */
"                                                                ",
"                                                                ",
"                                                                ",
"                                                                ",
"                                                                ",
"                                                                ",
"                                                                ",
"                                                                ",
"                                                                ",
"                                                                ",
"                                                                ",
"                                                                ",
"                                                                ",
"                                                                ",
"                                                                ",
"                                                                ",
".X..o.X..X.X.o..X..X.X...X.X.X.X..X.X.o..X..X.X...X.X.X.X..X..oo",
".X....X..X.X....X..X.X...X.X.X.X..X.X....X..X.X...X.X.X.X..X....",
".XX..XX.XXXXX..XX.XXXXX.XXXOXXXX.XXXXX..XX.XXXXX.XXXOXXXXX.XX...",
"XXXX.XXXXXXXX.XXXXXXXXXXXXXOXXXXXXXXXX.XXXXXXXXXXXXXOXXXXXXXXX..",
"XOXX.XOXo....oo..o.....o........o.....oo..o.....o.......oXXOXX..",
"XOXXXXOX.OXOXXXXOXXOXOXXXOX+XOXOXXOXOXXXXOXXOXOXXXOX+XOXXXXOXXXX",
"XOOXXOOXXOOOOXXOOXOOOOOXOOO+OOOOXOOOOOXXOOXOOOOOXOOO+OOOXOXOOXXX",
"O+OOXO+OX+O+OXOO@OO+O+OO@+O+O+OO@O+O+OXO@+OO+O+O@O+O+O+OXOO+OOXX",
"O++OX++OX++++XOXoO+++++Xo++++++Xo+++++XXo+O++++Xo+++++++X+O++OXX",
"O++OO++OX++++OOO.O+++++O.++++++O.+++++OO.+O++++O.+++++++X+O++OOO",
"++++O+++X++++O+O.++++++O.++@+++O.+++++OO.++++++O.+++@+++X+++++OO",
"++++++++X+++++++X+++++++X++@++++X+++++++X+++++++X+++@+++X+++++++",
"+@++++@+X@+@++++X++@+@++X@+@+@++X+@+@+++X@++@+@+X+@+@+@+O++@++++",
"+@++++@+X@+@++++X++@+@++X@+@+@++X+@+@+++X@++@+@+X+@+@+@+O++@++++",
"+@@++@@+O@@@@+++O+@@@@@+O@@@@@@+O@@@@@++O@+@@@@+O@@@@@@@+@+@@+++",
"@@@@+@@@O@@@@+@++@@@@@@++@@#@@@+O@@@@@+++@@@@@@++@@@#@@@+@@@@@++",
"@@@@+@@@+@@@@+@++@@@@@@++@@#@@@+O@@@@@+++@@@@@@++@@@#@@@+@@@@@++",
"@#@@@@#@+#@#@@@@+@@#@#@@+#@#@#@#O@#@#@@@+#@@#@#@+@#@#@#@+@@#@@@@",
"@#@@@@#@+#@#@@@@#@@#@#@@@#@#@#@#+@#@#@@@@#@@#@#@@@#@#@#@+@@#@@@@",
"@##@@##@+####@@@#@#####@@#######+#####@@##@#####@#######+#@##@@@",
"####@###+####@##########@##$####+#####@#############$###+#####@@",
"####@###+####@#############$####@#####@#############$###+#####@@",
"#$####$#+$#$####$##$#$###$#$#$#$@#$#$####$##$#$###$#$#$#+##$####",
"#$####$#+$#$####$##$#$###$#%#$#$##$#$####$##$#$###$#%#$#+##$####",
"#$####$#+$#$####$##$#$###$#%#$#$##$#$####$##$#$###$#%#$#+##$####",
"$%$$#$%$+%$%$#$$%$$%$%$$$%$%$%$%$$%$%$#$$%$$%$%$$$%$%$%$@$$%$$##",
"$%$$#$%$+%$%$#$$%$$%$%$$$%$%$%$%$$%$%$#$$%$$%$%$$$%$%$%$@$$%$$##",
"$%%$#%%$@%%%%#$%%$%%%%%$%%%%%%%%$%%%%%#$%%$%%%%%$%%%%%%%@%$%%$##",
"%%%%$%%%@%%%%$%%%%%%%%%%%%%%%%%%%%%%%%$%%%%%%%@#%%%%%%%%%%%%%###",
"%%%%$%%%@%%%%$%%%%%%%%%%%%%%%%%%%%%%%%$%%%%%%%+@##@@#####$##@###",
"%%%%%%%%@%%%%%%%%%%%%%%%%%%%%%%%%%%%%%%%%%%%%%++##@@####$%##@###",
"%%%%%%%%@%%%%%%%%%%%%%%%%%%&%%%%%%%%%%%%%%%%%%++#+#@#####%##+#@#",
"%%%%%%%%@%%%%%%%%%%%%%%%%%%&%%%%%%%%%%%%%%%%%%++#+o+###@$%##+X+#",
"%%%%%%%%@%%%%%%%%%%%%%%%%%%%%%%%%%%%%%%%%%%%%%++#O.@###@#%##O.@#",
"%%%%$%%%@%%%%$%%%%%%%%%%%%%%%%%%%%%%%%$%%%%%%%++@O.@###@#%#@O.##",
"%%%%$%%%@%%%%$%%%%%%%%%%%%%%%%%%%%%%%%$%%%%%%%++@+X@###@#%@@+X##",
"$%%$#%%$@%%%%#$%%$%%%%%$%%%%%%%%$%%%%%#$%%$%%%O+@+X@##O++@@@@X@@",
"$%$$#$%$+%$%$#$$%$$%$%$$$%$%$%$%$$%$%$#$$%$$%$O+@@O@##O$@$$%$+##",
"$%$$#$%$+%$%$#$$%$$%$%$$$%$%$%$%$$%$%$#$$%$$%$O+@@+@##O$@$$%$@##",
"#$####$#+$#$####$##$#$###$#%#$#$##$#$####$##$#O++@@@+#O#+##$#@##",
"#$####$#+$#$####$##$#$###$#%#$#$##$#$####$##$#O+@@@@##O#+##$#@##",
"#$####$#+$#$####$##$#$###$#$#$#$##$#$####$##$#XXXX+XXXX#+##$####",
"####@###+####@#############$##########@#######+.X+++X.+#+#####@@",
"####@###+####@#############$##########@#######++*+@@*+@#+#####@@",
"@##@@##@+####@@##@#####@########@#####@@##@###+@=+@@=+@#+#@##@@@",
"@#@@@@#@+#@#@@@@#@@#@#@@@#@#@#@#@@#@#@@@@#@@#@+@=+@@=+@@+@@#@@@@",
"@#@@@@#@+#@#@@@@#@@#@#@@@#@#@#@#@@#@#@@@@#@@#@+@=+@@=+@@+@@#@@@@",
"@@@@+@@@+@@@@+@@@@@@@@@@@@@#@@@@@@@@@@+@@@@@@@+@=+@@=+@@+@@@@@++"
};
