/* XPM */
static char *door1[] = {
/* columns rows colors chars-per-pixel */
"64 48 193 2 ",
"   c #391415",
".  c #3B1B1B",
"X  c #33270D",
"o  c #2D281A",
"O  c #3A2C15",
"+  c #292620",
"@  c #2E2D2D",
"#  c #2E2B22",
"$  c #362F25",
"%  c #342F2F",
"&  c #3A3325",
"*  c #33312E",
"=  c #3D3529",
"-  c #2F2F30",
";  c #343434",
":  c #393734",
">  c #3C3833",
",  c #3B3A3A",
"<  c #440B04",
"1  c #510A05",
"2  c #45120A",
"3  c #4D180C",
"4  c #4E1B1B",
"5  c #451916",
"6  c #531919",
"7  c #791D1D",
"8  c #452212",
"9  c #413014",
"0  c #43321B",
"q  c #573C1D",
"w  c #4D2222",
"e  c #5B2F2F",
"r  c #433625",
"t  c #473825",
"y  c #4B3A21",
"u  c #423728",
"i  c #44392B",
"p  c #4C3E2C",
"a  c #523C25",
"s  c #533F29",
"d  c #423333",
"f  c #443C34",
"g  c #423E3A",
"h  c #5A3333",
"j  c #6F2F2F",
"k  c #762121",
"l  c #663131",
"z  c #6C3C3C",
"x  c #643E3E",
"c  c #733535",
"v  c #713C3C",
"b  c #6C4D1F",
"n  c #73541D",
"m  c #4C402F",
"M  c #54412B",
"N  c #5C442B",
"B  c #454036",
"V  c #4B4235",
"C  c #45423F",
"Z  c #4A443B",
"A  c #4F483B",
"S  c #544331",
"D  c #594936",
"F  c #52473A",
"G  c #52493D",
"H  c #594D3E",
"J  c #5F5038",
"K  c #654322",
"L  c #6C4724",
"P  c #62462D",
"I  c #754C27",
"U  c #654B33",
"Y  c #614F3E",
"T  c #6A4F39",
"R  c #634732",
"E  c #625234",
"W  c #64513F",
"Q  c #6C513B",
"!  c #725237",
"~  c #444444",
"^  c #4A4642",
"/  c #4E4944",
"(  c #474848",
")  c #4C4C4C",
"_  c #574343",
"`  c #5E4646",
"'  c #554D42",
"]  c #5A4E43",
"[  c #524E4B",
"{  c #594F4F",
"}  c #5D5346",
"|  c #55524E",
" . c #5C554D",
".. c #4E4F50",
"X. c #4F5050",
"o. c #535353",
"O. c #5A5653",
"+. c #5C5955",
"@. c #575758",
"#. c #575858",
"$. c #5C5C5C",
"%. c #654342",
"&. c #684040",
"*. c #6D4F4F",
"=. c #764343",
"-. c #704C4C",
";. c #784444",
":. c #635446",
">. c #695747",
",. c #65574A",
"<. c #645A4D",
"1. c #6C5A4B",
"2. c #6E524C",
"3. c #7C5D45",
"4. c #745E4C",
"5. c #645555",
"6. c #6B5454",
"7. c #625C56",
"8. c #6B5D51",
"9. c #625D5A",
"0. c #6B5B5B",
"q. c #705E50",
"w. c #76614E",
"e. c #7A624D",
"r. c #65625E",
"t. c #6A645E",
"y. c #726354",
"u. c #7C6555",
"i. c #7B6857",
"p. c #76695F",
"a. c #7A685D",
"s. c #646464",
"d. c #6A6663",
"f. c #6D6965",
"g. c #676768",
"h. c #676868",
"j. c #696969",
"k. c #6B6B6B",
"l. c #6A6969",
"z. c #6C6A69",
"x. c #6D6D6D",
"c. c #6E6F6F",
"v. c #6E6E6D",
"b. c #6B6B6B",
"n. c #736664",
"m. c #746B64",
"M. c #796C64",
"N. c #726F6F",
"B. c #736D6B",
"V. c #7C6E6E",
"C. c #7E7166",
"Z. c #75716D",
"A. c #7D726B",
"S. c #6F6F70",
"D. c #6F7070",
"F. c #707171",
"G. c #737373",
"H. c #757575",
"J. c #777676",
"K. c #757777",
"L. c #737373",
"P. c #777778",
"I. c #777878",
"U. c gray47",
"Y. c #7B7B7B",
"T. c #7C7C7C",
"R. c #7A7B7B",
"E. c #7B7575",
"W. c #9A6F19",
"Q. c #845F2B",
"!. c #866025",
"~. c #8C652A",
"^. c #8D603A",
"/. c #946139",
"(. c #83634A",
"). c #9F714D",
"_. c #846A55",
"`. c #836C5B",
"'. c #8B725E",
"]. c #977256",
"[. c #9E7557",
"{. c #A07252",
"}. c #86766C",
"|. c #85796F",
" X c #887F77",
".X c #A88267",
"XX c #A4826B",
"oX c #858585",
"OX c #8B8B8B",
"+X c #8D8985",
"@X c #9F9389",
"#X c #929292",
"$X c #9C9C9C",
/* pixels */
"$.U.H.F.x.F.G.N.H.N.H.N.F.N.H.N.U.U.F.x.H.x.H.U.T.H.x.F.U.U.U.x.k.F.H.k.x.g.k.F.x.k.H.H.H.H.S.z.t.F.H.x.E.V.B.N.F.x.T.x.F.H.U.$.",
") H.H.x.k.F.s.{ s.{ s.{ o.{ s.{ F.F.k.k.F.k.H.H.H.k.k.$.H.U.U.x.k.x.x.g.x.g.k.F.S.k.F.H.H.g.s.s.N.x.U.5.j 7 7 k %.z.T.x.x.H.H.) ",
"~ F.F.k.g.k.$.$.$.$.$.$.$.$.$.o.g.g.g.k.k.g.k.x.k.k.s.$.H.U.U.x.9.9.9.+.7.O.+.9.7.g.x.F.F.$.o.$.F.x.I.d.-.c c v 0.x.T.x.k.F.F.~ ",
") x.k.$.x.U.g.$.s.$.s.$.$.$.s.$.x.H.H.H.F.F.F.H.H.H.k.$.I.T.T.L.+. . . . .|  . . .d.r.k.x.x.k.F.H.x.U.5.j 7 7 k %.z.T.k.$.k.x.) ",
") F.x.k.g.x.s.$.$.$.$.$.$.$.$.o.k.x.x.x.k.g.k.k.k.k.9.h =.;.;.z ,.b.b.b.z.s.k.z.x.F.b.x.x.x.x.H.H.x.I.d.-.c c v 0.x.T.x.k.x.F.) ",
") g.s.k.k.H.g.$.s.$.s.o.o.$.s.o.F.U.F.k.x.$.$.o.$.$.o.h =.;.;.z 6.h.k.g.k.g.s.g.k.g.s.s.g.x.x.F.G.x.U.5.j 7 7 k %.z.T.x.k.s.g.) ",
") g.s.$.k.H.k.g.k.g.k.s.$.$.k.s.F.H.H.s.s.s.s.s.s.s.s.g.H.I.I.D.g.s.s.g.s.s.$.s.s.g.$.s.s.x.x.k.k.N.H.s.*.z z z 0.k.U.k.$.s.s.) ",
", ~ , ~ ) ) ) ) ) ) ) ) ~ ~ ) ) ) ) ) ~ ~ ~ ) ) ) ) ) ) ) ) ) ) ) ~ ~ ~ ~ ~ ~ ~ ~ ~ ~ ~ ~ ) ) ) ) ) ) ) ) ) ) ) ) ) ) ) ~ ~ ~ , ",
"$ : : , o.o.o.o.o.o.#.o., ) $.o.o.$.o.) ) o.$.o.C V ) | ] #.o.$.o.o.o.o.o.$.O.A $.o.o.o.o.$.$.o.f | o.o.$.o.o.Z | o.O.:.~ ~ g $ ",
"= ) ) o.g.s.g.g.k.x.k.$.) $.x.s.g.o.) ) ~ ) o.) C g ~ / / ) ) o.) ) $.g.s.k.F.$.x.o.) ) ) ) $.k.] f.k.d.M.g.s.' +.x.d.`.X.o.| = ",
"u C ( o.g.$.g.k.F.H.s.o.o.s.x.o.) : ; ; ; ; : ; ; ; ; ; ; ; ; ; ; : $.g.g.k.F.$.x.~ ; ; ; : o.x.:.f.F.Z.1.7.$.:.O.x.9.C.o.) C u ",
"= > ~ o.g.s.g.k.F.s.g.$.$.o.$.~ ~ ) ) ) , ~ ) ( ~ V ~ ~ Z ) ) o.) ) $.g.k.x.F.s.x.$.~ ~ ) o.$.x.} O.} p  .d.o.G O.x.d.A.o.) ~ u ",
"$ , ~ o.g.g.k.g.x.$.s.$.>.o.~ : ) $.$.$.) $.$.$.+.} s.9.q.k.g.x.$.o.$.g.k.x.F.$.x.$.) $.s.$.$.x.} [ F M y ] #.' O.x.d.A.o.) ~ & ",
"= | ) o.g.$.g.$.$.$.g.9.N C ~ ~ $.s.g.s.) s.g.k.9.,.k.t.i.F.x.H.s.o.$.g.k.k.F.s.x.$.o.$.g.$.$.x.} | B S L a o.<.9.x.9.A.o.o.o.= ",
"u C ) o.k.s.k.$.$.s.s.O.p ~ o.o.s.g.9.<.o.s.g.k.9.,.k.m.`.g.$.x.s.o.$.g.k.k.F.s.x.$.o.$.g.$.$.x.} O.V & q D s.:.r.F.d.A.o.) C u ",
"u C ~ o.k.s.k.$.s.g.s.^ r | $.$.g.g.s.$.$.s.g.k.r.>.k.B.M.g.g.g.s.o.$.g.k.k.F.s.x.$.o.$.g.$.s.F.} O.) $ O i 9.<.r.F.d.A.o.) ^ u ",
"u / ) o.g.$.g.$.g.) ) i i $.s.$.g.g.s.s.$.s.g.k.d.>.k.b.m.k.k.k.s.o.s.g.k.k.F.s.x.$.o.$.g.$.$.D.} O.o.i X & O.<.r.F.s.N.o.o.| i ",
"u | ) o.g.g.k.O.O.~ ~ = ^ $.g.g.Z.x.k.g.$.x.x.k.f.>.k.b.z.k.k.k.s.o.g.g.k.k.F.s.x.$.o.s.g.$. .f.} O.#.H 9 O f F s.F.k.F.o.X.| u ",
"u g ~ o.g.g.k.} / , > f ) s.g.s.s.k.$.o.) $.k.k.B.1.k.x.k.k.k.k.s.o.g.k.k.k.F.g.x.$.o.g.k.$.p 9.} O.$.1.q 0 0 i $.F.k.F.o.~ g u ",
"u ^ ) o.s.$.g.| , , / ~ o.s.g.s.x.x.g.g.s.k.x.k.Z.q.k.x.k.g.s.k.s.o.g.g.k.k.F.k.x.$.o.g.F.[ p f.} O.$.w.K S u u | x.$.x.o.) [ u ",
"u | ) o.g.$.k.$.~ ) $.) o.s.g.s.s.k.$.$.o.$.k.k.B.8.h.x.F.k.k.x.$.o.g.g.k.k.F.k.x.$.o.k.x.O.o.f.} O.$.4.L Y o.i o.x.s.F.o.o.O.i ",
"u C ( o.g.s.k.$.) o.$.o.o.s.g.$.s.s.$.$.s.g.g.o.o.[ o.o.o.o.) ) C ) g.k.k.k.F.k.x.$.$.k.x.$.O.d.,.O.$.w.I W g.) $.x.g.F.o.) C u ",
"u ^ ~ o.s.$.g.$.$.o.$.o.o.k.g.$.g.g.g.x.k.U.U.x.+.G @.$.$.$.) C t ) g.k.k.k.D.D.F.$.$.k.x.$.| s.} O.s._.I Y g.o.$.x.$.x.o.) ^ u ",
"i | ) o.s.$.k.$.$.$.s.$.o.k.g.$.g.g.s.k.$.k.U.H.9.,.k.F.F.H.$./ s [ g.k.k.k.F.b.x.$.$.k.x.$.$.x.} O.$.1.K W g.o.$.x.s.x.o.o.| i ",
"> | ) o.s.s.k.$.$.x.oXoXg.k.k.U.H.U.U.H.H.g.S.b.t.`.T.U.x.H.s.) M [ g.g.k.k.F.x.x.$.$.k.x.$.$.x.:.O.$.4.P 1.k.$.$.x.g.x.o.X.| > ",
": , ~ o.s.$.g.$.$.$.H.OXU.k.H.oXH.T.OXoXT.k.x.b.f.u.b.s.g.H.g.[ M [ g.g.k.k.F.x.x.$.$.k.x.$.$.x.,.O.$.4.R >.9.#.$.x.$.x.o.~ , : ",
": ) ) o.s.s.k.$.$.$.$.k.k.g.x.k.s.k.F.x.x.9.6.0.O.' o.$.g.H.g.[ M [ g.k.k.k.Z.x.x.$.$.k.x.$.$.x.,.O.$.4.R w.<.| $.x.s.x.o.) ) : ",
": o.) o.r.g.k.$.$.o.$.k.k.g.x.g.$.g.x.x.x.5.l x +.:.$.$.g.H.k.o.s [ g.k.k.k.Z.x.x.$.$.k.x.$.$.x.,.O.$.e.U :.} O.$.x.g.F.o.o.o.: ",
": ~ ) o.s.s.k.$.$.$.$.k.x.k.N.$.% % ( k.F.B.&.*.d. .$.$.g.H.k.O.s [ g.g.g.k.F.x.x.$.$.k.x.$.$.x.,.O.$.e.T } g.$.$.x.s.x.o.) ~ : ",
": ~ ~ o.g.F.k.s.H.oXoXT.F.x.n.9.5 5 ) k.g.o.^ ) o.o.s.$.g.H.k.| s [ g.b.g.k.F.x.x.$.$.k.x.$.$.x.,.O.$.e.Q :.s.$.$.D.F.F.o.) ~ : ",
": ) ) o.g.x.k.g.g.x.H.H.k.x.n.9.6 w ) k.s.~ : : ~ o.s.$.x.T.L.d.! +.g.x.F.H.H.x.x.$.s.g.H.k.$.x.,.+.b._.3.1.s.$.$.x.x.F.o.) ) : ",
": o.) o.h.s.g.h.s.k.F.F.g.x.n.9.4 w ) k.g.) o.$.) o.s.g.OX$XOX|.{.A.k.k.g.+.r.g.x.x.U.U.$X#Xk.x.,.d.OXXX[.'. XP.g.x.s.x.o.X.o.: ",
": , ~ X.k.H.k.$.) ) $.$.g.x.n.9.6 w ) k.g.o.s.g.) $.s.g.H.F.x.7.U t.k.g.o.O.o.$.x.k.x.x.U.U.k.x.,.d.F.e.(.'.N.g.$.F.F.k.o.~ , : ",
": ~ ~ X.k.x.k.$.) ) o.$.g.x.k.$.d w ) k.g.) g.g.) $.s.$.o.) ) C u [ g.x. .s.7.s.F.$.) ) o.o.$.x.,.O...m M H ) ) o.x.k.k.o.) ) : ",
": o.) X.g.$.g.$.$.$.$.$.$.X.) ( d w ) k.g.o.g.g.) $.s.o., : : ; & ) g.x.<.r.<.d.F.$.~ : : ~ $.x.>.O.~ o o # ; : o.x.$.g.o.o.o.: ",
": ~ ) o.k.F.k.$.$.$.$.s.O..     4 w ) k.g.o.g.g.) $.s.#.$.$.s.+.] o.g.x.t.N.f.g.F.$.$.$.s.$.$.x.1.+.$.V p F ) ) $.k.x.s.o.) ~ : ",
": ~ ( o.k.x.k.$.x.x.$.g.+.5 2 2 3 8 G k.g.o.g.g.) $.s.s.H.H.U.A.`.s.g.k.g.F.Z.k.x.k.T.oXoXT.g.F.y.d.U.w.3.'.P.U.U.k.k.r.o.) ~ : ",
": o.) o.k.r.b.b.T.#XH.g.+.2 < < 1 3 A k.g.o.g.g.) $.x.oXOXoXH.}.'.T.x.s.O.$.$.g.x.OXOXOX#X#XoXH.a.+X@X).]..X|.U.OXx.#.$.o.o.o.: ",
": o.) o.x.H.F.g.s.H.H.k.d.,.] } %.2.t.b.g.o.k.g.) $.F.T.F.k.$.t.:.x.F.s.$.s.g.g.x.U.F.F.H.U.U.H.z.x.m./.(.a.$.o.g.F.s.$.o.o.o.: ",
": , ~ o.F.H.x.r.$.x.x.k.x.b.$.k.g.S.Z.x.s.o.k.g.) $.F.U.x.d.o.9.} k.F.g.s.k.k.s.g.k.g.k.k.k.k.F.k.k.d.^.3.n.$.) $.F.g.$.o.~ , : ",
": ~ ~ o.k.x.k.$.o.g.k.s.g.s.o.$.$.s.g.x.g.o.k.g.o.s.F.U.x.k.@.r.} k.F.k.s.k.g.s.s.g.g.g.g.g.g.F.x.k.g.(.(.n.$.) $.H.k.$.X.) ) : ",
": o.) o.H.U.k.s.$.g.g.s.s.g.$.s.g.k.s.k.g.#.k.h.o.s.F.H.x.b.@.s.$.k.F.k.s.k.g.s.k.F.x.x.x.x.x.H.Z.x.g.p.u.k.$.) $.H.k.$.o.o.o.: ",
": ~ ) o.F.g.$.o.) $.$.$.$.s.g.s.s.g.$.k.g.` z x [ s.F.H.S.F.$.s.$.k.F.k.s.k.g.g.x.g.$.s.$.s.$.p.y.D.k.d.u.g.$.o.r.H.F.s.o.) ~ : ",
": ~ ~ o.x.g.g.$.o.s.k.x.x.g.s.$.$.$.$.g.s._ h h O.k.x.x.g.k.$.$.$.g.x.k.$.9.9.g.x.$.) $.) } / f.s.x.s.7.4.$.$.o.$.k.x.s.o.) ~ : ",
": o.) o.F.g.$.o.o.r.s.g.g.s.g.s.$.s.$.k.g.` v x O.k.s.~ : : : : : ~ $.k.$.$.g.g.k.~ : : : f | t.g.o.o.^ / ) ) ~ ) o.$.g.o.o.o.: ",
": o.) o.F.g.o.) o.$.s.g.$.s.k.k.g.h.s.g.g._ h h O.k.s.) , : : : , ~ ) ) ~ ) ) ) ) ~ ~ : > ' $.s.g.$., o y p @ + i $.$.g.o.o.o.: ",
": , ~ o.F.s.o.) ) $.s.g.g.g.g.k.g.k.s.k.g.` z x O.k.s.) $.s.$.o.( , : @ @ - * ; ; , ~ o.#.#.$.s.g.$.~ n W.E * b !.r.$.g.o.~ , : ",
": ) ) o.F.F.$.o.o.$.s.g.g.x.x.k.g.g.s.k.g._ e h O.k.g.) g.F.g.d.o.) ~ ~ ~ ~ g f ~ ~ ) s.g.$.$.s.g.$.,.~.E ) E Q.J $.$.k.o.) ) : "
};
