/* XPM */
static char *gun1[] = {
/* columns rows colors chars-per-pixel */
"79 62 65 1 ",
"  c magenta",
". c #2F2F2F",
"X c #434343",
"o c #232323",
"O c black",
"+ c #5B5B5B",
"@ c gray31",
"# c #1F170B",
"$ c #6F6F6F",
"% c gray28",
"& c #373737",
"* c gray23",
"= c #272727",
"- c #13230B",
"; c #875733",
": c #7F532F",
"> c #4B371B",
", c #3F2F17",
"< c #A36B3F",
"1 c #AB6F43",
"2 c #9B633B",
"3 c #2B230F",
"4 c gray34",
"5 c gray42",
"6 c #939393",
"7 c LightGray",
"8 c #774F2B",
"9 c #533F1F",
"0 c #CF8353",
"q c #8F5F37",
"w c #332B13",
"e c #0B1707",
"r c #170F07",
"t c #6B4727",
"y c #1B1B1B",
"u c #5F4323",
"i c #B37347",
"p c #CB7F4F",
"a c #D78B5B",
"s c #BF7B4B",
"d c #DF9363",
"f c #E79B6B",
"g c #4B4B4B",
"h c gray78",
"j c #A7A7A7",
"k c #FFE3D3",
"l c gray50",
"z c #43331B",
"x c #8B8B8B",
"c c #777777",
"v c #B7B7B7",
"b c #E7E7E7",
"n c #EFEFEF",
"m c gray86",
"M c gray70",
"N c gray67",
"B c #9F9F9F",
"V c gray39",
"C c #979797",
"Z c #131313",
"A c #070707",
"S c #0B0B0B",
"D c #4F3B23",
"F c #EFA373",
"G c white",
/* pixels */
"                                                                               ",
"                                                                               ",
"                                            .X                                 ",
"                                            oO                                 ",
"                                            oo                                 ",
"                                           +OO+                                ",
"                                         X@+##$+X                              ",
"                                        XX%&oo**XX                             ",
"                                       XXXX%oo@XXXX                            ",
"                                       X&&*X==X*&&X                            ",
"                                      X&.&**==**&&&X                           ",
"                                      &...&&==&&...&                           ",
"                                     X&....&..&....&X                          ",
"                                     X&....&..&....&X                          ",
"                                    X&..............&X                         ",
"                                    X&..............&X                         ",
"                                   &X&..............&X&                        ",
"                                   XX................XX                        ",
"                                  &X&................&X&                       ",
"                                  &X&.=............=.&X&                       ",
"                                 &&X&-=............=-&X&&                      ",
"                                 &X%&o=............=o&%X&                      ",
"                                &&X@&-=............=-&@X&&                     ",
"                           ;::>>&&%@&#-==........==-#&@%&&,<                   ",
"                        ;<12;,3&&.3345XX675*..*576XX5433.&&,89                 ",
"                     ;<001q:9ww&..eOrrOOe3e*oo*e3eOOrrOe..&w>>w                ",
"                  :q100128t9w3,&.oeOOOOOOOOOOO.OOOOOOOOeo.&,w33>               ",
"                8q<<2;88t9www3&&=oOOOOOOOOOOOOoOOOOOOOOOo=&>wy33               ",
"              98q;;88q2<q8>w3,&3OOOOOOOOOOOOOOOOOOOOOOOOOO3>,,y9:u             ",
"             ,u:88q2ipaa1q9,3,&eOOOOOOOOOOOOOOOOOOOOOOOOOOe&,wO,t8             ",
"             ,>utq<s0dfaiq9e,,&,,oOOOOOOOOOOOOOOOOOOOOOOo,,&,we3>t>            ",
"            w,,>8;2i0ada1;,e,oogh76+*=OOOOOOOOOOOOOO=*+67hgo,w3y,>>            ",
"            w3,9:;21s0a0<8e3w3o,jkl%.oOOOOOOOOOOOOOOo.%lkj,o3,3e3,>>           ",
"            33,u:;21ss0029e33=&o#oOOOOOOOOOOOOOOOOOOOOOOo#o&=33e3w,>           ",
"            33>t;q2<is00qee3=&X&oOOOOOOOOOOOOOOOOOOOOOOOOo&X&=wee3w,           ",
"           >33>t;q2<1s0s9eO=&X&.ooOOOOOOOOOOOOOOOOOOOOOOoo.&X&=OeOOw           ",
"           >339t;q2<1sp2eO=&X&.=oorrrrrrrreOOOOerrrrrrreoo=.X@&eOOO3           ",
"           w33ut;q2<1s09eO&g&&.=3#eeerrrrrOOOOOOrrrrreeeoo3=X@XoOeO3z          ",
"           33wtt;q2<1s2eOO&&g5lllxxxllllxc54XX45cxllllxxxlll5+%&3Oettz         ",
"          >w,>88:q2<129ee3o4jvh7bnnnbbbnm7hM$$Mh7mnbbbnnnbbhvj4o3wet;t=        ",
"          >,>t;q2<1<2:e33we&+5cx6M7NB6lVX.oo===o.XVl6NvvC6xxBl&ew,ewt;93       ",
"          >,t;q2<ii2:9e3,wOOOOOOe&gg&.oOOOOOOOOOOOOo.&gg&oOOOOOO3,3e>8tz       ",
"          ,>u88;q2q:8eew,wOOOOOOeo...oOOOOOOOOOOOOOOoo..oeOOOOOO3,3ew>u>>      ",
"          9>>9t8;;:t9e3w33eOOOOOOOOOOOOOOOOerreOOOOOOOOOOOOOOOOe3333e,>u>      ",
"          t88:;q;88tey333ZyyyyZZZZZZZZZZZZZZZZZZZZZZZZZZZZZyoyOyZ33Zywww>>     ",
"         u8;q22q;tu>o333Z==ZZZZZZZZZZZZZZZZyZZ#ZZOZZZZZZZZZZZZyo=yZeZo333,     ",
"        u8;2<i1q:u9wr33y=ZZZZZZZZZZZZZZZZyyZZyZyyZZZZZZZZZZZZZZZyoyZOr#333     ",
"        u9u8:88tu9>yOA#=ZZZZZZZZZZZZZZZZZZyZZyZyZZZZZZZZZZZZZZZZZZoyZOyr33     ",
"        u8::8tu9,wwyre##ZZZZZZZZZZZZZZZZZyyZZyZyyZZZZZZZZZZZZZZZZZ#oyZre3      ",
"       u8;q2;:8u>,wZrZZZZZZZZZZZZZZZZZZZZyyZyyZyyZZZZZZZZZZZZZZZZZZZoyZr3      ",
"      u8:8ttt99>>,wSZZZZZZZZZrZZZZZZyZZZZyyeyyeyyZZZZyZZZZZZrZZZZZZZZySr3      ",
"     u8tu9>>>>>,wweASZZZZZZZZZZZZZZZZZZZZyZZyyZZyZZZZZZZZZZZZZZZZZZZZSAy       ",
"     uu9uttu9>>>,weASZZZZZZZZZZZZZZZZZZZZyZZyoZZyZZZZZZZZZZZZZZZZZZZZSAe       ",
"     uu;2<2;8t99DzAOrZZZZZZZZZZZZZZZZZZZZyyryoryyZZZZZZZZZZZZZZZZZZZZrOA       ",
"    u82<2;8ttu9>>wOOZZZZZZZZZZZZZZZZZZZZZyZZyoZZyZZZZZZZZZZZZZZZZZZZZZOO       ",
"   u82q;8t9>,w,,woOAZZZZZZZZZZZZZZZZZZZZZyyZyoZyyZZZZZZZZZZZZZZZZZZZZZAOo      ",
"   u;q8tu9>>9uuuu#OAZZZZZZZZZZZZZZZZZZZZyyZZyoZZyyZZZZZZZZZZZZZZZZZZZZAO#      ",
"   u;8u>,9:::;:8trOSZZZZyZZZZZZZZZZZZZZZyyZyyoyZyyZZZZZZZZZZZZZZZyZZZZSOr      ",
"   88u,9:qq<11i2tSOSyZZZZZZZZZZZZZZZZZyyyyZZyoZZyyyyZZZZZZZZZZZZZZZZZZSOS9     ",
"   tu,8<ip0aapsi&OOrZZZZZZZZZZZZZZyZZZyZZyyZyoZyyZZyZZZyZZZZZZZZZZZZZZrOO&u9   ",
"   t,t<s0fdafaps&OOZyZZZZZZZZZZZZZZZZyZZyyZyooyZyyZZyZZZZZZZZZZZZZZZZ#ZOO&:t9  ",
"   ,t<0FF0aaffapoOOyZZZZZZZZZZZZZZZZyyZZZZZy==yZZZZZyyZZZZZZZZZZZZZZZZ#OOoq:t99"
};
