/* XPM */
static char *gun2[] = {
/* columns rows colors chars-per-pixel */
"122 122 75 1 ",
"  c magenta",
". c black",
"X c #232323",
"o c #2F2F2F",
"O c gray28",
"+ c gray31",
"@ c #373737",
"# c #1F170B",
"$ c #434343",
"% c gray23",
"& c #0B1707",
"* c gray42",
"= c #979797",
"- c gray50",
"; c gray39",
": c #170F07",
"> c #1B1B1B",
", c gray34",
"< c #272727",
"1 c #5B5B5B",
"2 c #6F6F6F",
"3 c #2B230F",
"4 c #3F2F17",
"5 c #131313",
"6 c #A7A7A7",
"7 c #9F9F9F",
"8 c #939393",
"9 c #777777",
"0 c #838383",
"q c #6B4727",
"w c #CB7F4F",
"e c #5F4323",
"r c #9B633B",
"t c #8F5F37",
"y c #332B13",
"u c #533F1F",
"i c #4B371B",
"p c #875733",
"a c #BF7B4B",
"s c #774F2B",
"d c #7F532F",
"f c #43331B",
"g c #A36B3F",
"h c gray78",
"j c #AB6F43",
"k c #B37347",
"l c #CF8353",
"z c LightGray",
"x c #8B8B8B",
"c c gray70",
"v c #F7AB7B",
"b c #E7E7E7",
"n c gray75",
"m c #CBCBCB",
"M c gray86",
"N c #EFEFEF",
"B c #FFE3D3",
"V c gray67",
"C c #DFDFDF",
"Z c #FFD3BB",
"A c #B7B7B7",
"S c #430000",
"D c #4F3B23",
"F c #E79B6B",
"G c #DF9363",
"H c #D78B5B",
"J c #EFA373",
"K c #FFBB93",
"L c #FFB383",
"P c #7B634F",
"I c #67533F",
"U c #FFBF9B",
"Y c #533F2F",
"T c #775F3F",
"R c white",
/* pixels */
"                                                                                                                          ",
"                                                        .X  ooooO                                                         ",
"                                                        ..+@XXXooo+                                                       ",
"                                                        ..#$@+Oo%%%+                                                      ",
"                                                       #X..&$*==-O%+;                                                     ",
"                                                       #oX..X:#.>@%+,                                                     ",
"                                                       ::XX&@<<@O1$$,2                                                    ",
"                                                      :.XO3.4XX@%O;,$,                                                    ",
"                                                      #<$@&.&....o,;,$                                                    ",
"                                                      #oo...#####&&%;,%                                                   ",
"                                                      #o:.<<#>>X<@<3.,@                                                   ",
"                                                      ##.o%X#>>X<o%%3.$                                                   ",
"                                                      #.o$%>#>>X<o$O%X<                                                   ",
"                                                      #.@%@>#>>X<o%$+O<                                                   ",
"                                                      #:@@o>5>>X<o$@$;X                                                   ",
"                                                      ##@o<>5>>X<o$@%1o.                                                  ",
"                                                       #o<X>5>>X<o$@@+O.                                                  ",
"                                                       #<<X##>>X<o$$o+1.                                                  ",
"                                                       #X<X###>XXo%+oO*.                                                  ",
"                                                       #><X###>XX<o+X$;.                                                  ",
"                                                       #><X###>XX<oOX%1:                                                  ",
"                                                       :><X###>XX<o$4@,o#                                                 ",
"                                                       :><X####XX<o+oo,O.                                                 ",
"                                                       :><X####XX<o+$<++.                                                 ",
"                                                       :><X####XX<o+OXO,&                                                 ",
"                                                       .><X####>XXo$,X$;.                                                 ",
"                                                       .&XX####>XXo$,<%2.<                                                ",
"                                                       .:XX>:#5>XX<$+oo2o.@Oo                                             ",
"                                                       .#XX>:#5>XX<%+@X-O.@6oX                                            ",
"                                                       ##<X>##5>XX<@O%X;+..$oXX                                           ",
"                                                       ##X<>###>XX<@$$XO1.$7O.XX                                          ",
"                                                       ##X<>####>X<o$+Xo*.o82%.X                                          ",
"                                                       ##><>####>XX<@+X<9.o2*O%.                                          ",
"                                                       ##><>####>XXX@OX<0:o+O+*%X                                         ",
"                                                       #:><>####>XX>@$4X0X4qqqw%X                                         ",
"                                                       #:><>#####XX#@+oX0@4eeerty                                         ",
"                                                       #:><>#####XX#@1$:0@4uuipwue                                        ",
"                                                       #:><>#####>X#o;1.-O4uu4qapu                                        ",
"                                                       #.&<>#####>X#o;2&-,4ue4srtu    usttdqe                             ",
"                                                       #.&X>#####>X#o**<-;yuefepteq pyeeuiieii                            ",
"                                                       #.&>>#####>>#<*0#*;yieu4srqs 4yiiieeeii4                           ",
"                                                       #..>>#:###>##<*-:O034eu4qgpie:ugrttpse333                          ",
"                                                       #..:>#:#####:<*-X@h3yee4ejti3ejddptklpiy3:                         ",
"                                                       #.&:>#:#####:X1-OXz43uefigru3seeqsqqeqsedei                        ",
"                                                       #.::>:::####:X,x@#zO3uei4rge4uuuuueeeueupkrp                       ",
"                                                       #.&:>::#:###:X+8@&c*3ueu4tjqfff444iueeee4esgs                      ",
"                                                       #.&:>:&::###:XO=*&083ieu4pgpi333:ussgjavvjuegt                     ",
"                                                       #.::>:.:#:##:>$66.-h3fee4srpu3:&usqsqqdppdeiuqd                    ",
"                                                       y.::::.:::##:>,c6.*b34ue4qtre4&3qeeeeeeseiieu4uq                   ",
"                                                       f.#:#:&:::5::>,nh.Ocf4uefepgqf.uiiiuuiuuuifiqu&3ud                 ",
"                                                       4.::::.:::5#:>,mzX36*3ueifsjpi&if4444444443fup3&3i                 ",
"                                                       3.::::.&:#>#:>OMN<.663ieu4qgtu333:pjjjpu4334fie:&&d                ",
"                                                       &.::::.&:#X::>@bN@.=N3fue4erre4:&pddddjjp:334fui&&3                ",
"                                                       &.::::&:::X#:5XNN$.xN$4ue4ftgqf&dqsssspdss::34fte&&e               ",
"                                                       &.::::::::X#:5XNN,.2N*4ueffpjpi&ueqsssqeued3:34st3&:q              ",
"                                                       &.::::::::X#:.XhN-.,N63iei4sktu3yuueeeiu44ud3&3iiu3&4s             ",
"                                                      d&.&:::::::X#:.XcN6<Ozz3feu4qare43yf44444y44qdq&33ui3&3d            ",
"                                            ddddsdsssss3.::::::&:X#:..6Nn<%6N34eu4eggqf3Xyy4y333y444sj4&:upp33d           ",
"                                       dddddsqueuuueqsq3.&&:#::::X#:..-Nh@o8N34ue4itgpi3#.###::33y44utdq&:itru:t          ",
"                                    ssssdssqqdesdiessqe3&.::#:&::X#:..2Nb$<0N*3ueffpjtu43.##::::33y444idq&&ystq4          ",
"                                 qsssdssdsssssdespuueiu3&.::3:.::X#:..;NN+.2N73iei4qkreff3.&::&::33y4444tq:&issss         ",
"                               dpttttttpdddddsseisttufi3&::&3:.::X#:..,NN1.1N63feu4eggqii4.&::::3yyff444etki&4i4es        ",
"                             qddddtrjggjtpddddsquisrru43:::&XX.::>#:..ONN*<$BB34eu4frjpquf3.&:&&::::#333iepddei33es       ",
"                            ieqqsssdptrgjjtpdddqeuiudgp3#&::X:.::>#:..%NN-@$cN34eu44tkrqei43.&&&&&&::#3334iisgas:3es      ",
"                           fiueeqsssdppppddssssqeeuiuep3#.::#:.::5#:#.ozN8$@-N@3ee44pagqqei43.&&&&&:&:#333344sddq33us     ",
"                          4fiueqsssssssssssssqqeeeeuiuu3#.:.o@.&:5##:.XmN7+$,N23ee44sgjssdei43.&&&&&&&:#333334eustdes     ",
"                          4fiuqdptttpdssssqqqeeeeeeuiff3#.:.O,..::#X#..hNV1+$N73ue44qrkpptdei43.&&&&:::::##3334fuqjjks    ",
"                         44fiesdttrrttpddssqqqeeeeeeuif3X&:.O$.&3:#X:..6Nc*1+NN:uu44utapptrdef4..&&&&&&&:&3y44iiuuqepti   ",
"                         44fiesdtrjjgrptddsssqqeeqqqeuu33.&&3&.3<:#<#..0Nn-*1cN&44444ieestrjdef3...&&&&&&:::::#33fiiusss  ",
"                         44fiuqsdprgjjgtpdssssqqeeqddqe33.:::&.o4:3XX..9Nm8-*hB&&&:&&34iustagsi4..&&&&&&&&&&:&:#34ffisq4q ",
"                         44fiueqqsdptrjjtpdssssqeeeqddq33.:::.&ooX:3<&.*NCV8-VZ&&&&&&&&&3istkgsi3..&&&&&&&:&&&:&#34fuqu43 ",
"                        34ffiueeqqqsdptrrrtdsssqeeeeqdd33.::::&#XX:X+:.1nCzA8*-..&&&&&..&&iswkte4.....&&&&&&::&&:4fiuui43 ",
"                        34ffiuueeeqqssdpppppdssqqeuueqq3X.:&X:.:#:.cNO...;88;4@..&&&.&..&..islrdu3...&&&&&&::&&&:344fii43 ",
"                        34ffiuuuuueeqqqsssssssssqeeuueq3#.&:X:.::..o*&##O03&O*$...:&.&&.&&&&4sjref....&&&&&&&&:::&34i443i ",
"                        34fffiiiiiuueeqqqqqqqqsssqeuuee3#&&&3:&::#<#XXX.0NN@&z8..&:&&&&&&&&&#4sgpi3....&&&&&:&&::3444433  ",
"                        34fiiiiiiiiiuueeeeqqqqqqsqqeuii3&&::XX.:.ON<.:..#6N,.O*o&#3&:&.&....&3fske4.&...&&&&&::&3::::333  ",
"                        4fieqdpppdquiiuueeeeqqqqqqqeuii3.&::X4.:.oN#.:&.&&&&&&<Vn=3,N#.&&..&.&3frpi...&&&&&&&&&&&:&::33<  ",
"                        ieqqeifiuepdquuiuuuuuueeqqquuii3.&::X3.&.:,:.::X@X:##.&6Nm=#N+.:&&.&&&34ske3.&&.&&&&&&&&&::&333   ",
"                        eqeiyy333yitdquuiiiiiuuueeuuiii#.:.#6$.::&o<.<@X:::::..+6Nm.h8...&&.&&&&ftq4..&&&&&&&&::::33333   ",
"                       eifuqqeuiyyfqtsquuiiiiiuuuuiiii4&&:.&c,.&..h,ON,.#:::#:..+bNi-M..&&&&&...3ie43.&&&:::::333333333   ",
"                       4uqsi44fueqqddsqueuiiiiiiiiiiiiy.&:&.X3.:&.z8dN-&3#:::X:.$cN-$No.&&&..&&.&3f33.&&&&::333344ff43X   ",
"                       uqs44f44yy4fuqqqqeeuiiiiiuiiii43.&:..,@.O#.c8SN-&:::::X#..0Nn&23&&&&...&&.&343.&&&&:::&3334if43    ",
"                        uf4eeqqefyy4fuuqqeeuiiiuuiiiuy..:#..-#@N;.76&N8&&3::#3:.&$NN@.:&&......&.&&4i3.33&:::&:3:34433    ",
"                         4esdtpdsufy334iiqqeeiiuuuuui3.&::.#h#@N*&0h&N6&&#::##:...zN,.&::&....&&...333.:33&&&:343334.f    ",
"                        esdtppdpppsufyy34fiqqeuuuuuu4..:::.Xb&oN*.-z.bz.&::::#::..ANx..::&&...&.&..:33.::343&&:34f33.     ",
"                       estpdseeesssdde4ff44iiqqeuuuuy..:::.$N.<N0&;M.nN..#:::::#&&7Nh..:&&:&...&....33&&:3343&&:343.&     ",
"                      4sdsqiueeqqqqqqssqei4ffiqqeuuu3.::::.$z.@N0.$N.8N..#::::#&<O-NN&&:::::&..&&&&.&3&&&:3:43&&:43.O     ",
"                      eeefffiueqdssssqeeeeei4ffqqeuu:.::::.Oh.oN8.XN<*N<#O::#3:&3316-&&.::&&&&..&&.&.::&&::::::::43.      ",
"                       udrrtttttddssssqeeiieeqffqqeu..::::.O6.@N8.#N<*NO*b..:3.oN<&&@1O&&&&&::&&.....&:&::33::::&3.&      ",
"                      iiiieedpttpddssssqqeeiiueqeeei..::::.*6.,N8..z$<N*,N&.:3.&N+.&.@*O.&:::::......::::::33:::#3.@      ",
"                      i33444esddptdddssssqeuiiiiiiff..::::.02.=N-..n6.z*@N3.:#..b0....@*$.&:::::....:3:::::#33:&3&.       ",
"                      ii3333fueqdddptddsssssquiifffy..:::&.0O.hN2..6N.8x4No.::&.cc.....,1$3&..$@....333333#:#43:3.&       ",
"                      uueuif444fueqddptdddsssqeuiiff..:::&.-@.bb,..0N&06:N$.:::.6b..::.@2;1@.y6$X..343344fX##f4:&.        ",
"                    esqqddsssui444fieqppppdsssqquiif..:::.&;#.bh+..uN#,n.h;.&:#.2NX.&&.4*2;1Ooc+@.&f43334f433f43..        ",
"                  sdttpssssssqspqqeeiiiffiudddsseiif..:::.&-3.z8o..<N<@m.nx..#3.ONu..4.#,2*;;+=1@##f44333fiiif43.<        ",
"                  tteeqppppqi43334feqsseufffiuqqquii..:::.:*:1b-X..:cooh.6c..:#.<N*..,X.@**;;;-*@&:@f43334ffff3:.         ",
"                 psdpsquDeqppsif433334feqquffffiueii..:::.:O.=N,&&.&x@Xc.*6..::&&N0&&...:1*;;;-9@X.;$:3333f4443.          ",
"                 pqeeiy3yyieqsqqei433334feqquf44fiei..:::.:@,==u.&.&0@:n:$V&.&::.h8::.&..O-;,,*-<4.;x:&3334333:&          ",
"                 seiy4DDDDy334upppse433334feqeuf444i..:::4&&cV+3&&.&0@.8#X6#.::::*-X3..&.X-*,+*-&@&4x,.:333333.           ",
"                 qiiidttttseiui4yuppsei43334feeu4444..:::0X.88..&&.&0u.-<:-X.&:::<O4$..&.&**;+;-O<3.2=u.:3:::3            ",
"                 eiigtjFvGGHGgssuiyuppsei43334fueu43..:::2:.hV..&&..*,.O<.-o.&:::#XX,3...&,*;+,*;o$.@=03.3::              ",
"                 iitggGFFHFJFFFHrduiy4upsui4334feeu4..:::,.#N0.43&:.X*@&&.+@.&::::XX+X...3+*;,,*0&@&:08-&&                ",
"                 iigwwGGHFFFFFFvJHgsuiy4usei4334feei..:.:;..X&..:#&&XX&::.oo..:::::3Oo.:.3@,;,,*-&<#&,x8                  ",
"                iitGllGFHFFvFFFKJFvGdeuiy4eei4334feu...&:<........::&XX:..Xo.&::::::@@&:.3@O;,,;0::3.4xx-                 ",
"                itwGFFGHJFFvGGJvFvLLvFgeiyyeei4334fu..............::..@$..4-#.::::::29,3.:4O*,,,0@.$3&-xx2                ",
"               idkJFGGGHJJJGGGFvJLLLLLvFge43uei4334f..&&...........&&..XX.4h@.::::.#=Nc=,.X$*;,,-*&<3.,0xx2               ",
"              iqklLFGGHFFFJGFFvvvvvvLLLvFFg3#iii433f................&...7,..&&&::&..O9==,.:@;*+,;-#:4&u----$              ",
"             iikwFLFGGHFFJJGvvvvvvvvLLLvvJFg3#344334................&&..ooX.&&&:::&.&oOO%3:<+*++,-4.oX:*-9-,              ",
"            iiPklJJlHHHFFvGFvvvvvvvvvvLLvvJFg3#34433.....................XXX&:::::::##:oO,,oo,,++-,&<3.,-2-2+             ",
"           4IIpkGFlGHHJFJGFvLLvvvvvvvvLLKvLJGg#34433......................XXX:::::::::.:oO;Of,,,+**##f.o0*9-,$            ",
"           iddrwGFlHLLFJGFvvvvvvvvJvLLLLUvLJFGg.3333......................XX@X#3&::::::&#@,;OO,,+;-f&O.&0*2-2$            ",
"          iIttjwGlFHJJJGFJJvvvvvvvvvvvLLKvvLJFlg.333.......................X*@,h@..::::3:<,,+O+,+,*+#4&.*-*9-+$           ",
"         4iprrawGlJGFFJHFFFJJJJvvJvLvvvLLLvLLFFHg.33.....................::.Xo@@o&.:::::&#O,+OO+++**333.u-;2-,$           ",
"        444skkaGlGHGvvGJFFJFFFJvvJvLLLvvLvvLLJFGkd.3.....................&3&&3oo<:.:::::&&$+OOO+++**@3$&<0;;92+           ",
"        4YitwwkFGFGGJJGvFJFJJJvvvJvvLLLvLLJvvvJGkjq.......................:&&3<o<:.::::::.@,OOOO+,,*,34::-*;*2,$          ",
"       44TtjjjaFGGJFGGJJFFFJJJLvvvvvLLLvLLJvvLvGkjaq:.....................::.:3X<:&&:::::.<,+OOOOO,-,&XX.,-;***$          ",
"      44qrjlllkGFJvFGGJFJFJJvvvvJvJJLLLvLLJvvLvGkjka:&....................::.::XX:.&:::3:.#O+OOO$O+-*:.#&u-*;*2$          ",
"      #ItdjwllGlFJJGGGFFFJJvvvvJvvvJvvLvvKJvvLvGkjjk>......................&.&::X:.&&::::.&@OOOOOO,,0,..#@**;;2+$         ",
"     :YktjawwwFlGJFFFFJHFJvvvvvvLLvJvvvvvLJvvLvGkjgj&..........................:X:&&:::::&&<O+OOOOOO*8@..<,-;;*1$         ",
"    yypkrjwGaaFFFFJFJJHFFJvJvvvvvLvvLLvvvLvJJLvGkjrg.......................................X$OOOOOOO+*-4.&,-*;;1$         ",
"   3DDqrrjGlGGwLGGvJvvGGvvvvvvvJLLLLLLvvvLvJJvvGkjtr4......................................3@OOOOOOOO+*9:.$**;;;$O        ",
"  #DqqpprjwwGGGvGJvFFFFFJvvJvvvvJLLKLLLvJvLJJvvGkjptu4......................................@,OOOO+OO+,;,.@*0;1;1$        "
};
