/* XPM */
static char *gun3[] = {
/* columns rows colors chars-per-pixel */
"90 152 78 1 ",
"  c magenta",
". c #272727",
"X c #373737",
"o c #232323",
"O c #0B1707",
"+ c black",
"@ c #434343",
"# c #170F07",
"$ c gray23",
"% c #1B1B1B",
"& c gray28",
"* c #2F2F2F",
"= c #838383",
"- c gray39",
"; c gray31",
": c #2B230F",
"> c #1F170B",
", c #939393",
"< c #6F6F6F",
"1 c gray34",
"2 c #5B5B5B",
"3 c #131313",
"4 c gray42",
"5 c #777777",
"6 c #8B8B8B",
"7 c gray50",
"8 c #3F2F17",
"9 c #533F1F",
"0 c #4B371B",
"q c #43331B",
"w c #774F2B",
"e c #332B13",
"r c #D78B5B",
"t c #7F532F",
"y c #DF9363",
"u c #FFB383",
"i c #BF7B4B",
"p c #6B4727",
"a c #875733",
"s c #5F4323",
"d c #8F5F37",
"f c #A36B3F",
"g c #EFA373",
"h c #B37347",
"j c #4F3B23",
"k c #CB7F4F",
"l c #CF8353",
"z c #9B633B",
"x c #AB6F43",
"c c #E79B6B",
"v c #13230B",
"b c #F7AB7B",
"n c #675333",
"m c #9F8363",
"M c #A78F77",
"N c #FFCFB3",
"B c #BFA78F",
"V c #8F7753",
"C c #FFBF9B",
"Z c #A7A7A7",
"A c #9F876F",
"S c #FFC7A7",
"D c #EFEFEF",
"F c #979797",
"G c #836B4B",
"H c #775F3F",
"J c #FFBB93",
"K c #9F9F9F",
"L c gray75",
"P c LightGray",
"I c #0B0B0B",
"U c gray70",
"Y c #E7E7E7",
"T c #53573B",
"R c #B79F87",
"E c gray67",
"W c #4B4B4B",
"Q c white",
/* pixels */
"                                                                                          ",
"                  .XoO++oX                                                                ",
"                @##########$                                                              ",
"               .%#####o.X&*o$                                                             ",
"              .o%#######o.X=@&                                                            ",
"              o%##########.&=-                                                            ",
"             .%%ooo%#######o.;@                                                           ",
"             o:o%O#&==$OO+O#o*$                                                           ",
"         ....#.##########.*....                                                           ",
"         %####X.#########>o@X**                                                           ",
"         %%###X.#########>o,&$$o                                                          ",
"           %#>.%ooo%%%###>:<&1@.                                                          ",
"            %oo%+######++#>$221X                                                          ",
"            .%%%######OO+++.*-2Xo*o@;                                                     ",
"            .o#%##########+>o&-X+OOo.o@                                                   ",
"             o#%########>>O>%o&X+##o.oo*                                                  ",
"             o#%########>>>oo...Oooo.**o@                                                 ",
"             o#%##########:*o.O+Oooo.**X*-                                                ",
"             o#%##########:X*.++####.**XX@                                                ",
"             o#%##########>X@.+33###3%%*&X4                                               ",
"             o#%###########X&.+++###>oooo@@                                               ",
"             o#%##########oX;.++#####%oXoo@                                               ",
"             o#%##########oX;.++O####%o&X+o                                               ",
"            o#%%###########X;.+#O####%:@1o#                                               ",
"            o#%%###OO#####oX;.+#O####%o$4@o                                               ",
"            o#%%##########oX;*++O####%oX5-                                                ",
"            o#%%##########>X1X+#O####%o*6<                                                ",
"            o#%%##O##O####o$1X+#O####%o*77                                                ",
"            o#%%##########o$1X++O####%o*<7                                                ",
"            o#%##OOOOOOO##:$1X++#####%o*-5                                                ",
"            o#%###OOOO#####$1X++O####%o*&1                                                ",
"            o#%####OO#####:$1X++O####%o*@&                                                ",
"           X%%%####OO######$1X+899088%o.X&                                                ",
"           .%%%###O##O####>X1X>qq00qw8oo*X                                                ",
"           o%%%###O##O####.$1X>eeeeqwrto.*                                                ",
"           o%%%###O##O####.$1X>::::8wyui9*                                                ",
"           o%%%###OOOO####o&1X>::::8wyuurp                                                ",
"           o%%%###O##O####o&1X>:::::wyuuya>0atwwwwwtaat                                   ",
"           o#%%###########.&1X>:::::wyuuyp+89ssss90q8qpdfff                               ",
"           o#%%###########.$1X>:::::wyugy9+:800000q88:qpddffh                             ",
"           o#%%###O##O####.$1*>:::::jhkllO+:#::::::::::qpdwwfh                            ",
"           o#%%###O##O####.$1*>::::::OOO#OO>#::::::::ee:0ws00wfh                          ",
"           o#%%###O##O####.$;*>::::::>>>>OOO##::::::8q009q8::qssdd                        ",
"           o#%%###O##O####.$&*>::::::>>>>O#####:::809990::#####qsp                        ",
"           o#o%###########.$$*>::::::>#O:0pfzfffhhhhhxxzap9#####:q9                       ",
"          @%%o%###########oX$.>::::::>O#0xfzddfhxfddfxkccrx9:####O:                       ",
"          X%%o%###########>**o>::e:::>O0xzappwfxzdaadfxkccrhd8###O:                       ",
"          o%%o%###########Ovo>>::e:::#>0w0q8q09pppppppdxklckkhzq:O:                       ",
"          o%%o%###O##O####OOOO>::e:::##:088q000000009spdxxlkkklyz::                       ",
"          o%%o%###########OOOO>O:ee::###::::::::::e88qsswwwafxxlyyz                       ",
"          o%%o%###O##O####OOOO>O:e8::########::::::::::888qq0wwdhlyi                      ",
"          o#%o%##O####O###OOOO>O:e8::>OO####:espwtfhxzt:O:::800wdhiryi                    ",
"          o#%o%###O##O####>>OO>O:88::>OOOO#estafxhhryrli:O##:888swdhiryi                  ",
"          o#%o%##O####O###ooOO>O:88::>OO+Oe9awptxhdirklihpO##::::88sdhiryi                ",
"          o#%o%##OO##OO###>oOO#O:88:::>O+O0aw99www9pazxllgf0##:::::80wdhiryi              ",
"          o#%o%##O####O####:OO#O:88:::>O+:ew9888888q0pazlygbze###:::8swdhiiryi            ",
"          o#%%############OOO##O:88:::>OO>:::::::::::80pafygbyhd9###:88swdhiid            ",
"          o#%%%###########OOO#OO:88:::>OO>o:>>#####:::809stfhkrcrxdp0eee00wdds0           ",
"         X%%o%#########O###OO##O:88:::>OO#>>>>######:::8qqqswtziiillhhfdws00009s          ",
"         *%%o%%#OO####OO###OO##O::8:::>#OOOO809paffft0::8888qswadzfxlllllycyridw          ",
"         o%%o%##3O####O####+O##O>::>>>>O#+O9ptaaaxllihxa0#e888q09stdxhllhxhkyyyri         ",
"         o%%o%###O33333####+O##OO######OO+Ops99paxihhikkxa0::::qq80ptazfdtwdfkylkyc       ",
"         o%%o%%##O####O####OO##OO######OO+O900000pazfhiirrkxa0::::800swddts09wfxhkyrk     ",
"         o%%o%%############+O##O>:::::>OOOOe88888880pazfhiirrkxt0::::0swwws009swdxkyrk    ",
"         o%%o%##OO####OO###+O#>#::888::>OOOO:::::::8q09pazfhiirrkx9:::8000008809spwtdd0   ",
"         o#%o%##OO####OO###O+##O8:888::>>O##########:::q09pazfhhrrkxt0::::::8888q000q::   ",
"         o#%o%#O#O####O#O##OO##O8:888::>#O###########:8qq000swwzhiikrrixap099e:::::::#O   ",
"         o#%o%%#OO####OO###OO##O::888::>OOOO####O#::::8qqq000ssswadzxfxhlycclfdwse:::OO   ",
"         o#%o%###O####O####OO#>O#::::######O+OOOOOOOOOO:88q00000paddadzzzzhlycccblxseOO   ",
"         o#%o%##OO####OO###++#>O##::::###O##OOOOOOO#OOOOOO::888q0ptaddatwwddhhlycccgl9O   ",
"         o#%o%%#OO####OO###O+#>#O::8:::#######OOOOOOOOOOOOOOOO:8809ptttwpppwddxhhlygglp   ",
"         o#%o%#OOOO##OOOO##OOO>OO:888:::>>#O#OO++OOOOO#OOOOOOOOOOOO:::80099sswddddzxlld   ",
"         o#%o%#OOO####OOO###OO>OO:8q8::::>>##O#++++OOOOOOOOOOO>>>>>>>>:809900spwttttwwsq  ",
"        X%%o%%#+O######O#O##OO>OO:8q8::qe:#>>###O+++++OOOOOOOO##OO##O::809qq099spwtpss0q  ",
"        X%%o%3#+########O#OOO#>OO:8q8:OnhpOO>>>##O++++++OOOOO#OO##OOO:89988800009spp9q:>  ",
"        *%%o%%#+#O####O##O>>O#>OO:8q8:Omcm9::>>>###++++++OOOOOOOOOOOOOOOO::888888ss9q8:+  ",
"        o%%o%3#+##########.*o##OO:8q8:+MNBVp0:>>>>##O++++++++OOOOOOOOOOOO:::::::899q:8:+  ",
"        o%%o%3#+O##OO##OO+&-XO#OO:8q8:+MNCyfd0e>>>>##O++++++++++OOOOOOOO>>>>O>>:88:o>q:+  ",
"        o#%o%%#+OO####OO+O<Z2+OOO88q8:+ANScxld0>#>>>>#O+++++++++++O+OOOOOOOOO>>::oo>Oq:O  ",
"        o#%o%3#+#O####O#+O6D=+OOO88q8:+mNScxygaq>>###O#OO+++++++++O+OOOOOOOOO>>>>>OOq8:O  ",
"        o#%o%%#+########++ZDF++OO8qq8:+mNScxcgxp8:>>>#OO##++++++++++++OOOOOOOOOO##::q::O  ",
"        o#%o%%#+O#O##O#O++ZDZ$+OO8q0q:OVNScxcgidse::>>####O+++++++++++++OOOOOOOO:::8q:o#  ",
"        o#%o%3#+##O##O##++,DD1+OOq00q:+GNScxcgizdpe::>####O++++++++++++++++O+OOO##>8q:>#  ",
"        o#%o%3#+O######O++=DD4+OOq09q:+HuCcxcgizdws8::>####+++++++++++++O+OOOO#:::88q:>#  ",
"        o#%o%%#+O##OO##O++=DD4+OO009q:OncJcxcgizdawps8:>###O++++++++++++::OOOO:88009q:+.  ",
"        o#%o%3#+########++=DD4+OO0990:Opibcxcgizdaawts8::>>O+++++++++++O8:OOOO#>::qqq:+.  ",
"       o%%%o%3#+########++7DD4.OO0999::pdgyiygizddaatw98e:>#+++++++++++::OOOOO####:8q:+X  ",
"       o%%%o%%#+########++7DD4.OO9stpss9philrgizddaatwp9qe:#++++++++++:+OOOO#>:::q00q:+X  ",
"       o%%%o%%#+########++=DD4.OO0q:OO>>+O9zirizdaaatwpsqqe>+++O++++OOOOOO::888q9ss9::+&  ",
"       o%%%o%##+########++=DD4XOO:O++++OO++8arhzdaaatwpsqq88O++++OO#>>>>>#OO#>:::89s:o+   ",
"       o%%%o%##+###OO###++=DD5&OO+O++OO::O++>9Hddaaatwpsqq0q>+++OOO#>::::>>#O#>>::89:>+   ",
"       o%%oo%%#+##O##O##++=DD5;OO++++++++OOO++8pdaaatwpsqq09:++OOOO#>:888:::>>##O>:8:>+   ",
"       o%%.o%%#+#OO##OO#+O=DD51OOO++++++++OO:O+e9paatwpsqq09:++OOO#>:888888::::>>O>::>#   ",
"       o%%oo%%#+O######O+#=DD5-OOO++++++++++O:O+Oepptwpsqq09e+++OOO#::::::88888::>O>:##   ",
"       o%%.%%##++######+++=DD7-OOO+++++++++++O::O+Oqswpsqq09eO++OOOOOOOOOO::8qq8::>OO##   ",
"       o%%o%%%#++######+++=DD7-OO++O+O++++++++OO:O++:9psqq09eO++OOOOOO#OOOOO:8qq88::#++   ",
"       o%%.o%%#+########++=DD7-O++++++++++++++++OOO++:0sqq098>+OOOOOOOOO:::OO800q888:++   ",
"       o%%.%%##+########++7DD7-OO+++++++++++++++++OOO+Oeqq09q>++OOOOO:::8888:O89ss90q+O   ",
"      o%#%.o%%++########++7DD=-OO+++++++++++++++++++OO+O:q09s:++OOO::88888qqq8::99ss0+:   ",
"      o##%o%%%++>######>++7DD=-OO++++++++++++++++++++OO++>e9seO+OOOOO:::::o8qq88:099q+X   ",
"      o##%.o%%+#>##OO##>#+5DD=-O+..O%+++++++++++++++++OO++O:0:O+OOOOOOO::8:::>q08:008+    ",
"      o##%o%%%+##O++++O##+4DD6-O.4K1.%O#OO++++++++++++++O++O::OOOOOOO::8qq888:>89088:O    ",
"      o##%.o%#+>#++++++#>+4DD6-Oo;DZ*.%OOOOO++++++++++++++++O#OOOOO::8qqqqqqq8:#890:+.    ",
"      o##%o%%#+##OOOOOO##+-DD6-O+%&&$*.%OOOOO++++++++++++++++O::::88qqqq0000q8::#89:+     ",
"      o##%oo%%+##########+@LD,-O+Oo$$X*.%OO#OO+++++++++++++++O:888qqqq000990qq8:##08.     ",
"      o##%o%%#+##########+OKP,-O+O#***.:o%OO##O++++++++++++++O:88qqq0009ss90qq8:>#88      ",
"      o##%oo%%+##########++4Z=4O%O#o**.o:o%OOO#O+++++++++++++#:8qq0009sss90qqq88:#O8      ",
"      o##%oo%%####33333##O+*2-2O%+#o**.%%::%####O++++++++++++:88q009ssps900qqq88:#O8      ",
"      o##%oo*oo%3%%3##O###O3X&&*.o#:X*oooo%o%#%##+++++++++++O:8qq09spps9000008::##O8      ",
"      o#o**Xo%%%>.#o.>+####3.X$$*o:*$.o%ooo%%o:o%+I+++++++++#88q09sppp90qq8qqq:###O8      ",
"      ooX&.%ooo%**#>oo+####3o**oo*@$*o%o%o.oo%%::%+++++++++O:8qq00999900qq88:qq##OO       ",
"     *XX.%>%o.o%**o#>.#####3%**.%o.*oo%%.%.%o%.%o:%++++++++#88qq0000000qq88::#8:#O#       ",
"     X*o%##%o.o%>oo#o;#####3%.$.%%o%.ooo%o%.#o%o%oo%3+++++O:8qqqqqqqqqqq88::##::OO        ",
"    **o%###%o*o%#>#+UD&%###3%*;$o%.%o.o%o.o%o%.%%%:%%3+++O:::888qqqqqq888::####:Oe        ",
"    *o%##OO%o*o%#++++++++###%%$&*.%o%o.%ooo%..%%%%.:%%3#####::::8888888::######:#         ",
"    $o##>#O%oX.%#++++++++##333%**%...%o%.%%%%%..ooo%:%%%#######::::::::>######O++         ",
"    *%#####%o@*%O++++++++++33%%.o.o%%o.%o..%o.o%.%%o:%%%%####################O+o+         ",
"    o####+#%o@XoO++++++IIII33%3oo..%%o%o%o.%.%.o%..%o:%oo%#################OO+oo          ",
"   *.####+#%o@$oO++++++IIII33%3%o.o%%%...%o%%.%o%%.oo.o%:.o>>############O##+:            ",
"   Xo###>+#%*-$.O++++++IIII33%3%.%o%.%o%oo.%%%...%o.o%%%%*.o:>############O+>             ",
"   $#:#####%*U&.O++++++IIII33%3%.o.%o%.%oo.%.%o%oo.%%%.o%.*o:::>########OO+>              ",
"   *#>##++#%o&**O++++++IIII33%3%*o%o%o.oo.o%o%.%oo.%.oo%o.%:::::>#O###OOO+>               ",
"   o#>#>+3%**2$X*++++++IIII33%%%*%oo.%o.o#oo%o.oo.o%o.o.o>*oo%:::>#####O+>                ",
"   ####I3*..$7$X=++++++IIII33%%.*%oo#oo#%o%o.%o.o#o..o%%%%*oooo%::>###O+O                 ",
"   ##>3*%%%.&L&*D++++++IIII33%%.*%o3%o...o%o#oo#%o%o%%.o.ooooo>o%oo>##+O                  ",
"   #3*%3%>#%2Y;*D++++++IIII33%%.*%%oo3ooo%o3%o...o%..oo%oo.oo3o..oo:>O+                   ",
"   *%3I+>##%-D&*D++++++III#o>##++#:333%oo.ooo3ooo%o#oo.%..%o%%.%oo%>:>+                   ",
"   ###++>##%-P&$D++++++III.#+++++++3333o#oooo%3oo.oo.%%+%#%o3%o%o.o%%o#>                  ",
"   ###+#>##%2LX@D++++++III*#++++++++3o33%o%o%#oo#oo%#o%OO%%o%oooooo..o%%>                 ",
"   ##++#>##%1ZX2D++++++III##O++++++++oo3%o%%3o%33o%%o.ooo%>..%%..o.oooo%%>                ",
"  $##++#>##%1ZX5D++++++III3333++++#o++3#%o%%o333oo3oOooO%%%oo%.oo%o%o.o%:%>               ",
"  *##++#>##%1<X6D++++++III3333#O++O.>+O%#%#oo%%%%%I%o%o%+%#%%.>%o.oo%ooo::%>              ",
"  o###+#o##%1;XFD++++++IIII33%%o.o%##%%%%3%%o%o%I%o%3##+o+#oo%oo3o%o%oo%%::>              ",
"  ####+#>##%5&XFY++++++IIII33%%%.o%#####3#3%%%o%o%o%o%%O+%%%#%%o..ooo%%%o%:%:             ",
"  ####+#>#O%-$XFL++++++IIII33%%%.o%OI%%%3%%I%o3#I#Io3%I%o%%%+%o.ooo%o%%ooo:%O             ",
"  ####+#>#O%5X$6,++++++IIII33%%%.o%+#I33%I%33#%%%%%%oO%%%3+3%#>%%3o%%%%ooo%%:             ",
"  ####+#o##%4$&54++++++IIII33%%%oo%+OI%%I%3%I%%%%%%o%3++o##+++#ooooo%oo%%%%o%#            ",
"  ##>#+#o>O%T&;4;++++++IIII33%%%oo%+#O%%33%3%I%%%3333oO%oo%O3+#%33%oo%oo%%oo#o            ",
"  ##+++#o##%q;<2@++++++IIII333%%oo%+OO33%33%I3%%333333%O3#%++3.%3%3%oooo%%ooo#            ",
"  ##+++#o#*%*251*++++++IIII333%%oo%++O3333I33I%II3%I%o3%:3#o3%oo3%oo%o%ooo%oooo           ",
"  ##+++#o+X%*4R1%++++++IIII333%%oo%++O33%3I3I%%%3I%%3%3+##O####>I%33o%oo%oo%oo%           ",
"  ##+++##+$#$6E1%++++++IIII333%%o.o%+O3333I33%%%%%3%3333o#++%o%33%%o%o3%ooo%%%%           ",
"  ##+++#++2+@D=W%++++++IIII333%%o.o%+O33%3I3%I3%%%%3333+#3O++O3%3o3o%o3oo%o%o%o           ",
" ####++#++-+@E=W%++++++IIII333%%o.o%OO3%33333%%%3%%3333+#o3+++33%33%o%%3o%o3o%o:          ",
" #####+#+#E+$E7W%++++++IIII333%%o.o%##3%33333I%%%33%333+#I++I333I%%3%3%o%o33oooO          ",
" #####O###E+$E7W%++++++IIII333%%o.o%O#333%%33%%%%%33333+OIO+3%+3>3%%I%3%o%3oo%%#          ",
" #######O+@+$7=W%++++++IIII333%%o.o%O#33333%3%%%%%%33%3O+33O3O%3o333%%oo%3%3o3%#          ",
" ###++++++@+$77W%++++++IIII333%%%..%##3333333%%3%33%333%33333+333333%3%3%%%3%o3#          ",
" ###++++++X+$75W%++++++IIII333%%%..%O#%%3%333%%%%%333%33+33++33%%II33%3%I33%%%o#o         ",
" ###++++++X+*-4W%++++++IIII333%%%..%##3333333%o%%%333%%3%333333%I3%%I%%3%%o3o3%#O         ",
" ###++++++X+.1-@%++++++IIII333%%%o.%##3333333%%%%3%%%33333%%%3333333%3%333%######         ",
" ###++++++X+.12$%++++++IIII333%%%o.%O#33%3333%%%%%3%333333333%3333333333%33######         "
};
