/* XPM */
static char *gun4[] = {
/* columns rows colors chars-per-pixel */
"115 133 68 1 ",
"  c magenta",
". c #272727",
"X c black",
"o c #232323",
"O c #373737",
"+ c #0B1707",
"@ c #170F07",
"# c #1F170B",
"$ c #3F2F17",
"% c #2B230F",
"& c #2F2F2F",
"* c gray23",
"= c gray42",
"- c #939393",
"; c gray34",
": c gray31",
"> c gray28",
", c gray39",
"< c #6F6F6F",
"1 c #5B5B5B",
"2 c #9F9F9F",
"3 c #434343",
"4 c #EFEFEF",
"5 c #1B1B1B",
"6 c #131313",
"7 c gray50",
"8 c #5F4323",
"9 c #838383",
"0 c #533F1F",
"q c #774F2B",
"w c #8F5F37",
"e c #F7AB7B",
"r c #DF9363",
"t c #9B633B",
"y c #332B13",
"u c #EFA373",
"i c #FFD3BB",
"p c #FFB383",
"a c #D78B5B",
"s c #7F532F",
"d c #CF8353",
"f c #FFBB93",
"g c #A36B3F",
"h c #BF7B4B",
"j c #AB6F43",
"k c #4B371B",
"l c #875733",
"z c #B37347",
"x c #43331B",
"c c #CB7F4F",
"v c #E79B6B",
"b c #6B4727",
"n c #FFBF9B",
"m c #FFCFB3",
"M c #FFC7A7",
"N c gray67",
"B c gray70",
"V c gray75",
"C c #A7A7A7",
"Z c #CBCBCB",
"A c gray78",
"S c #FFE3D3",
"D c LightGray",
"F c #E7E7E7",
"G c #777777",
"H c #B7B7B7",
"J c #070707",
"K c white",
/* pixels */
"                                                                                                                   ",
"                                                                                                                   ",
"          .XXXXooo                                                                                                 ",
"        O+X@@@#@@@o.                                                                                               ",
"       $+@@@@@@oo@+%&                                                                                              ",
"      +%o@@@@@@@o%XXoo                                                                                             ",
"      +%o@@@@o$.o@@@@oo                                                                                            ",
"     ++@@@+X#.o.&.@+@@&                                                                                            ",
"     ++@@X+X*=-*@#@@XXX&                                                                                           ",
"     +++@@@+++++##oo@@X#                                                                                           ",
"     ++@#@@@@@@@@%ooo&@@O                                                                                          ",
"    +++X+#@@@@@@@@o%o*;&O                                                                                          ",
"    &++OX@%@@@@@@#@#o*:;@   >&O>,<                                                                                 ",
"  &&+++1X@@@++@+@@+X+#*<,XXoXXXXX%>;                                                                               ",
" &+++++O+XXXX+@@@@@+XXX>2*X@@@@#@@@&3                                                                              ",
" ++++++%@XXX@@@@@@ooooX%4=XXo*:3%@oo&>                                                                             ",
"  ++++++XXX@@@@@@@@o.OOo*>XX%ooooXXX%O                                                                             ",
"    ++.XX@@X@@@@@@@@o.3Oo*+X@.%%%@@XX3                                                                             ",
"     +.X5o@X@@@@@@@@ooO;OXX++@#@#o33XX3                                                                            ",
"      ..oo6@@@@@@@@@#oO:>oX+X@@@@#o&;>X>                                                                           ",
"      ..oo6@@@@@@@@@@@&3;oX+++@@@@#%3=%X                                                                           ",
"      ..oo6@@@@@@@@@@@.O:OXX@@@@@@#oo;>X>                                                                          ",
"      ..o56@@@@@@@@@@#.O::oX@+@@@@##o3<Xo                                                                          ",
"      .&.o#6@@@@@@@@@@oO>,oX%+@@@+##oo7&o                                                                          ",
"      ...o56@@@@@@@@@@o&3=OXXX@@@@#ooo1,%                                                                          ",
"      ...o56@@@@@@@@@@#&&7>XXX@@@@##oo>-8                                                                          ",
"       ..o56@@@@@@@@@@@.O,:#XX+@@@@@#oO7;                                                                          ",
"       ..o56@@@@@@@@@@@oO:;oX+@@@@@@#oo1<                                                                          ",
"       ..o#6@@@@@@@@@@@oO3,OXXX@@@@@@#%><,                                                                         ",
"       ...o56@@@@@@@@@@@O3<3#X+@@@@@@#oO>,                                                                         ",
"       #..o56@@+@@@@@@@@&O9:oX+@@@@@@#oo3>                                                                         ",
"        ..o56@@@@@@@@@@@.O7<o#+@@@@@@#oo&*;                                                                        ",
"        ..o56@@@@@@@@@@@oO=9ooX+@@@@@#oo&&>                                                                        ",
"        ..o56@@@@@@@@@@@oO:9OoX@$$08qO##.O>                                                                        ",
"        ..o56@@@@@@@@@@@oO;->X@$%%%%0wwo.3&:                                                                       ",
"        ...o56@@@@@@@@@@@O39:X%%%%%%%qert8y$                                                                       ",
"        ...o56@@@@@@@@@@@&O93+%%%%%%%0uiipat8s                                                                     ",
"        @..o56@@@@@@@@@@@&O<OX%%%%%%%$dfiiifpds                                                                    ",
"        %..o56@@@@+@@@@@@.O=3+%%%%$%%%gpiiiifhjwkkltzdrrdhgt                                                       ",
"         ..o56@@@@+@@@@@@oO;3+%%%%$x%%8eiiiifjlkkcvvraaaaarrrduurrdw                                               ",
"         ..o56@@@@+++@@@@o&3;++%%%$x$%kgfiiiplk%cveevrcccccaaaduuuuuuu                                             ",
"         ...556@@@@@@@@@@o&O=X@%%$$x$%%qpiifjk$%lb8bwwwwwtgzcdaduurtjruz                                           ",
"         ...o56@@@@@@@@@@@&O9@X%%$$xk$%8hfiflk%%s8k08bsssssltzcdcrcsqgrudw                                         ",
"         X..o56@@@@@@@@@@@.&;#X%%$$xk$%0lpfhb%+%8$%$08bbbbbbbwzctqhl8qgrudw                                        ",
"         X..o56@@@@@@@@@@@@&3oX%%$$xk$$%0lq8%++%k%%%%%$kkkkkkktzt88kkkqwzcb                                        ",
"         X..o56@@@@@@@@@@@@o&&X@%$$xk$$%800x%++%%%%%%%%%%%08swwlggwlk$xqww88                                       ",
"         +..o56@@++@@@@@@@@o&&++%$$xk$$$%$$$o#X++%yxk008lwsssggghhauuzq$80%$                                       ",
"         @...o56@@@@@@@@@@@#o&@+@%$xk$$x$%%%%%+$zjauuuazwwsqglqlwhzhavvv8x%+s                                      ",
"         @...o56@@@@@@@@@@@@%.%++%$xk$xxk%%@++swttzccczwwssqghwk$0wzhddavuuach                                     ",
"          ...o56@@@@@@@@@@@@@o.X+#%xk$xxk$XX+8qwwwwwggwwsqqbsght$%$kwhhwdavuuurv                                   ",
"          ...5@6@@@@@@@@@@@@@o.X+@%xk$$xk$XX%q8lllllssssqb8000whs%%%kwwqqgdruvddarv                                ",
"          X..5@6@+++@+@++@@@@%&++@%xk$$xk$X+xbkbqqqqbbb8880kxxkbq8k%%kqky8wjdrjgcccarv                             ",
"          X..5#6@@+@@@@@@@@@@@.@X@@$k$$xk$%@$0xk088800000kx$$xk0008k%%%%$$8wjdzsltzcccarv                          ",
"          X...o56@@@@@@@++@@@@o@X+@%k$$xk$%@%%$xxkkkkxxxxx$$%%yyyyy$$x%%%%$0lgzqsltzhcccarv                        ",
"          X...o56@@@@@@@@@@@@@%o+@@%k$$xk$%@%%%$$$xxxxx888bbbqswzzs%%$$x%%y$xbj08bqqtzhcccarv                      ",
"          @...o56@++@@@@@@@@@@#o++@%$$$xk$%@+%%%%%$$$qsllllllwgghrra8%%$x%%%%xb$$k08qqtzzhczzj                     ",
"          o...o56@@+@@@@@@@@@@@%++@#%$$xk$%k%+%%%%%+0lsssssssswttthcdsx%%$%%%%%%$$$kkk00qlgglbk                    ",
"          $...o56@@+@@@@@@@@@@@ooX@@%$$xk$%k%+X%%%++88bbbbbbbbbbqslwtgq88kx%%%%%%%$$$$kk00qsbbk+                   ",
"           X..o56@++@@@@@@+@@@@o&++@@%$xk$%k%%+XX+X%0888888880000kxy$00xqgudsk%%%%%%%%%sltjjjjtsk                  ",
"           X...o56@@@@@@@@+@@@@$O@X@@%$xk$%k%%+++XX%kx$$$$$$xxxkkk$%%x0$x08zrrvveeuuuuuuuuuuuuuaczb                ",
"           X...o56@@@@@@@@@+@@@%O%X@@%$xk$%k%%@@@XX%x$%%%%%%%%$xx$%%$%xy$00qltwdreurdddddddarrrrvvuacz             ",
"           X...o56@+@@@@@@@@@@@@&oX@+#%$k$%k%$@@@++%$%%%@@@@@%%%$%%%0y0xy8qbtl0kgdcjjjjjjjjjjhcarrvvuacz           ",
"           X...o56@@+@@@@@@@@@@@@O@X@@%%%%%%%$%++@++$%##@@@@@@@%%%yyk80g0gw8wjb0kqjwwwwwwwwwwwtgjjjtttlqbg         ",
"           @@..o56@@+@@@@@@@@@@X#OoX#@++++@@++%++@++%%#@@@@@@@@%%%%yyyx8x0800xy%$xk8qqbbbbbbbqqqqqqqbb8k$8l        ",
"           o@..o56@@++@@@@@@@@@@@&@X@++@+++++++@++++++++@++@0qbbbbbq0xy$xyyyyyyy$$$xk800000000000088888k$y0t       ",
"            @..o%56@+@@@@@@@@@@@@o@X+@+@+++@+++%++++XX+@+X@wwsqqlgrrrj0%%%%%%%%%yyyyy$$xxxxk00000008880k$%+k       ",
"            @...o56@+@@@@@@@@+@@@@OX++@++++@@@%%++++++++X+lq888qltgzcarty%%%%%%%%%%%%%%%%%$$xxkkkkkkkkkxy%+%       ",
"            @...o56@@+@@@@@@@++@@@O++@@++@++@$%%+++++++XXx8k8kxx0bqltgzghglsssqqkxxy%%%%%%%%yyyy$$$xxxxy%%++       ",
"            @...o56@++@@@@@@@@@@@@@++@@+@@+%%$%%%++++++XXx00k000xxxk0bqltgglwdrrrrdj80x0000x00qgduuuuuuuuvdw       ",
"            o...o56@+++@@@@@@@+@@@%+X+@+@%%%x$%%%%+++++XXy0x$x$$xxxxxxx08bbblgzhhzzzruuueeeeeeeuurchhhcavueevw     ",
"            $#..o56@+++@@@@@@@@@@@o@X+@+@%%$x$%%$%%+++++X+x%%%%%%%%%%%%%$$$0blwwgggtttttzhhhhhzjjjjjjjjjzcruevw    ",
"            &%..o556@+@@@@@@@@@++@%%+X@+%%%$x$%%$%%%%%++@+++++++++++++%%%%$00k8bbswwwwwwwwwwwwwwwwwwtgjjjjzddddl   ",
"            &o...o56@+@@@@@@@@+@@+%.@X@+%%%$x$%%$%%%%%%##X++++++++++%%%%$xxx$x0000bqlllllllllllssssssssllllljjjjq  ",
"             $...o56@@@@@@@@@@@+@@@o@X+#%%%$x$%%$$%%%%%%#+++++++++%%%y$xxxxxkk0kk0000bbbqqqbbbbbbbbbbqsslllllllw8  ",
"             $...o56@@@@@@@@@@+++++@%++@%%%$x$%%$$%%%%%%%+++X++++++%%%$$$$xxk0k$$xxxk008800080008bbbbbbbbbbbqbb8x8 ",
"             &...o56@@@@@@@@@@@@+@@@o@X@%%%$x$%%$$x%%%%%%%#+XX+++++@+%%%$$yyyyxx%+%%xxxxkxx080kkk0000000000000kxx0 ",
"             O...o56@@+@@@@@@@@@@@@@@@X+%%%$x$%%$$0x%%%%%%%+++XX++++++@%%%%%%%%%+++%+%%%%$xxk$$$$$xxxxxxxxxxxy%%%% ",
"             O&..o556@@+@@@@@@@@++@@@@++@%%$x$%%$$00%%%%%%%%#+++XX+++++++@++%%++++++++@%%%%%%%$$$$$$$$$$$$$%%%%+%y ",
"             O&...o56@@+@@@@@@@@+@@@@@+X+%%$xx%%$$$qs0%%%%%%%+#+XXXX++++++++++@+++++++++++@%%%%%%%%%%%%%%%%%%@++%$ ",
"             O&...o56@@+@@@@@@@@@+@@@@+X+%%$xx$%$$$qafsk%%%%%%%++++XXX++++++++++++@+++++++++++@%%%%%%%%%%%%@++++%x ",
"             OO...o56@@@@@@@@@@@+++@@@+X+#%$xx$%$$x0afnkk%%%%%%%%++@++XX++++++++++++++++++@++++++@@@@@@@@@++++++%k ",
"              O...o56@@@@@@@@@+@@++@@@@+X@%%xx$%$$$xgpmtk$%%%%%%%%%+#++XXXX+++++++++++++++@++++++++@@@+++@@++++%$k ",
"              3...o56@@@@@@@@@@@@@@@@@@XX@%%$x$%$$$xbummjw8k$%%%%%%%%++X++XXX++++++++++++++++++++++++@+++++++++%xk ",
"              3...o5@6@@@@@@@@++@++@@@@+X+#%$x$%$$$$0afmmMdgs8yy%%%%%%%++++XXXXXX++++++++++++++++++++++++@+++++%k  ",
"              3&...o56@++@@@@@@@+@+@@@@++X@%%x$%$$k$xgpmmMenmdl$$y%%%%%%%++X+XXXXXXXX++++++++++++++++++++++++@%yk  ",
"              3&...o56@@@@@@@@@@@@@@@@@@+X+@%x$%$$k$xbuMimpnmnhgb0y%%%%%%%%%%XXXXXXXXXX++++++++++++++++++++++@%$k  ",
"              O&...o56@@+@@@@@@@@@@@@@@@++X@%%$%$$kqx0apimfunmrgtwkky%%%%%%%%%XXXXXXXXXXX++++++++++++++++++@++%xk  ",
"              O&...o56@@++@@+@@@@@@+@@@@@@X@%%$%$$qw0xguminenmpgtgq88kyy%%%%%%XXXXXXXXXXXX+X++++++++++++++++++%k   ",
"               &...o56@@@@@@@@@@@@@++++#<OXX%%$%$$qw0xbafiMpfnnhgtwssq0$$y%%%%%XXX+XXXXXXXX+++++++++++++++++++%k   ",
"               O...o5@6@@@@@@@@@@++++++O4NXX%%%%$$xq0%0gpimfufnhgtwlsqsbxyy%%%%XXXXXXXX+XX+X+++++++++++++++++%%k   ",
"               O$...o56@@+@@@@@@@@@@++X%44#X@%%%$$x0k%%buminupnaggtwlsqb80$$y%%%XXX+XXXX++XXX++++++++++++++++%yk   ",
"               &$...o56@@@@@@@@+@+@+@+X%440X+%%%%$x0$%%0gpiMvuprggtwlsqb800k$$$$XXX+XXXX+++++++++++++++++++++%$k   ",
"               $$...o56@@@@@@@@@+@@+@XX.44BXXo%%%$x$x%%%bummaverhzgtwlsqb80kk$$0$XX++XX+++++++++++++++++++++%%xk   ",
"               $o...o56@@@++@@+@@@@@@XXXV44$X@%%%%x$x%%%lluMcavrhggtwlsqb800k08b0XX+++++++++++++++++++++++++%yxk   ",
"                o...o56@@@+@@@@@@@@@@XXX9447X+%%%%x$00wdw%Xkdhurhgggtwlsq880k08qw$X+++++++++++++++++++++++%%y$x    ",
"                o...o5@6@@@+@@@@@@@@@@XXo44CXX%%$$$0q8%yx%+X+xwaggjgtwlsqb80kk0qwbXX++++++++++++++++++++%%yxxx$    ",
"                %....5@6+@@@@@@@@@@@@@XXX244oX%y%%%%+++X+++++XXksgjgjtwlsq800k08sw$XX+++++++++++++++++@+++%y$$$    ",
"                %o...o56+@@@X@@@@@@@@@+XXO44;X@&o@+++++++XX+++XXX%lwjtwlsq880kk0qwbXX+++++++++++++++++%%+++%y$$    ",
"                oo...o56X@@@@@@@@@@@@@@XXXZ4CXX#+++++X++X+XX+++++XX%qsswlsq800k0qsb$X++++++++++++%yx%++%%y%+%y$    ",
"                o%...o5@+@@+@@@@@@@@@@@XXX744+X+X:A=XX+XXXXXXXXX++++++ywlsq880k0bqwbXX+++++++++%%y$x$$%@@$$%+%$    ",
"                o....o5@@@@+@@@%o#@@@#@+XX%44;X%Xk4S$X++XXXXXXXXXXX+++++xq8q80kk0bsw$X++++%%++++%$xk00kx%+$$%+%    ",
"                o...ooo#@+X@@#@@XXXX+@##+XXA4VXXXX74V.XXXX+XXXXXXXXXX+++++%k880k08qwbX++%%$$$%@@@%%$x880x$+$0%+    ",
"                o.o...oo@X@@@XXXXXXXXXX%@X..44#XXX#DAC,XXX+XXXXXXXXXXXX++++X%%0kk0bsw%+$$$xkkkk%#@@%%xk88k$%$0X    ",
"                ......55X@@++++XXXXX55....o.F4OX@XX+O>:$oooo5XXXXXXXXXXXX+++++%xk08qgb+xxx0088bbbk%@@%x0b8ky%y     ",
"                $...55@@@X+<Coo@X5%....o5XXX94=XX+++o$$ooo..oo5XXXXXXXXXXXXX++++%y0bqskxk88888bswlqk%@%$0b8$%%     ",
"                 %.5@#@@+XOBFVX%5..o5@@@@@XX.4AXX++@%&oooooo..oo55XXXXXXXX+XX+++X++%xsw$k0b00k0bswqq$%@%$bbk$      ",
"                 .56@@@@+XXXXXX@55@@@@@@@@XXXC4@X++X@:&@o@o#oo..ooo5XXXXXXXXX+XX+++++%w$$k0bk$xkbs8k8$%@%xb0x0     ",
"                 %+@@@@@+@@@@@@@@oo@@@@@@@@XX@4D9@XX@oOooo@oooooo..oo5XXXXXXXXXXXXX++++$$$x08x$xk8b8k8%@#%00xk     ",
"                 oX@o@@@@@@@@@@+X+XXX+@@@@@XXX,7,97$3,.@oooo6oooooo..oo55XXXXXXXXXXXX+X+x$xk00xy$k000k$y@%kx$$     ",
"                 &X+@@@@@@@@@XXXXXX@@@+@@@@@@X&.GZAH449o@oo6%5oo%oo@oo.ooo5XXXXXXXXXXXXXx$$xk0x$yyxx0kky%+xx%      ",
"                 &+X@@@@++@+XXXXX+@@@@@@@@@@+.&&X##+;Cl++o6ooo6%%#ooooo%..oo55XXXXXXXXXXx$$$xkkx$y%y$$$y%@%%%      ",
"                 3@X@@@@X@@X+XXX@@@@++@@@@@55.&&$%6++6o.6oo55o6o6oo@%%%#ooo.oo55+XXXX+XXx$$$$xxkx$y%yyyy%@+%       ",
"                 3@X@@@XXCD+X+X@@@+@++@@+@@655.&$+6%o56#5o6ooo666o5#o%@$>O%@%.ooo5XXXXXXx$$$$$$xxx$y%%yy%@X        ",
"                 3%X@@@XX-43X+X@@@+++++++++655.&O666%6o556o##6655o6o##+$#O>oo@@o.oo55+X+x$$$$yy$x$$y%%%%%@X        ",
"                 3oX@@X+XXO@XXXXX+666666666665.&&6666666o55o55o6oo#6%@%XXoOoo@+ooo.oo55@x$$yyyyyy$$$%%%%+@X        ",
"                 3oX@X@#+%O@XXXXX+666666666665.&O.666+6o66o56%oo55566#%5X+&&o@X+o$oooooo55ooyyyyy%%%%66+@XX        ",
"                 &.XXX@@X#9OXXXXXX66666666666@5.&&666o56o66o65o65566o655XXo$XX++$O%%o%o.oo55%%%%%%666666+X         ",
"                &O&XX@@@+5:,XXXXXX6666666666655.&&66665o56665666665o556%6X@O%XXXo&o@%%oo%ooo55%#66666666X@         ",
"                &O.X+@@55X5&oXXXXX6666666666665.&O%666555665o55o6#566656oXXooX@@+oo%5oooooooooo556%6666X+          ",
"               &O&.@@+5@65%F9XXXXX66666666666655.&o6%6666656665+o5556665%6X@o@6X@ooo#5oooo%o%oooo55%66+X           ",
"               O*&5@55@6XX@,OXX@XXX6666666666655.&o6%#6+6666o65656556o66#6XXo%@@X+ooo5o5oo%o%5ooooo55%X            ",
"               3&.55566J+J+55XXXXXX6666666666655.&o#66665666556665556666666X@o+X@66@%6655oo5o%55ooooo+X            ",
"               O.5556JJXJ6556+XXXXX6666666666@65.&o.66556665566666655655666XXo@@XXX@##o5o55o5o5oooooooX.           ",
"               &5556JJXJ65556+X@XXX6666666666@6@5.&$66666656556666655656666+5oo6+@X@o666oo5oo55o+oooo6oX.          ",
"               O566JJJ6655556+X@XXXX666666666@@@5.&oo666666666556666556666665+o@@XX@.56555ooo555ooooXooo..         ",
"                6JJJJ655555556XXXXXX666666666@@@@@@o&o66665555665665566655656X%@@o6X@o65oo5o55o5oo@XX6o+..&        ",
"                JJJJ6556555556XXXXXX666666666+@o#@@XX@%6665666666655556655656X@@+@@@@#5o65555565oo@+X6oo@o.        ",
"                 &J65556555556XXXXXX666666666+.@XXXXXXX666666666666655555656666o@XX@o66655o56o6o5o555o6oo+o.       ",
"                  X55556+55556XXXXXXX66666666+&@XXXXXXXX6o66666566655655556666X@%+XX+5565o6o656o556ooo66o#o..      ",
"                  555556555556XXXXXXX66666666+@@+XXXXXXXXoo6665666665556556666X@o6XXXX666566556665o5566666#o.      ",
"                  5555565555556XXXXXX6666666666666XXXX@oXX666665666665555665666X@%XXX66oo5565666o665556655%o..     ",
"                  5555556555556XXXXXX6666666666666@+XX+.#X+66666655665555566666X+%+X6XX6#5565665556665666565o.     ",
"                  5555556555556XXXXXXX666666666666@@o.&o#XX66666666565555556656+X66+6+56o6665556655566656665o.3    "
};
