/* XPM */
static char *gunfire1[] = {
/* columns rows colors chars-per-pixel */
"48 35 52 1 ",
"  c magenta",
". c #AF4747",
"X c #BB5757",
"o c #B30000",
"O c #972F2F",
"+ c #A33B3B",
"@ c #BF5B5B",
"# c #9B0000",
"$ c #A73F3F",
"% c #B37347",
"& c #B34F4F",
"* c #CB0000",
"= c #EF0000",
"- c #FF1F1F",
"; c #D70000",
": c #CB5707",
"> c #D75F0B",
", c #DF670F",
"< c #F37317",
"1 c #FF3F3F",
"2 c #FF7F1B",
"3 c #FF5F5F",
"4 c #FF8F3B",
"5 c #BF0000",
"6 c red",
"7 c #FF7B7B",
"8 c #FF9B9B",
"9 c #E30000",
"0 c #E78F8F",
"q c #FFB7B7",
"w c #F7ABAB",
"e c #FFBBBB",
"r c #FFDBDB",
"t c #FFE3D3",
"y c #FFFFD7",
"u c #EFEFEF",
"i c #9B3333",
"p c #8B2323",
"a c #FFD3BB",
"s c #FFEBDB",
"d c #FFDBC7",
"f c #C76363",
"g c #FFFFB3",
"h c #FFEBDF",
"j c #DF8787",
"k c #FFC7A7",
"l c #FFBF9B",
"z c #FFD7BB",
"x c #EB6F0F",
"c c #C34F00",
"v c #7F1B1B",
"b c white",
/* pixels */
"                                                ",
"                                                ",
"                       ...                      ",
"                      XoO+o                     ",
"                   @X@@.#+$..@  @.@             ",
"               .. %@&..*=-O$&XXX.+.             ",
"               ;;:>-,--------,->o-+             ",
"              ..----<-1----11<--<<..            ",
"            @@ .---2-131--111----- X.           ",
"           &OO..----4-133331--<1--.OO.+         ",
"           &**55*6-111378873111--*55*5.+        ",
"          &5*9=-51=13707qq70731--5-=9*O+        ",
"        @&&5;;;====17werrrre871--==;;;5+$       ",
"       @.O *9;9=---17qtyuuytw713--=9;9*i$$X     ",
"      &+5;99-===-1130qyyyyytq7333-===-9;*5$@    ",
"      .p*;=----138708asy  ytd887831----=;*+X    ",
"     fX+;9==---137wqedtg  yyteww73111-==9*+X$   ",
"     @@@;=1-6--178qattyy  yyyhdq8j11-1-1=;O@@   ",
"      @@--6==--3wqadtyy    ygttdaw3-1==6--i&f   ",
"      @@-------30adty        ytta0331311-- @    ",
"      X>----1137kdty          ytdk7311---->X    ",
"   ff@@<---1377ladt            yytk8731---<@@ff ",
"   f@f><1--1778kzdy            yyyk8771--1<>f@f ",
"   fXf>x<--13778dd              td87731--<x>>Xf ",
"     %co:9==---17e              e71---==9:ocX   ",
"     @.5;99---1=3                3=1---99;5$@   ",
"      X+5;===1=17                71=1===;5v$    ",
"       X+* 5-=1=                  =1=-5 * o     ",
"       @@   ;=--                  --=;  @@      ",
"           X;=1                    1=;          ",
"            X 5                    piX          ",
"            @.                      .X          ",
"            @.                      $@          ",
"                                                ",
"                                                "
};
