/* XPM */
static char *gunfire2[] = {
/* columns rows colors chars-per-pixel */
"57 47 61 1 ",
"  c magenta",
". c #C76363",
"X c #BF5B5B",
"o c #B34F4F",
"O c #BB5757",
"+ c #B37347",
"@ c #BF7B4B",
"# c #AF4747",
"$ c #D70000",
"% c #FF3F3F",
"& c #CB6B6B",
"* c #EFA373",
"= c #D78B5B",
"- c #A33B3B",
"; c #972F2F",
": c #FF1F1F",
"> c #CB7F4F",
", c #FFB383",
"< c #FFA35B",
"1 c #EF0000",
"2 c #BF0000",
"3 c #FF5F5F",
"4 c #FFBB93",
"5 c #FF7B7B",
"6 c #FFBF9B",
"7 c #F7AB7B",
"8 c #FFCFB3",
"9 c #FFC7A7",
"0 c #9B3333",
"q c #CB0000",
"w c #FFD7BB",
"e c #FFDBC7",
"r c #FF9B9B",
"t c #FFFFD7",
"y c red",
"u c #E30000",
"i c #FFD3BB",
"p c #F7ABAB",
"a c #FFE3D3",
"s c #FFBBBB",
"d c white",
"f c #FFEBDF",
"g c #F3A3A3",
"h c #B30000",
"j c #FFEBDB",
"k c #8B2323",
"l c #A73F3F",
"z c #FFB7B7",
"x c #E78F8F",
"c c #EFEFEF",
"v c #A70000",
"b c #B74700",
"n c #CB5707",
"m c #C34F00",
"M c #D75F0B",
"N c #EB6F0F",
"B c #DF670F",
"V c #F37317",
"C c #FFFFB3",
"Z c #DF8787",
"A c #7F1B1B",
/* pixels */
"                                                         ",
"                                                         ",
"                           .X                            ",
"                           Xo                            ",
"                           Oo                            ",
"                           ++                            ",
"                          O++OX                          ",
"                          O@@O#                          ",
"                      .o$%&*=&%$                         ",
"                    XO-;:%>,<>%:1OO                      ",
"                    #;21:%34<3%:12;o                     ",
"                    -$:1%356*53%1:$X                     ",
"                 XO;1$:%%378973%%:1-0O                   ",
"               .O0;q$11:35,we,53:111:;2                  ",
"               X-$$$$11:5r9tt9r5:11y1u$:                 ",
"               O-$$11y%:5r9tt9r5:%y11yu-                 ",
"              .ou1$1:11%5rittir5%11:11u;                 ",
"               Ou$$1:::%5pattap5%:::11uu#                ",
"                o$:1%%%3rsaddasr3%%%1::-#                ",
"            XO#0uy3:%335pefddfep533%:%u:2#               ",
"           .#;#q$13:35gpsafddfaspg53:::uqh-              ",
"            O2#$$:y:55psaffddffasp55:::uqh;X             ",
"          .X##uu$%3%5peafjddddjfaep5%3%$$k##X            ",
"          Xl$1%::y%35zafttddddttfaz53%y::%1$lX           ",
"     .XXOX#2$1:::%33rsfdddd  ddddfsr33%:::1$2X           ",
"     O####;$1111:%55sefdtdd  ddtdfes55%:1111$; XXX.      ",
"      ;;;k21:1%133xsfcttddd  dddttcfsx331%1:12X0-#O.     ",
"    lvv2q1111%1%55pefttddd    dddttfep55%1%1111$2#OX     ",
"     ;2$uu:1::%1%3satddd        dddtas3%1%::1:uu$2;#     ",
"   OXbhnu1%::%:%35sfttd          dttfs53%::::11unh1mO.   ",
"  XOM$u:::::::%5rpejtt            ttjepr5%:::::::1nnoX   ",
" .Xn$11:::%%355r9etttt            tttte9r553%%:::N1MMO.  ",
" .XXM$1%::%355r9etttt              tttte9r553%::%:BM.X.  ",
" ..XOM::::%%35r9eattt              tttae9r53%%:::VMXX..  ",
"    XXM::::%%%35r9ea                ae9r53%%%::::MoO     ",
"    X##::::%:::33xia                aix33:::%::::-#X     ",
"    Xlh11%1:3:1:5rC                  Cr5:1:3:1%1uk#OX    ",
"   oO-2::y111::35pi                  ip53::111y::2-#o    ",
"  .X## $1%:yy::%3Z                    Z3%::yy:%1$ #OX    ",
"  XX   $u11::::%3%                    %3%::::11u$   .    ",
"  .XX#2q$1:1:::%%                      %%:::1:1$qk#O     ",
"   XXlk2$u111%1%%                      %%1%111u$2AlX     ",
"     #;2$uu1:111                        111:1uu$h;#      ",
"     XO ; q1u$u1                        1u$u1qh-#O       ",
"        l 22$$$                          $$$2v#o         ",
"                                           qvvO          ",
"                                                         "
};
