/* XPM */
static char *imp_dies2[] = {
/* columns rows colors chars-per-pixel */
"45 63 52 1 ",
"  c magenta",
". c #CB0000",
"X c #5F4323",
"o c #A70000",
"O c #A36B3F",
"+ c #8F5F37",
"@ c #9B0000",
"# c #670000",
"$ c #BF0000",
"% c #875733",
"& c #6B4727",
"* c #774F2B",
"= c #9B633B",
"- c #533F1F",
"; c #E30000",
": c #AB6F43",
"> c #8B0000",
", c #777777",
"< c #7F532F",
"1 c #838383",
"2 c #939393",
"3 c #9F9F9F",
"4 c #6F6F6F",
"5 c #979797",
"6 c gray67",
"7 c gray39",
"8 c #A7A7A7",
"9 c #B37347",
"0 c #BF7B4B",
"q c #B7B7B7",
"w c gray50",
"e c #4B371B",
"r c gray42",
"t c LightGray",
"y c #3F2F17",
"u c #332B13",
"i c #CBCBCB",
"p c #2B230F",
"a c black",
"s c #B30000",
"d c #DFDFDF",
"f c #7F0000",
"g c #FF3F3F",
"h c #FF5F5F",
"j c #4F0000",
"k c #D70000",
"l c #5B0000",
"z c #430000",
"x c #730000",
"c c gray86",
"v c gray70",
"b c white",
/* pixels */
"                                             ",
"                                             ",
"                                             ",
"                                             ",
"                            .                ",
"                          .                  ",
"                        X  X.                ",
"                          .  .               ",
"                       X .XoO O+             ",
"                        X@.#.$$O+            ",
"                        o #.%&#*+%           ",
"                        =*@$+-;-*X           ",
"                        +@::o&-*XX           ",
"                      o +>+++%*#XX  ,        ",
"                        **#X*<*&XX  1        ",
"                        **>XX*&X-  ,2        ",
"                        *%+*X&X-&  13        ",
"             45        O*+%<X&-X  ,26        ",
"              781 ===O:9*+%+=0090043q:       ",
"               4q=9=O999<%=OOOO::9<4wX%      ",
"                =9=++OO+&%:=+++++=+%<&-%     ",
"                *%&<<++*-+=+%<<<<<*&X--&     ",
"                &&&*37*-e=+%8r*&X-X--X&&     ",
"             36t%&eXXX--e&%***&Xeye-&<*1381  ",
"                &-eyyyyyeee--eeeyuuX<%*3i5   ",
"               &*&ey*Xeye-XeyyyuuppX*<<*&    ",
"               *<*yyXeeu.-&y-=:*upu-&**&X    ",
"               X*&pye.uppa-s=0*<ppuy-&&X-    ",
"               eX-uyyp->s>a-d%-*<<:XX&-e     ",
"               yyyuyu.>a>s#>-Xe&-::<%X&y     ",
"              &yuueefpagh@jj*eu-%:%+=%-      ",
"  w5X*%*     <&yyuu-yak>lg@O9%p-d+&--Xe      ",
"      X*%*&X<*-eeyp-py#zz>f9dt-u-euuuyy      ",
"       -&<<&X-eyup eyyyllx>zaapuyyyyy        ",
"       pp-&e-epp   Xey&&-yppppuyeu           ",
"      eupu-eup    &<Xye&-eeppuX&-e           ",
"     -pp puy      <<&yye-eypu-&*&e           ",
"     &p  up      &<+&yyyeupueX*%<-e          ",
"    5   up       &%+&yyppppuXX<+%-e          ",
"       5         &+%XeypppueXX*=%-y          ",
"                 &+*Xeypppye-&<=<-u          ",
"                &*+*X-epy pe-*+%*eu          ",
"                &*%<&Xepu yye*=<&eu          ",
"                &**+*Xepu eue&%*X-u          ",
"                y&X*<-ypu -yyX&X-&y          ",
"                ye-X&eup  -ee-X-X&y          ",
"                yye--yup  --yy-X&-           ",
"                yyuyyuppe --yuue-e           ",
"                 cyyeeupy eyuppyeu           ",
"                  ue--ypy yue-epu            ",
"                  uyeeypy uuXXXpy            ",
"                   uuuupy uuXcXy             ",
"                    ppppy-yy-dyy             ",
"                    ppppyXeyuuyy             ",
"                   uyyppyX-yuuue             ",
"                  yyeeypy--yuuu              ",
"                 yyeeeepy eeeyu              ",
"                yyy-e-eyy -&Xe               ",
"                vy evey   X*&-               ",
"                         eX**&-              ",
"                         -XX&*&&             ",
"                        -**X e**&            ",
"                        -eve yyv&            "
};
