/* XPM */
static char *imp_dies4[] = {
/* columns rows colors chars-per-pixel */
"52 52 39 1 ",
"  c magenta",
". c #7F0000",
"X c #CB0000",
"o c #8B0000",
"O c #875733",
"+ c #5B0000",
"@ c #430000",
"# c #3F2F17",
"$ c #A70000",
"% c #774F2B",
"& c #4B371B",
"* c #4F0000",
"= c #5F4323",
"- c #670000",
"; c #6B4727",
": c #979797",
"> c #939393",
", c #8F5F37",
"< c #A36B3F",
"1 c LightGray",
"2 c #AB6F43",
"3 c #BF7B4B",
"4 c gray70",
"5 c #9B633B",
"6 c #7F532F",
"7 c #533F1F",
"8 c #BF0000",
"9 c #730000",
"0 c #332B13",
"q c black",
"w c #B37347",
"e c #2B230F",
"r c #D78B5B",
"t c #9B0000",
"y c #CB7F4F",
"u c #43331B",
"i c #A7A7A7",
"p c #1F170B",
"a c white",
/* pixels */
"                                                    ",
"                                                    ",
"                                                    ",
"                                                    ",
"                             .                      ",
"                                                    ",
"                                                    ",
"                              .                     ",
"                             .                      ",
"                            X  X                    ",
"                              .                     ",
"                                X                   ",
"                             .X                     ",
"                             X.oOoO+                ",
"                             .@#+$o%+               ",
"                             @@&*&=-;               ",
"                            #@#-&@&+-=              ",
"                            #@#==&#*+=              ",
"                           :#&=-#&#>+=              ",
"                       %O,<1$2;.223425,OO           ",
"                      %6=,,,,=&-%2225,OO%%%  :      ",
"                    ::=77===8&&-97;;;;%==%6O:       ",
"                      7&&=#0$qq*90&&&&#7=,w26       ",
"                     O57##0o989*9q&=&0e#77,wO6      ",
"                     O,=#0&3r99*tqq&=&00##7;O,,     ",
"                     77079$.*=9=w$q07&##ee#;5<6     ",
"                    770e7o90@+9&%t+e&##  ;&%<2O     ",
"                    70ee#+9@+O9%*9+@e#    =O5y5     ",
"                   &=eee@*@@<;o<--+@e#    y<Oyr5    ",
"                   =&=;;-@+e+$;**+OO7u;   <O=%y56   ",
"                  7O,<<<,;7+=;-..9t,<6;   O  =5O6   ",
"                 %,<<<5,O.=7*-%9996t<<6;  i   1O6   ",
"                %O<<5,O66;=*&;-;;-;=,<<6;       ;   ",
"              ,<O<,OO6%%=77@#*===7==;O,,%7      1   ",
"             2ww<,O66%==7&&007777777;;%,<%%         ",
"            2ww,O66%=777&##00000&&77;%;6%%%         ",
"            ,,,O%%=77&&##00p   000##;;6%%66% 6:     ",
"            66;;=77&&#0000       0007&%66656=#e     ",
"           ;%%6=&00eeee             &7;66%6=#ee e:  ",
"           %6%=7&0eee                &=;=%=7eeeeee  ",
"   :666   ;6667&##0                   &77=7#eeeeee  ",
"   ee7;66;%667=#u                      u&&#eeeeee   ",
"  : eee;%6%%;=7#;                       &&#eeeee    ",
"  ee eee7%;==7u;                        u&eppppp    ",
"   eeeee#=;%&u                           &ee0e0     ",
"    epee#&%%=&                           #eeeep     ",
"     pepe#&%;                             pppp      ",
"      0eeee&=                                       ",
"       peee##                                       ",
"        ppp#                                        ",
"                                                    ",
"                                                    "
};
