/* XPM */
static char *imp_attack3[] = {
/* columns rows colors chars-per-pixel */
"37 64 46 1 ",
"  c magenta",
". c #774F2B",
"X c #7F532F",
"o c #9B633B",
"O c #875733",
"+ c #8F5F37",
"@ c #B37347",
"# c #6B4727",
"$ c #AB6F43",
"% c #BF7B4B",
"& c #A36B3F",
"* c gray70",
"= c #5F4323",
"- c #4B371B",
"; c #9F9F9F",
": c #CBCBCB",
"> c #730000",
", c #FF1F1F",
"< c #332B13",
"1 c #3F2F17",
"2 c gray50",
"3 c #4F0000",
"4 c #8B8B8B",
"5 c #979797",
"6 c gray78",
"7 c #2B230F",
"8 c #838383",
"9 c white",
"0 c #533F1F",
"q c #7F0000",
"w c #BF0000",
"e c gray75",
"r c #670000",
"t c #FF3F3F",
"y c #DFDFDF",
"u c #9B0000",
"i c #6F6F6F",
"p c #CB7F4F",
"a c #D78B5B",
"s c #A7A7A7",
"d c #B7B7B7",
"f c gray86",
"g c gray39",
"h c gray31",
"j c #939393",
"k c #777777",
/* pixels */
"                                     ",
"                                     ",
"                                     ",
"                                     ",
"                                     ",
"                                     ",
"                                     ",
"                 .XooX.              ",
"                .O++++O.             ",
"               .+OOOOOO+.            ",
"               .@oX##Xo@+            ",
"              X$%@&OO&@%$X           ",
"      *       O=-Oo$$oO-=O           ",
"      ;:      O#>,<1-<,>#O           ",
"      2;:      O#3-##-3#O            ",
"       4*; =++#.O=#++#=O.            ",
"       256++X.-<O789*87O0     *;     ",
"      .++++.=oo7X7q7wq7X0.  e:;      ",
"     .O&+X.=-$%7.7qrtq7.7+oey;       ",
"     =.XO%%#=$%=.0uu,u0#<O+O.        ",
"     ==..&%-&X60.789*87=-XOX.        ",
"      =00&%1.<i-O=paap=-1.X.=        ",
"    sd#==X6<<77<1O+11--<1=#=         ",
"     O+oO-i77710-<0o&68<--0=         ",
"    .XO+.=<<177<<<#0-<<<71=##fd      ",
"    .XX.0-<17110-1<<<<<17-.X#0       ",
"    ..#0-1<7106.O=<-111770X+.=       ",
"    d-0117771-<#.=<006<7<-.O#0       ",
"  g8g-<77777<1<00-11-<77<10=00       ",
"        777101<1-<<-11 7<11-0-       ",
"        7710-<1-#<=1<   <11##=       ",
"        <71-<7<11<1<    <10OX#       ",
"       <<<77710-70-7     <-...=      ",
"       <11<<11-17-11     <10=##      ",
"      <11111<<<<-1--      <-0=#0     ",
"      11--11111<1--00      10.O.-    ",
"     11-001<1071-00--       -#-.1-   ",
"     1-0=01<<-0-0==0-       1#<#7-   ",
"     -0==01<<1-0=#.=0-      10X7-7   ",
"    -0##=01<1-0=#...=0      177-7    ",
"    -=#.=-<111=#XO+X.=        77     ",
"   <0=##01<17<#X+&oO.#               ",
"   <-=#=-<1<  .Oo$o+.#               ",
"   <10=01<1<  .+o&o+.=               ",
"  11<-01<1<   #O+o+O#0               ",
"  1-111<<<<   =XO+OX=-               ",
"  1<001<77    -.XOX#01               ",
"   <h;<<77    1=.X#010               ",
"   <j-1<77=   10=#-11                ",
"    <777770   1=XO#1<                ",
"    <77777-   -#.6O01                ",
"     <77771   =-0<#1                 ",
"     1<777<   0<0<0<                 ",
"      11<<1   -777<-                 ",
"      1-1<1   17777-                 ",
"      1-1<1   <7777                  ",
"      1-1<1   <7777                  ",
"      1- <1   <111<                  ",
"      k1 k1   -00000                 ",
"              0==#.##                ",
"             0..= -..#               ",
"             0-*- 11*#               ",
"                                     ",
"                                     "
};
