/* XPM */
static char *imp_fire1[] = {
/* columns rows colors chars-per-pixel */
"17 17 32 1 ",
"  c magenta",
". c #670000",
"X c #8B0000",
"o c #730000",
"O c #7F0000",
"+ c #CB0000",
"@ c #D70000",
"# c #B30000",
"$ c #BF0000",
"% c #A70000",
"& c #E30000",
"* c #EF0000",
"= c red",
"- c #FF1F1F",
"; c #CB5707",
": c #9B0000",
"> c #D75F0B",
", c #FF3F3F",
"< c #F37317",
"1 c #B74700",
"2 c #5B0000",
"3 c #FF7F1B",
"4 c #FFA35B",
"5 c #FF8F3B",
"6 c #FF5F5F",
"7 c yellow",
"8 c #DF670F",
"9 c #C34F00",
"0 c #EB6F0F",
"q c #FFB37B",
"w c #9F3700",
"e c white",
/* pixels */
"                 ",
"      .XXo.      ",
"    .O+@#$@%X    ",
"   .%#+@&@#@%.   ",
"  .%*=@-;=@:oXo  ",
"  O@=>>,<>1@1+O  ",
" 2$O#=345<>1@#+X ",
" oO+=-677448=+*+ ",
" :$9=0477q748=#+ ",
" X#*=185454>*&=% ",
" .:::@1>3>10+%@: ",
"  O:+:@1>1=@wX%  ",
"  .OoX&&=&@=+:.  ",
"   .O$:##:#$%.   ",
"    .O::@#:O.    ",
"      .O:O.      ",
"                 "
};
