/* XPM */
static char *imp_attack2[] = {
/* columns rows colors chars-per-pixel */
"48 64 43 1 ",
"  c magenta",
". c #774F2B",
"X c #7F532F",
"o c #9B633B",
"O c #875733",
"+ c #8F5F37",
"@ c #B37347",
"# c #6B4727",
"$ c #AB6F43",
"% c #BF7B4B",
"& c #A36B3F",
"* c #5F4323",
"= c #D70000",
"- c #838383",
"; c #9B0000",
": c #4F0000",
"> c #4B371B",
", c #9F9F9F",
"< c gray42",
"1 c gray50",
"2 c gray67",
"3 c #939393",
"4 c gray70",
"5 c #2B230F",
"6 c white",
"7 c #777777",
"8 c gray75",
"9 c #7F0000",
"0 c #BF0000",
"q c #3F2F17",
"w c #533F1F",
"e c #A7A7A7",
"r c #670000",
"t c #FF3F3F",
"y c #332B13",
"u c #CB7F4F",
"i c #D78B5B",
"p c #8B8B8B",
"a c gray23",
"s c #DFDFDF",
"d c LightGray",
"f c gray31",
"g c #6F6F6F",
/* pixels */
"                                                ",
"                                                ",
"                                                ",
"                                                ",
"                                                ",
"                                                ",
"                                                ",
"                     .XooX.                     ",
"                    .O++++O.                    ",
"                   .+OOOOOO+.                   ",
"                   .+OOOOOO+.                   ",
"                  X.@oX##Xo@+X                  ",
"                  X$%@&OO&@%$X                  ",
"                  O*=Oo$$oO=*O        -         ",
"                   O;::##>:;O        ,<         ",
"                   .O*#++#*O.O     12-          ",
"       34        &$*O5-64-5O.O&o+O#7-           ",
"        138   7 &+X>X595095Xqw#+o$&+7*          ",
"          3e4+o$X#>q.59rt95.yqw*XX$&++          ",
"           77O+&$+#>#w;;;;w#q>*X$$&o+X.         ",
"            .XO+ooO>*5-64-5*y*Xo&&+X.#**        ",
"            *.X.XOOw>*uiiu*>yXOO++X#*>w*    p7  ",
"            >*#w.XX#a>>qq>>yyXXX.#w>qw*X.  ,7   ",
"           *q>wy*..*qy>ww>yyq####w>qw..#O#47    ",
"      .$o X#wqyy>#8wq5yyyyyy>*8**wyq.oO.#.7     ",
"      X.%o.X#>y5q>y>qyy555q>>qywwyy>#OX.**w     ",
"   $XX.wOsw#Xwq55yyqyyy55yyyqyy>q5yqw#.#*w*     ",
"  X$$w#>*ww*#*q5555555yyqyy55555yy yq>www*#     ",
"   O$Owy>.w>*wq555yq>w>qyq>w>qy55   y>>w*#.     ",
"    +sw5O@&5>>y5 5y>q>*q5q**w>qy5    qw.OX.w    ",
"     wywds@5qqy   yyqwwqyq>w>qy5    w+&o+X*>    ",
"     qy555555y     555yq>qy55yy5   X+&oO.*wq    ",
"      qy55555      yqw*wy*#wq5yq #oOOX.*>qy5,   ",
"       qy555       qy>>qyq>>yyq>>#>>.O>yyyy     ",
"         yy        w>qqq>qqq>q>q#>y.owqq        ",
"                   >w*#*w#.#w>>qyy>.wq          ",
"                   >w*#wqw#*w>qqyq*wq           ",
"                  q>ww*ww>w>>>ww>q              ",
"                  q>wwww>>qq>*##*>w             ",
"                  >w**w>qqq>*X..#w>             ",
"                 q>*##*>qqy*XoOX.*w             ",
"                 q>*#.*>yyq.+&+O.*w             ",
"                yq>*##wqyy>X+oOX.*>             ",
"                yq>*#*>qy w.O+X.#w>             ",
"                yq>**wqyy w#XO.#*>>             ",
"                yqqww>yyy w*.X#*wq>             ",
"                 qq>>q555 >w*.#*>q              ",
"                 yyyyy555  >w*#wqy              ",
"                 yf,yy555  qw.X.yy              ",
"                  3>qy5555 y>#s#yq              ",
"                 1 y555555 yyw4wy               ",
"                   y555555 yyqgqy.              ",
"                    y55555 yyyyyy*              ",
"                     y555y yyy5yqw              ",
"                      5yyy qyq5y>               ",
"                     y>yyy  yq5y                ",
"                     y> yy  qqqq                ",
"                     g> gy  >>>>                ",
"                            w..#                ",
"                           w**#.#               ",
"                          q..* >..              ",
"                          q>4> qq4#             ",
"                                                ",
"                                                "
};
