/* XPM */
static char *imp_dies5[] = {
/* columns rows colors chars-per-pixel */
"63 63 41 1 ",
"  c magenta",
". c #939393",
"X c #430000",
"o c #9B0000",
"O c #AB6F43",
"+ c #9F9F9F",
"@ c #730000",
"# c #4F0000",
"$ c #5B0000",
"% c #BF0000",
"& c #B37347",
"* c gray67",
"= c #670000",
"- c #4B371B",
"; c #8B0000",
": c #6B4727",
"> c #B7B7B7",
", c #533F1F",
"< c #5F4323",
"1 c #875733",
"2 c #8F5F37",
"3 c #7F532F",
"4 c #9B633B",
"5 c #774F2B",
"6 c #7F0000",
"7 c #2B230F",
"8 c #A36B3F",
"9 c #3F2F17",
"0 c gray42",
"q c gray50",
"w c #A7A7A7",
"e c #332B13",
"r c #B30000",
"t c #A70000",
"y c #979797",
"u c #CBCBCB",
"i c #BF7B4B",
"p c #43331B",
"a c black",
"s c #1F170B",
"d c white",
/* pixels */
"                                                               ",
"                                                               ",
"                                                               ",
"                                                               ",
"                                                               ",
"                                                               ",
"                                                               ",
"                                                               ",
"                                                               ",
"                                                               ",
"                                                               ",
"                                                               ",
"                                                               ",
"                                                               ",
"                                                               ",
"                                                               ",
"                                                               ",
"                                                               ",
"                                                               ",
"                                                               ",
"                                                               ",
"                                                               ",
"                                                               ",
"                                                               ",
"                                                               ",
"                                                               ",
"                                                               ",
"                                                               ",
"                                                               ",
"                                                               ",
"                                                               ",
"                                                               ",
"                                                               ",
"                                                               ",
"                                                               ",
"                                                               ",
"                                                               ",
"                                                               ",
"                                                               ",
"                             .       XXX.oO                    ",
"                             +     @@X##+$%&                   ",
"                             *.  =@---;.*X-o                   ",
"                            :>.$=,-<122+>o;34                  ",
"                          ,-=:#$1@5o#<355;:$,63,               ",
"                       5:,-77@;8:;8@$79,::-$,3;<,0qw           ",
"                     55<e7e$@;rr;;r;6$779-e-$:=--,0            ",
"                   2215,9=;otto4o4otro6-797y$##,<-             ",
"             >    4123:1o;;2;o:5:;:6oO4o477u$X<139             ",
"              >w 5-,48tOtt;=:$##==-;1;;;22;u$X-,-e9            ",
"              8>wit8OO3t265=##9e9#$<-$,<@5<@37e9eee92          ",
"     y,3      :3884;22;25==,-777e-$<$,#--$$3447eey7:y,         ",
"  y7 77:3    :,<533;:35:=#,-p7aae9#-X9X99X<5<<37e77,772222     ",
"  7e7ee-:3  533<<:<,#-,--#-99aaa7Xe9X9Xe9X9<<52<79977713:      ",
"  79e-,-:215321315,-97e99XeeeXXXXX77XeXeX,55125,7--997::1422   ",
"   e-,-9,53<:15122:-e7XeeX$$=@@@@=$$X7X9X<3233<-799--71222:,   ",
"   e-9e9953:,5321:,e7@@@;;oootttoo;6@@@@X-<53:-977799:,,,::    ",
"    77799<5555::,,9e     ooooooo         e9-,<-9ssss7          ",
"     e9-99::<<,,e                         7e99-7s97se          ",
"      -977,,,-e                             7e9s777e           ",
"      ee77p,p                                77s777e           ",
"       7779,                                  9ssss            ",
"                                                               ",
"                                                               "
};
