/* XPM */
static char *imp_dies3[] = {
/* columns rows colors chars-per-pixel */
"45 59 44 1 ",
"  c magenta",
". c #7F0000",
"X c #A70000",
"o c #B30000",
"O c #8B0000",
"+ c #A36B3F",
"@ c #8F5F37",
"# c #BF0000",
"$ c #BF7B4B",
"% c #5B0000",
"& c #6B4727",
"* c #2B230F",
"= c #875733",
"- c #730000",
"; c #9B0000",
": c #5F4323",
"> c #3F2F17",
", c #774F2B",
"< c #AB6F43",
"1 c #533F1F",
"2 c gray86",
"3 c #CBCBCB",
"4 c #A7A7A7",
"5 c #7F532F",
"6 c #4B371B",
"7 c #979797",
"8 c #6F6F6F",
"9 c #9B633B",
"0 c gray78",
"q c #670000",
"w c #332B13",
"e c gray70",
"r c gray50",
"t c #838383",
"y c #777777",
"u c #CB0000",
"i c #430000",
"p c #CB7F4F",
"a c #D78B5B",
"s c #4F0000",
"d c #1F170B",
"f c #43331B",
"g c gray67",
"h c white",
/* pixels */
"                                             ",
"                                             ",
"                                             ",
"                                             ",
"                           .                 ",
"                         X                   ",
"                                             ",
"                        X   .                ",
"                          .                  ",
"                                             ",
"                           .                 ",
"                          Xo .               ",
"                        o  .O+Xo+@           ",
"                           ..#$$#+@          ",
"                           %%&O**&@=         ",
"                          --;#@:*>,:         ",
"                        o -;<<X&1,::   2     ",
"                      o   %%:%:-&:1:  34     ",
"                   3    o %::-:&%1:: 44      ",
"                   43==4o-+++5@*$<6:,5@      ",
"                  =@==5o7+o@=<<:$<:&$$=      ",
"                 55&&5@8X-5=9++105+6$+,5     ",
"                =5&:1,,X-oq&=+=68w,>$+1=,    ",
"               599=:w::.Xq-6@=>w**ww05:::er  ",
"              599=,:w6X.t0+91w61>***86=5:y   ",
"             @@9=,:6 6:uou61&www***ww:,5&    ",
"             5<9::6  :uOi$qOo$1www**w61w6    ",
"             =<9,6   6OO@oq:,&=>>wwwwwww     ",
"             9p9=:   >q,:q6+66w>wwwwww       ",
"            9ap=+p6 ::wqs6+=&ww>www          ",
"           59p,:=+6,&&&::::6>>>www           ",
"           5=9:  01,=,,:::::666www           ",
"           5=,0 ,=,=,&11::16:&:66*           ",
"           0   =@5,,&116116:&,,,:1d          ",
"             ,,=5,,&116f66>&5=@@@:1>         ",
"            ,,@5,&:1661f*>>1&5@@@=:>         ",
"           ,,=5@,:166>1w*ww1&,5@++,1g        ",
"          ,,=@@5&166>1f   >>1&55<<<g7        ",
"          ,@@+@5166>w:     >>,&:=9g7         ",
"         &==+@5166>*f       w&61,@@=:        ",
"         ,55,166>**          661:,,:6        ",
"        &@@=1>w***           6=1:,,16        ",
"       7g7,,&6wdd            f5:&5,16        ",
"        1&&,&1dd             >5,&,,16        ",
"        :&&,&,d               1,&,&11        ",
"        :::1&,*               6,&,@@55       ",
"        6:11:&f                :@@5:e*       ",
"        1::11:>                1551*** *e    ",
"        1&:11>f                6,6*******    ",
"        :&:11f                 ::>****d*     ",
"        &,:16f                 &>***d*d      ",
"        &,:16f                 6****dd       ",
"        &1:1f                  d****d        ",
"        6611f                   dddd         ",
"       66>61f                                ",
"     >66666ff                                ",
"   >>>1616666                                ",
"   e>w6e6>**6                                ",
"                                             "
};
