/* XPM */
static char *imp_fire5[] = {
/* columns rows colors chars-per-pixel */
"52 52 8 1 ",
"  c magenta",
". c #730000",
"X c #7F0000",
"o c #670000",
"O c #5B0000",
"+ c #8B0000",
"@ c #9B0000",
"# c white",
/* pixels */
"                                                    ",
"                                                    ",
"                                                    ",
"                                                    ",
"                                                    ",
"                    ..XXX          . .              ",
"               o OO  oooX                           ",
"              oo  OOO      ooooo   ...              ",
"            ooo  OOOO  OOO  oooooo ...              ",
"          ooooooXXXoOO  O  o ooo      oo            ",
"         ooooooXXXXo...    .oooooo  . ooo           ",
"        ooo oXXX+oo++........ooo.ooooo oo           ",
"       oo ooXXX+++++.....+...XXXXX.oooo oo oo       ",
"      oo  oOOX..@@@+++O.  oO+++++++X..oooo oo       ",
"      oooo OOO..++++++O   oO.+++++oo+Xoooo          ",
"      oo   oOO.+++++..O....O...++oooooXo  ooo       ",
"    oooo    o.X+++..oooo.   .....oo  oo+X Xooo  o   ",
"   ooooo   OOXX++..      ...   ....ooo+++XOXooo  o  ",
"   ooo o .OOo.....      .            ..++XXXX.oo oo ",
"   ooooooooo.+..   ..                 .@++XXXXoo oo ",
"   o ooooo.++.     ..                 ..+++XXXoo  o ",
"      ooX+++..  ..                     ..++XXXXo    ",
"   .. ooX+++.   ..                      .+++XXoooo  ",
"  .+. ooX++..   .  .                    .+++XXoooo  ",
" .++  o   +.   ..                       ..XXXooooo  ",
" .+.         . ..                       ..X.Xoo oo  ",
" .+   o .                                 ..Xo .oo  ",
" ..   .OoX                               . oo  .o   ",
"     o.O..X..                                  .    ",
"    o+o+X.+..                           O           ",
"  . o+o++++.+...                      ..Oo          ",
" .+ .++.++@@.+..                     ..X.   oo      ",
" .+  ++.++@@@+.                      .+o   .Oo   .  ",
" .+  ooo+++++.                    ....o.o...O   ..  ",
"  .   oo+X.....  .              .....X ooX.oO   ... ",
"      oooooOO..  ..            . ..+Xo.XXX.O  . ... ",
"   .  oX .oO O.  ...        ..  ...X..X+...   .+... ",
"   ...+X ooo  O. ..       ....    ...X+o.o o  .++oo ",
"   .+.++  ooO O..+      .......  ...X....    ..++o  ",
"   .+ .+O oo.OO.....   ......    ..X++o     .++++o  ",
"    +. +++  ooO+++.. o        X..XXX.Xo o  ..++oo   ",
"    .. ..+  oo.+XXXX      ............o    .ooo.    ",
"         ..   o..+   . ++......oooooo.  ...o...     ",
"                   o ..X.....ooooo. ...oo. ..       ",
"           ...     o ...oooOO.o   . .oo.            ",
"           ....       oooo ooo . ooooo              ",
"                  ooooooo .....oo...                ",
"                      ooooo oo  ..                  ",
"                          ooo                       ",
"                                                    ",
"                                                    ",
"                                                    "
};
