/* XPM */
static char *imp_fire3[] = {
/* columns rows colors chars-per-pixel */
"39 39 16 1 ",
"  c magenta",
". c #730000",
"X c #7F0000",
"o c #8B0000",
"O c #9B0000",
"+ c #670000",
"@ c #B30000",
"# c #A70000",
"$ c #BF0000",
"% c #CB0000",
"& c #D70000",
"* c #EF0000",
"= c #E30000",
"- c red",
"; c #5B0000",
": c white",
/* pixels */
"                                       ",
"                                       ",
"              ...XX.                   ",
"             .XXooOOO.                 ",
"           ..XX+ .oOX.                 ",
"          .++XXX...oo  .....  ..       ",
"          .++O@@@OX...oO##Oo. ..       ",
"        X...O@$$$@OOooOOO###o.         ",
"       XooXoO#####OO$%&&&@O#O. XX      ",
"      oo#Oo##$%%%$$$$%%***@oX. .#.     ",
"     o@@Oo@$%&===&%##%%&**%#X.+ .O     ",
"    oO@Oo@%%==****=%$##%&&%@O.X+ + ..  ",
"    o@Oo@%%=***---*=%$$$#%o##.OX+  ..  ",
"   .o@O#$%=&-----**=&$&&$##o#o##+++ .  ",
"   .o#O#$%&*--**%#$$@@$&==$#oo#@.+..   ",
"   .o#O#$$%***%$@$$%oo#$&=%@#OoO. oO.  ",
" . .O#OO$@@=*=&$#%@oo  o$=&%%#o.. .oO+ ",
"    oo.@$$%===&$@@o Oo o@$%==%Oo.+ oO. ",
"  + ++.$$$%&%-=%Oo   Oo##$%==%O#o+.oO. ",
" +. ++o@@@%&=-=%O.    O#@$=%@@##o+.oo. ",
" +o.++X.@$$%==%$Oo    .o#===@O@@X.+oo+ ",
" +oo+.oo@&&$&=&%@OO  OO#$=%%$O@#+.+..+ ",
"  .o..oOO$&&&==&O#o##@%&=*$%#@#X+++++  ",
"  +o..O@.$&&$%&&%$%$%&*--*%=O#o+++ +   ",
"   ++.O@OO@&&$%%#$@%*---=@=%Oo+X+      ",
"      .OO.O@&$$$O$%%===%$=%#oXOO+ X+   ",
"  . .O oo..o$$$oOOO@$%====%OoXOO..o+   ",
"    .. ..;+..oo..ooO@%%%%@OoXOOX +++   ",
"      .  +;++.....ooO@@@@@OoOOX+ ++    ",
"         .+;+.o#o..ooOOOOOo..++        ",
"          ....o###..oooo...++          ",
"              .o##.....++ .XX oX       ",
"           ..  ...++;    .oO. ..       ",
"           .OO.        . .oo           ",
"            ..   .                     ",
"                                       ",
"                 ..   .                ",
"                                       ",
"                                       "
};
