/* XPM */
static char *imp_walk4[] = {
/* columns rows colors chars-per-pixel */
"43 64 40 1 ",
"  c magenta",
". c #774F2B",
"X c #7F532F",
"o c #9B633B",
"O c #875733",
"+ c #8F5F37",
"@ c #B37347",
"# c #6B4727",
"$ c #AB6F43",
"% c #BF7B4B",
"& c #A36B3F",
"* c #5F4323",
"= c #4B371B",
"- c #730000",
"; c #FF1F1F",
": c #533F1F",
"> c #4F0000",
", c #8B8B8B",
"< c gray67",
"1 c gray42",
"2 c #838383",
"3 c gray50",
"4 c #777777",
"5 c #2B230F",
"6 c white",
"7 c gray70",
"8 c #B7B7B7",
"9 c #9F9F9F",
"0 c #3F2F17",
"q c #7F0000",
"w c #DFDFDF",
"e c #332B13",
"r c #9B0000",
"t c #CB7F4F",
"y c #D78B5B",
"u c #CBCBCB",
"i c gray75",
"p c #A7A7A7",
"a c gray39",
"s c #6F6F6F",
/* pixels */
"                                           ",
"                                           ",
"                                           ",
"                                           ",
"                                           ",
"                                           ",
"                 .XooX.                    ",
"                .O++++O.                   ",
"               .+OOOOOO+.                  ",
"               .@oX##Xo@+                  ",
"              X$%@&OO&@%$X                 ",
"              O*=$o$$o$=*O                 ",
"              O#-;*::*;-#O                 ",
"               O#>=##=>#O          ,       ",
"               .O*#++#*O.    <   12        ",
"    34    <  ..=O526725O:OX.##.:281        ",
"     394  O+O.*0X5q55q5X0=*#X++Xw2         ",
"       9wX+&o#=e#:rrrr:#ee=:.X&oX:         ",
"        3.Oo.:0e*526725*e0:#+oo+X#         ",
"        *.XO+#=0=*tyyt*=e:XO+O###*=        ",
"       0e*#....=0==00==e=#XXO.:*:=0:       ",
"  <<ui2=000:#28*=e=**=e0#.28.*0=0e0*wp3    ",
"    aaa:=ee0:0=::05555=*###0*=e550=::      ",
"    =*#*=05e00=::=0050=:*:=ee555ee0=:      ",
"    =*.#=0e5e0=::=0e55e00ee00e5e0ee0=*     ",
"    =:#*0ee0e555e0e5e5eeee0:=e 0=0eee:     ",
"    =:=0e5 0=50::=ee=ee=::=00e  ==0ee=     ",
"   :##:=e5  e0:=0e==5==0e=:ee    e00e0*    ",
"   OooO#0e   0=ee::050::0500e    555e0=    ",
"  .XOOOX*=5   e555e000=0e55e     55e0:=    ",
"  =*####=555  5e0:#:e=#:05ee     55e0:0    ",
"   ==:**5055  0ee==0e0==e5e0     55e=:0    ",
"      =:55050 0e55ee00=0ee00     e5e:==    ",
"        =05   e00===00:=00==      50=0     ",
"              00=*#:e=#:=0:==     ee00     ",
"             :==:::=e0:=0=:==     5550     ",
"             :*##*:000=00:=00=   =e50      ",
"             *.XX.*=eeee0=0e0=  ==0=0      ",
"            =#X++X.*0ee500ee0=  =0=0=      ",
"            =#Oo&O.:=55500e50=: :=00       ",
"            =#Oo&O#== 550ee50=*            ",
"            =#O++O:*= 550555e=*            ",
"            =*XOX#*#= 5ee555e=:            ",
"            =:###*.*= 5e5555e0             ",
"            0=::=#*:=  55555e0             ",
"             =000::==  55555e0             ",
"             =0ee0==   55555e              ",
"             0=*:000   55555e              ",
"              *7#*00   555ee0              ",
"              a,a:0e   e55ae=*             ",
"               ==0e0   =e5se0:             ",
"               05550=  :e5550=             ",
"               055500:  e5550              ",
"               =555ee:  e55e0              ",
"                55550:   eee0              ",
"                eee0::  0e5000             ",
"                 000*   ==5===             ",
"                 ===*  =:= ::=             ",
"                 :*::  =90 =9=             ",
"                :#.*:=                     ",
"                #.#**:                     ",
"               ..= *..:                    ",
"               700 =7=:                    ",
"                                           "
};
