/* XPM */
static char *imp_dies1[] = {
/* columns rows colors chars-per-pixel */
"44 65 48 1 ",
"  c magenta",
". c #CB0000",
"X c #A70000",
"o c #774F2B",
"O c #7F0000",
"+ c #533F1F",
"@ c #9B633B",
"# c #7F532F",
"$ c #4F0000",
"% c #5B0000",
"& c #8F5F37",
"* c #875733",
"= c #B37347",
"- c #6B4727",
"; c #4B371B",
": c #3F2F17",
"> c #A36B3F",
", c #838383",
"< c gray70",
"1 c white",
"2 c gray67",
"3 c gray50",
"4 c gray42",
"5 c #2B230F",
"6 c gray39",
"7 c #5F4323",
"8 c #777777",
"9 c #939393",
"0 c #DFDFDF",
"q c #9F9F9F",
"w c #332B13",
"e c #6F6F6F",
"r c #B7B7B7",
"t c #A7A7A7",
"y c #CBCBCB",
"u c #979797",
"i c #430000",
"p c #670000",
"a c #8B0000",
"s c #BF0000",
"d c #730000",
"f c #AB6F43",
"g c #BF7B4B",
"h c LightGray",
"j c gray34",
"k c gray86",
"l c gray75",
"z c #8B8B8B",
/* pixels */
"                                            ",
"                      .                     ",
"                                            ",
"                     .  .                   ",
"                       .                    ",
"                      .X                    ",
"                     oooooo                 ",
"                    oO+@@#oo                ",
"                   oO$%&&&*oo               ",
"                   oO%+****&o               ",
"                   o=&--&=o@o               ",
"                   o;:@@:+-oo               ",
"                   o+;--;+*oo               ",
"                   *o-&&-@&oo               ",
"                   >+,<1,+>*o               ",
"         23      &o*;45545**o               ",
"          326 #&&7777;<1,7#o+*    89        ",
"           803#*77+:+---o#o7+**o@@,q        ",
"            8-&#**-+w7-&#o7::;7##892        ",
"            --#@&#*#+wwwwwwww;7-@eqr        ",
"            ++-*##oo#+wwww:;7-#&&#e37       ",
"            :;:##o--oo;;+ooo#**&&&*#-+      ",
"       233-++ww+777+77;+7------*#o-7++      ",
"         <0+;w55:re;;7;++77+++77-7++7--     ",
"         -+;:w555:;;;+;+7+7re;;++;+-#*o,qt,4",
"         +;:w55555w;+:w:+7;;;;;+;w7#*&oqyu  ",
"         +:ww55:55ww:w;:w:wwwwww:57o#*#o-   ",
"        ;:ww555 w:;+7wi::;+7+;:w5w+-o#o-7   ",
"       5:wwww5:  ;+;5ippiw;+7+;:5w:+-o-7+   ",
"       555555:   :+5ipaspiw;+77;:;7-o#o-7;  ",
"      +>=555w;    w5iad%%iww;+7;7o*&&@*-7;  ",
"   @0+o=0555w     ++wd-of>@&*#oo#&@@&*o7+-  ",
"  @g*7;*h55w      +#;;*+=@&*#o--o#*#o-7+-*  ",
"  fo+;w5+5w       :+#;;o-&&o-7+7-oo-7+7-*-  ",
"  o#o-++w         ;:-7o;+o-7;w55w:;+;++7-   ",
"    #+*0         77;:-+::7+;w:;+;+     0e   ",
"    #ff&         #7+:;+;+:5;;+77;+      <j  ",
"    ff*         ##-+::+;;;;;+7-o++       8  ",
"                #&-;:::w::;+7o##-++         ",
"               -*&-;:555w:+7-#@*-7+         ",
"               -&*7;:5555:+7-*@&o7+         ",
"               -&o7;:555 :+7-*f&#7;         ",
"               o&o7+;5:  :++-#f&#+;         ",
"              -o*#-7;5w  ;;+-o*#o+;         ",
"              -oo&o7;5w   :;+--o-:          ",
"              :-7o#+:5w   w:;+7++:          ",
"              :;+7-;w5w   www:::w:          ",
"               :;++:w5:w  w+:www:;          ",
"               :w::w5:;:  w;:+7+ww          ",
"               k::;;w+;;5 w::-l#5           ",
"                 ::w:;;::5 ::7zo:           ",
"                  ::www::5-:;;;:*           ",
"                    :55:::7:;++:-           ",
"                     5555:+:;7+:+           ",
"                    w::55:;:;7+:;           ",
"                   ::;;:5:::;-+:            ",
"                  ::;;;;5 w:;-+:            ",
"                  <: ;+;   w;-+             ",
"                    ;<;    :+7+             ",
"                           +7o-+            ",
"                          +77-o-            ",
"                         +oo7 ;oo-          ",
"                         +;<; ::<-          ",
"                                            ",
"                                            "
};
