/* XPM */
static char *imp_fire2[] = {
/* columns rows colors chars-per-pixel */
"17 17 32 1 ",
"  c magenta",
". c #670000",
"X c #8B0000",
"o c #9B0000",
"O c #CB0000",
"+ c #D70000",
"@ c #B30000",
"# c #BF0000",
"$ c #EF0000",
"% c #E30000",
"& c #7F0000",
"* c red",
"= c #FF3F3F",
"- c #CB5707",
"; c #B74700",
": c #5B0000",
"> c #FF8F3B",
", c #FF7F1B",
"< c #D75F0B",
"1 c #730000",
"2 c #A70000",
"3 c #FF1F1F",
"4 c #FF5F5F",
"5 c #FFA35B",
"6 c #FFC79B",
"7 c yellow",
"8 c #F37317",
"9 c #DF670F",
"0 c #FFB37B",
"q c #EB6F0F",
"w c #C34F00",
"e c white",
/* pixels */
"                 ",
"      .Xoo.      ",
"    ooO+OO@oX    ",
"   o#+$+#+XOOo   ",
"  .X+%+#$#@+%#o  ",
"  &@%**=-$;;%*#  ",
" :oO%$>,>>><+*OX ",
" 1&2O34567758**O ",
" &o2+*,6777758%& ",
" X@+*3905>5,-%#o ",
" .o+**,8,<qq=%#X ",
"  &@%*w%O**=-$@  ",
"  .oO+%+O%+**OX  ",
"   .oo@2Xo@O@2   ",
"    :.1&X@oXX    ",
"      .11&.      ",
"                 "
};
