/* XPM */
static char *imp_attack1[] = {
/* columns rows colors chars-per-pixel */
"53 64 50 1 ",
"  c magenta",
". c #774F2B",
"X c #7F532F",
"o c #9B633B",
"O c #875733",
"+ c #8F5F37",
"@ c #B37347",
"# c #6B4727",
"$ c #AB6F43",
"% c #BF7B4B",
"& c #4B371B",
"* c #730000",
"= c #5F4323",
"- c #777777",
"; c #D70000",
": c #FF7B7B",
"> c #838383",
", c #8B0000",
"< c #939393",
"1 c #9F9F9F",
"2 c #2B230F",
"3 c white",
"4 c gray70",
"5 c #533F1F",
"6 c gray67",
"7 c #6F6F6F",
"8 c #B7B7B7",
"9 c #979797",
"0 c #670000",
"q c #3F2F17",
"w c gray50",
"e c gray39",
"r c #A7A7A7",
"t c #A36B3F",
"y c #B30000",
"u c #BF0000",
"i c #332B13",
"p c #CB0000",
"a c #EF0000",
"s c #CB7F4F",
"d c #D78B5B",
"f c gray42",
"g c #CBCBCB",
"h c LightGray",
"j c cyan",
"k c #2F2F2F",
"l c #DFDFDF",
"z c gray34",
"x c gray31",
"c c gray78",
/* pixels */
"                                                     ",
"                                                     ",
"                         .XooX.                      ",
"                        .O++++O.                     ",
"                       .+OOOOOO+.                    ",
"                       .@oX##Xo@+                    ",
"                      X$%@X##X@%$X                   ",
"                      O&*OoXXoO*=O        -          ",
"                      O#;:=oo=:;#O        >          ",
"                       O#,&##&,#O        -<          ",
"                       .O=#++#=O.X+#     >1          ",
"                        +2>34>2O5#XO+OXX-<6          ",
"                        +222222X&5=#XO+o718          ",
"                79     Oo220022Xq&5=.O++X7w=         ",
"                 er> =OXt2,yu,2Xiq5.+O+++OX#5        ",
"                  78+OX.o2paap2X25.+O.OX.#=55        ",
"                   XO+OX+2>34>2X&.+O.###=55=##       ",
"                   .XOX.O.sdds##5Ot+#==5&5#XO.>1r>f  ",
"                   #.X.#=oX.#==&#Xo+#55&i=XO+.1g9    ",
"                16hj=#=55&O++#&i=.+8=&qi2=.XOX.#     ",
"                   #5&q&5.=&qiki5#&w&qi2i5#.X.#=     ",
"                  #.#5&qi5855qki&5qq&i2iiq5#.#=5     ",
"                  .X.#=&iqq55qkiiqqq22iq&=#.X.#=&    ",
"                  =.#=5&i22qq2iiii22iq&=.O++oO#=&    ",
"                  &=5&qii 222i.$to+OX..X+oo+O.=5#    ",
"                  qqqiii   2iO5@o+OX.##.XOX.#=5#O    ",
"                ##qiiii2   i2&.#++.#=5=#..#=5=#O#    ",
"              .XX#qqii2     2.&5.#=&i22iq&5&55=#     ",
"  w9=.O.     XX.#5&&q2      22#q=5&iq&5&qq&   l7     ",
"      =.O.#=X.#=5&qi2       qq55q2&#=5&qiqq&   4z    ",
"       5#XX#=5&qi22         qiq5&i&=5&qiq&&q    -    ",
"       225#&5&qi2           qqiq5i&5&qiq&5=5&        ",
"      &i2i5&i2             &&&qiqq&&qiq&=##=5        ",
"     522 2iq               5&&&qiiqqiq&=#..#=        ",
"     #2  i2                5&55&qiiii&5#.X..#        ",
"    9   i2                5&5==5&qiii&=.OoOX.#       ",
"       9                  &&=##=&qiii&#X+t+O.#       ",
"                          q&=#.=&i2 i&#OOoOX.#       ",
"                          q&=##5qi2 i&#XXOX.#=       ",
"                          q&=#=&q2i  &=.XO.#=5       ",
"                          q&==5qi2&  &5=.X#=5&       ",
"                          qq55&i2i5  q&5=.#=&        ",
"                          qiq&q222=   q&5#=&i        ",
"                           iiii222    iq5.5qi        ",
"                           x1ii222    ii.c.&i        ",
"                           <&qi222     i545ii        ",
"                          w iq2222     iq=&ii        ",
"                            iii222=    #i5qqi#       ",
"                             ii2225    5qiq&i=       ",
"                             ii222&    qqq=5q5       ",
"                              ii22q    iiq=5q&       ",
"                              =i222     iq=5&&       ",
"                              #q22i     iq=5&        ",
"                              #qq2i     iq5&         ",
"                             &# &qq     iq&&         ",
"                             &6 =6      iiqq         ",
"                                        qq&q         ",
"                                        &&&&&        ",
"                                       &5..#5        ",
"                                       5==#.##       ",
"                                      5..= &..#      ",
"                                      5&4& qq4#      ",
"                                                     ",
"                                                     "
};
