/* XPM */
static char *imp_fire4[] = {
/* columns rows colors chars-per-pixel */
"45 45 12 1 ",
"  c magenta",
". c #670000",
"X c #7F0000",
"o c #8B0000",
"O c #730000",
"+ c #9B0000",
"@ c #A70000",
"# c #B30000",
"$ c #5B0000",
"% c #BF0000",
"& c #CB0000",
"* c white",
/* pixels */
"                                             ",
"                                             ",
"                                             ",
"                 .....                       ",
"               ..XXXXX..                     ",
"            .XXX...XXXX..                    ",
"          ..XXXX.ooooooX.. ....              ",
"         .XXXo..ooOo+@@oo....O..O            ",
"        .XXXooooooo++@@@+oXXXXXO..O          ",
"        .XXOO++++ooooo+@@++++oooXOO.         ",
"        ..OO+++++++++ooo++++@@@+ooX..        ",
"       O.Ooo++@#######@o+o++#@@@oooX.        ",
"      .O$o++@#####%%%%#+o#+++@@@o++oXX XOX   ",
"     .O$o++@#%####%%%%+%&#@++++++@+ooXX$OOX  ",
"     .OOo+@#%%####%%%%###@+ooo++@@@++oXO$OO  ",
"    .OXo+####%%######&##++XXoo@@####++XO$.O. ",
"    .Xoo@#@@#%%%#+++++@@ooXXXXX@##%#@+ooO$.. ",
"    .Xoo#%#@%%##+XXOOOooOOOOXXX+#%%%@@+oO$.. ",
"    .Xo+#%#++##+XO$$$$$$   $$OXo###%@@+oo... ",
"    .Xo@##@ooo@X$     $$     $Oo+@@#@@+oo..  ",
"   .$Oo@##@oXX+$              $X+++@@@+XX..  ",
"   .OOo+##@o..X$ ..            $o+++@+XXO.   ",
"  O.$OX+@%#@..$  ..            $oXo+++XOOX   ",
"  OO$.Xo@%%%@o$$           $  $XXXXXoOOO..   ",
" .Oo$OOX+@##%+$$$             $oXoXOO$$...   ",
" .OXoXOoo#%%%@X$           $  O+@+oX$$$$$..  ",
" .OXoooo@#%%#@o$           $ oo#@+ooX$.$$..  ",
" .OXooo@#%%%#@o$          $Xoo@##@ooXO.O...  ",
" .O.Xoo@@#%%%#@o$         $o@@###+ooXOOOO$.  ",
" .$..Xoo@#%%%%#@o$OO     $o@@@##++ooXOOXO$.  ",
"  $..OXO+#%%%%###o O$$$$OX@@@@+++oXXXXXXO$.  ",
"   .$OOo+@##%%%@@o   OOoo@##@+++oXXOXXoO$.   ",
"   .XOOOo+@@@###@oX    Oo@#@++ooXXOXXooO$.   ",
"    $XOO+XX++@@@+ooXOOooo++@@ooXXOOXXoO$..   ",
"    $XXo+Xoo++ooo++ooooo+++ooXXXOOXoXO$..    ",
"     $XOoOOo++o++@@@++oo+oXXXXOOOXooXX..     ",
"      .$O..Oooooo+@@@@+++oXXXOXOXXX....      ",
"          .OoXXXXXoo@++oooooXOOOOOO.         ",
"           .OOooXOOXooooOOXX.......          ",
"             OOooXOOXoO.O......              ",
"             ..OOOOOO...$$O.                 ",
"                ....... ...                  ",
"                                             ",
"                                             ",
"                                             "
};
