/* XPM */
static char *d69b4d482fda4b28ab988fe09fd4f1542UP6K7tBOpcNqkXP[] = {
/* columns rows colors chars-per-pixel */
"27 51 38 1 ",
"  c magenta",
". c #232323",
"X c #272727",
"o c #373737",
"O c black",
"+ c #1B1B1B",
"@ c #434343",
"# c gray28",
"$ c #D7BB43",
"% c #EBDB57",
"& c #FFFF73",
"* c #FFFF8F",
"= c #FFFFB3",
"- c #FFFFD7",
"; c white",
": c #FFFF6B",
"> c gray23",
", c #3F472B",
"< c #5B5B5B",
"1 c gray39",
"2 c #2F2F2F",
"3 c #4B4B4B",
"4 c #131313",
"5 c #1F170B",
"6 c #13230B",
"7 c #070707",
"8 c gray31",
"9 c #332B13",
"0 c gray34",
"q c gray42",
"w c #777777",
"e c #838383",
"r c #8B8B8B",
"t c #6F6F6F",
"y c #0B0B0B",
"u c gray50",
"i c #979797",
"p c #939393",
/* pixels */
"                           ",
"                           ",
"           .XoX.           ",
"         O+Xo@oX+O         ",
"        O+Xo@#@oX+O        ",
"        $%&*=-=*&%$        ",
"        $%&*-;-*&%$        ",
"        $%&*-;-*&%$        ",
"        $%&:=-=:&%$        ",
"        >,><1<#o>>,        ",
"        2X.@3@.4452        ",
"        22.o3@.4452        ",
"        264@3@.7442        ",
"        2X.@3@.4452        ",
"        22.o3@.4452        ",
"        2.5o#,.4452        ",
"        2.4o#@.4452        ",
"        2.5o#@.4452        ",
"        2.5o#@.4452        ",
"        2..o#@.4452        ",
"        2..o8@.4442        ",
"        295o8@.4442        ",
"        2..o8@.4442        ",
"        2..o8@.4442        ",
"        2..>8@.4442        ",
"        2..>8@.4442        ",
"        2..>8@.4442        ",
"        2..>8@.4442        ",
"        2..@8@.4442        ",
"        2X.#0@.4442        ",
"        22281@.4442        ",
"        22o81#.4442        ",
"        22@<q8.4442        ",
"        22@1w<X4449        ",
"        22@1e<2444X        ",
"        o@0wrt#2XXo        ",
"      2.@811080###oX.      ",
"       2++o1w8.OOOy2       ",
"       2.@wuir1o2222       ",
"      2.#wq1<<03@>o9X      ",
"       2.O21u1.OOOO2       ",
"       2.@wrip1#222.       ",
"      2.#w11<00##@o2.      ",
"       2.O20w0XyOOO2       ",
"     o>@@@wrir132222oo     ",
"   >>>@38<qwrprwq0#@>>>>   ",
"  >@@@380<11qtq11<083@@>>  ",
"  @##330<11qtwtq11<033#3#  ",
"    338<11qtwuwtq11<833    ",
"        1tttwuwttt1        ",
"                           "
};
