/* XPM */
static char * south_texture_xpm[] = {
"16 16 2 1",
" 	c #FFFFFF",
"S	c #000000",
"                ",
"                ",
"                ",
"                ",
"    SSSSSSSS    ",
"   SSSSSSSSS    ",
"   SSS          ",
"   SSS          ",
"   SSSSSSSS     ",
"    SSSSSSSS    ",
"          SSS   ",
"          SSS   ",
"   SSSSSSSSS    ",
"   SSSSSSSS     ",
"                ",
"                "
};