/* XPM */
static char *c6171ee7e8984b30a309138c332d3efaDe5Ms7rcJfqcmKrS[] = {
/* columns rows colors chars-per-pixel */
"43 64 39 1 ",
"  c magenta",
". c #774F2B",
"X c #7F532F",
"o c #9B633B",
"O c #875733",
"+ c #8F5F37",
"@ c #B37347",
"# c #6B4727",
"$ c #AB6F43",
"% c #BF7B4B",
"& c #A36B3F",
"* c #5F4323",
"= c #4B371B",
"- c #730000",
"; c #FF1F1F",
": c #332B13",
"> c #3F2F17",
", c #4F0000",
"< c #8B8B8B",
"1 c #2B230F",
"2 c #838383",
"3 c white",
"4 c gray70",
"5 c #6F6F6F",
"6 c gray67",
"7 c #8B0000",
"8 c #9F9F9F",
"9 c #533F1F",
"0 c #670000",
"q c #E7E7E7",
"w c #979797",
"e c #9B0000",
"r c #777777",
"t c #CB7F4F",
"y c #D78B5B",
"u c #B7B7B7",
"i c gray28",
"p c gray86",
"a c #DFDFDF",
/* pixels */
"                                           ",
"                                           ",
"                                           ",
"                                           ",
"                                           ",
"                                           ",
"                     .XooX.                ",
"                    .O++++O.               ",
"                   .++OOOO++.              ",
"                   .@oX##Xo@+              ",
"                  X$%@&OO&@%$X             ",
"                  O*=Oo$$oO=*O             ",
"                  O#-;:>=:;-#O             ",
"                   O#,=##=,#O              ",
"                   .+*#++#*+.           <  ",
"                  +.&123421&.+X       <45  ",
"      26        o+O.o>7117>o.O++.   5685   ",
"       2825  Oo&oO#9+=7007=+9#Oo&o+6q65    ",
"         w6qOo&+O*=>O97ee79O>=*O+&o+O5     ",
"          r6.Oo&+.*=X*2342*X=*.+&o+OX.     ",
"           ##.+o+O#9#9tyyt9#*XOoo+OX.#     ",
"           *9*XOXXX>9.*99*.9#O+++O.##*=    ",
"          >==>###2u*>9*##*9=.O6qO#*=*9=q6< ",
"      226q=>::=***>9=>=:1:=*.X.>#9=>=====  ",
"       99*9=:1:=99>99=>>1>=9*#*>9=>::>>>:  ",
"       9**=>111:>=>9*9>:::=99*=>>::1>===>: ",
"       99=>111=>:>>>>::::::>>>>>>=:1=9*9=: ",
"      9=>:11:>:=>>=9*9>:=:>9*9=>:>11=*#*=: ",
"      9>:11>=  :>=9=>=*919*=>=9=::  :9*9>1 ",
"   6q9*#=:1=    >==:>99>1>99>:==>    i>>11>",
"     9##9>:=     =:111:>>>:::::=      :::==",
"     *.#9>:      >1:>9#9:*#9>::>      11:9*",
"     #X*9>:      =>::==>:>==::>=      1:>*#",
"     .O9=>       9=>::>>=>>:>>=9      :>=*.",
"     .X9>:      >9==9*#*9#.#9==9=     :==#.",
"     ..9>       >9=>=*#9>9#9=>>9=     >=9#.",
"     ..9:       =*9=>99=:=9=>>=9=     >9*#*",
"     ##9:       =#*9=>=999=>>=9*9=   #XX#. ",
"     #*#=      =9##*9=>===>>=9**9=  9=###. ",
"     9*..>     >9#.#*=:>>>>>=9##*=> >>=*#  ",
"     9##=>     :9#X.#9:111>=9*.#*=> ::>*9  ",
"     *9>:1     :=#OX.9:111>=*#.#9=>  111   ",
"      111      :=#XO.=:>  :=*#.*9=>        ",
"               :9*.O#=:=  :>9##*=>>        ",
"               >#9*#*>>9  ::=#*9=:>        ",
"               >#*9*===9  >:>99=>:         ",
"               >9#*>>>99  =>:>=>::         ",
"                =9=::>99  =>::>>:>         ",
"                :=>11:>=   >:==>:          ",
"                 :1=9=:>   ::9p=:          ",
"                 >1***::   ::>6>:          ",
"                  >*p*::   ::12::          ",
"                  >>a9>>9  >:11:>          ",
"                  >>::>=*  ::11:>          ",
"                  =:::>9*  ::>>:           ",
"                   :::>99  :>==>           ",
"                   :>===   >====           ",
"                    =*#9   >=9=9=          ",
"                    9#.*   =>= ==          ",
"                   9#..*=  =6> 6=          ",
"                  ##.#**9                  ",
"                 #..= *..9                 ",
"                 #4>> =4=9                 ",
"                                           "
};
