/* XPM */
static char *_99694c0b6014da1be10b0192a4b0bddrN13h6fFs7tAqPVX[] = {
/* columns rows colors chars-per-pixel */
"43 64 39 1 ",
"  c magenta",
". c #774F2B",
"X c #7F532F",
"o c #9B633B",
"O c #875733",
"+ c #8F5F37",
"@ c #B37347",
"# c #6B4727",
"$ c #AB6F43",
"% c #BF7B4B",
"& c #A36B3F",
"* c #5F4323",
"= c #4B371B",
"- c #730000",
"; c #FF1F1F",
": c #332B13",
"> c #3F2F17",
", c #4F0000",
"< c gray67",
"1 c gray50",
"2 c #777777",
"3 c #838383",
"4 c gray39",
"5 c #2B230F",
"6 c white",
"7 c gray70",
"8 c #A7A7A7",
"9 c #9F9F9F",
"0 c #DFDFDF",
"q c #7F0000",
"w c #670000",
"e c #8B0000",
"r c #533F1F",
"t c #CB7F4F",
"y c #D78B5B",
"u c #B7B7B7",
"i c #8B8B8B",
"p c gray42",
"a c gray75",
/* pixels */
"                                           ",
"                                           ",
"                                           ",
"                                           ",
"                                           ",
"                                           ",
"                                           ",
"                    .XooX.                 ",
"                   .O++++O.                ",
"                  .+OOOOOO+.               ",
"                  .@oX##Xo@+               ",
"                 X$%@&OO&@%$X              ",
"                 O*=Oo$$oO=*O              ",
"                 O#-;:>=:;-#O              ",
"                  O#,=##=,#O#              ",
"      <1       O++.O*#++#*O.*        23    ",
"       1<4  XO++O.*O536735O=*.X.    89     ",
"        201X+&oO*=>X5q55q5X>=*.ooO.09      ",
"         2#+&$O*>::.5qweq5.:>>#O$oX##r     ",
"         ##XO&o+*=:*536735*:>rOo&oX#*r     ",
"         rr#XOOXX*==*tyyt*=:r#XO+X.**r     ",
"         >=>=#XX.#=>==>>==:r#XXX#r>=r=>    ",
"    <11#rr::>=r3u**>>=**=>>**3u#*=>>=>>0ui3",
"      70r=::55:>>=r=>5555:=rrr>*r=:>=>>>   ",
"      #r=>:55:::>=rr*r5:5r**r=>r=>:>*rr=#  ",
"      r=>:555>>>5:>=r>:>:>rrr=>:>:::r#*r=  ",
"      r>::555>>55:::>:>=>:>:::::>:5:=r**>8 ",
"     =>::555>5>:>=r*r=>>>=r*r>:5:5>:>==*r. ",
"     >::::5>  :>=r=>=r=5r*>>=*=55  >:>>r*r ",
"     >=:55>    >>>>>=>:5>r=>>=r>    >>r*#* ",
"     >r=>r=     >:::::>>>::::>r     *..**r ",
"     >*#*r=     >::>r#r:*#=::>=     #+O#*r ",
"     >r*r>      r>::==>:>==::>=    *.+O#*r ",
"     >r=>>      r*r>>>>>>>:::>r =##r+O.*r  ",
"     >=>:       =r***#*#..*=:>r=rr#r#.#r   ",
"     :>>:      >==rr*#r>*#r>==r====.r=r    ",
"     ::::      >====rr=**r>=r**::::#r      ",
"     5::::     >===========r*#.r55>>       ",
"     55:5:    >>===>:>>>>=r*.XX#rr         ",
"     5555:    >>===>::::>r*#XoO#*r         ",
"      555     >>===>:555>r*#Oo+.*r         ",
"              >>===>::55>r*#O$+X*=         ",
"              >:>==>::5 >rr#X$+Xr=         ",
"              >:>==>:55 ==r#.OX.r=         ",
"              >:>==>:55  >=r##.#>          ",
"              >::>>:555  :>=r*rr>          ",
"               :5::555   :::>>>:>          ",
"               :555555   :r>:::>=          ",
"               ::55555   :=>r*r::          ",
"                >r=>>5*  :>>#aX5           ",
"                >rr=>5=*  >>*i.>           ",
"                :>=a=5>r  #>===>O          ",
"                 :>i>55=  *>=rr>#          ",
"                 ::2555>  r>=*r>r          ",
"                  :5555   =>=*r>=          ",
"                  :55::   >>=#r>           ",
"                  :==::   :>=#r>           ",
"                  ===>5    :=#r            ",
"                 =r=r=>    >r*r            ",
"                 == =>=    r*.#r           ",
"                 <> ><=   r**#.#           ",
"                         r..* =..#         ",
"                         r=7= >>7#         ",
"                                           "
};
