/* XPM */
static char *d3bada2864194f7d9f8f79cebad1716dqOd43CN0whFzWjMz[] = {
/* columns rows colors chars-per-pixel */
"43 64 41 1 ",
"  c magenta",
". c #774F2B",
"X c #7F532F",
"o c #9B633B",
"O c #875733",
"+ c #8F5F37",
"@ c #B37347",
"# c #6B4727",
"$ c #AB6F43",
"% c #BF7B4B",
"& c #A36B3F",
"* c #5F4323",
"= c #4B371B",
"- c #730000",
"; c #FF1F1F",
": c #332B13",
"> c #3F2F17",
", c #4F0000",
"< c gray75",
"1 c #838383",
"2 c white",
"3 c gray70",
"4 c gray50",
"5 c #A7A7A7",
"6 c #2B230F",
"7 c #8B0000",
"8 c gray42",
"9 c #B7B7B7",
"0 c #9F9F9F",
"q c gray39",
"w c #670000",
"e c #533F1F",
"r c gray86",
"t c #777777",
"y c #DFDFDF",
"u c #9B0000",
"i c #CB7F4F",
"p c #D78B5B",
"a c gray34",
"s c #979797",
"d c #E7E7E7",
/* pixels */
"                                           ",
"                                           ",
"                                           ",
"                    .XooX.                 ",
"                   .O++++O.                ",
"                  .+OOOOOO+.               ",
"                  .@oX##Xo@+               ",
"                 X$%@&OO&@%$X              ",
"                 O*=Oo$$oO=*O              ",
"                 O#-;:>=:;-#O              ",
"                  O#,=##=,#O               ",
"                  .O*#++#*O.           <   ",
"                  =O=1231=O=*        45    ",
"     44         .*>X676676X>*.#    849     ",
"       00q  O+OX*=:.67ww76.:=#O+.*e5r      ",
"        ty00+&+e>6:#e7uu7e#::=*XoX#ee      ",
"         t#XO+OX=>:*612316*:>eXo+O.#*      ",
"          *#..###e:=*ippi*=:eX+O##X.#      ",
"          =**ee*#*>:e=66=e>eXOX..=*#*e     ",
"         >:66=e19a=>>*##*>>*#19##=>ee=ys1  ",
"     115d=>66:==>=e=>:666>=**e>*e>66:===   ",
"      eeee=:66:>>=ee=>>6>=eee=>e=:66:>>    ",
"      e**=>66:6:>=e*e>:>:=e**=>>::6>e*e=   ",
"      ee=>666=>:66::>:>>>:>::::>=:6>*#*=   ",
"     e=>:66:>:=>>=e*e>>=>>e*e=::>66:=*e>   ",
"     e>:6:>=  :>=e=>=*e6e*=>=e=:: >6>=>:=  ",
"   5e##=::=    >==:>ee>6>ee>:==>   >6::>e0 ",
"   e#X+.e=      =:666:>>>:::::=     >::=*e ",
"   *e#X.*e      >6:>e#e:*#e>6:>     >e=e*= ",
"   #ee****      =>::==>:>==::>=     =#e*e= ",
"    *=e*..e    >e=>::>>=>>::>=e     =*#*e= ",
"     *=eOX#*   =e==e*#*##.#e==e      *#*=  ",
"      e=O.=#   ee=>=*#e>e#e==ee      e#*>  ",
"      e=e#.#   e*e=>ee=e=e=>=*ee    >=ee>  ",
"       e=>=e   e#*e===>:>=>>*#*e    >>>>   ",
"        ::e   ee..*e=>::::>e#.*e    >>>>   ",
"              eeXO.*=>:::>=*X.#*=   >>>>   ",
"              =eX+O#e>66:=*.X.#*=          ",
"              =e.OX#*=  =e#.X.#*=          ",
"              ==*..#*=  =**.X.#*=          ",
"              =>e***e>  =#**.#*e=          ",
"              =>=eee=>  =*.e#**e=          ",
"              e>>=e=>=  =e*#=ee=           ",
"              e=>===>=  ==ee>>==           ",
"               e=>=>=e   ==>::>=           ",
"               e=>>>e=#  >>>e=:=           ",
"               ==>::==*  :>***==           ",
"                =:66:=*  ::e3*=            ",
"                a>=.::=* ::>1>>            ",
"                 >e3e::= >=>>>>*           ",
"                 =>1:66= *e>>=>*           ",
"                 e=6666= *=>>=>e           ",
"                  e6666e ==>>=>>           ",
"                   >:66e  =>>=>            ",
"                   >:66e  >>>=>            ",
"                   :==:e  >>>>             ",
"                   ===>e  =>>>             ",
"                  =e=e=>  =>>>             ",
"                  == =>=  =***             ",
"                  t> >t= =e..#e            ",
"                         e**#.##           ",
"                        e..* =..#          ",
"                        e=3= >>3#          ",
"                                           "
};
