/* XPM */
static char *wall3[] = {
/* columns rows colors chars-per-pixel */
"64 64 223 2 ",
"   c #040201",
".  c #0C0201",
"X  c #040903",
"o  c #0C0A03",
"O  c #0A040A",
"+  c #0E0C0A",
"@  c #140502",
"#  c #130B02",
"$  c #1B0B02",
"%  c #130C0A",
"&  c #1B0906",
"*  c #0A110A",
"=  c #161205",
"-  c #1B1205",
";  c #14120C",
":  c #1A120D",
">  c #1D1A0E",
",  c #160E12",
"<  c #141412",
"1  c #1B1512",
"2  c #171815",
"3  c #1C1A15",
"4  c #1C1618",
"5  c #1C1C1A",
"6  c #16161A",
"7  c #0E1714",
"8  c #210E08",
"9  c #22130C",
"0  c #28120E",
"q  c #231A0D",
"w  c #2C1B0C",
"e  c #221512",
"r  c #241C14",
"t  c #2C1E15",
"y  c #241D1B",
"u  c #2C1E1B",
"i  c #2C1414",
"p  c #341A19",
"a  c #2C2116",
"s  c #24231D",
"d  c #2B231C",
"f  c #252418",
"g  c #33241C",
"h  c #38241E",
"j  c #332B1D",
"k  c #302013",
"l  c #1E1D21",
"z  c #261F21",
"x  c #242323",
"c  c #2B2522",
"v  c #2D2924",
"b  c #2E2E2A",
"n  c #272A23",
"m  c #332623",
"M  c #3A2522",
"N  c #332A24",
"B  c #3B2C24",
"V  c #332D29",
"C  c #3A2B2A",
"Z  c #2D312C",
"A  c #3D3125",
"S  c #33312D",
"D  c #39312E",
"F  c #373428",
"G  c #2F2F33",
"H  c #332F30",
"J  c #3A3532",
"K  c #3C3A35",
"L  c #3C3C3B",
"P  c #383638",
"I  c #2C3D35",
"U  c #412D27",
"Y  c #452A29",
"T  c #43322B",
"R  c #44372B",
"E  c #4A3632",
"W  c #433A34",
"Q  c #493B34",
"!  c #443C3B",
"~  c #4B3C3A",
"^  c #443534",
"/  c #482F32",
"(  c #3A413B",
")  c #434534",
"_  c #4C4235",
"`  c #44433C",
"'  c #4C443B",
"]  c #47493C",
"[  c #4A4C3C",
"{  c #474B36",
"}  c #53453B",
"|  c #53493B",
" . c #564436",
".. c #4E523E",
"X. c #51543F",
"o. c #3F3F41",
"O. c #433D41",
"+. c #3F4E47",
"@. c #454442",
"#. c #4B4542",
"$. c #4B4B44",
"%. c #4D4D4B",
"&. c #484A47",
"*. c #514745",
"=. c #534A45",
"-. c #534D4A",
";. c #5B4943",
":. c #4F5144",
">. c #4E514B",
",. c #525543",
"<. c #565945",
"1. c #595C46",
"2. c #53544C",
"3. c #57594C",
"4. c #595C4C",
"5. c #5B534C",
"6. c #4B4B50",
"7. c #534E52",
"8. c #555552",
"9. c #5D5351",
"0. c #575952",
"q. c #5A5B54",
"w. c #56565A",
"e. c #5C5C5B",
"r. c #595758",
"t. c #66564B",
"y. c #625453",
"u. c #635A55",
"i. c #625C5A",
"p. c #6B5856",
"a. c #5E614C",
"s. c #5C6047",
"d. c #5E6154",
"f. c #5F605A",
"g. c #556159",
"h. c #61654F",
"j. c #626455",
"k. c #666955",
"l. c #696C56",
"z. c #62645C",
"x. c #66695C",
"c. c #6A6C5D",
"v. c #6B625C",
"b. c #75665E",
"n. c #766658",
"m. c #6D705D",
"M. c #6E7257",
"N. c #72755F",
"B. c #5D5C61",
"V. c #615F63",
"C. c #715E60",
"Z. c #5F6460",
"A. c #646463",
"S. c #6A6461",
"D. c #676862",
"F. c #6B6C64",
"G. c #666569",
"H. c #69676C",
"J. c #6C6C6B",
"K. c #666C68",
"L. c #716664",
"P. c #746A64",
"I. c #716C6C",
"U. c #796B68",
"Y. c #6E7164",
"T. c #6F716A",
"R. c #6A776C",
"E. c #727465",
"W. c #757863",
"Q. c #787B66",
"!. c #72746C",
"~. c #76786C",
"^. c #797B6D",
"/. c #7B736A",
"(. c #6E6D71",
"). c #716F72",
"_. c #6E7B74",
"`. c #747473",
"'. c #797574",
"]. c #777872",
"[. c #797A75",
"{. c #7D7E76",
"}. c #7A7B74",
"|. c #767579",
" X c #7A777C",
".X c #79797A",
"XX c #7D7D7D",
"oX c #7B7B7B",
"OX c #77787C",
"+X c #84786A",
"@X c #837B7A",
"#X c #877976",
"$X c #826E67",
"%X c #7E8075",
"&X c #7F807A",
"*X c #7D806B",
"=X c #808276",
"-X c #82837C",
";X c #8B827E",
":X c #86887D",
">X c #898C7B",
",X c #97897D",
"<X c #7D7D80",
"1X c #817F80",
"2X c #7F8A84",
"3X c #818181",
"4X c #838382",
"5X c #878882",
"6X c #8A8B85",
"7X c #868588",
"8X c #8C8C8B",
"9X c #898487",
"0X c #958E87",
"qX c #8F908B",
"wX c #91928C",
"eX c #9B9187",
"rX c #8C8B91",
"tX c #999995",
"yX c #959493",
"uX c #A4988F",
"iX c #B7A798",
"pX c #BAA9A1",
"aX c #D5C9BB",
/* pixels */
"B.8.8.r.8.0.q.2.q.4.4.4.q.3.2.2.8.r.2.2.q.q.3.4.q.4.2.4.j.4.2.q.r.8.0.%.3.d.2.j.4.3.q.:.&.8.2.r.e.w.8.4.4.<.<.4.2.q.e.r.8.r.e.8.",
"8X4X5X5X4X5X-X~.F.Y.~.{.=X%X^.~.!.].~.~.%X}.!.~.{.^.W.^.=X^.!.{.5X-X-X{.&X}.F.^.:X:X:X~.].-X-X5X7X4X&X%X^.N.m.E.^.=X5X4X4X5X5X-X",
"<X<X4X-X{.-X{.x.2.d.F.^.=X{.!.D.z.J.!.!.^.E.c.c.W.Y.c.Y.^.E.F.~.{.].{.[.}.D.2.z.!.!.!.q.e.].!.!.4X<X{.^.Y.h.1.4.F.~.{..X.X4XXX[.",
"H.`.|.J.J.{.].q.] 2.x.~.{.^.F.d.q.D.F.E.E.c.j.l.x.x.j.x.E.F.x.!.J.D.!.~.!.q.$.j.~.~.~.q.e.[.[.`.oX.X].E.k.,.[ [ q.D.`.`.'..X'.J.",
"`..XoX!.!.-X{.d.] 4.F.^.=X=X~.x.z.Y.!.!.^.E.x.c.c.c.x.F.~.E.F.].].J.].[.].D.q.!.!.!.!.3.0.].].`.oX.X[.^.c.4.X.X.z.T..XoXXX4XXX'.",
"|..X|.J.J.{.~.4.) ,.x.!.{.=X~.c.j.F.Y.Y.W.m.l.l.l.l.j.x.E.F.c.!.].J.!.J.T.D.d.~.{.}.~.f.z.[..XXX|.`.!.!.c.a.,.,.d.F.'.'..XoX[.T.",
"oX|.|.`.`.{.~.q.] 3.c.~.%X=X}.F.z.Y.Y.E.^.W.l.k.l.l.j.c.!.F.D.~.[.`.!.F.F.F.z.~.!.Y.T.q.q.J.!..XoX'.!.!.W.l.1.,.j.F.'.'.'..X].J.",
"|.`.'.].'.{.~.q.] q.F.~.{.=X!.z.z.c.m.E.^.W.k.h.l.l.j.x.E.F.x.!.[.`.!.A.F.!.D.~.}.!.~.x.z.!.].4XOX`.J.Y.Y.j.<...j.J.'.'.'.'.`.J.",
"`.|.`..X].!.].z.2.z.c.E.%X=X!.c.j.x.m.E.^.^.N.k.k.m.j.d.E.~.F.!..X[.J.J.~.!.!.}.!.}.].F.z.G.`.XXoX'.!.E.c.j.1.<.z.~.[.XX].'.XXJ.",
"(.`.(.'.].!.}.x.2.j.z.c.}.{.Y.z.j.c.E.~.^.Q.m.j.l.W.c.c.~.}.J.!.'.'.J.F.T.F.F.!.F.~.!.A.r.e.J.'.OX'.`.!.W.l.4.<.x.~.[..X`.'.5X!.",
"(.`.H.].`.!.}.x.q.x.z.x.^.{.E.z.d.c.~.^.Q.E.x.d.c.!.Y.D.!.J.A.A.'.'.J.A.F.D.D.!.J.!.J.z.8.e.J..X|.`.].^.W.l.4.<.x.~.].'.J.'.5X`.",
"`.`.J.`.`.!.].z.q.c.c.c.~.}.Y.x.d.F.Q.^.!.Y.x.j.Y.Y.D.x.F.J.G.e.A.H.H.J.`.J.D.T.J.F.A.r.r.G.|.4X|.`.`.!.E.k.1.<.z.!.`.'.J.`.&XJ.",
"`.`.H.`.`.!.].z.2.x.F.F.!.!.c.z.x.E.^.^.E.Y.F.c.F.x.D.J.'..X(.e.o.8.A.J.].J.A.J.F.x.0.>.r.J.oX4XoX|.].!.c.a.<.<.j.!.'..X`.`..XG.",
"`.`.H.`.`.!.}.x.2.c.Y.Y.!.!.c.z.F.~.}.^.E.E.Y.F.x.j.A.J.J.H.w.L G P P L &.2.j.].D.j.8.8.e.(.XX<X<X.X].!.c.a.<.<.z.~..XXX'.'..XA.",
"|.'.H.`.`.~.}.z.d.F.F.F.^.{.Y.x.F.!.}.~.!.F.c.z.q.2.8.2.o.L G 6 x x 5 < 5 n ` x.8.q.r.r.A.`.oXXXOX|.].!.c.a.<.<.j.!..XXX'.'.{.G.",
"<XoXJ.`.!.!.~.j.z.c.j.z.~.%XY.z.D.Y.~.!.F.D.f.q.%.( L Z 2 6 l < X ; < ; < < 5 S L &.8.e.A.J.|.oX(.`.].!.c.a.,.,.d.!.'.XX'.'.{.G.",
"oX'.].!.J.~.!.j.q.d.j.c.~.{.T.0.x.x.~.{.F.i.8.` x 7   *   * X X   s o 3 ; ; # r N y ! e.J.`.|.oXH.J.~.{.x.c.<.<.q.F.[..X'.|.].J.",
"'.`.!.!.J.~.!.j.d.z.x.F.}.&X!.q.x.R.%X~.-.D c 5 X X   X X 3 ; o ; o = o % o y : @ . % 4 P A.|.OX|.J.~.%Xc.W.4.<.d.T.[.'.`.`.`.J.",
"'.`.].].!.}.!.j.j.c.F.!.{.=X!.f.d.Y.~.S.*.u .         X o s > o f o > o q > u 1 1 %   . x 8.J.`.oXJ.!.^.c.Q.4.,.j.T.[.'.`.'.`.J.",
"yX8X8X8X6XwX5X!.Y.~.{.=X5X6X&XF.~.:X:X;X#XC.^ C . % o : : N t - q : = - r N : e y 1 . N -.`.6XtX8X4X-X>X^.>XM.j.!.=X6X5X5X8X8X6X",
".X'.'.].].}.!.q.x.Y.!.~.{.=X].A.f.F.P.U.$Xp.C u & @ # r 9 A U k j # = q q N B 9 Q ~ e D ~ 9.i.I.|.`.].^.j.N.4.,.q.D.`.J.J.`.].!.",
".X`.`.`.].&X}.j.j.z.x.D.!.}.T.e.z.!.'.P.y./ i 8 i & 9 a $ E  .w |   r a r r b.9 m ;.e r d ;.S.'.|.|.&X{.k.W.h.a.z.!..X'.`.].].!.",
"`.J.J.J.J.}.!.q.Y.Y.F.!.{.5X{.F.T.].@XL.~ p i 0 M 8 w a $ t.n.0 +X_ | | t._ ,XQ R b.B B u ' p.@XH.H.`.Y.3.l.<.,.d.F.].`.J.J.J.G.",
".X`.J.J.J.[.~.q.x.z.f.z.!.{.!.f.`.T.].S.Q M Y h h 8 w t $ +X,Xw A } $ - _ q h $ @ Q & M t T t.;XH.H.!.Y.4.c.1.,.d.F.].`.J.`.!.J.",
"w.8.8.2.r.e.q.2.3.q.2.j.q.A.8.>.g.q.q.-.@ e M h B } q R $ t.iX .j | q - d a t.$ . t 0 8 t g T ^ O.P &.[ ] X...,.[ q.8.r.r.8.r.&.",
"B.B.e.e.A.A.f.3.q.j.q.x.r.z.2.>.g.+.Z V @ @ i } } B # A j q ,XaX+Xn.g | _ R ;.Q _ ;.B U & @ @ 9   < @.q.j.k.a.a.4.D.A.G.G.A.G.8.",
"A.G.G.G.J.F.j.3.x.D.z.J.e.A.r.e.R.I     % @ & | | d > [ c.  a 0XuXb.' #X/./.+XeXeXuX,XpXb.E & .   < 2.Y.c.l.<.,.4.D.A.J.J.G.J.r.",
"A.G.G.G.J.A.q.2.x.x.e.F.z.F.e.Z._.( X + e @ . 8 $ .   f {.F   : d o q r d j F _ R W _ ,X#X$XE @ O l 8.c.l.c.k.l.4.D.A.J.J.J.!.A.",
"rXrX8X8X8X6X4X[.5X-X].5X5X8X4X4X2X_.[.F.Q p p @ T g .   ] 3.S 3 e $ a # . r o . # . . 9 U t.p.B 9X7XtX6X^.*XQ.Q.!.-X4X8X8X8XyX4X",
"oX<X<X.X.X.X].J.[.J.j.].].oXJ.J.R.K.}.9.M p Y @ } C @ ; s #.i.}.L.9.=.u.) ^.' [ r W Q r . . h M  X|.5X~.c.Q.Q.^.q.F.J.`.'.'..XJ.",
"(.`.`.`.`.].!.J.!.D.e.!.J.!.A.G.T.f.i.~ / Y / i ;.E : m y % y ! W N d ' d q.V ` r 5.v.b.T $ 0 ^ I.(.-XE.j.c.l.j.z.!.!.'..X'..XJ.",
"(.`.|.'..X[.'.!.J.D.f.`.J.J.A.J.J.F.S.9.p.Y p M ;.^ % m ! y 4 < 2 % y s o ;   ; # > % u.p.~ 0 C 7.r.].!.c.W.W.E.z.!.T.`.`.`.`.A.",
"r.8.8.8.e.G.A.e.e.2.A.e.e.8.e.@.-.K #.z c y , % J ^ 1 c y d v 3 ;   + #.  r 2 : % e   : =.K =.V P @.%.r.f.q.4.4.2.D.j.r.r.8.8.8.",
"`.J.J.`..XXX.X'.`.e.J.J.J.G.J.e.S.S.A.@.4 % O O 6.! % V ! $.' v ; 2 5 q.% #.d : % J 1   J tX!.o + P G.].].].~.!.z.~.F.F.!.J.`.H.",
".X.X.XoXXX4X4XXXXXA.`.'..XJ.'.J.J.oX`.S.4     O 7.@.4 J ` ] ` N o 3 c $.3 i.~ : y ! ! c y 8X-.3   L J.!.J.~.~.x.x.~.F.J.[.[..X`.",
"'.'.|..X.X.X.X.X.Xr.J.'..XG.'.`.J.].'.@XH   O + @.P + c c s s 2 ; o v y c u.=.% c ~ 9.9.% J c #.@.e.!.F.F.[.~.z.z.~.F.F.].`.'.J.",
".X.X.XXXXXXXXXoX|.8.G.'..XJ..X.X'.I.'.9XV., , + e.&.4 J ! #.` N y o v 2 N i.*.: r =.9.#.o s #.2.r.e.z.F.!.{.}.!.j.].!.!.[.]..X].",
"oX.X.X.X.XXXXX.X'.8.G.`..XJ.XX.XoXJ.'.4X4XP z < P P , v V J J s 2 ; d V V @X*.c y L.y.J : c I.q.` @.2.F.].!.T.!.r.!.J.!.[.]..X'.",
".X'.`.`.'..X.X'.'.r.G.`.'.J..X'.`.).).).1Xe.x 5 4 V 5 S b S K c o ; c V V 0X-.V m #XS.' 1 2 i.A.&.&.0.!.-X[.!.~.r.J.D.F.].].].J.",
"XX'.`.`..XXXXX.X'.e.J.`.'.J..X`.J.XXJ.V.J.J.5 2 < x + V ` 2.$.s % : D 1 c #X*.y m @XP.*.: : #.x.q.>.2.A.{.-X}.!.D.].F.T.{.[.[.F.",
")..X).'..X.X2X`.`.G.`.`.'.J..X.X).`.J.H.V.8.! b P 2 o ; 5 n x 3 2 5 y 1 y =.y.C y u.9.W c v c 2.F.x.z.F.[.-X[.J.z.!.A.[.!.[.].J.",
"`..X`..X.X.X4X'.).A.`.`..XJ..X'.).`.(.V.r.r.A.F.@.x ; ; < 5 s 3   1 s % 1 9.P.#.e =.! N J S.q.2.j.z.F.!.].].].!.F.{.T.[.J.].!.A.",
"'.XX'..X.X'.4X.XJ.A.'.'..XJ.'.`.(.J.A.8.%.e.`.-X@.b s s s s s < + x V y 3 D J 1 : V V S -.qX-Xe.%.q.F.!.J.J.J.!.z.'.J.].!.[.[.D.",
"'.4X.X.X'.`.XX.XJ.G.'..XXXJ.'.).`.G.r.8.8.z.z.j.@.L @.2.8.%.L x 3 < 3 5 3 2 ; % 1 y V q.z.-X-X!.] 3.A.!.!.J.J.J.8.J.F.T.].-X=XD.",
".X4X'.'.`.J.XX.X).G..X.XXXJ.'.(.(.H.A.A.A.G.e.2.q.2.e.!.{.XXJ.%.S 5 * ; 5 5 s S V V %.}.F.T.!.!.%.3.z.!.[..X`.J.A.!.J.].5X6X5Xx.",
".X2X'.'.`.`.oX'.`.G.'.'..XJ.`.).A.H.(.J.J.F.D.x.f.3.8.x.].4XXXK.` ( b n K #.] ` #.2.x.[.D.!.J.d.>.2.q.J.{.&X'.J.G.`.'.{.qX5X6X!.",
".X2X`.'.'.'.XX`.`.G.`.`.'.G.`.).G.(.).J.J.T.T.F.0.%.%.0.A.].'.A.( &.&.>.F.T.q.3.2.A.J.!.D.[.T.d.$.:.r.F.'..X'.J.G.J.'.[.5X~.-X}.",
".X2X`.'..X.XXX'.'.G.`.J.`.A.`.(.<X|.(.J.].[.!.x.2.2.e.A.J.`.).e.q.0.2.z.~.z.%.3.8.D.F.!.A.].T.T.] 2.j.J.!.].'.|.J.J.'.!.!.8.F.E.",
"`..XXX'.`..X'.`.`.e.'..X.XJ.XX'.4X|.(.'.{.[.J.D.q.x.r.0.`.XXG.r.] [ { a.M.1.,.[ 2.z.!.`.A.&X!.D.:.$.3.D.T.].[.`.A.XX!.'.{.!.{.!.",
"`.|.'.`.'.XX.X`.J.e.`.'..XJ.XX`.4X4X.X].[.{.].F.r.x.r.8.`..XA.8.) { ) s.l.1...[ 2.f.J.`.A.{.J.x.:.[ 4.F.!.].[.!.J..XJ.].5X6X5X].",
"`.`.`.J.'.XX.XJ.J.Z.`.'.XXJ.oX'.XXoX'.J.XX8X-XD.e.D.q.0.`..XA.8.) { ) a.M.1.X...2.e.J.J.e.[.F.j.,.$.4.F.].[..X`.`.`.`.J.[.-X!.F.",
"`.`.`.J.`..X'.`.J.A.).`.XX`..X.XXX`.J.J.8XwX5XD.z.J.f.r.'.XXG.8.$.:.[ k.N.a.<.,.2.e.J.(.A.[.F.z.2.$.q.!.[.[..X`.J.J..XG.F.!.f.F.",
"`.'.'.`.`.`.`.`.).G.J.J.4X`..X.X5X`.`.J.5X[.{.!.z.J.f.r.'.XXJ.r.,.2...l.W.h.4.3.2.r.J.`.G.XXT.x.2.[ 4.!.[.{..X'.J.J.oXJ.J.{.F.].",
"`.'.'.'.`.).`.`.'.J.J.J.4X'..XXX7X'..XA.J.r.F.!.e.D.r.0.`.XXH.e.2.<...k.W.h.4.4.3.r.G.`.G.-X!.D.3.$.3.!.[.{..X'.`.`.J.G.'.-X!.F.",
"`.`.`.'..X'.`.J..X'.`.J.4X'..X4X4X`..Xz.'.A.].F.0.z.0.8.`.2X(.A.>.,.[ j.W.j.j.j.8.r.G.`.J.-XT.D.q.#.2.T.[.[..X'.(.|.G.G.].].T.z.",
"`.J.).'.XX.X`.J.XX.X`.G.4X'.'.5X<X(.'.G.tXyXwXx.0.z.8.8.'.4X`.J.%.,.] j.W.l.z.x.r.r.G.`.G.XXF.D.q.#.2.J.[..X.X'.A.oXJ.`..X!.{.`.",
"`.).`.`..X.X.X'.oX`.G.J.`.J.J.XX<X|.`.A.!.{.T.T.q.z.8.8.'.4X'.J.2.3.3.j.Y.x.j.Y.r.8.V.(.H.F.F.x.q.2.j.D.[.4X`.J.A.(.'.).`.{.[.F.",
"`.`.).`.'..X'.'.2X`.G.J.oX.X.X5XoX`.J.e.J.[.D.A.8.z.8.2.`.4X'.J.8.2.2.q.c.z.j.D.A.A.H.`.'.].!.F.q.3.z.F.'.4X(.J.A.(.`.(.`..X'.K.",
"'.`.`.`.'.'..X.X.XJ.e.G.'.'.`.XX<X|.(.z.J.{.F.A.8.A.q.2.J.4X|.H.e.r.2.q.F.c.x.J.G.A.A.H.`.`.J.D.q.0.D.J.[.4X`.J.H.`.`.(.`..X'.J.",
"'.`.`.).`.'.'..X2X`.G.J..X`.).oXXX|.`.A.`.-XJ.F.8.F.z.8.J.4X'.G.A.e.8.q.E.!.T.!.`.H.G.(.oX.XT.F.3.3.F.!..XXX(.J.`.|.`.J.`..X'.J.",
".X'.`.`.`.`.'..XXX'.J.J.'.J.J.oX|.`.J.z.J.{.J.J.8.F.z.r.J.XX`.J.G.A.8.e.!.}.~.].`.(.A.G.oX|.F.F.2.3.F.!..XXXJ.H.|.|.).J.`..X'.J.",
"XXXX.X.X'.'..XXX'.`.J.J.`.J.J.XX|.'.`.A.J.{.!.}.q.F.A.z.'.XX'.`.H.G.e.j.~.}.].[.J.(.B.G.oX'.A.F.e.q.J.!..X4X(.H.oX|.).(.|.<X.X`.",
"`.`.`.`.J.J.`.'..X`.J.J.'.J.J.XX`.`.`.e.A.!.F.].r.A.z.f.`.`.G.J.G.G.e.e.F.!.J.J.J.(.G.G.<X'.z.J.F.e.A.A.J.'.G.A.`.(.H.H.`.|.`.J.",
"e.Z.Z.e.r.r.e.e.A.r.%.8.e.8.8.e.e.B.e.&.%.r.8.z.2.q.2.8.A.r.6.w.B.B.8.2.q.j.q.e.%.w.6.6.G.r.&.8.A.8.8.2.r.A.w.w.V.B.w.w.A.G.A.r."
};
