/* XPM */
static char *wall4[] = {
/* columns rows colors chars-per-pixel */
"64 64 164 2 ",
"   c #030400",
".  c #090A06",
"X  c #0D0E09",
"o  c #151512",
"O  c #1B1C16",
"+  c #1D1E1A",
"@  c #1F201B",
"#  c #21221E",
"$  c #262623",
"%  c #272823",
"&  c #282924",
"*  c #2D2E29",
"=  c #31322D",
"-  c #363732",
";  c #383836",
":  c #3C3C3C",
">  c #3F403B",
",  c #42442F",
"<  c #404A28",
"1  c #454430",
"2  c #474C31",
"3  c #484B30",
"4  c #43443E",
"5  c #4C4C39",
"6  c #495333",
"7  c #4E5836",
"8  c #4D563B",
"9  c #4F583B",
"0  c #515837",
"q  c #51543A",
"w  c #545C3D",
"e  c #585F3E",
"r  c #444443",
"t  c #494A45",
"y  c #4D4D4C",
"u  c #4F504A",
"i  c #565540",
"p  c #545C44",
"a  c #5A5C42",
"s  c #52534D",
"d  c #565B4C",
"f  c #5A5C4C",
"g  c #545454",
"h  c #575853",
"j  c #5A5C54",
"k  c #5C5C5C",
"l  c #5C6446",
"z  c #5C624C",
"x  c #5E6253",
"c  c #5F6059",
"v  c #606547",
"b  c #61644C",
"n  c #636A4C",
"m  c #686D4F",
"M  c #636554",
"N  c #686657",
"B  c #656A54",
"V  c #696B56",
"C  c #62635C",
"Z  c #69675B",
"A  c #66695A",
"S  c #6A6D5C",
"D  c #677055",
"F  c #6D7255",
"G  c #6D725D",
"H  c #717656",
"J  c #72765D",
"K  c #70795E",
"L  c #5E5D62",
"P  c #646463",
"I  c #696663",
"U  c #676862",
"Y  c #6A6B64",
"T  c #666668",
"R  c #6B6768",
"E  c #6C6C6C",
"W  c #716D6E",
"Q  c #6E7163",
"!  c #6F706A",
"~  c #727464",
"^  c #747963",
"/  c #787B66",
"(  c #72736D",
")  c #76796D",
"_  c #797C6D",
"`  c #6F6F71",
"'  c #747473",
"]  c #797674",
"[  c #777873",
"{  c #7C7E70",
"}  c #787974",
"|  c #7A7B75",
" . c #7B7B76",
".. c #7C7877",
"X. c #7B7C76",
"o. c #7D7D75",
"O. c #7E7E76",
"+. c #7A7A75",
"@. c #777779",
"#. c #797979",
"$. c #7A7A78",
"%. c #79797B",
"&. c #78787A",
"*. c #7B7B7B",
"=. c #7E7A79",
"-. c #7D7E78",
";. c #7E7F79",
":. c #7E7F7A",
">. c #7C7C7C",
",. c #7E7E7C",
"<. c #7B7B7B",
"1. c #817E77",
"2. c #807F7B",
"3. c #827E7D",
"4. c #817D7C",
"5. c #7E8073",
"6. c #7F8174",
"7. c #7F807B",
"8. c #7F807B",
"9. c #828574",
"0. c #838577",
"q. c #80817B",
"w. c #848679",
"e. c #85877A",
"r. c #80817C",
"t. c #82817D",
"y. c #81827D",
"u. c #82837D",
"i. c #82837E",
"p. c #84807F",
"a. c #83847C",
"s. c #83847F",
"d. c #84857F",
"f. c #81827D",
"g. c #7E7D82",
"h. c #808080",
"j. c #838381",
"k. c gray51",
"l. c #858681",
"z. c #848482",
"x. c #838385",
"c. c #878785",
"v. c #858587",
"b. c #848486",
"n. c #838382",
"m. c #888783",
"M. c #888483",
"N. c #878882",
"B. c #878883",
"V. c #888984",
"C. c #8A8B86",
"Z. c #8C8887",
"A. c #8B8C87",
"S. c #898A86",
"D. c #878789",
"F. c #898989",
"G. c #888888",
"H. c #89898B",
"J. c #8B8B8B",
"K. c #8A898E",
"L. c #8C8C8B",
"P. c #90918C",
"I. c #939392",
"U. c #9E9E9E",
/* pixels */
"P k P C h j x f S x x f M M d Y C j h k U C k j C Y k h U U h j k L k k P P k U k j j d d j x M Z d j z p z B p z p x x M I I j ",
"b.h.h.y.[ ) 5.{ 9./ / ~ _ _ ~ w.a.-.X.q.l.d.y.y.-.q.' [ N.-.( -.b.L.b.x.J.b.h.B.-.[ ~ ~ _ w.0.{ ~ M M G V F G B G G ~ _ o.M.Z.<.",
"*.*.,.} Y Y ~ ~ A z b f M M f Q o.[ ' [ ' ( ( ' Y U k U ' U k ( ` @.} ' } ' E ( ( Y j s A ) ~ x M 5 5 z b a p p p p M Q ) -.y.' ",
"' ' } ( C x S G S M V B S G A _ ) E E ! ( ( ! ( ( [ E ( 7.' Y *.` *.*.@.,.*.' } d.X.U j Z _ ~ M b 1 , f b q 6 0 p p z Y ) } } E ",
"} [ -.) C M Q ~ M z B M S S A { X.( ! [ y.l.a.y.y.P.C.-.C.A.y.l.h.J.D.b.J.J.l.C.a.-.Y j M Q ~ A V 5 3 v F w 2 w z z B ) o.y.3.' ",
"( ( [ ~ x j S G V B S S ~ ~ G w.7.' ! ' 7.-.[ ( Y y.} Y ' } ( E } *.' ` } } ( ' a.y.[ ! Y ~ { { B q 3 v F 0 < w l p z Q [ -...W ",
"[ ) [ ~ M M G ~ B M S B S S M { l.-.} *.-.} E P E ,.} E } } ( } >.*.E E } } ' } ' ( ) ' ( ! ) { B a q n H e 6 l z p z Q [ ..} W ",
"[ ) ) ~ M M G ~ G S ~ G ~ Q A 5.X.} *.,.,.} ( ( E ' E E *.' E *.*.' P P ' *.} *.' ( } a.y.' ' 6.b a q v H e 6 n n p z Q ) ] ' T ",
"Y ( ) ~ S A S ~ B S / M Q Y Y ) } } *.,.,.*.' E E } Y E E ,.' ' ,.' ' E *.' *.' ' } } [ ' ' [ ) B q v n m n 7 l F p z Q ) -.3.E ",
"Y ( ) ~ A M S ~ ~ M A f ~ Q S ) -.<.-.-.*.} E Y E *.E ( E ,.( ( ,.' E P } ' *.' E ' } ( E ( *.q.N i V J F l 7 B K z z Q ( o.3.W ",
"Y ( ) ~ A M S ~ ^ f M f ~ Y Y -.<.>.*.*.@.' E P ' ,.E ' E ,.E E h.' E P } ' *.' E ' ' E P E *.B.~ f M / ^ z 8 D ^ z z S Q ..3.( ",
"( ( ( Q Y A S Q S M Q M Q U E l.} } *.*.*.} ' E ' ,.E ' E ,.' ' h.E E k } ' *.E ' } ' P k E *.h.1.A M ~ ^ b p z G z z S Y ] 4.W ",
"[ ( Y Y Y S S Y x C ) C ( ( ' -.} } } *.*.@.} ' ' ,.E ` E ,.' } *.E E P *.} @.E ' ' E P P ' >.,.4.] Q ~ Y z z z G p z Q ~ ' ..R ",
"X.( Y E Y Y Y Q x C ( k } y.} E *.*.*.*.*.@.} ` ' ,.E ` E h.} *.} E E P *.' } E E ` E P T @.h.>.} M.y.o.S d x M B p M ~ ( ) ] I ",
"*.( ( ( Y C Y ( C C ' U y.h.} ' >.*.*.*.*.} ' E ' ,.E ` ` h.} *.*.E E P } ' @.` E ' E L P } g.>.] p.-.l.~ d x M A d M ~ ~ [ } I ",
"} ' ' ' Y C Y } C U 7.} b.*.' h.*.*.*.*.*.} } ' } h.E ' ` h.} *.*.W ' P } ` *.} E } ' P k E *.*.>.} Y l.y.C x d Y j A ~ ~ [ } Y ",
"*.} ' ' ' E E ' U E C.P *.h.' h.' @.@.' E E } *.' } } ' ' } } ' ' ` T P P ' ' E E E P P E E } ,.} ( ( o.d.o.Y j c j C ! [ } ) E ",
"*.' E ' ` E E E b.P } ' h.,.k ' ' } ' ' } *.} E P P P k k P P P k k h g h k k h y P E P E *.,.} ( E ( X.a.-.( Y C c C Y ( ' ( E ",
",.*.} } } } ' } h.P *.L.L.L.E ' } ' ' } ,.>.E k : r r r r r r : t y y t t t r r : k E E E *.,.} E E ( X.y.X.) ! E Y Y E ' } [ ' ",
"I.L.J.J.L.L.L.L.E ' b.J.E J.*.' } } } ' ' E k y y h P P P P k y k k k k h g y y g y k E } E ' *.( ( ' -.X.' ( ( l.l.l.l.C.A.A.C.",
"} ' ` E ' } ' ' E *.,.E y ' } E ' @.@.E P h g y y h L P P L h y P P P k k h h k P g y P E E ' -.' ' } } ' ! E ( U E ( ! ! ( ( Y ",
"*.@.} ' } ,.*.} } } @.,.' ,.} E E } } P h g h k h k k k k k k h k k h k h h h k P k g g k E *.,.' ( ' ' ( E E ( Y ' X.[ ' ' ( E ",
"' ' E E ` @.} E E E } J.U.D.*.} ` ` T k h k P P h k k h h k k h T L k P P k k k P k k k k k E h.' ' ' ' ( E E ' P E } ( E E E Y ",
"' E E P E } ' E P E E E D.E E E ' E k g h k P P h k k k k k k h P k k k k h g g k k P E k t k b.} ' ( ( E E E E k E ' E P E E P ",
"g g g g h h h h k k ' E *.E } ` ' h g k k h k P k k h P P h k k T k h k L k g g P k k E P y g E } ,.*.E Y ( E U y k k k h y h y ",
"P k k P E P k h E E ' ` } ' } ` k g k T k h k P h k h k k k k h P P k L P k k g k P P E E E k g C E ' ( ' *.} E h Y P E P C P j ",
"P P P E E E k y ' E E ' E } ' ' k h k P k k P P g k k k k k P g P P k k k P k g k P P E E E k g P ' *.} } *.} E h P P E E E E k ",
"E E E E ` E P h ` E P E E *.' *.} P k g g k P h y P k k k k P y k k k h h k k g k k k E P h P } ,.h.,.} ' } } ` k E P E ' E ' P ",
"L.L.L.L.J.D.D.D.} E P ' E ,.} h.b.' P g g k P h y P P P P P P y k k k g h k k h P k k E P P ' J.*.,.*.' ' *.,.*.,.J.h.b.L.L.I.h.",
"' } @.} ' ' } >.} E P ' ` } ' *.} } } E k h k k g P P E T P P g k k k k k P P k k k P P E ,.h.*.' } *.} } *.@.' P ' E E ' ' *.E ",
"' ' } *.*.*.*.*.' T E E ' E E } E E >.>.P k k k h P P E E P k g P k k k k k k k g k P P ' h.g.' ' } *.*.*.} ' E E } E ' ' ' *.E ",
"P E E ' *.} ' E ' P ' E *.E ' *.` E } ,.' P k g h k P E E k k h k h k P k g y y k P E *.*.' @.b.' ' } @.*.*.*.} P ' E ` ` E ' P ",
"g g g h P E P k E P } ` } E } P ' ' E E *.*.P k k L P P P P P k k k k P k y g k k P } ,.} E ' ,.E ' *.*.g.h.} P r P k k h g k g ",
"} } ' ' @.>.} E k k ` ' ' P } ,.E ' E E *.*.E E k k k k P P k k k k k P k g g k k ' *.' E ' *.*.} E E @.h.*.E h P *.} ' } } } E ",
"*.>.*.*.,.h.,.@.E k E } } L ' >.E } ' E } *.*.,.E E E E E E E P P k P P P k k P ' } ' E E ' *.,.,.' E *.,.E k k P } E E } @.*.E ",
"' ' } } *.,.,.,.*.k k E ,.E ` T E } ' E } *.*.,.L.L.L.J.J.L.L.D.b.b.b.L.L.J.L.I.J.` E } *.E E h.} } } } E L P E P } E E *.*.,.' ",
"*.,.,.*.@.*.,.*.' g g h ` ' *.E ' } E E } *.} ' } *.} ' ' @.@.' ' E ' } *.*.*.,.b.E P *.,.E E ,.E ' E P k P E ' P @.E ' *.*.h.*.",
",.,.>.@.} *.*.*.' k k h k P *.*.' } E E } *.' E *.*.*.} *.,.,.*.' E E E ' } } ' ` E E E } ,.*.} ' E P k P *.,.E k E P E } ' } ' ",
"} } ' ` ' *.>.*.} P E E P g E *.' } E E @.,.} } ' ' ' ' } *.*.} } ' E ' } *.*.' E E ` E } h.,.E ' P k P *.b.,.E T ' E E ,.*.} E ",
"*.*.} ' } ,.,.*.E k E *.} g k E ' } E E } ,.,.,.' } } } @.,.>.@.} ' E E ' *.*.} ' E E ' *.} ' E E k k ' h.,.' ` E ' P E h.*.} P ",
"E *.} *.,.*.g.} E E *.E ' E E h ' T E E ,.h.' *.' *.} ' ,.,.} } >.} *.E } E *.} E E E E ' >.} P y E h.} h.I.' *.E } *.' E ` ' E ",
"' *.' *.*.} g.@.E P } ` } E E P h E } P E ,.} *.E ' ` E *.,.} } *.' } E } E } ' } E P E } ' P h P P E ' I.U.b.' E ' } ' } *.' E ",
"} ,.' ' } ' h.*.E P ' } *.E } ` g P ` P E *.E ' E } ' ` >.h.,.,.,.' } E ,.} *.' *.E E } ' P k P ' ' ,.@.b.' b.E P E E ' *.,.} P ",
"*.g.} } ' ' g.*.` P ' @.,.T ' ' ' k k k ' } P E } *.' E *.,.*.*.,.' } E ,.} *.` E ' } ' P k T *.E E h.` E t } P P E E E @.g.} P ",
"@.,.} } } ' ,.} ' P ' } *.P E E h.P h h E } P E ' } E E } *.} *.*.' } E ,.} @.E E ' E P k P ' } *.E } ' h.T J.T P E E ` } >.*.E ",
"} ,.} @.} } ,.} *.E } ' *.E } ' ' E E h k E P ' ' } ' E *.,.*.,.h.*.,.} x.*.,.} } ' P k P @.} E h.} *.*.I.J.L.E P ' } } } >.*.} ",
"} ,.' } } } ,.} *.E E P E E ,.} E ' } P k P k E P E P P E ' E E ' E ' E } E ' E E P P P } ,.} E E ' *.E } *.E P T ' *.*.*.,.*.` ",
"} ,.' } } ' h.*.E k k y k P } E } E E E E k y P y h y y g h y y h y h y h y h y y y k } ,.} ' } *.,.*.k P h.E ' P ' } @.*.,.} T ",
"' *.>.@.} } *.-.E g y = & h Y C ' P E } } ' P ' L P P h L E k P E E P P P L k P P E E ' ,.*.' } } ,.' P E } ' ' E } E ' ,.*.} E ",
"' } } ' ' *.,.y.U ; + .   X % j k k E ' h.h.' g.} *.*.E ' ,.' ' } } ' E ' ` E } } } ' ' *.} E ' } ,.} E ` } ' ' E *.E ' *.} ' E ",
"' ' ' E } ,.y.y.h %     X     r y P E E h.h.E b.} } } P E *.E E *.,.} } *.} ' ,.,.*.E ` *.' E E ' ,.} E ' @.' } E ,.E ' *.' ' E ",
"} ' ` E ' >.-.} y # o @ * & O * y ' *.E >.*.P h.*.*.} E ' *.E ' *.*.' ' *.' E } *.' P E *.} E E ' *.} ' @.*.} } E *.E E *.} } E ",
"} } ' ' } *.' E y o # - * - = + : P } E ,.,.P h.*.@.*.E } ,.E ' *.>.} } *.' E } ' E P ` h.,.` ' } *.' ' *.*.} @.E @.E E @.' } E ",
"} } } } *.*.' E y . & y * % * # $ y P P *.h.E h.` ` } ' *.,.E ' *.>.} } *.' E } ' E T } b.,.` ' *.} E E *.,.} } E *.E ` *.' ' E ",
"} } } } *.,.*.' U + * t - = 4 y t y j k ' y.' -.( ' ,.,.C.C.' } ' } ' ' *.' E } } E E *.b.*.E } *.} E E ,.h.@.} E } E ' *.} ' E ",
"' } } } *.h.h.3.J.r % & - u Y C.b.E P k E y.} -.Y E *.,.C.c.( ' ' ' ' ' *.} ' *.' E E } h.} E } ,.' P P ,.h.@.} P ' E ' >.} } E ",
"' ' ' } @.*.-.,.h.h.& + r E ! ( ' Y ' Y -.} ' ,.' E ' P r ' -.} } E E ' *.*.,.h.E P k ` b.} P ' *.h.E P } *.' ' P E } ' } ,.} E ",
"` E ` ` ' } } *.y.( % : ( l.! E E U ( U *.' ( *.Y P -.h.' ,.} } } E E E } ' } @.E P k E b.} P ' } ,.E P } *.E E P E ' E ' *.' P ",
"} ' ' ' ' } } <.h.P * s y.X.U ' ( U ( U -.} ' -.U C y.A.I.7.E *.*.' E ` ' } @.*.' E P ' J.*.E @.} h.' E ,.h.` E E ' ' ' } *.} E ",
"*.} ' ' ' } } *.l.( j ( l.Y U A.' Y ( C } } ' -.E Y ' E C.! U -.} ' E E ' @.*.,.E E P E h.} T ' } h.' E ,.h.E E ' ' ' ` } *.} E ",
"@.} ' E E ' ' } ' ' -.y.y.C C l.' Y E j ( ( ' -.Y E ( j } E U -.} ' E E E } *.*.E T k P *.' P E ' *.E P } *.E T ' ' E E ' } ' E ",
">.*.@.} } @.*.-.' E } Y ( U U X.} ( ' k ( ' [ y.C ( } U -.-.E [ -.*.} ' ' *.*.@.' ' P E ,.} E ' } ,.E P } >.E E *.} ` ' *.>.*.' ",
"' ' E E E ` ' ' *.P E h Y Y E [ E Y ( j Y Y Y ' j Y Y Y ( } c Y ' ' E E E ' ' E E E k P } E P E E } P k ` ' P P ' E P E ' } ' E ",
"h h h h h h h h h r j t j h y s s s k 4 s s s j s s u h u k 4 h h h g y g k k g h h t t k g t y h k y t k k y y k g y g k k k g "
};
