/* XPM */
static char *wall1[] = {
/* columns rows colors chars-per-pixel */
"64 64 180 2 ",
"   c #150C03",
".  c #191007",
"X  c #101900",
"o  c #1C140A",
"O  c #1C1A0E",
"+  c #231B11",
"@  c #222B0E",
"#  c #262217",
"$  c #282117",
"%  c #2A251A",
"&  c #2A281C",
"*  c #2D3619",
"=  c #313A1D",
"-  c #322D23",
";  c #373026",
":  c #3B342A",
">  c #3A3A2E",
",  c #3A3A30",
"<  c #40392F",
"1  c #453D33",
"2  c #483F36",
"3  c #31481E",
"4  c #3B4425",
"5  c #354C24",
"6  c #3B4C26",
"7  c #3C4529",
"8  c #3D4D2A",
"9  c #375229",
"0  c #3D552D",
"q  c #3C5430",
"w  c #424B2F",
"e  c #40552D",
"r  c #42592F",
"t  c #424236",
"y  c #444C33",
"u  c #4A4E34",
"i  c #45473A",
"p  c #4E463C",
"a  c #4B4D3B",
"s  c #50473E",
"d  c #50493F",
"f  c #445433",
"g  c #4B5335",
"h  c #445C34",
"j  c #4B5C36",
"k  c #4C533B",
"l  c #455C3C",
"z  c #4E5B3B",
"x  c #53553D",
"c  c #59573E",
"v  c #535C3C",
"b  c #585C3E",
"n  c #466136",
"m  c #47633B",
"M  c #4A623A",
"N  c #52613D",
"B  c #434341",
"V  c #4B4D41",
"C  c #474749",
"Z  c #48474F",
"A  c #4D4D4D",
"S  c #534B42",
"D  c #4E5544",
"F  c #4F5C40",
"G  c #535444",
"H  c #595047",
"J  c #555B44",
"K  c #5B5C45",
"L  c #53544D",
"P  c #5A554A",
"I  c #565B4B",
"U  c #5B5D4B",
"Y  c #555554",
"T  c #5C5D53",
"R  c #57565A",
"E  c #58575D",
"W  c #5C5C5C",
"Q  c #605E45",
"!  c #605C4D",
"~  c #635E53",
"^  c #4C6542",
"/  c #566245",
"(  c #5B6244",
")  c #546845",
"_  c #5D6A47",
"`  c #536648",
"'  c #5D624D",
"]  c #536E4A",
"[  c #5D6B4C",
"{  c #57714E",
"}  c #59734E",
"|  c #5E6153",
" . c #5F6059",
".. c #616546",
"X. c #62654C",
"o. c #646A4D",
"O. c #696D4E",
"+. c #6B714F",
"@. c #626454",
"#. c #656A54",
"$. c #696D55",
"%. c #63655B",
"&. c #69645A",
"*. c #666A5B",
"=. c #6A6C5C",
"-. c #716F59",
";. c #657052",
":. c #6D7255",
">. c #6D725C",
",. c #607B58",
"<. c #6B795D",
"1. c #717755",
"2. c #71745D",
"3. c #595762",
"4. c #5D5C62",
"5. c #656563",
"6. c #676861",
"7. c #6B6C63",
"8. c #646368",
"9. c #6D6D6C",
"0. c #726D63",
"q. c #6E7263",
"w. c #6F7863",
"e. c #6F706A",
"r. c #717465",
"t. c #767966",
"y. c #737A64",
"u. c #797D67",
"i. c #70716B",
"p. c #747669",
"a. c #75776A",
"s. c #71726E",
"d. c #72736C",
"f. c #79756A",
"g. c #76786B",
"h. c #777A69",
"j. c #77796D",
"k. c #76796C",
"l. c #797B6D",
"z. c #7B7D6F",
"x. c #797B6E",
"c. c #6E6E70",
"v. c #757571",
"b. c gray46",
"n. c #747473",
"m. c #777873",
"M. c #777872",
"N. c #797A71",
"B. c #7C7C70",
"V. c #797976",
"C. c #7B7C76",
"Z. c #7A7B75",
"A. c #757579",
"S. c #78777C",
"D. c #78777D",
"F. c #7A7A79",
"G. c #7C7D78",
"H. c #7B7B7B",
"J. c #827D72",
"K. c #698360",
"L. c #77806D",
"P. c #7D8274",
"I. c #7F807A",
"U. c #828477",
"Y. c #828377",
"T. c #80817B",
"R. c #84857F",
"E. c #81827C",
"W. c #8A847A",
"Q. c #8A8C7E",
"!. c #7F7E83",
"~. c #7D7C81",
"^. c #858582",
"/. c #838382",
"(. c #898987",
"). c #8C8C8A",
"_. c #8F908B",
"`. c #989896",
"'. c #ACA89D",
"]. c #C7C5B9",
/* pixels */
"A 8.5.W %.W %.T V I T U U @.@.J U U | | | T T | T U | J U ' x ' J [ l l ^ ^ ] f F K K G P ~ ~ U U X.@.U U U U K J ( J U T W 8.Z ",
"9.(.^./.^.T.R.C.N.U.U.l.r.r.=.' r.p.l.z.z.l.j.j.g.r.r.=.r.t.$.2.<.<.` { ,.,.K.[ <.y.2.=.=.f.B.l.y.u.u.t.r.t.t.y.2.y.2.l.N.G.!.8.",
"5.H.F.n.V.v.N.e.r.g.a.7.#.@.U G @.=.r.g.g.r.r.r.q.*.*.' =.2.' #.#.) f l ] ] } ) #.#.X.K U *.r.r.2.2.r.>.=.>.2.2.o.:.:.y.a.m.V.E ",
"R n.s.9.e.7.i.6.%.*.%.@.@.#.' J U #.r.t.a.q.7.7.7.@.| I #.:.K ( #.z 8 q m m ^ ^ _ ..K x G @.7.>.$.:.>.=.*.=.:.:.( o.o.:.q.s.n.R ",
"5.H.V.v.m.v.C.j.p.7.*.*.>.>.@.G U #.r.t.p.r.q.r.r.*.@.U $.2.( ( <.v e 0 h m M N [ O.X.K U =.p.r.:.2.2.$.=.:.2.:.( o.o.$.q.j.F.W ",
"W F.n.s.s.s.m.i.i.*.@.%.=.*.J a J ' =.>.=.*.=.>.>.@.' K #.:.J ( :.v f 5 9 h 0 j / ....K K #.=.=.#.=.$.$.#.=.=.$.( o...$.=.p.n.R ",
"R n.v.v.m.d.v.7.7.*.*.=.=.#.I k U #.>.r.=.=.>.p.r.=.#.' =.2.( ..:./ N 6 5 n h M ..o.X.K U $.2.>.$.>.r.r.>.2.2.:...+.O.2.y.g.V.R ",
"R F.V.F.G.m.m.7.7.7.r.r.=.| G k U @.=.=.*.#.=.r.q.*.#.' $.:.K ..O.N N 5 3 h r j o.O.X.K K $.r.2.#.:.r.>.>.>.:.$.( O.O.2.2.r.i.A ",
"R F.V.n.G.G.G.7.7.*.r.l.=.U J G G >.t.=.q.g.a.p.=.#.$.X.$.:.J ( :.b j 6 6 e 0 j o.O.o.Q ! $.>.>.r.2.=.q.l.p.=.:.( 1.O.$.>.a.v.R ",
"W F.V.n.G.G.G.7.7.*.r.l.=.' J k J =.>.*.>.r.r.a.7.*.=.X.$.:.K ' :.b g 6 6 r e v o.O.o.Q U #.=.=.r.r.=.q.l.r.$.$.( :.O.$.>.a.d.Y ",
"W F.V.V.G.G.G.e.7.@.=.g.q.@.J a ' =.=.*.r.p.p.j.7.*.=.@.=.:.U X.$.v g 6 6 h f N o.O.X.K U #.=.*.q.q.7.q.l.r.#.#.( :.O.$.r.p.s.R ",
"W H.V.n.G.G.I.i.6.| %.r.q.@.I a | *.*.*.r.a.i.j.7.*.=.@.=.>.U X.$.c g 6 6 h f N o.O.X.K U $.=.=.=.7.7.r.N.p.*.#.' :.o.$.r.p.9.Y ",
"W H.V.n.G.G.I.i.6.T | 7.=.#.' G U %.*.*.r.d.7.i.7.*.*.@.=.>.U @.-.c g 7 8 j f z o.o.X.K X.=.r.q.*.7.6.i.C.j.=.=.X.$.o.$.r.p.9.Y ",
"W F.n.v.V.G.G.i.7.T | =.=.@.' J U 7.q.*.e.m.v.d.7.6.*.@.=.q.U @.2.c u 7 8 j f v o.#.X.U @.7.p.q.*.7.7.s.G.N.q.q.@.:.X.=.a.d.9.R ",
"W F.v.n.V.C.G.e.7.| %.q.=.@.U G U p.d.@.6.V.G.V.7.6.6.@.=.q.U @.-.c u 7 w z k J #.#.X.K @.7.r.7.7.9.9.v.E.C.r.r.#.:.X.=.a.d.9.R ",
"W F.v.s.N.N.C.q.7.%.*.p.7.| J k I i.q.L T i.V.v.6.*.*.@.*.7.U @.$.x y 7 y z z / #.#.X.J U =.q.*.s.s.e.v.E.C.r.r.=.>.@.=.a.d.9.R ",
"8.F.n.v.U.P.P.a.6.*.7.p.*.@.U k I q.j.V , T ~ f.&.f.%.%.r.*.7.I ' o.J 7 ( g k ( o.#.X.J U 7.r.7.7.9.9.v.T.N.q.r.%.a.q.7.i.s.e.Y ",
"4.F.v.j.B.B.B.p.6.6.e.d.=.@.K a U U q.> O % H P T =.~ @.r.q.*.U >.o.v g ( v v ..#.$.X.J U =.q.*.7.9.7.s.C.j.7.r.@.p.7.7.i.d.s.L ",
"4.H.V.j.l.g.B.p.6.6.s.v.7.@.U a T T a > O O - : d P @.@.r.B.*.@.>.#./ [ ( ( v ( $.:.@.J U =.r.6.9.s.7.i.N.a.7.q.@.r.*.6.d.m.s.L ",
"E H.C.j.g.a.l.i.6.6.s.v.7.#.U a G i O U O % $ ; : p &.0.a.W.%.=.<.;.v v 4 z v ( #.$.#.U @.r.a.q.e.d.s.s.N.j.7.7.@.q.6.7.m.C.v.L ",
"E H.G.v.a.p.l.q.6.6.s.v.7.%.U a 7.t & B.: : d ~ + 1 &.f.r.W.@.=.y.>.f * X 4 v o.o.$.#.U @.r.a.7.s.m.v.j.C.m.7.6.@.r.6.e.C.E.V.Y ",
"E H.G.j.a.a.B.q.7.6.s.v.7.*.' x #.t O # p . . 2 o 1 P 0.=.B.T #.>.>.v = @ 7 v o.#.$.#.U ' 7.q.*.s.F.v.v.C.N.7.6.@.p.7.d.G.E.V.R ",
"E !.G.d.j.l.B.q.7.7.9.d.7.*.@.G @.U U - &.+   : % s 1 @.~ a.%.@.#.#./ y z g x ..#.>.#.U @.q.r.6.v.F.v.9.v.j.q.7.| p.i.v.G.G.n.Y ",
"E !.F.s.j.B.P.7.7.7.9.s.7.*.@.J U G ].'.P - ~ s : H - P P r.7.%.r.o.k 7 / w g :.#.>.#.| %.a.j.q.V.G.s.7.i.j.i.q.T s.s.v.C.G.n.R ",
"E !.H.v.j.N.B.7.7.W n.9.6.T @.a a.T %.W.&.S J.W.p S p s S 0.~ *.>.=./ 8 f z g o.$.>.#.| 7.j.p.e.n.H.n.6.s.G.m.7.@.i.9.j.C.F.n.R ",
"4.!.n.s.m.B.B.6.7.W n.s.i.%.*.G Q.U.*.P : < ! p 0.f.0.0.7.B.T T >.=.' y g J k o.$.>.#.U %.q.r.i.n.H.V.8.s.C.m.d.6.j.e.d.V.n.c.Y ",
"4.H.n.9.m.B.N.6.6.W n.n.V.7.>.U B.W.@.t t @.f.@.P ~ @.*.7.P.@.@.>.>.' y k J k #.#.2.#.U @.*.7.s.9.H.F.9.s.N.m.v.7.m.e.s.n.v.9.Y ",
"3.A.n.9.j.B.N.7.7.5.n.s.I.p.q.' g.j.T V T 7.r.0.=.7.&.%.*.P.@.@.>.<.#.k k J k o.#.>.@.T %.7.7.s.9.F.n.9.v.C.m.v.7.v.9.s.n.n.n.R ",
"3.D.n.s.j.d.j.7.8.8.n.9.E.p.=.U P.P.*.U =.*.T *.Y.P.r.7.7.P.%.*.q.y.>.k k J k @.#.#.' | q.j.i.e.n.F.9.9.G.^.C.j.7.v.9.e.v.n.n.R ",
"4.~.F.n.v.e.e.6.9.9.9.7.E.p.*.I z.P.a.U *.l.q.l.7.q.*.*.7.P.*.*.q.y.>.k k J x #.#.#.U @.a.B.i.e.H.F.8.9.^.).E.v.9.N.9.s.n.n.c.R ",
"4.~.A.n.V.d.i.*.n.n.9.5.E.p.%.U x.k.w.D I r.*.7.p.p.=.*.7.P.| | >.y.>.y k J J #.#.#.' @.p.j.i.v./.F.8.8.^._.E.N.7.m.9.s.n.n.n.R ",
"3.A.n.n.T.C.v.6.v.n.9.6.R.p.%.| B.7.q.T | g.7.g.=.6.| | %.P.*.*.=.y.*.y y J K >.$.*.| @.q.i.i.m.H.n.5.8.E.(.E.N.6.s.8.s.F.F.n.R ",
"W F.n.v.V.N.V.e.m.9.7.6.C.6.@.T m.j.q.| U #.r.r.r.6.6.%.i.z.=.y.>.>.#.k y ' 2.#.#.' I @.r.7.6.9.n.H.V.R 5.B n.v.W n.9.s.n.V.n.Y ",
"W V.n.n.m.v.V.e.N.7.6.*.C.e.*.T C.N.q.| U #.>.7.q.6.6.%.i.z.=.y.q.q.#.k y ' >.#.#.@.U @.r.7.6.s.H.F.v.5.^.n.H.9.5.v.9.s.n.V.n.Y ",
"W V.n.s.v.d.V.s.V.9.6.%.T.d.6.T C.V.7.| ' $.q.7.7.6.6.@.e.z.>.t.q.q.#.k y ' >.#.#.#.@.%.q.7.7.v.E.v.n.n.).`.G.9.7.n.9.9.v.V.n.Y ",
"W V.n.s.d.s.V.s.C.e.7.*.I.i.6.T V.v.*.' ' =.r.r.7.6.6. .7.z.q.t.>.>.#.k y ' 2.#.=.*.@.@.7.6.7.v.V.v.n.9.s.(.7.s.9.V.9.9.n.n.n.Y ",
"W F.n.n.v.n.V.d.V.s.i.6.V.7.%. .v.j.7.T ' =.r.r.6.6.7.%.7.l.q.r.>.>.#.k y ' >.#.*.=.@.| *.6.6.d.v.V.n.5.R V.W 9.s.V.9.9.n.n.n.R ",
"W H.V.v.v.n.V.d.V.v.d.6.m.6.@. .v.m.q.| U #.r.r.*.7.9.%.7.l.=.>.q.w.=.D y ' >.#.*.*.@.T *.6.6.9.n.G.9.8.6.G.6.6.n.V.8.s.F.V.n.Y ",
"W F.F.n.v.s.n.s.V.s.9.6.N.6.%.W d.m.r.@.U #.r.g.%.7.9.6.9.N.*.=.r.r.>.J k ' >.#.=.=.| T *.6.6.7.n./.7.7.n.H.n.%.n.n.8.n.G.F.v.R ",
"R F.F.n.n.s.v.9.V.9.7.%.V.7.*.W 9.v.r.@.U #.a.B.%.7.n.6.9.l.*.*.q.r.>.I k #.y.#.=.=.| T 6.7.6.6.v.^.7.5.s.s.V.5.n.v.8.v.H.G.v.Y ",
"E F.A.n.n.n.n.s.F.8.9.7.G.e.7.W s.7.@.G @.| q.B.7.W s.7.9.C.*.r.*.k.q.I ' #.=.>.=.q.@.%.7.I.%.9.7.n.%.9.9.n.n.9.9.v.V.n.H.^.s.Y ",
"W H.F.A.A.n.n.9.F.8.7.7.G.d.v.7.n.7.*.I =.@.r.B.9.5.n.9.s.C.=.g.q.L.q.| ' *.>.q.*.q.%.*.7.G.5.n.9.F.5.9.9.n.s.9.9.v.n.v.G./.s.R ",
"5.H.H.A.F.n.n.9.n.5.6.5.V.s.V.s.n.s.7.| r.*.p.C.s.6.F.n.s.C.7.g.w.P.r.| @.=.q.r.*.q.*.6.9.G.5.H.v.E.6.s.s.V.s.9.8.n.n.9.V.E.n.R ",
"4.H.F.A.H.A.F.c.9.5.5.5.v.e.v.s.F.n.s.%.a.*.r.j.s.5.n.8.e.C.*.q.w.P.r.#.#.>.q.r.=.q.*.7.s.I.7.H.F./.5.v.v.F.s.9.7.n.s.8.n.E.n.Y ",
"4.D.A.A.H.H.H.n.n.8.s.8.F.9.v.s.F.v.s.%.r.%.=.i.d.%.c.5.9.G.%.*.w.L.w.*.*.q.>.r.q.q.%.7.m.^.7.H.G./.5.n.V.G.s.9.8.v.n.7.s.E.v.Y ",
"E A.n.A.H.H.H.n.n.9.v.9.V.9.s.9.F.n.e.@.r.@.*.i.v.5.n.8.s.I.*.*.w.k.q.*.>.q.q.r.q.q.%.9.V.^.5.F.V.H.6.V.G.H.n.9.8.n.v.7.s./.n.Y ",
"E A.n.n.H.H.H.n.n.9.n.9.v.7.s.s.F.n.9.| q.@.q.m.v.5.F.9.n.G.6.r.q.a.q.*.q.w.q.r.=.7.*.i.V.E.5.n.n.n.%.V.E.E.n.9.9.F.V.8.n.^.n.Y ",
"4.A.n.n.H.H.H.c.F.n.n.9.n.9.V.F.F.n.9.T q.*.d.G.s.8.H.n.s.V.6.j.e.p.q.*.r.r.r.g.*.=.6.j.V.F.W n.9.n.W V././.v.s.s.G.F.9.v.^.V.R ",
"E n.9.9.F.F.H.n.F.n.n.F.n.n.n.F.F.n.5.7.s.e.s.E.9.n.F.n.F.H.8.9.e.s.m.6.q.g.=.t.*.r.7.7.s.H.8.A.V.9.8.F./.A.F.n.8.F./.n.n.^.H.R ",
"R n.n.n.F.F.H.9.n.n.n.n.n.n.n.n.H.n.8.8.n.9.8.V.8.9.n.n.F.H.9.n.n.v.V.6.7.r.*.>.*.r.*.7.9.H.8.A./.n.5.n.H.c.n.9.8.n.H.n.n./.F.R ",
"R H.F.n.A.H.H.5.n.n.n.F.F.n.c.n.H.n.8.8.9.8.7.n.8.9.n.9.F.H.9.n.n.v.m.6.7.r.#.>.=.r.*.7.9.F.4.n./.n.5.n.F.9.n.9.5.n.F.n.n./.F.R ",
"R /.H.9.n.H.H.8.9.n.F././.F.n.n.F.n.8.8.n.9.8.n.8.9.n.9.F.H.9.n.s.s.n.6.q.j.=.r.>.r.7.7.9.F.4.n.H.n.5.n.F.n.n.9.5.n.F.n.n.^.F.R ",
"E /.F.8.n.H./.n.8.9.F./.^.H.F.F.H.F.9.8.n.n.9.n.9.9.n.9.n.H.9.n.n.s.d.6.i.B.q.g.r.g.q.s.n.F.8.H.H.n.8.n.F.n.n.5.8.n.F.n.F.^.F.R ",
"W H.F.8.9.F.^.A.8.9.n././.H.F.F./.H.n.9.n.n.9.9.9.n.n.9.n.H.9.n.V.v.d.6.r.z.q.j.a.l.i.v.v.F.8.!.n.n.5.n.H.n.F.9.8.n.n.n.F.^.F.R ",
"W H.n.9.n.n./.F.9.c.A.!./.H.F.F./.H.n.9.F.F.9.8.8.9.n.9.n.H.9.n.F.v.s.*.7.l.q.j.j.l.i.v.n.F.8./.n.n.5.n.H.H./.F.8.c.n.n.F./.n.R ",
"W F.n.n.n.n.H.n.n.n.F.!.!.H.F.F.H.H.n.9.F.H.n.9.8.9.n.9.n.H.n.V.F.v.e.@.7.N.e.N.a.m.s.v.v.F.5.^.H.F.8.n.H.F.H.n.8.9.n.n.F./.n.Y ",
"W F.n.n.n.n.H.F.8.n.n.n.F.n.n.F.H.n.n.H.H.H.n.8.8.9.9.9.n.F.F.v.V.v.9.7.9.i.j.j.d.j.C.v.n.n.9./.F.F.9.A.H.F.H.9.n.9.A.H.F.H.n.Y ",
"R n.n.n.n.n.F.F.8.9.8.9.n.F.n.F.H.n.n.H.G.F.n.5.9.n.n.n.n.F.n.n.m.s.7.6.7.e.s.s.i.s.m.s.n.n.8.H.F.F.9.F.H.H.H.n.F.n.F.F.n.H.F.Y ",
"W n.n.n.n.n.F.F.e.n.8.8.F.H.F.F.H.n.A.H.F.n.n.8.9.9.9.9.9.n.n.9.G.j.7.6.9.v.v.v.d.n.V.9.n.n.9./.n.n.8.n.F.n.F.9.H.F.H.n.9.H.H.R ",
"W F.n.n.n.n.F.n.s.n.9.8.n.F.n.n.H.n.F.H.n.n.n.8.n.n.n.n.n.F.F.n.E.j.6.6.9.v.m.v.s.s.v.8.9.n.9./.n.F.9.F.H.F.H.n.n.n.A.c.8.F.F.R ",
"W n.9.9.n.9.n.n.5.n.n.9.n.n.9.n.H.n.F.H.n.n.n.n.9.n.n.n.n.F.F.v.G.s.6.6.9.d.n.s.9.9.9.5.8.n.8.F.n.F.n.F.H.n.n.8.9.n.F.n.9.F.n.A ",
"5.F.n.n.F.n.H.H.5.n.n.n.F.F.n.F./.n.F.!.F.F.H.F.9.n.n.n.n.F.F.n.G.v.9.9.s.m.V.v.9.n.n.5.9.F.n.!.n.F.n.F.F.n.n.5.F.n././.n.F.n.R ",
"W n.9.8.n.9.n.n.5.s.9.5.n.n.n.n.n.9.9.n.9.9.n.9.n.n.n.n.n.F.F.v.d.9.7.6.8.9.9.9.8.8.9.4.5.n.8.n.n.F.n.F.F.n.n.5.n.9.n.F.9.n.9.R ",
"A 5.R R R Y R Y R R Y A R W R Y 5.R R E R R R R R R R R R R R Y Y Y L L Y Y R R A Y Y C A R Y W Y R Y R R Y R A 5.Y R W R R W Y "
};
