/* XPM */
static char *wall2[] = {
/* columns rows colors chars-per-pixel */
"64 64 206 2 ",
"   c #040301",
".  c #0B0601",
"X  c #070901",
"o  c #0C0A04",
"O  c #0D0C0A",
"+  c #100600",
"@  c #130D05",
"#  c #1A0F05",
"$  c #120E0A",
"%  c #0F1109",
"&  c #131105",
"*  c #1A1407",
"=  c #14120C",
"-  c #1B150D",
";  c #1C1A0D",
":  c #16180A",
">  c #100F14",
",  c #151512",
"<  c #1A1512",
"1  c #171812",
"2  c #1C1A14",
"3  c #1E1D1A",
"4  c #241C0C",
"5  c #281C0E",
"6  c #221C14",
"7  c #291F14",
"8  c #231E1A",
"9  c #1E2014",
"0  c #1F201A",
"q  c #212315",
"w  c #292215",
"e  c #24221C",
"r  c #2B241C",
"t  c #2A2A1D",
"y  c #31291D",
"u  c #312619",
"i  c #1F1E23",
"p  c #252522",
"a  c #2A2622",
"s  c #272822",
"d  c #2B2A24",
"f  c #2D2D2A",
"g  c #332D23",
"h  c #312E29",
"j  c #3A2F29",
"k  c #2F3122",
"l  c #2F3028",
"z  c #333224",
"x  c #373925",
"c  c #34322C",
"v  c #3B342A",
"b  c #36382B",
"n  c #393A2C",
"m  c #383627",
"M  c #353432",
"N  c #3A3632",
"B  c #3B3B33",
"V  c #3D3D3B",
"C  c #373833",
"Z  c #423B2D",
"A  c #433B33",
"S  c #493C34",
"D  c #413E3B",
"F  c #3E422C",
"G  c #3D4224",
"H  c #3F4135",
"J  c #41452E",
"K  c #424826",
"L  c #434334",
"P  c #4B4136",
"I  c #464934",
"U  c #494C35",
"Y  c #44443C",
"T  c #4B453D",
"R  c #474A3B",
"E  c #4A4C3C",
"W  c #50453C",
"Q  c #54493D",
"!  c #514837",
"~  c #4D5235",
"^  c #4E523C",
"/  c #515636",
"(  c #51553E",
")  c #55593D",
"_  c #565C39",
"`  c #3E3E40",
"'  c #454543",
"]  c #4A4542",
"[  c #474842",
"{  c #4B4B44",
"}  c #4D4D4B",
"|  c #464648",
" . c #534C44",
".. c #514E4B",
"X. c #584C40",
"o. c #4F5143",
"O. c #4F504A",
"+. c #525444",
"@. c #555944",
"#. c #595C45",
"$. c #53544B",
"%. c #5A534B",
"&. c #56594C",
"*. c #5A5C4D",
"=. c #4D4C50",
"-. c #545553",
";. c #595553",
":. c #575851",
">. c #5B5C54",
",. c #555559",
"<. c #5C5D5B",
"1. c #58575D",
"2. c #625C54",
"3. c #695F55",
"4. c #5E614C",
"5. c #5D6347",
"6. c #5E6154",
"7. c #5F605A",
"8. c #636947",
"9. c #61654D",
"0. c #656A4C",
"q. c #626454",
"w. c #666954",
"e. c #696D56",
"r. c #63645C",
"t. c #6A655C",
"y. c #66695B",
"u. c #6A6C5C",
"i. c #6C6050",
"p. c #73675E",
"a. c #6B7054",
"s. c #6E715C",
"d. c #71755D",
"f. c #767C5B",
"g. c #727856",
"h. c #5E5D60",
"j. c #605F64",
"k. c #646563",
"l. c #676862",
"z. c #6A6B64",
"x. c #65646A",
"c. c #68676D",
"v. c #6C6C6B",
"b. c #736C64",
"n. c #726F6B",
"m. c #6E7163",
"M. c #6F706A",
"N. c #727464",
"B. c #767965",
"V. c #797D65",
"C. c #72736C",
"Z. c #7E766D",
"A. c #76796B",
"S. c #797C6C",
"D. c #6F6F71",
"F. c #747473",
"G. c #7A7471",
"H. c #777872",
"J. c #7D7E71",
"K. c #7A7B75",
"L. c #767679",
"P. c #7B7C7B",
"I. c #817D7B",
"U. c #887E75",
"Y. c #7E816E",
"T. c #7E816D",
"R. c #7D8262",
"E. c #7E8173",
"W. c #7F8175",
"Q. c #7E8073",
"!. c #7F807A",
"~. c #7F807B",
"^. c #81856E",
"/. c #828572",
"(. c #838576",
"). c #808274",
"_. c #878A75",
"`. c #858779",
"'. c #81827D",
"]. c #8C827A",
"[. c #8B8D7C",
"{. c #888A79",
"}. c #8D917D",
"|. c #838382",
" X c #878882",
".X c #898A82",
"XX c #8A8B84",
"oX c #8C8D8B",
"OX c #8B8680",
"+X c #958A84",
"@X c #908F8A",
"#X c #8F9188",
"$X c #929483",
"%X c #93938D",
"&X c #99948E",
"*X c #8E8D91",
"=X c #939394",
"-X c #9A9A96",
";X c #A1978D",
":X c #A29B92",
">X c #A3A19B",
",X c #B0A39B",
"<X c #A9ABA0",
"1X c #B6B6AB",
"2X c #D6D8CB",
"3X c #E3D6CE",
/* pixels */
"@.*.*.o.6.r.$.>.>.$.{ +.@.^ I +.{ <.{ @.~ _ / K ~ ^ &.$.o.&.+.H M [ $.*.6.@.I I I I ( *.$.$.-.*.( K G ~ #.+.^ +.o.&.>.$.E $.*.o.",
"Y./.E.N.W..XK.'.!.K.A.E./.N.w.s.C.I.z.B.a.f.g.8.5.w.N.A.A.E.S.q.>.z.C.J.(.B.9.4.a.e.B.(.J.C.K.).V.8.9.d.T.S.B.S.S.E.(.S.m.S.(.S.",
"S.B.N.y.N.K.C.!.C.z.y.z.N.4.^ @.u.H.q.w.#.0.8._ I +.q.m.m.A.m.&.} r.z.A.S.e.( U 4.4.e.B.m.l.C.A.0./ ~ 4.a.w.q.y.A.S.J.m.q.m.Y.V.",
"Y.B.N.y.z.K.C.P.!.H.z.m.N.q.#.q.r.H.q.w.#.0.8./ U @.y.m.m.B.u.+.[ 7.z.A.S.u.@.^ 4.*.u.B.z.l.C.A.e.) ( w.B.s.u.N.A.S.J.z.q.z.S.V.",
"$X/.`.E.W..X XoX%X.X(.`.{.V.s.B.C. XA.V.s.R.f.8.9.u.J.).W.`.S.q.<.C.(.`.[.Y.u.9.d.d.Y.[.(.K. X.X^.0.9.V.[.{./.{.(.[..XW.N.E.[.`.",
"}.V.J.S.A.K.K.!.K.H.N.S.Y.e.#.4.r.K.z.s.0.g.a.) @.4.m.A.N.S.N.&.&.z.S.S.S.N.*.+.9.q.N.S.N.z.H.J.d.) ( u.Y.B.N.S.S.J.E.A.u.A.).A.",
"[.N.A.N.l.C.C.H.K.C.N.S.S.e.@.*.<.C.q.q.@.0.9.U I +.r.z.z.N.y.E o.l.N.N.N.y.+.I +.+.w.m.r.6.l.N.s.( ^ u.Y.A.N.S.N.N.N.u.r.N.S.z.",
"$XN.S.A.u.C.H.H.!.H.z.N.N.9.@.*.r.K.r.q.) 0.9.U I +.r.b.N.B.e.E +.l.A.A.A.u.@.I @.&.u.A.u.r.m.A.u.^ U w.S.N.m.A.K.A.N.u.r.A.J.m.",
"}.u.A.z.H $.[ O.} [ +.Y U x J I { O.R I F J U x m L T Y L L L Z n R +.Y L n z L z U Y B Y E R +.E F n I E R { $.:.O.o.B E A.S.u.",
"$Xs.S.A.o.r.<.r.>.:.r.*.*.U ^ ^ &.:.E E ^ ( @.x * ; 2 6 6 6 4 * 6 2 2 t t t t X ; ; ; 2 g ; 2 n t k x b B $.<.&.7.<.r.o.$.S.J.m.",
"}.u.A.N.$.z.l.z.r.<.z.q.w.( @.( >.:.E ^ ( #.@.z & @ @ < r w 4 * 6 6 ; T g o g ; ; & - = z & ; z t 9 t b n { l.z.<.r.C.>.$.A.A.z.",
"}.w.m.z.o.z.7.r.7.>.y.6.q.^ ( E >.:.R I E @.@.g 6 - < r g g u w @ g * Z v ; P 6 w t m 6 P y v m d ; 9 e 2 z :.r.>.r.C.:.$.N.A.u.",
"$Xu.N.m.$.z.<.7.r.<.r.*.9.^ ( ^ 6.6.o.U U +.@.m - = - 6 r g u 5 6 v = Q %.. ; g . * w . r @ * @ q 2 9 = o s } >.<.r.z.&.&.A.S.m.",
"$Xu.N.N.$.z.r.r.l.<.r.&.4.^ +.( 6.r.+.U I ^ @.n @ < 6 8 j W ! Z 7 g # Z p.v 6 v 4 6 y 7 v - - w - % & 2 3 e [ H.<.7.l.$.$.S.J.m.",
"[.e.N.m.+.z.r.l.r.:.q.&.q.^ +.( *.6.+.I L ^ @.z - 8 8 8 A 3.i.Q 5 X.P # p.3X,X%.u S W S Q S P  .B R b e p d [ L.<.7.l.$.$.N.A.u.",
"[.u.N.N.O.z.r.l.r.>.q.*.w.+.@.+.>.r.+.U I +.@.g - 2 $ o r  .Q r + A t.# 7 +XU.b.%.].+XZ.U.;X:X:XXX2X<Xc p <.v.r.<.r.M.:.$.N.A.y.",
"_.B.u.l.>.v.7.<.6.6.4.q.w.@.R { *.r.+.o.B *.*.d & o . . $ @ 6 +   e n.h . 2 2 6 6 r 8 v v A A A o./.1Xt H K.r.:.<.l.l.:.[ A.N.z.",
"[.B.u.r.-.v.>.:.>.q.q.q.q.o.Y o.*.r.$.$.L &.$.t = & 2 @ = o c a     V -.D 2 < a @ $ $ - -         X q d &.7.[ 7.<.l.z.:.{ A.A.N.",
"}.S.z.r.-.v.<.>.:.q.w.w.4.E Y $.&.q.&.*.R *.$.t = 1 N 8 e o Y V = = , { l.n.z.{  .t.D G.T %.g T L n   z { :.} >.<.l.z.<.{ A.A.A.",
"{.V.m.l.-.v.k.r.<.q.w.w.q.o.R $.$.6.$.>.E >.&.z = 2 { h h o { D   f e 2 o B ] h t %.< >.r T 8 B >.q.: k V <.l.>.<.l.z.<.{ C.H.K.",
"V.N.m.r.-.v.<.<.r.q.q.q.w.&.{ $.*.>.+.>.R $.+.f = 1 { c d o ..D $ h B p X 2 O = . d   o @ . + o = 9 2 C } -.<.<.r.l.z.<.} H.K.K.",
"B.N.N.l.-.v.<.<.y.q.*.6.y.>.{ $.>.6.+.*.H R L e 1 & B d 8 $ %.Y   , d p d c $ . - A @ - ; . @ @ X X t d Y } <.l.l.l.l.<.$.K.K.K.",
"d.d.N.r.$.v.l.r.r.6.&.*.y.>.O.$.6.6.$.6.L H C 1 2 = c f < = %.D   B { V B e 8 = 8 %.- ] g 6 ; v 2 , = o s } F.F.l.l.k.<.} L.L.H.",
"w.e.e.6.} v.z.z.6.>.$.*.r.>.} $.<.6.$.r.R L b 1 2 = N N < , { N = B M { >.2 8 . e { t  . .@ 6 S D e   e Y ..v.l.l.k.<.-.} F.D.v.",
"( ^ R L } <.l.l.r.$.+.*.>.&.O.$.r.r.>.:.r.r.} c 2 = 8 e o o ;.]   2 p e 3 = $ < d 2 r 2.%.+ 2 ..[ p 2 f >.-.k.k.<.<.<.=.} =.-.-.",
"9.4.*.&.r.v.v.k.r.:.$.&.>.>.-.$.r.r.:.$.:.r.-.R p 3 e h e $ ] ' e B { ..{ c 3 < d r 2 r.S = 6 %.} f M Y -.-.l.v.l.v.l.h.<.h.x.x.",
"e.4.$.$.<.v.v.v.r.<.>.:.<.r.<.-.l.r.:.{ { -.:.$.f e 8 h h = D D 8 d f f f 8 & $ 8 h 8 OXT d r %.{ p } } } $.r.v.l.z.l.k.h.x.x.x.",
"s.9.*.*.<.l.l.l.r.r.r.<.r.z.k.-.l.r.>.{ R { ..$.M < < d 8 < ..D = p N Y Y d = o r h a &X%.v v t.Y 2 -.$.Y O.<.z.>.r.l.l.x.v.v.x.",
"_.^.`.#X%X|.L.v.r.r.r.7.l.v.k.} l.l.r.$.{ [ { } Y , < p $ p G.] 2 f V { Y d = = h e 6 C.T t c K.V 3 <.$.R $.7.l.z.H.P.|.oX=X=X*X",
"s.e.m.J.P.F.v.v.l.r.<.<.l.l.<.=.l.r.r.>.$.} } ..{ 3 3 8 O f I.{ O < 3 e 3 $ o 1 g $ 2 %. .c r C.M p :.O.[ o.6.r.l.z.C.C.L.P.L.F.",
"V.s.u.N.F.v.P.oXF.l.:.<.l.l.h.,.z.r.<.:.-.$.....Y p < < , 3 ;.N   O 2 d h 3 = 1 a @ 8 T 3.2.6 >.e d { [ [ [ r.y.(.(.K.C.F.L.L.F.",
"V.s.z.C.v.k.v.P.P.z.>.<.l.l.k.k.v.r.:.$.$.} } { c a . . 2 . a e = & o = 2 = $ 2 c 2 8 c >.G.2 %.$ d Y R { [ z.N.(.K.v.l.l.F.L.L.",
"r.>.$.{ $.<.C.P.K.'.H.<.F.j.,.<.v.<.>.>.&.&.{ B 9 e O X t e , e e e - e $ o o < h a D d T :X. h , p f M $.r.M.oXv.P.H.} } } <.<.",
"C.K.P.C.<.-.k.L.v.C.oXF.<.<.F.>.v.<.:.-.$.$.$.R E L d 1 0 t p f e z g B 8 $ o 2 d 3 ..N { :X$ 2 c c } -.} C.|.z.n.l.r.-.v.F.P.|.",
"P.K.!.'.C.<.<.l.H.<.P.oXF.-.l.l.z.<.:.&.{ $.*.$.&.+.[ b e e d p t g d B d 2   $ D < ' h '.%X- = $.k.l.r.C.P.L.k.|.l.<.<.P.K.'.oX",
"K.C.C.P.K.r.-.<.H.z.v.P.=Xk.-.v.k.>.>.:.O.$.>.>.+.+.>.[ 0 3 f s v d 6 g N b $ < ;.d D N 1Xt.= z l.v.l.v.XXP.l.F.v.-.-.<.P.P.XX-X",
"K.H.P.'.M.-.-.l.r.C.F.l.oX|.v.<.<.>.<.r.&.$.*.>.&.$.<.{ 1 , M C a e = 2 h C o , ] D ..C.XXc = V r.-.v.|.L.H.L.l.<.>.<.<.P.P.'.P.",
"P.K.K.K.M.7.r.v.l.>.F.F.F.L.|.l.l.<.r.l.>.$.&.:.$.{ <.-.s , p d O 2 6 1 t c   $ B N >.-X{ B 2 e r.v.P.P.L.H.v.-.F.v.l.<.P.L.l.{ ",
"K.K.H.H.C.z.v.v.F.$.k.F.L.v.P.L.H.l.l.z.>.$.*.<.$.Y &.7.Y 3 , % o d h 3 d Y o , c p v.K.$.$.& e C.oX'.v.P.v.-.<.F.v.k.>.P.P.L.l.",
"C. X=X Xz.<.l.K.v.v.k.} P.L.F.F.'.v.z.l.:.$.:.r.y.[ { >.[ p , =   2 3 X 3 Y X O a 2 @XR ).+.  &.XXv.v.F.k.<.l.l.P.F.v.<.H.K.oX-X",
"C.oX=X'.H.>.K.H.l.C.oX<.-.k.F.v.|.oXl.-.l.<.:.<.>.$.{ -.<.M O , X o p 3 2 V , , Y < H.R (.E t r.v.F.C.r.>.v.L.l.v.P.v.l.K.L.v.'.",
"%X@XK.P.H.l.C.F.F.v.|.v.l.k.c.l.F.|.|.C.} -.C.:.>.$.[ $.,.C , , X = f 3 2 V $ $ >.h r.$X$Xq.).r.H.z.<.-.<.L.P.l.C.K.l.r.H.F.v.P.",
"C.r.[ v.z.z.v.P.P.l.L.F.D.<.<.<.F.v.P.XXr.{ l.l.7.:.} $.-.V p ,   , M 3 2 V = O B X Y z.u.N.&.*.M.<.-.<.z.P.K.l.P.P.v.k.H.L.v.K.",
"H.C.v. XC.l.z.'.P.k.F.D.F.k.,.-.v.F.l.K. Xr.&.l.r.r.<.<.-.' p ,   2 B 1 3 V , O c 3 l m.r.6.u.*.>.-.r.v.C.C.C.v.'.P.v.l.H.K.C.L.",
"'. X-XXXP.l.v.P.P.l.L.v.L.v.l.<.,.L.k.<.P.'.M.-.>.r.z.z.>.' f , X 0 V , p V O O Y o { C.L E m.Y :.>.v.K.F.v.v.v.P.L.z.l.C.H.F.C.",
"z.v.'.l.v.z.F.H.K.z.P.v.L.L.F.k.<.<.<.v.v.K..Xr.:.>.z.v.<.| M 3 $ p V O f C O O <.p '.m.+.6.^ $.z.k.z.F.F.H.F.v.P.F.v.v.C.L.L.F.",
"H.M.K.l.z.C.v.v.F.l.P.F.P.L.F.l.F.-.-.L.v.l.P.H.z.<.r.v.<.} ` f , e M X l C O , <.K.7.q.u.H +.o.C.v.v.F.L.P.K.z.P.F.C.F.F.K.P.L.",
"v.z.C.H.z.P.z.K.H.l.|.P.|.L.F.F.F.P.<.<.H.M.v.K.'.r.r.v.<.-.| M , 2 f   c V = e  XP.l.y.$.o.4.&.l.v.P.P.K.P.K.z.F.v.v.F.C.H.P.H.",
"F.C.F.H.v.k.v.~.L.l.P.L.|.P.P.v.P.M.H.z.O.z.'.v.K.P.k.<.l.l.<.' > i , 1 d ; e r.M.l.z.r.$.*.y.6.K.F.P.L.P.P.P.v.L.L.L.k.v.v.P.L.",
"L.L.L.L.v.k.v.P.P.v.|.L.|.P.P.v.!.K.K.K.v.r.l.v.k. X XP.F.k.D.F.} p 1 d b Y 4.r.N.r.7.>.O.>.z.q.P.F.P.P.|.P.P.v.P.F.L.k.F.F.P.L.",
"L.L.P.L.v.k.v.P.P.v.|.P.|.P.L.v.'.oX XP.K.r.$.<.v.|.'.P.F.<.<.h.h.' 2 1 L @.@.q.z.>.>.>.$.q.s.6.P.v.P.P.|.L.P.F.P.F.D.k.F.F.P.K.",
"L.L.P.L.v.l.v.L.P.v.|.L.P.P.F.l. X%XoXK.C.C.k.-.C.F.l.F.|.P.P.F.P.L.} C +.+.^ q.*.&.r.l.>.q.u.*.P.l.F.P.|.F.P.L.P.D.v.k.L.D.P.L.",
"F.F.L.F.v.v.v.L.P.v.|.L.P.P.F.l.P.H.'.'.C.!.P.>.<.v.v.P.oX|.oX=X*XP.(.N.R U 4.+.+.>.C.C.<.>.y.6.K.l.F.P.|.L.P.L.|.v.v.l.L.v.H.F.",
"F.F.F.F.F.F.v.v.|.F.|.P.|.P.L.z.M.-.v. XH.K.P.k.<.v.l.F.P.L.L.F.P.C.C.u.E J E E >.r.C.N.&.*.u.u.H.l.L.P.|.P.P.L.|.v.v.v.P.v.F.L.",
"P.L.F.F.L.L.F.v.|.F.|.P.|.P.L.z.H.z.C.!.H.C.v.l.l.v.<.k.L.P.P.v.F.K.l.>.@.I I *.u.y.z.z.*.6.m.u.C.l.L.K.|.P.|.F.P.v.D.F.P.v.F.P.",
"P.P.F.F.P.P.F.l.|.D.|.P.|.P.L.l.oX>X%XH.C.C.l.l.H.P.k.-.l.v.P.v.|.l.m.z.J F 4.*.N.r.r.r.6.u.N.q.z.l.L.L.|.P.|.v.P.v.F.L.|.v.L.'.",
"P.L.F.P.P.D.l.k.P.v.F.P.P.L.F.k.M.K.v.'.H.r.K.l.F. Xv.<.=.| -.-.} O.$.+.E I ( 9.N.q.y.6.<.z.y.r.l.k.F.P.P.P.v.F.P.k.k.L.P.L.L.F.",
"P.L.L.P.P.F.v.l.P.v.F.P.P.L.v.r.l.C.z.K.v.<.F.k.v.P.F.l.k.<.k.h.l.z.y.*.E U @.q.u.6.r.>.>.z.u.6.z.k.F.L.P.P.v.F.P.v.v.P.|.P.P.L.",
"F.v.F.P.L.v.k.l.|.F.L.|.|.P.F.k.z.H.v.K.C.r.L.l.v.P.F.F.L.F.F.v.F.K.A.q.^ E @.*.z.r.z.<.r.K.C.r.v.x.F.L.P.|.F.L.L.k.k.F.L.L.L.v.",
"L.L.P.P.P.F.v.v.P.v.F.P.P.P.v.r.M.H.H.P.C.z.L.z.v.P.v.F.P.L.F.v.v.P.K.r.+.+.@.*.z.l.v.k.k.P.C.<.v.k.v.F.P.P.v.v.P.v.v.P.P.P.P.L.",
"L.P.P.P.P.F.F.F.F.l.v.L.L.F.v.<.M.H.H.K.v.z.C.l.H.P.v.F.P.L.F.v.v.P.K.y.@.@.q.r.z.z.F.k.k.P.M.>.k.<.v.F.P.P.l.l.P.v.v.P.P.P.P.L.",
"F.L.L.L.L.F.v.v.L.v.v.P.P.P.L.z.C.H.P.K.v.C.F.l.P.P.v.F.P.P.P.F.P.P.K.r.&.*.y.m.C.v.P.v.c.P.F.k.l.k.L.P.P.P.v.v.L.v.v.L.L.L.P.F.",
"F.F.F.F.F.F.v.l.F.k.l.D.F.F.v.k.l.l.C.v.r.z.v.r.v.F.k.l.F.v.v.v.v.v.z.r.&.&.6.y.v.l.F.c.x.F.v.l.<.<.F.F.F.F.l.v.F.l.v.F.F.L.L.v.",
"<.-.-.-.-.-.} | <.} } -.-.-.-.| { { >.$.{ -.-.} -.<.} -.<.-.-.-.,.,.>.<.&.o.{ $.-.} 1.,.=.1.-.-.| | -.-.-.-.} -.-.} } -.-.-.-.} "
};
